M48
;GenerationSoftware,Autodesk,EAGLE,9.6.2*%
;CreationDate,2025-02-18T12:38:31Z*%
FMAT,2
ICI,OFF
METRIC,TZ,000.000
T3C0.400
T2C2.000
T1C2.500
%
G90
M71
T1
X-100000Y-42500
X100000Y-42500
X100000Y42500
X-100000Y42500
T2
X-53000Y-33500
T3
X58250Y-25850
X46110Y-27810
X50460Y-23700
X71750Y13000
X62430Y6880
X-87840Y12240
X44750Y-29000
X-94850Y8700
X-90290Y24590
X-66930Y24590
X-21400Y-22290
X-22990Y-25250
X41870Y-29460
X51910Y-22210
X21093Y-41532
X21103Y-45200
X21950Y-41520
X21960Y-45190
X-65000Y4000
X-65000Y16000
X-65000Y40000
X-78500Y17500
X-78500Y2500
X-65000Y-27000
X-65000Y-11000
X34320Y-41710
X48540Y-43000
X35177Y-41712
X49147Y-43605
X-92000Y4000
X-39000Y-37750
X-92000Y40000
X-78500Y40000
X-57500Y-22000
X-78500Y-27000
X-92000Y-27000
X-92000Y-11000
X92000Y3500
X92000Y17000
X92000Y40000
X78500Y17000
X78500Y3500
X92000Y-27000
X92000Y-10000
X65000Y3500
X65000Y17000
X65000Y40000
X78500Y40000
X78500Y-10000
X78500Y-27000
X65000Y-27000
X65000Y-10000
X-29000Y-28750
X-16000Y-28750
X10000Y-28750
X23000Y-28750
X49500Y-27420
X52250Y-25430
X36000Y-28750
X-26000Y-37750
X-13000Y-37750
X-92000Y16000
X0Y-37750
X13000Y-37750
X26000Y-37750
X39000Y-37750
X56000Y-27500
X90500Y-24000
X88500Y-25000
X-55500Y-20500
X-78500Y-9500
M30