G04 #@! TF.GenerationSoftware,KiCad,Pcbnew,8.0.5*
G04 #@! TF.CreationDate,2024-11-13T13:26:37+03:00*
G04 #@! TF.ProjectId,Bottom,426f7474-6f6d-42e6-9b69-6361645f7063,rev?*
G04 #@! TF.SameCoordinates,Original*
G04 #@! TF.FileFunction,Soldermask,Bot*
G04 #@! TF.FilePolarity,Negative*
%FSLAX46Y46*%
G04 Gerber Fmt 4.6, Leading zero omitted, Abs format (unit mm)*
G04 Created by KiCad (PCBNEW 8.0.5) date 2024-11-13 13:26:37*
%MOMM*%
%LPD*%
G01*
G04 APERTURE LIST*
%ADD10C,1.000000*%
%ADD11C,0.200000*%
%ADD12C,0.000000*%
%ADD13C,0.140000*%
%ADD14C,0.600000*%
%ADD15C,0.100000*%
%ADD16C,2.500000*%
G04 APERTURE END LIST*
D10*
X166757250Y-103836932D02*
X166757250Y-105670318D01*
X173757459Y-102920219D02*
X173757459Y-106587000D01*
D11*
X129304964Y-138243759D02*
X129288136Y-138306597D01*
X127979020Y-138085553D02*
X127917712Y-135354956D01*
X129655454Y-135248201D02*
X129614138Y-135256420D01*
D10*
X153923800Y-103753660D02*
X153923850Y-106753550D01*
D11*
X127007232Y-134453397D02*
X127060382Y-134435635D01*
D12*
G36*
X152776430Y-137331921D02*
G01*
X152193096Y-137331921D01*
X152076627Y-137351058D01*
X151983861Y-137411620D01*
X151925854Y-137504955D01*
X151901430Y-137623587D01*
X151901430Y-138352754D01*
X152776430Y-138352754D01*
X152776430Y-139081921D01*
X151901430Y-139081921D01*
X151901430Y-139811087D01*
X151172263Y-139811087D01*
X151172263Y-137623587D01*
X151183727Y-137443894D01*
X151216126Y-137286632D01*
X151266470Y-137150305D01*
X151331768Y-137033417D01*
X151409028Y-136934474D01*
X151495260Y-136851980D01*
X151587474Y-136784440D01*
X151682679Y-136730358D01*
X151777884Y-136688238D01*
X151914148Y-136644219D01*
X152033590Y-136618704D01*
X152193096Y-136602754D01*
X152776430Y-136602754D01*
X152776430Y-137331921D01*
G37*
D10*
X161423869Y-103753660D02*
G75*
G02*
X163423931Y-103753660I1000031J0D01*
G01*
D11*
X129719716Y-134869079D02*
X129719716Y-135150843D01*
D10*
X125577869Y-104753632D02*
X123494600Y-104753632D01*
D11*
X126776253Y-135256420D02*
X126734937Y-135248201D01*
X126678894Y-135192158D02*
X126670675Y-135150843D01*
X129401630Y-134478596D02*
X129439511Y-134508225D01*
X127728585Y-134429386D02*
X128661806Y-134429386D01*
D10*
X148423860Y-105753598D02*
G75*
G02*
X146423740Y-105753600I-1000060J-2D01*
G01*
D11*
X126669460Y-134850306D02*
X126660197Y-134832500D01*
X127259029Y-138407185D02*
X127195035Y-138394095D01*
X128411371Y-138085553D02*
X128472680Y-135354956D01*
X128556228Y-134079219D02*
X128597544Y-134087438D01*
D10*
X148423860Y-105753600D02*
X148423860Y-103753660D01*
D11*
X129288136Y-138306597D02*
X129249495Y-138358615D01*
X127102078Y-138306517D02*
X127085176Y-138243451D01*
D12*
G36*
X167860115Y-132787757D02*
G01*
X167860115Y-132787757D01*
G75*
G02*
X169738877Y-133091647I412085J-3411843D01*
G01*
X169738877Y-133091647D01*
G75*
G02*
X171147192Y-134361534I-1401977J-2970653D01*
G01*
X171147192Y-134361534D01*
G75*
G02*
X171584729Y-135332382I-3780292J-2287666D01*
G01*
X171584729Y-135332382D01*
G75*
G02*
X171726185Y-136380398I-3010029J-939818D01*
G01*
X171726185Y-136380398D01*
G75*
G02*
X171511301Y-137415186I-3112985J106698D01*
G01*
X171511301Y-137415186D01*
G75*
G02*
X171000754Y-138348699I-3962401J1560686D01*
G01*
X171000754Y-138348699D01*
G75*
G02*
X170389891Y-139004772I-2937054J2122199D01*
G01*
X170389891Y-139004772D01*
G75*
G02*
X169628361Y-139472544I-1969091J2351972D01*
G01*
X169628361Y-139472544D01*
G75*
G02*
X168760709Y-139710345I-1295561J3025144D01*
G01*
X168760709Y-139710345D01*
G75*
G02*
X167857398Y-139739244I-597909J4558245D01*
G01*
X167857398Y-138677629D01*
G75*
G03*
X168546176Y-138670808I317102J2759829D01*
G01*
X168546176Y-138670808D01*
G75*
G03*
X169205468Y-138479333I-310476J2299808D01*
G01*
X169205468Y-138479333D01*
G75*
G03*
X169778793Y-138109039I-999068J2175833D01*
G01*
X169778793Y-138109039D01*
G75*
G03*
X170227818Y-137594284I-1641793J1885339D01*
G01*
X170227818Y-137594284D01*
G75*
G03*
X170519591Y-136973193I-2037818J1336384D01*
G01*
X170519591Y-136973193D01*
G75*
G03*
X170624411Y-136295356I-2277391J699193D01*
G01*
X170624411Y-136295356D01*
G75*
G03*
X170490769Y-135455986I-2547911J24656D01*
G01*
X170490769Y-135455986D01*
G75*
G03*
X170072490Y-134720345I-2105869J-710614D01*
G01*
X170072490Y-134720345D01*
G75*
G03*
X169621944Y-134294950I-2222190J-1902355D01*
G01*
X169621944Y-134294950D01*
G75*
G03*
X169084373Y-133991426I-1373044J-1804050D01*
G01*
X169084373Y-133991426D01*
G75*
G03*
X168482065Y-133845072I-824173J-2079274D01*
G01*
X168482065Y-133845072D01*
G75*
G03*
X167860115Y-133852582I-277465J-2782928D01*
G01*
X167860115Y-132787757D01*
G37*
D11*
X129469425Y-135322486D02*
X129454006Y-135596355D01*
X129438588Y-135870224D01*
X129423170Y-136144093D01*
X129407752Y-136417962D01*
X129392334Y-136691832D01*
X129376916Y-136965701D01*
X129361497Y-137239571D01*
X129346079Y-137513440D01*
X129330661Y-137787309D01*
X129315242Y-138061179D01*
X129304964Y-138243759D01*
X127728585Y-134184796D02*
X127736804Y-134143481D01*
D10*
X120744600Y-102753700D02*
X119744632Y-102753700D01*
D11*
X129004682Y-135354867D02*
X128881010Y-138085508D01*
X126670675Y-135150843D02*
X126670675Y-134869820D01*
D10*
X162309431Y-104997032D02*
X161425568Y-106753550D01*
X125577891Y-102753700D02*
X123494610Y-102753700D01*
X146423800Y-103753660D02*
X146423800Y-105753600D01*
D11*
X129249495Y-138358615D02*
X129195209Y-138394083D01*
D10*
X138923840Y-105753329D02*
G75*
G02*
X136923760Y-105753331I-1000040J29D01*
G01*
X168507309Y-102253910D02*
X168507309Y-107254059D01*
X150173868Y-103753732D02*
G75*
G02*
X151173900Y-102753668I1000032J32D01*
G01*
D11*
X128597544Y-134087438D02*
X128631078Y-134109946D01*
D10*
X133173791Y-105253618D02*
X131173882Y-105253618D01*
D11*
X126734937Y-135248201D02*
X126701403Y-135225693D01*
X127107899Y-134429386D02*
X127728585Y-134429386D01*
X129272545Y-134430906D02*
X129297769Y-134435392D01*
D13*
X129725916Y-134801890D02*
X129731012Y-134817836D01*
D10*
X150173868Y-103753732D02*
X150173868Y-105753518D01*
D11*
X126958199Y-134480574D02*
X127007232Y-134453397D01*
D10*
X140673850Y-103753850D02*
G75*
G02*
X142673910Y-103753850I1000030J0D01*
G01*
X146423800Y-103753660D02*
G75*
G02*
X148423860Y-103753660I1000030J0D01*
G01*
D11*
X129439511Y-134508225D02*
X129581225Y-134650726D01*
X129706267Y-134776464D01*
D10*
X177257568Y-103836932D02*
X177257568Y-105670318D01*
X162423900Y-105003600D02*
X163423818Y-105003600D01*
X162423900Y-105003599D02*
G75*
G02*
X161423901Y-104003569I0J999999D01*
G01*
X125577860Y-106753568D02*
X125577891Y-102753700D01*
D12*
G36*
X157310935Y-136618704D02*
G01*
X157430377Y-136644219D01*
X157566641Y-136688238D01*
X157661846Y-136730358D01*
X157757051Y-136784440D01*
X157849265Y-136851980D01*
X157935497Y-136934474D01*
X158012757Y-137033417D01*
X158078055Y-137150305D01*
X158128399Y-137286632D01*
X158160798Y-137443894D01*
X158172263Y-137623587D01*
X158172263Y-138790254D01*
X158156312Y-138949759D01*
X158130797Y-139069201D01*
X158086778Y-139205465D01*
X158044658Y-139300670D01*
X157990576Y-139395875D01*
X157923036Y-139488089D01*
X157840542Y-139574321D01*
X157741599Y-139651581D01*
X157624711Y-139716879D01*
X157488384Y-139767223D01*
X157331122Y-139799622D01*
X157151430Y-139811087D01*
X154963930Y-139811087D01*
X154963930Y-139081921D01*
X157151430Y-139081921D01*
X157270061Y-139057496D01*
X157363396Y-138999489D01*
X157423958Y-138906723D01*
X157443096Y-138790254D01*
X157443096Y-137623587D01*
X157418671Y-137504955D01*
X157360664Y-137411620D01*
X157267898Y-137351058D01*
X157151430Y-137331921D01*
X154963930Y-137331921D01*
X154963930Y-136602754D01*
X157151430Y-136602754D01*
X157310935Y-136618704D01*
G37*
D10*
X157673801Y-103753660D02*
G75*
G02*
X159673859Y-103753660I1000029J0D01*
G01*
X131173818Y-103753660D02*
G75*
G02*
X133173882Y-103753660I1000032J0D01*
G01*
X144673741Y-106753550D02*
X144673850Y-103753660D01*
X152173781Y-102753700D02*
X151173900Y-102753700D01*
X136923891Y-105753516D02*
G75*
G02*
X134923909Y-105753518I-999991J16D01*
G01*
D11*
X126921420Y-134511420D02*
X126958199Y-134480574D01*
X126657983Y-134816019D02*
X126680917Y-134773404D01*
D10*
X138923841Y-105753331D02*
X138923791Y-102753441D01*
D11*
X127140720Y-138358622D02*
X127102078Y-138306517D01*
X126669814Y-134855991D02*
X129719812Y-134855991D01*
X127060382Y-134435635D02*
X127107899Y-134429386D01*
D12*
G36*
X139562764Y-134110268D02*
G01*
X139562764Y-134110268D01*
G75*
G02*
X139562764Y-138389816I36J-2139732D01*
G01*
X139562764Y-138389816D01*
G75*
G02*
X138343044Y-138007628I36J2137616D01*
G01*
X138343044Y-138007628D01*
G75*
G02*
X137558069Y-136998284I1224756J1762428D01*
G01*
X138602397Y-136998284D01*
G75*
G03*
X139028414Y-137344624I968503J756184D01*
G01*
X139028414Y-137344624D01*
G75*
G03*
X139562764Y-137468960I534386J1086324D01*
G01*
X139562764Y-137468960D01*
G75*
G03*
X139562764Y-135031124I36J1218960D01*
G01*
X139562764Y-135031124D01*
G75*
G03*
X139039197Y-135149931I-64J-1212876D01*
G01*
X139039197Y-135149931D01*
G75*
G03*
X138617214Y-135482292I529303J-1106069D01*
G01*
X137565971Y-135482292D01*
G75*
G02*
X138351870Y-134486562I2002229J-772308D01*
G01*
X138351870Y-134486562D01*
G75*
G02*
X139562764Y-134110268I1210830J-1759938D01*
G01*
X139562764Y-134110268D01*
G37*
D11*
X129711497Y-135192158D02*
X129688988Y-135225693D01*
D10*
X120744600Y-106753581D02*
G75*
G02*
X120744600Y-104753619I0J999981D01*
G01*
X134923941Y-102753632D02*
X134923841Y-105753518D01*
D12*
G36*
X155693096Y-134998587D02*
G01*
X155712233Y-135115056D01*
X155772795Y-135207822D01*
X155866130Y-135265829D01*
X155984763Y-135290254D01*
X157151430Y-135290254D01*
X157267898Y-135271116D01*
X157360664Y-135210554D01*
X157418671Y-135117219D01*
X157443096Y-134998587D01*
X157443096Y-132811087D01*
X158172263Y-132811087D01*
X158172263Y-134998587D01*
X158160798Y-135178279D01*
X158128399Y-135335541D01*
X158078055Y-135471869D01*
X158012757Y-135588756D01*
X157935497Y-135687699D01*
X157849265Y-135770193D01*
X157757051Y-135837734D01*
X157661846Y-135891816D01*
X157566641Y-135933936D01*
X157430377Y-135977955D01*
X157310935Y-136003470D01*
X157151430Y-136019421D01*
X155984763Y-136019421D01*
X155805070Y-136007956D01*
X155647808Y-135975557D01*
X155511481Y-135925213D01*
X155394593Y-135859915D01*
X155295650Y-135782655D01*
X155213156Y-135696422D01*
X155145616Y-135604208D01*
X155091534Y-135509004D01*
X155049414Y-135413799D01*
X155005395Y-135277534D01*
X154979880Y-135158092D01*
X154963930Y-134998587D01*
X154963930Y-132811087D01*
X155693096Y-132811087D01*
X155693096Y-134998587D01*
G37*
D11*
X126701403Y-135225693D02*
X126678894Y-135192158D01*
D10*
X120744600Y-102753699D02*
G75*
G02*
X120744600Y-104753701I0J-1000001D01*
G01*
X151173900Y-106753550D02*
X152173781Y-106753550D01*
D14*
X131507071Y-136243338D02*
G75*
G02*
X124881963Y-136243338I-3312554J0D01*
G01*
X124881963Y-136243338D02*
G75*
G02*
X131507071Y-136243338I3312554J0D01*
G01*
D10*
X159673768Y-105253618D02*
X157673859Y-105253618D01*
X163423818Y-106753550D02*
X163423931Y-103753660D01*
X133173769Y-106753550D02*
X133173882Y-103753660D01*
X140673850Y-103753850D02*
X140673891Y-106753740D01*
D11*
X128661806Y-134429386D02*
X129250142Y-134429386D01*
X126917252Y-135256420D02*
X126776253Y-135256420D01*
D13*
X129706267Y-134776464D02*
X129725916Y-134801890D01*
X129728054Y-134835947D02*
X129719845Y-134851530D01*
D10*
X128375841Y-106753581D02*
X127304050Y-102753632D01*
D11*
X126920967Y-135322491D02*
X126917252Y-135256420D01*
X129195209Y-138394083D02*
X129131362Y-138407185D01*
X127792847Y-134087438D02*
X127834163Y-134079219D01*
D10*
X159673750Y-106753550D02*
X159673859Y-103753660D01*
D13*
X129473144Y-135256420D02*
X129469425Y-135322486D01*
D11*
X127195035Y-138394095D02*
X127140720Y-138358622D01*
D12*
G36*
X153651430Y-133977754D02*
G01*
X153651430Y-132811087D01*
X154380596Y-132811087D01*
X154380596Y-136019421D01*
X153651430Y-136019421D01*
X153651430Y-134852754D01*
X152193096Y-136019421D01*
X151172263Y-136019421D01*
X153213930Y-134415254D01*
X151172263Y-132811087D01*
X152193096Y-132811087D01*
X153651430Y-133977754D01*
G37*
D10*
X153923801Y-103753660D02*
G75*
G02*
X155923859Y-103753660I1000029J0D01*
G01*
D11*
X128631078Y-134109946D02*
X128653587Y-134143481D01*
D13*
X129731012Y-134817836D02*
X129729765Y-134832255D01*
D11*
X127728585Y-134429386D02*
X127728585Y-134184796D01*
X127085176Y-138243451D02*
X127069781Y-137969611D01*
X127054386Y-137695771D01*
X127038992Y-137421931D01*
X127023597Y-137148091D01*
X127008203Y-136874251D01*
X126992808Y-136600410D01*
X126977413Y-136326570D01*
X126962019Y-136052730D01*
X126946624Y-135778890D01*
X126931230Y-135505050D01*
X126920967Y-135322491D01*
D10*
X155923759Y-106753550D02*
X155923859Y-103753660D01*
X123494610Y-106753581D02*
X125577860Y-106753568D01*
D11*
X127834163Y-134079219D02*
X128556228Y-134079219D01*
D10*
X136923891Y-105753518D02*
X136923850Y-102753632D01*
X175507518Y-102003900D02*
X175507518Y-107504059D01*
X151173900Y-106753550D02*
G75*
G02*
X150173850Y-105753518I0J1000050D01*
G01*
D11*
X126670675Y-134869820D02*
X126669460Y-134850306D01*
D10*
X131173819Y-103753660D02*
X131173860Y-106753550D01*
X172007409Y-101420550D02*
X172007409Y-108087418D01*
D11*
X127736804Y-134143481D02*
X127759313Y-134109946D01*
X129719716Y-135150843D02*
X129711497Y-135192158D01*
D10*
X129447619Y-102753632D02*
X128375841Y-106753581D01*
D11*
X126680917Y-134773404D02*
X126816199Y-134626038D01*
X126921420Y-134511420D01*
X129131362Y-138407185D02*
X127259029Y-138407185D01*
D10*
X152173781Y-106753550D02*
X152173781Y-102753700D01*
X142673790Y-103753660D02*
G75*
G02*
X144673850Y-103753660I1000030J0D01*
G01*
X170257359Y-100253969D02*
X170257359Y-109254240D01*
D14*
X130536846Y-133901008D02*
X125852187Y-138585667D01*
D12*
G36*
X153519268Y-136618704D02*
G01*
X153638710Y-136644219D01*
X153774974Y-136688238D01*
X153870179Y-136730358D01*
X153965384Y-136784440D01*
X154057598Y-136851980D01*
X154143830Y-136934474D01*
X154221090Y-137033417D01*
X154286388Y-137150305D01*
X154336732Y-137286632D01*
X154369131Y-137443894D01*
X154380596Y-137623587D01*
X154380596Y-139811087D01*
X153651430Y-139811087D01*
X153651430Y-139081921D01*
X152776430Y-139081921D01*
X152776430Y-138352754D01*
X153651430Y-138352754D01*
X153651430Y-137623587D01*
X153627005Y-137504955D01*
X153568998Y-137411620D01*
X153476232Y-137351058D01*
X153359763Y-137331921D01*
X152776430Y-137331921D01*
X152776430Y-136602754D01*
X153359763Y-136602754D01*
X153519268Y-136618704D01*
G37*
D11*
X129614138Y-135256420D02*
X129473144Y-135256420D01*
X128653587Y-134143481D02*
X128661806Y-134184796D01*
D13*
X129729765Y-134832255D02*
X129728054Y-134835947D01*
D11*
X127385709Y-135354867D02*
X127509381Y-138085508D01*
D12*
G36*
X162922263Y-132773904D02*
G01*
X162922263Y-132773904D01*
G75*
G02*
X164801084Y-133077972I411637J-3413096D01*
G01*
X164801084Y-133077972D01*
G75*
G02*
X166209341Y-134347928I-1401584J-2970028D01*
G01*
X166209341Y-134347928D01*
G75*
G02*
X166646870Y-135318716I-3780641J-2287872D01*
G01*
X166646870Y-135318716D01*
G75*
G02*
X166788333Y-136366668I-3010370J-939884D01*
G01*
X166788333Y-136366668D01*
G75*
G02*
X166573440Y-137401391I-3113333J106868D01*
G01*
X166573440Y-137401391D01*
G75*
G02*
X166062903Y-138334846I-3962740J1560991D01*
G01*
X166062903Y-138334846D01*
G75*
G02*
X165452068Y-138990994I-2936703J2121446D01*
G01*
X165452068Y-138990994D01*
G75*
G02*
X164690509Y-139458783I-1968468J2350794D01*
G01*
X164690509Y-139458783D01*
G75*
G02*
X163822853Y-139696526I-1295309J3025283D01*
G01*
X163822853Y-139696526D01*
G75*
G02*
X162919547Y-139725390I-597853J4560726D01*
G01*
X162919547Y-138664023D01*
G75*
G03*
X163608299Y-138657030I316353J2766123D01*
G01*
X163608299Y-138657030D01*
G75*
G03*
X164267616Y-138465726I-310799J2303130D01*
G01*
X164267616Y-138465726D01*
G75*
G03*
X164840905Y-138095355I-1003416J2182026D01*
G01*
X164840905Y-138095355D01*
G75*
G03*
X165289966Y-137580677I-1639905J1884155D01*
G01*
X165289966Y-137580677D01*
G75*
G03*
X165501567Y-137184106I-2088066J1368877D01*
G01*
X165501567Y-137184106D01*
G75*
G03*
X165635689Y-136755389I-2139467J904606D01*
G01*
X163660133Y-136755389D01*
X163660133Y-135725384D01*
X165634207Y-135725384D01*
G75*
G03*
X165448957Y-135184247I-2238807J-464116D01*
G01*
X165448957Y-135184247D01*
G75*
G03*
X165134638Y-134706491I-2032657J-995053D01*
G01*
X165134638Y-134706491D01*
G75*
G03*
X164684070Y-134281219I-2222338J-1903209D01*
G01*
X164684070Y-134281219D01*
G75*
G03*
X164146521Y-133977789I-1372770J-1804181D01*
G01*
X164146521Y-133977789D01*
G75*
G03*
X163544209Y-133831461I-823921J-2078811D01*
G01*
X163544209Y-133831461D01*
G75*
G03*
X162922263Y-133838975I-277409J-2784539D01*
G01*
X162922263Y-132773904D01*
G37*
G36*
X145807619Y-132758357D02*
G01*
X145912788Y-132782608D01*
X146011509Y-132821522D01*
X146102549Y-132873869D01*
X146184677Y-132938418D01*
X146256661Y-133013939D01*
X146317268Y-133099200D01*
X146365268Y-133192971D01*
X146399429Y-133294022D01*
X146422263Y-133475275D01*
X146422263Y-139750134D01*
X145305580Y-139750134D01*
X145305580Y-139561993D01*
X145305580Y-139373852D01*
X145305580Y-139185711D01*
X145305580Y-138997570D01*
X145305580Y-138809429D01*
X145305580Y-138621289D01*
X145305580Y-138433148D01*
X145305580Y-138245007D01*
X145305580Y-138056866D01*
X145305580Y-137868725D01*
X145305580Y-137680585D01*
X145305580Y-137492444D01*
X145305580Y-137304303D01*
X145305580Y-137116162D01*
X145305580Y-136739881D01*
X145160145Y-136739881D01*
X145014710Y-136739881D01*
X144869275Y-136739881D01*
X144723840Y-136739881D01*
X144578406Y-136739881D01*
X144432971Y-136739881D01*
X144287536Y-136739881D01*
X144142101Y-136739881D01*
X143996666Y-136739881D01*
X143851231Y-136739881D01*
X143705796Y-136739881D01*
X143560362Y-136739881D01*
X143414927Y-136739881D01*
X143269492Y-136739881D01*
X142978623Y-136739881D01*
X142952743Y-136895465D01*
X142919988Y-137048644D01*
X142880524Y-137199251D01*
X142834516Y-137347120D01*
X142782131Y-137492084D01*
X142723533Y-137633978D01*
X142658890Y-137772635D01*
X142588366Y-137907889D01*
X142512127Y-138039575D01*
X142430339Y-138167525D01*
X142343168Y-138291574D01*
X142250780Y-138411557D01*
X142153340Y-138527305D01*
X142051014Y-138638654D01*
X141943968Y-138745438D01*
X141832368Y-138847490D01*
X141716379Y-138944644D01*
X141596168Y-139036733D01*
X141471899Y-139123593D01*
X141343739Y-139205057D01*
X141211854Y-139280958D01*
X141076409Y-139351130D01*
X140937570Y-139415408D01*
X140795502Y-139473625D01*
X140650373Y-139525615D01*
X140502346Y-139571212D01*
X140351589Y-139610250D01*
X140198266Y-139642563D01*
X140042544Y-139667984D01*
X139884589Y-139686348D01*
X139562640Y-139701239D01*
X139434406Y-139698887D01*
X139307338Y-139691888D01*
X139181519Y-139680324D01*
X139057029Y-139664276D01*
X138933953Y-139643828D01*
X138812371Y-139619062D01*
X138692366Y-139590059D01*
X138574021Y-139556903D01*
X138457416Y-139519676D01*
X138342636Y-139478459D01*
X138229761Y-139433336D01*
X138118874Y-139384389D01*
X138010058Y-139331699D01*
X137903393Y-139275350D01*
X137798964Y-139215424D01*
X137696851Y-139152003D01*
X137597137Y-139085169D01*
X137499905Y-139015005D01*
X137405236Y-138941593D01*
X137313212Y-138865015D01*
X137223917Y-138785354D01*
X137137431Y-138702693D01*
X137053838Y-138617112D01*
X136973219Y-138528696D01*
X136895657Y-138437525D01*
X136821234Y-138343683D01*
X136750031Y-138247252D01*
X136682133Y-138148314D01*
X136617619Y-138046951D01*
X136556573Y-137943246D01*
X136445214Y-137729140D01*
X136578502Y-137729140D01*
X136711790Y-137729140D01*
X136845078Y-137729140D01*
X136978366Y-137729140D01*
X137111654Y-137729140D01*
X137244943Y-137729140D01*
X137511520Y-137729140D01*
X137601105Y-137845776D01*
X137697151Y-137956949D01*
X137799378Y-138062372D01*
X137907502Y-138161763D01*
X138021244Y-138254837D01*
X138140322Y-138341308D01*
X138264453Y-138420894D01*
X138393358Y-138493309D01*
X138526753Y-138558270D01*
X138664359Y-138615492D01*
X138805893Y-138664691D01*
X138951074Y-138705581D01*
X139099621Y-138737880D01*
X139251251Y-138761303D01*
X139562640Y-138780383D01*
X139692654Y-138777084D01*
X139820985Y-138767296D01*
X139947472Y-138751177D01*
X140071955Y-138728889D01*
X140194273Y-138700591D01*
X140314266Y-138666444D01*
X140431773Y-138626607D01*
X140546636Y-138581241D01*
X140658693Y-138530506D01*
X140767784Y-138474561D01*
X140873749Y-138413568D01*
X140976427Y-138347685D01*
X141075659Y-138277074D01*
X141171284Y-138201894D01*
X141263142Y-138122306D01*
X141351073Y-138038469D01*
X141434916Y-137950543D01*
X141514511Y-137858690D01*
X141589698Y-137763068D01*
X141660317Y-137663839D01*
X141726207Y-137561161D01*
X141787208Y-137455196D01*
X141843160Y-137346103D01*
X141893903Y-137234043D01*
X141939277Y-137119175D01*
X141979120Y-137001660D01*
X142013273Y-136881658D01*
X142041576Y-136759329D01*
X142063868Y-136634832D01*
X142079990Y-136508329D01*
X142093080Y-136249943D01*
X142089780Y-136119928D01*
X142079990Y-135991599D01*
X142063868Y-135865116D01*
X142041576Y-135740638D01*
X142013273Y-135618326D01*
X141979120Y-135498339D01*
X141939277Y-135380839D01*
X141893903Y-135265985D01*
X141843160Y-135153937D01*
X141787208Y-135044855D01*
X141726207Y-134938901D01*
X141660317Y-134836233D01*
X141589698Y-134737012D01*
X141514511Y-134641398D01*
X141434916Y-134549552D01*
X141351073Y-134461633D01*
X141263142Y-134377801D01*
X141171284Y-134298217D01*
X141075659Y-134223042D01*
X140976427Y-134152434D01*
X140873749Y-134086554D01*
X140767784Y-134025563D01*
X140658693Y-133969621D01*
X140546636Y-133918887D01*
X140431773Y-133873522D01*
X140314266Y-133833686D01*
X140194273Y-133799540D01*
X140071955Y-133771242D01*
X139947472Y-133748954D01*
X139820985Y-133732836D01*
X139562640Y-133719750D01*
X139409513Y-133724330D01*
X139258773Y-133737897D01*
X139110681Y-133760188D01*
X138965501Y-133790939D01*
X138823493Y-133829889D01*
X138684921Y-133876775D01*
X138550047Y-133931333D01*
X138419133Y-133993303D01*
X138292440Y-134062420D01*
X138170232Y-134138422D01*
X138052771Y-134221047D01*
X137940319Y-134310032D01*
X137833138Y-134405114D01*
X137731490Y-134506031D01*
X137545845Y-134724320D01*
X137444813Y-134724320D01*
X137343782Y-134724320D01*
X137242751Y-134724320D01*
X137141720Y-134724320D01*
X137040689Y-134724320D01*
X136939658Y-134724320D01*
X136838626Y-134724320D01*
X136737595Y-134724320D01*
X136636564Y-134724320D01*
X136468180Y-134724320D01*
X136522856Y-134618527D01*
X136581031Y-134514888D01*
X136642627Y-134413480D01*
X136707566Y-134314383D01*
X136775767Y-134217675D01*
X136847152Y-134123437D01*
X136921643Y-134031746D01*
X136999160Y-133942683D01*
X137079625Y-133856325D01*
X137162959Y-133772753D01*
X137249083Y-133692046D01*
X137337919Y-133614281D01*
X137429387Y-133539539D01*
X137523409Y-133467899D01*
X137619906Y-133399439D01*
X137718798Y-133334239D01*
X137820008Y-133272378D01*
X137923457Y-133213934D01*
X138029065Y-133158988D01*
X138136754Y-133107618D01*
X138246445Y-133059903D01*
X138358059Y-133015922D01*
X138471518Y-132975754D01*
X138586742Y-132939479D01*
X138703653Y-132907175D01*
X138822172Y-132878922D01*
X138942220Y-132854799D01*
X139063719Y-132834884D01*
X139186589Y-132819257D01*
X139310751Y-132807997D01*
X139562640Y-132798895D01*
X139725068Y-132802669D01*
X139885582Y-132813881D01*
X140044013Y-132832362D01*
X140200194Y-132857945D01*
X140353958Y-132890462D01*
X140505138Y-132929744D01*
X140653566Y-132975625D01*
X140799075Y-133027935D01*
X140941498Y-133086509D01*
X141080667Y-133151176D01*
X141216415Y-133221770D01*
X141348575Y-133298124D01*
X141476979Y-133380068D01*
X141601461Y-133467435D01*
X141721852Y-133560057D01*
X141837986Y-133657767D01*
X141949695Y-133760397D01*
X142056812Y-133867778D01*
X142159170Y-133979743D01*
X142256601Y-134096124D01*
X142348938Y-134216754D01*
X142436014Y-134341464D01*
X142517662Y-134470086D01*
X142593713Y-134602453D01*
X142664001Y-134738397D01*
X142728359Y-134877750D01*
X142786619Y-135020344D01*
X142838614Y-135166011D01*
X142884177Y-135314584D01*
X142923140Y-135465894D01*
X142980598Y-135776057D01*
X143125909Y-135776057D01*
X143271220Y-135776057D01*
X143416532Y-135776057D01*
X143561843Y-135776057D01*
X143707154Y-135776057D01*
X143852466Y-135776057D01*
X143997777Y-135776057D01*
X144143089Y-135776057D01*
X144288400Y-135776057D01*
X144433711Y-135776057D01*
X144579023Y-135776057D01*
X144724334Y-135776057D01*
X144869645Y-135776057D01*
X145014957Y-135776057D01*
X145305580Y-135776057D01*
X145305580Y-135658249D01*
X145305580Y-135540441D01*
X145305580Y-135422633D01*
X145305580Y-135304825D01*
X145305580Y-135187017D01*
X145305580Y-135069209D01*
X145305580Y-134951401D01*
X145305580Y-134833593D01*
X145305580Y-134715785D01*
X145305580Y-134597977D01*
X145305580Y-134480169D01*
X145305580Y-134362361D01*
X145305580Y-134244553D01*
X145305580Y-134126745D01*
X145305580Y-133891130D01*
X145272391Y-133791286D01*
X145138646Y-133724195D01*
X144987809Y-133724195D01*
X144836972Y-133724195D01*
X144686135Y-133724195D01*
X144535298Y-133724195D01*
X144384462Y-133724195D01*
X144233625Y-133724195D01*
X144082788Y-133724195D01*
X143931952Y-133724195D01*
X143781115Y-133724195D01*
X143630278Y-133724195D01*
X143479441Y-133724195D01*
X143328605Y-133724195D01*
X143177768Y-133724195D01*
X143026931Y-133724195D01*
X142725258Y-133724195D01*
X142725258Y-133602420D01*
X142725258Y-133480646D01*
X142725258Y-133358872D01*
X142725258Y-133237097D01*
X142725258Y-133115323D01*
X142725258Y-132993548D01*
X142725258Y-132750000D01*
X142911006Y-132750000D01*
X143096755Y-132750000D01*
X143282503Y-132750000D01*
X143468252Y-132750000D01*
X143654000Y-132750000D01*
X143839749Y-132750000D01*
X144025497Y-132750000D01*
X144211246Y-132750000D01*
X144396994Y-132750000D01*
X144582742Y-132750000D01*
X144768491Y-132750000D01*
X144954239Y-132750000D01*
X145139988Y-132750000D01*
X145325736Y-132750000D01*
X145697234Y-132750000D01*
X145807619Y-132758357D01*
G37*
D11*
X127759313Y-134109946D02*
X127792847Y-134087438D01*
D10*
X161423868Y-103753660D02*
X161423868Y-104003569D01*
D11*
X126660197Y-134832500D02*
X126657983Y-134816019D01*
X129688988Y-135225693D02*
X129655454Y-135248201D01*
D13*
X129719845Y-134851530D02*
X129719716Y-134869079D01*
D10*
X121744560Y-106753581D02*
X120744600Y-106753581D01*
D11*
X129250142Y-134429386D02*
X129272545Y-134430906D01*
X128661806Y-134184796D02*
X128661806Y-134429386D01*
X129351590Y-134452481D02*
X129401630Y-134478596D01*
X129297769Y-134435392D02*
X129351590Y-134452481D01*
D10*
X142673791Y-103753660D02*
X142673832Y-106753550D01*
X157673800Y-103753660D02*
X157673840Y-106753550D01*
D15*
G36*
X171509935Y-141631710D02*
G01*
X171539781Y-141653930D01*
X171572522Y-141724203D01*
X171574610Y-141753874D01*
X171574610Y-143030812D01*
X171559165Y-143105319D01*
X171542052Y-143130756D01*
X171472524Y-143165095D01*
X171437944Y-143167478D01*
X171012424Y-143167478D01*
X170930235Y-143162930D01*
X170852258Y-143149421D01*
X170778390Y-143127152D01*
X170739092Y-143111071D01*
X170664994Y-143072119D01*
X170597676Y-143024212D01*
X170537484Y-142967488D01*
X170526332Y-142955097D01*
X170479519Y-142893448D01*
X170438473Y-142825206D01*
X170403749Y-142750070D01*
X170387394Y-142705237D01*
X170365851Y-142630284D01*
X170350199Y-142552244D01*
X170340652Y-142470726D01*
X170337422Y-142385340D01*
X170617569Y-142385340D01*
X170620732Y-142467201D01*
X170630530Y-142542998D01*
X170645583Y-142607185D01*
X170671118Y-142683293D01*
X170708260Y-142755124D01*
X170723949Y-142778302D01*
X170778345Y-142838255D01*
X170844485Y-142883204D01*
X170854179Y-142888089D01*
X170930020Y-142915505D01*
X171011125Y-142926346D01*
X171029838Y-142926704D01*
X171301278Y-142926704D01*
X171301278Y-141860254D01*
X171040817Y-141860254D01*
X170955521Y-141866807D01*
X170879182Y-141886594D01*
X170803241Y-141925655D01*
X170739731Y-141982533D01*
X170725841Y-141999570D01*
X170683906Y-142065900D01*
X170652089Y-142142241D01*
X170632961Y-142215732D01*
X170621429Y-142296740D01*
X170617569Y-142385340D01*
X170337422Y-142385340D01*
X170340297Y-142299852D01*
X170349063Y-142217914D01*
X170363934Y-142139809D01*
X170385123Y-142065821D01*
X170415729Y-141988045D01*
X170452574Y-141917119D01*
X170495606Y-141853246D01*
X170522167Y-141820882D01*
X170580782Y-141764292D01*
X170647175Y-141716241D01*
X170721138Y-141676176D01*
X170736820Y-141669073D01*
X170808563Y-141643818D01*
X170884691Y-141626829D01*
X170965457Y-141618105D01*
X171012424Y-141616829D01*
X171435672Y-141616829D01*
X171509935Y-141631710D01*
G37*
G36*
X169137335Y-142926704D02*
G01*
X169793029Y-142926704D01*
X169793029Y-142489069D01*
X169376217Y-142489069D01*
X169302111Y-142472501D01*
X169278544Y-142456890D01*
X169243167Y-142387687D01*
X169241822Y-142367546D01*
X169264488Y-142294166D01*
X169278544Y-142278581D01*
X169351551Y-142249843D01*
X169376217Y-142248295D01*
X169793029Y-142248295D01*
X169793029Y-141860254D01*
X169139606Y-141860254D01*
X169065606Y-141841887D01*
X169046476Y-141827696D01*
X169012818Y-141758696D01*
X169011647Y-141738731D01*
X169032653Y-141664976D01*
X169046476Y-141649387D01*
X169118576Y-141617985D01*
X169139606Y-141616829D01*
X169927424Y-141616829D01*
X170001409Y-141633200D01*
X170029261Y-141653930D01*
X170063918Y-141724523D01*
X170066361Y-141753874D01*
X170066361Y-143030812D01*
X170046810Y-143107138D01*
X170029261Y-143130756D01*
X169960106Y-143165095D01*
X169929695Y-143167478D01*
X169137335Y-143167478D01*
X169063335Y-143149431D01*
X169044205Y-143135299D01*
X169012803Y-143066096D01*
X169011647Y-143045955D01*
X169033187Y-142971425D01*
X169044205Y-142959261D01*
X169116304Y-142927859D01*
X169137335Y-142926704D01*
G37*
G36*
X168271909Y-142900582D02*
G01*
X168349038Y-142895630D01*
X168384725Y-142889603D01*
X168459078Y-142868367D01*
X168477855Y-142861210D01*
X168545546Y-142822228D01*
X168551677Y-142817295D01*
X168612983Y-142771937D01*
X168619064Y-142766945D01*
X168669036Y-142738551D01*
X168725444Y-142727573D01*
X168762166Y-142734387D01*
X168803430Y-142755966D01*
X168838259Y-142799881D01*
X168853403Y-142865753D01*
X168829552Y-142937683D01*
X168779580Y-142996362D01*
X168720867Y-143046035D01*
X168701593Y-143059206D01*
X168635475Y-143096315D01*
X168595213Y-143113342D01*
X168520556Y-143138155D01*
X168462712Y-143152335D01*
X168384583Y-143164024D01*
X168305412Y-143167466D01*
X168299924Y-143167478D01*
X168222003Y-143164853D01*
X168141756Y-143155237D01*
X168061741Y-143135474D01*
X168048170Y-143130756D01*
X167973006Y-143100252D01*
X167903139Y-143058914D01*
X167870240Y-143033084D01*
X167814095Y-142975196D01*
X167771510Y-142909728D01*
X167761967Y-142889603D01*
X167736815Y-142816404D01*
X167725467Y-142739400D01*
X167724866Y-142716594D01*
X167730316Y-142636013D01*
X167748615Y-142561111D01*
X167763860Y-142526170D01*
X167807858Y-142461104D01*
X167864119Y-142404353D01*
X167867968Y-142401240D01*
X167934740Y-142356710D01*
X168006358Y-142323983D01*
X168011449Y-142322117D01*
X168087617Y-142295892D01*
X168164019Y-142272428D01*
X168174236Y-142269495D01*
X168251769Y-142248357D01*
X168328236Y-142224530D01*
X168405555Y-142194669D01*
X168447569Y-142173337D01*
X168507199Y-142124728D01*
X168534180Y-142048971D01*
X168534263Y-142043864D01*
X168512006Y-141971014D01*
X168477855Y-141932184D01*
X168406351Y-141895793D01*
X168331280Y-141884819D01*
X168302195Y-141884104D01*
X168226385Y-141888736D01*
X168204523Y-141892812D01*
X168132972Y-141914769D01*
X168078457Y-141940891D01*
X168033027Y-141969284D01*
X167981162Y-141995784D01*
X167917940Y-142006763D01*
X167874782Y-141998056D01*
X167833518Y-141976098D01*
X167800960Y-141934455D01*
X167787710Y-141873126D01*
X167806207Y-141799481D01*
X167807396Y-141797032D01*
X167859490Y-141739109D01*
X167876675Y-141727752D01*
X167945959Y-141688558D01*
X168016912Y-141657949D01*
X168045899Y-141647494D01*
X168123173Y-141629141D01*
X168204542Y-141619384D01*
X168278345Y-141616829D01*
X168357782Y-141620623D01*
X168434703Y-141632481D01*
X168484291Y-141645223D01*
X168559491Y-141672569D01*
X168626983Y-141708046D01*
X168655786Y-141727752D01*
X168714300Y-141780913D01*
X168759934Y-141842987D01*
X168770873Y-141862147D01*
X168800372Y-141937890D01*
X168813307Y-142014841D01*
X168814409Y-142046135D01*
X168808846Y-142124397D01*
X168789824Y-142198059D01*
X168779580Y-142221416D01*
X168740492Y-142288424D01*
X168688343Y-142344075D01*
X168624979Y-142389835D01*
X168556555Y-142425284D01*
X168551677Y-142427362D01*
X168476839Y-142457448D01*
X168403013Y-142480107D01*
X168386618Y-142484527D01*
X168313050Y-142504018D01*
X168237727Y-142525959D01*
X168208687Y-142534877D01*
X168136457Y-142562408D01*
X168091707Y-142585228D01*
X168034163Y-142636422D01*
X168026592Y-142646557D01*
X168006981Y-142721876D01*
X168006906Y-142727573D01*
X168027434Y-142802352D01*
X168028863Y-142804424D01*
X168084941Y-142857512D01*
X168087164Y-142858939D01*
X168159952Y-142887075D01*
X168171965Y-142889603D01*
X168249355Y-142900000D01*
X168271909Y-142900582D01*
G37*
G36*
X167467813Y-141758417D02*
G01*
X167467813Y-143025891D01*
X167449271Y-143101362D01*
X167428819Y-143127349D01*
X167360463Y-143164988D01*
X167331147Y-143167478D01*
X167257647Y-143148567D01*
X167231203Y-143127349D01*
X167196865Y-143056277D01*
X167194481Y-143025891D01*
X167194481Y-141758417D01*
X167212117Y-141682407D01*
X167231203Y-141655066D01*
X167298345Y-141620005D01*
X167331147Y-141616829D01*
X167406629Y-141636967D01*
X167428819Y-141655066D01*
X167464685Y-141724593D01*
X167467813Y-141758417D01*
G37*
G36*
X165725604Y-142343696D02*
G01*
X166105316Y-142343696D01*
X166179823Y-142359141D01*
X166205260Y-142376254D01*
X166240981Y-142445652D01*
X166242361Y-142465598D01*
X166217541Y-142539284D01*
X166205260Y-142552292D01*
X166134987Y-142582797D01*
X166105316Y-142584849D01*
X165840691Y-142584849D01*
X165851596Y-142664198D01*
X165880176Y-142739395D01*
X165925885Y-142801276D01*
X165942907Y-142817295D01*
X166010344Y-142860936D01*
X166082191Y-142886651D01*
X166164920Y-142899255D01*
X166205260Y-142900582D01*
X166285352Y-142893318D01*
X166360660Y-142872032D01*
X166381299Y-142863482D01*
X166447543Y-142825567D01*
X166508719Y-142772250D01*
X166519857Y-142760130D01*
X166566348Y-142697649D01*
X166602593Y-142624870D01*
X166611094Y-142602264D01*
X166632120Y-142524819D01*
X166642080Y-142447807D01*
X166643652Y-142400483D01*
X166640488Y-142323798D01*
X166629455Y-142245258D01*
X166615637Y-142189994D01*
X166586651Y-142117287D01*
X166545442Y-142049119D01*
X166528565Y-142026828D01*
X166474412Y-141972512D01*
X166409743Y-141930805D01*
X166389627Y-141921205D01*
X166314656Y-141896210D01*
X166237257Y-141885065D01*
X166205260Y-141884104D01*
X166124553Y-141890413D01*
X166047212Y-141911110D01*
X166009915Y-141928019D01*
X165944424Y-141972699D01*
X165888890Y-142026041D01*
X165869085Y-142049164D01*
X165809985Y-142098673D01*
X165808134Y-142099514D01*
X165743019Y-142115036D01*
X165670392Y-142090013D01*
X165656325Y-142077557D01*
X165622182Y-142007723D01*
X165621496Y-141982913D01*
X165636639Y-141908333D01*
X165680299Y-141846088D01*
X165699861Y-141827696D01*
X165755819Y-141774737D01*
X165820625Y-141724956D01*
X165887003Y-141685501D01*
X165931928Y-141664909D01*
X166010953Y-141639331D01*
X166088581Y-141624616D01*
X166172424Y-141617560D01*
X166211696Y-141616829D01*
X166294489Y-141621012D01*
X166374176Y-141633764D01*
X166450707Y-141655387D01*
X166491843Y-141671344D01*
X166562467Y-141706003D01*
X166628010Y-141747979D01*
X166688420Y-141797220D01*
X166719746Y-141827696D01*
X166769707Y-141888341D01*
X166813509Y-141956257D01*
X166851101Y-142030989D01*
X166869284Y-142075285D01*
X166893453Y-142150019D01*
X166910454Y-142228798D01*
X166920498Y-142311553D01*
X166923799Y-142398211D01*
X166920533Y-142482900D01*
X166910738Y-142564075D01*
X166894412Y-142641346D01*
X166871555Y-142714322D01*
X166837800Y-142792134D01*
X166798200Y-142862832D01*
X166752300Y-142926668D01*
X166723910Y-142959261D01*
X166667851Y-143012079D01*
X166606160Y-143057187D01*
X166539494Y-143095142D01*
X166500550Y-143113342D01*
X166425586Y-143139951D01*
X166347394Y-143157442D01*
X166265619Y-143166219D01*
X166218511Y-143167478D01*
X166142299Y-143164308D01*
X166061827Y-143153281D01*
X165987128Y-143134551D01*
X165940636Y-143117885D01*
X165868580Y-143083503D01*
X165803220Y-143041497D01*
X165745043Y-142992004D01*
X165734311Y-142981219D01*
X165680899Y-142917393D01*
X165637251Y-142846571D01*
X165606353Y-142775652D01*
X165582396Y-142699681D01*
X165567312Y-142620495D01*
X165561101Y-142538646D01*
X165560923Y-142522006D01*
X165570296Y-142444625D01*
X165595374Y-142391775D01*
X165663070Y-142350324D01*
X165725604Y-142343696D01*
G37*
G36*
X164389608Y-141756146D02*
G01*
X164389608Y-142628386D01*
X165038488Y-141681945D01*
X165092624Y-141630458D01*
X165155468Y-141616829D01*
X165231420Y-141635370D01*
X165259955Y-141664151D01*
X165287106Y-141736139D01*
X165290241Y-141774317D01*
X165290241Y-143030434D01*
X165271699Y-143105905D01*
X165251248Y-143131892D01*
X165181614Y-143165378D01*
X165153575Y-143167478D01*
X165079470Y-143149480D01*
X165055903Y-143131892D01*
X165019972Y-143064381D01*
X165016909Y-143030434D01*
X165016909Y-142199080D01*
X164372194Y-143102363D01*
X164313514Y-143151957D01*
X164246506Y-143167478D01*
X164171726Y-143146803D01*
X164150726Y-143127349D01*
X164118305Y-143058194D01*
X164116276Y-143030434D01*
X164116276Y-141756146D01*
X164133655Y-141682268D01*
X164157541Y-141652794D01*
X164226004Y-141618988D01*
X164252942Y-141616829D01*
X164327047Y-141635134D01*
X164350615Y-141652794D01*
X164386481Y-141721998D01*
X164389608Y-141756146D01*
G37*
G36*
X162857509Y-142926704D02*
G01*
X163513204Y-142926704D01*
X163513204Y-142489069D01*
X163096391Y-142489069D01*
X163022286Y-142472501D01*
X162998718Y-142456890D01*
X162963341Y-142387687D01*
X162961996Y-142367546D01*
X162984662Y-142294166D01*
X162998718Y-142278581D01*
X163071725Y-142249843D01*
X163096391Y-142248295D01*
X163513204Y-142248295D01*
X163513204Y-141860254D01*
X162859781Y-141860254D01*
X162785781Y-141841887D01*
X162766651Y-141827696D01*
X162732992Y-141758696D01*
X162731822Y-141738731D01*
X162752827Y-141664976D01*
X162766651Y-141649387D01*
X162838750Y-141617985D01*
X162859781Y-141616829D01*
X163647598Y-141616829D01*
X163721584Y-141633200D01*
X163749435Y-141653930D01*
X163784093Y-141724523D01*
X163786536Y-141753874D01*
X163786536Y-143030812D01*
X163766985Y-143107138D01*
X163749435Y-143130756D01*
X163680280Y-143165095D01*
X163649870Y-143167478D01*
X162857509Y-143167478D01*
X162783509Y-143149431D01*
X162764379Y-143135299D01*
X162732977Y-143066096D01*
X162731822Y-143045955D01*
X162753362Y-142971425D01*
X162764379Y-142959261D01*
X162836479Y-142927859D01*
X162857509Y-142926704D01*
G37*
G36*
X162428644Y-141631710D02*
G01*
X162458490Y-141653930D01*
X162491231Y-141724203D01*
X162493319Y-141753874D01*
X162493319Y-143030812D01*
X162477874Y-143105319D01*
X162460761Y-143130756D01*
X162391233Y-143165095D01*
X162356653Y-143167478D01*
X161931133Y-143167478D01*
X161848944Y-143162930D01*
X161770967Y-143149421D01*
X161697099Y-143127152D01*
X161657801Y-143111071D01*
X161583703Y-143072119D01*
X161516385Y-143024212D01*
X161456193Y-142967488D01*
X161445041Y-142955097D01*
X161398228Y-142893448D01*
X161357182Y-142825206D01*
X161322458Y-142750070D01*
X161306103Y-142705237D01*
X161284560Y-142630284D01*
X161268908Y-142552244D01*
X161259361Y-142470726D01*
X161256131Y-142385340D01*
X161536278Y-142385340D01*
X161539441Y-142467201D01*
X161549239Y-142542998D01*
X161564292Y-142607185D01*
X161589827Y-142683293D01*
X161626969Y-142755124D01*
X161642658Y-142778302D01*
X161697054Y-142838255D01*
X161763194Y-142883204D01*
X161772888Y-142888089D01*
X161848729Y-142915505D01*
X161929834Y-142926346D01*
X161948547Y-142926704D01*
X162219987Y-142926704D01*
X162219987Y-141860254D01*
X161959526Y-141860254D01*
X161874230Y-141866807D01*
X161797891Y-141886594D01*
X161721950Y-141925655D01*
X161658440Y-141982533D01*
X161644550Y-141999570D01*
X161602615Y-142065900D01*
X161570798Y-142142241D01*
X161551670Y-142215732D01*
X161540138Y-142296740D01*
X161536278Y-142385340D01*
X161256131Y-142385340D01*
X161259006Y-142299852D01*
X161267772Y-142217914D01*
X161282643Y-142139809D01*
X161303832Y-142065821D01*
X161334438Y-141988045D01*
X161371283Y-141917119D01*
X161414315Y-141853246D01*
X161440876Y-141820882D01*
X161499491Y-141764292D01*
X161565884Y-141716241D01*
X161639847Y-141676176D01*
X161655529Y-141669073D01*
X161727272Y-141643818D01*
X161803400Y-141626829D01*
X161884166Y-141618105D01*
X161931133Y-141616829D01*
X162354381Y-141616829D01*
X162428644Y-141631710D01*
G37*
G36*
X160110760Y-141635037D02*
G01*
X160130245Y-141648630D01*
X160176746Y-141710030D01*
X160191196Y-141740624D01*
X160685995Y-142940333D01*
X160703031Y-142993333D01*
X160709845Y-143041412D01*
X160688604Y-143114773D01*
X160672745Y-143133407D01*
X160600902Y-143165848D01*
X160575072Y-143167478D01*
X160501187Y-143148293D01*
X160499357Y-143147035D01*
X160451851Y-143084461D01*
X160449385Y-143078134D01*
X160349441Y-142811995D01*
X159728954Y-142811995D01*
X159637717Y-143057313D01*
X159600701Y-143123855D01*
X159583202Y-143140221D01*
X159511987Y-143167239D01*
X159502944Y-143167478D01*
X159428828Y-143148768D01*
X159401107Y-143128485D01*
X159362955Y-143061915D01*
X159359842Y-143027784D01*
X159376146Y-142953034D01*
X159381421Y-142940333D01*
X159527566Y-142585985D01*
X159817919Y-142585985D01*
X160260475Y-142585985D01*
X160039008Y-142006006D01*
X159817919Y-142585985D01*
X159527566Y-142585985D01*
X159876220Y-141740624D01*
X159915516Y-141672162D01*
X159937171Y-141648630D01*
X160010178Y-141618436D01*
X160034844Y-141616829D01*
X160110760Y-141635037D01*
G37*
G36*
X158221841Y-141756146D02*
G01*
X158221841Y-142628386D01*
X158870721Y-141681945D01*
X158924857Y-141630458D01*
X158987701Y-141616829D01*
X159063653Y-141635370D01*
X159092188Y-141664151D01*
X159119339Y-141736139D01*
X159122474Y-141774317D01*
X159122474Y-143030434D01*
X159103932Y-143105905D01*
X159083481Y-143131892D01*
X159013847Y-143165378D01*
X158985808Y-143167478D01*
X158911703Y-143149480D01*
X158888136Y-143131892D01*
X158852205Y-143064381D01*
X158849142Y-143030434D01*
X158849142Y-142199080D01*
X158204427Y-143102363D01*
X158145747Y-143151957D01*
X158078739Y-143167478D01*
X158003959Y-143146803D01*
X157982959Y-143127349D01*
X157950538Y-143058194D01*
X157948509Y-143030434D01*
X157948509Y-141756146D01*
X157965888Y-141682268D01*
X157989774Y-141652794D01*
X158058237Y-141618988D01*
X158085175Y-141616829D01*
X158159280Y-141635134D01*
X158182848Y-141652794D01*
X158218714Y-141721998D01*
X158221841Y-141756146D01*
G37*
G36*
X157554094Y-141631710D02*
G01*
X157583940Y-141653930D01*
X157616681Y-141724203D01*
X157618769Y-141753874D01*
X157618769Y-143030812D01*
X157603324Y-143105319D01*
X157586211Y-143130756D01*
X157516683Y-143165095D01*
X157482103Y-143167478D01*
X157056583Y-143167478D01*
X156974394Y-143162930D01*
X156896417Y-143149421D01*
X156822549Y-143127152D01*
X156783251Y-143111071D01*
X156709153Y-143072119D01*
X156641835Y-143024212D01*
X156581644Y-142967488D01*
X156570491Y-142955097D01*
X156523678Y-142893448D01*
X156482632Y-142825206D01*
X156447908Y-142750070D01*
X156431553Y-142705237D01*
X156410010Y-142630284D01*
X156394358Y-142552244D01*
X156384811Y-142470726D01*
X156381581Y-142385340D01*
X156661728Y-142385340D01*
X156664891Y-142467201D01*
X156674689Y-142542998D01*
X156689742Y-142607185D01*
X156715277Y-142683293D01*
X156752419Y-142755124D01*
X156768108Y-142778302D01*
X156822504Y-142838255D01*
X156888644Y-142883204D01*
X156898338Y-142888089D01*
X156974179Y-142915505D01*
X157055284Y-142926346D01*
X157073997Y-142926704D01*
X157345437Y-142926704D01*
X157345437Y-141860254D01*
X157084976Y-141860254D01*
X156999680Y-141866807D01*
X156923341Y-141886594D01*
X156847400Y-141925655D01*
X156783890Y-141982533D01*
X156770001Y-141999570D01*
X156728065Y-142065900D01*
X156696248Y-142142241D01*
X156677120Y-142215732D01*
X156665588Y-142296740D01*
X156661728Y-142385340D01*
X156381581Y-142385340D01*
X156384456Y-142299852D01*
X156393222Y-142217914D01*
X156408093Y-142139809D01*
X156429282Y-142065821D01*
X156459888Y-141988045D01*
X156496733Y-141917119D01*
X156539765Y-141853246D01*
X156566326Y-141820882D01*
X156624942Y-141764292D01*
X156691334Y-141716241D01*
X156765297Y-141676176D01*
X156780979Y-141669073D01*
X156852722Y-141643818D01*
X156928850Y-141626829D01*
X157009616Y-141618105D01*
X157056583Y-141616829D01*
X157479831Y-141616829D01*
X157554094Y-141631710D01*
G37*
G36*
X154464092Y-141747438D02*
G01*
X154908919Y-142563270D01*
X155347310Y-141747438D01*
X155388422Y-141679600D01*
X155416968Y-141648251D01*
X155489190Y-141617651D01*
X155505934Y-141616829D01*
X155582747Y-141634331D01*
X155614207Y-141657337D01*
X155652452Y-141727108D01*
X155657743Y-141774317D01*
X155657743Y-143030434D01*
X155637489Y-143106515D01*
X155618750Y-143129621D01*
X155549115Y-143165024D01*
X155521077Y-143167478D01*
X155444751Y-143147646D01*
X155421133Y-143129621D01*
X155386795Y-143059507D01*
X155384411Y-143030434D01*
X155384411Y-142185451D01*
X155036878Y-142850610D01*
X154993859Y-142913739D01*
X154922073Y-142947433D01*
X154917626Y-142947525D01*
X154846075Y-142922539D01*
X154798151Y-142861490D01*
X154793832Y-142852881D01*
X154435698Y-142176365D01*
X154435698Y-143030434D01*
X154415609Y-143106515D01*
X154396705Y-143129621D01*
X154327284Y-143165024D01*
X154299032Y-143167478D01*
X154222847Y-143147646D01*
X154199467Y-143129621D01*
X154164809Y-143059507D01*
X154162366Y-143030434D01*
X154162366Y-141774317D01*
X154175213Y-141696460D01*
X154203631Y-141655066D01*
X154274523Y-141620005D01*
X154307740Y-141616829D01*
X154381183Y-141640625D01*
X154387998Y-141645980D01*
X154438783Y-141703453D01*
X154464092Y-141747438D01*
G37*
G36*
X153325156Y-141635037D02*
G01*
X153344641Y-141648630D01*
X153391142Y-141710030D01*
X153405592Y-141740624D01*
X153900391Y-142940333D01*
X153917427Y-142993333D01*
X153924242Y-143041412D01*
X153903000Y-143114773D01*
X153887141Y-143133407D01*
X153815299Y-143165848D01*
X153789468Y-143167478D01*
X153715583Y-143148293D01*
X153713753Y-143147035D01*
X153666247Y-143084461D01*
X153663781Y-143078134D01*
X153563837Y-142811995D01*
X152943350Y-142811995D01*
X152852113Y-143057313D01*
X152815097Y-143123855D01*
X152797598Y-143140221D01*
X152726383Y-143167239D01*
X152717340Y-143167478D01*
X152643225Y-143148768D01*
X152615503Y-143128485D01*
X152577352Y-143061915D01*
X152574238Y-143027784D01*
X152590542Y-142953034D01*
X152595817Y-142940333D01*
X152741962Y-142585985D01*
X153032316Y-142585985D01*
X153474871Y-142585985D01*
X153253404Y-142006006D01*
X153032316Y-142585985D01*
X152741962Y-142585985D01*
X153090616Y-141740624D01*
X153129912Y-141672162D01*
X153151567Y-141648630D01*
X153224574Y-141618436D01*
X153249240Y-141616829D01*
X153325156Y-141635037D01*
G37*
G36*
X151436237Y-141756146D02*
G01*
X151436237Y-142628386D01*
X152085117Y-141681945D01*
X152139254Y-141630458D01*
X152202098Y-141616829D01*
X152278049Y-141635370D01*
X152306585Y-141664151D01*
X152333735Y-141736139D01*
X152336871Y-141774317D01*
X152336871Y-143030434D01*
X152318328Y-143105905D01*
X152297877Y-143131892D01*
X152228243Y-143165378D01*
X152200205Y-143167478D01*
X152126099Y-143149480D01*
X152102532Y-143131892D01*
X152066601Y-143064381D01*
X152063539Y-143030434D01*
X152063539Y-142199080D01*
X151418823Y-143102363D01*
X151360144Y-143151957D01*
X151293136Y-143167478D01*
X151218356Y-143146803D01*
X151197356Y-143127349D01*
X151164934Y-143058194D01*
X151162905Y-143030434D01*
X151162905Y-141756146D01*
X151180284Y-141682268D01*
X151204170Y-141652794D01*
X151272633Y-141618988D01*
X151299571Y-141616829D01*
X151373677Y-141635134D01*
X151397244Y-141652794D01*
X151433110Y-141721998D01*
X151436237Y-141756146D01*
G37*
G36*
X149884831Y-141757281D02*
G01*
X149884831Y-142511405D01*
X149890221Y-142602909D01*
X149906369Y-142682096D01*
X149941635Y-142763816D01*
X149993603Y-142826417D01*
X150062210Y-142869970D01*
X150147397Y-142894543D01*
X150227443Y-142900582D01*
X150307614Y-142894637D01*
X150392914Y-142870486D01*
X150461595Y-142827758D01*
X150513604Y-142766452D01*
X150548890Y-142686568D01*
X150565043Y-142609285D01*
X150570433Y-142520113D01*
X150570433Y-141757281D01*
X150588360Y-141681852D01*
X150607534Y-141654687D01*
X150677754Y-141619337D01*
X150707099Y-141616829D01*
X150782582Y-141636827D01*
X150804772Y-141654687D01*
X150840702Y-141723603D01*
X150843765Y-141757281D01*
X150843765Y-142562513D01*
X150839398Y-142645924D01*
X150826574Y-142724580D01*
X150805709Y-142797718D01*
X150800608Y-142811617D01*
X150767385Y-142885331D01*
X150725540Y-142950557D01*
X150679085Y-143002798D01*
X150620738Y-143052433D01*
X150553819Y-143094000D01*
X150486011Y-143124321D01*
X150411613Y-143146744D01*
X150331282Y-143161210D01*
X150254140Y-143167081D01*
X150227443Y-143167478D01*
X150149057Y-143163935D01*
X150067115Y-143151938D01*
X149990933Y-143131859D01*
X149969254Y-143124321D01*
X149895463Y-143090477D01*
X149829699Y-143047508D01*
X149776180Y-143000526D01*
X149724915Y-142941251D01*
X149682775Y-142874711D01*
X149652385Y-142807452D01*
X149630401Y-142733830D01*
X149616790Y-142655023D01*
X149611276Y-142571170D01*
X149611121Y-142553806D01*
X149611121Y-141757281D01*
X149629048Y-141681852D01*
X149648221Y-141654687D01*
X149718814Y-141619337D01*
X149748165Y-141616829D01*
X149822381Y-141635170D01*
X149847731Y-141654687D01*
X149881746Y-141723603D01*
X149884831Y-141757281D01*
G37*
G36*
X148394755Y-141616829D02*
G01*
X149154179Y-141616829D01*
X149230505Y-141634547D01*
X149254123Y-141651658D01*
X149290644Y-141720015D01*
X149293116Y-141749331D01*
X149293116Y-143023998D01*
X149276934Y-143100418D01*
X149258287Y-143126592D01*
X149191819Y-143164244D01*
X149156450Y-143167478D01*
X149082101Y-143149870D01*
X149054235Y-143126592D01*
X149021813Y-143054722D01*
X149019784Y-143023998D01*
X149019784Y-142537527D01*
X148615843Y-142537527D01*
X148541843Y-142519480D01*
X148522713Y-142505348D01*
X148491311Y-142436145D01*
X148490156Y-142416004D01*
X148510078Y-142342624D01*
X148522713Y-142327039D01*
X148594813Y-142297893D01*
X148615843Y-142296753D01*
X149019784Y-142296753D01*
X149019784Y-141860254D01*
X148394755Y-141860254D01*
X148320382Y-141841887D01*
X148301246Y-141827696D01*
X148269844Y-141758696D01*
X148268689Y-141738731D01*
X148288611Y-141664976D01*
X148301246Y-141649387D01*
X148373549Y-141617985D01*
X148394755Y-141616829D01*
G37*
G36*
X147707082Y-141635037D02*
G01*
X147726567Y-141648630D01*
X147773068Y-141710030D01*
X147787518Y-141740624D01*
X148282317Y-142940333D01*
X148299353Y-142993333D01*
X148306168Y-143041412D01*
X148284926Y-143114773D01*
X148269067Y-143133407D01*
X148197225Y-143165848D01*
X148171394Y-143167478D01*
X148097509Y-143148293D01*
X148095679Y-143147035D01*
X148048173Y-143084461D01*
X148045707Y-143078134D01*
X147945763Y-142811995D01*
X147325276Y-142811995D01*
X147234039Y-143057313D01*
X147197023Y-143123855D01*
X147179524Y-143140221D01*
X147108309Y-143167239D01*
X147099266Y-143167478D01*
X147025151Y-143148768D01*
X146997429Y-143128485D01*
X146959278Y-143061915D01*
X146956164Y-143027784D01*
X146972468Y-142953034D01*
X146977743Y-142940333D01*
X147123888Y-142585985D01*
X147414242Y-142585985D01*
X147856797Y-142585985D01*
X147635330Y-142006006D01*
X147414242Y-142585985D01*
X147123888Y-142585985D01*
X147472542Y-141740624D01*
X147511838Y-141672162D01*
X147533493Y-141648630D01*
X147606500Y-141618436D01*
X147631166Y-141616829D01*
X147707082Y-141635037D01*
G37*
G36*
X145751913Y-142083236D02*
G01*
X145704212Y-142113900D01*
X145656511Y-142122986D01*
X145612975Y-142113900D01*
X145571710Y-142090050D01*
X145539153Y-142048407D01*
X145528553Y-141991241D01*
X145537260Y-141936726D01*
X145563382Y-141879561D01*
X145613422Y-141819496D01*
X145626225Y-141805739D01*
X145685577Y-141754145D01*
X145736770Y-141719045D01*
X145806716Y-141682112D01*
X145882112Y-141653044D01*
X145899557Y-141647494D01*
X145974649Y-141629141D01*
X146050392Y-141619384D01*
X146116482Y-141616829D01*
X146192954Y-141620485D01*
X146274899Y-141633157D01*
X146352127Y-141654598D01*
X146400793Y-141673616D01*
X146471102Y-141708640D01*
X146535397Y-141751373D01*
X146594134Y-141801260D01*
X146624531Y-141831861D01*
X146673962Y-141892432D01*
X146716206Y-141960197D01*
X146751263Y-142034800D01*
X146767633Y-142079071D01*
X146790490Y-142153083D01*
X146806816Y-142230502D01*
X146816611Y-142311612D01*
X146819877Y-142396697D01*
X146816611Y-142482155D01*
X146806816Y-142563886D01*
X146790490Y-142641429D01*
X146767633Y-142714322D01*
X146736569Y-142790706D01*
X146698318Y-142860751D01*
X146652880Y-142924406D01*
X146624531Y-142956990D01*
X146568686Y-143010245D01*
X146507535Y-143056263D01*
X146440623Y-143094993D01*
X146400793Y-143113342D01*
X146326933Y-143139951D01*
X146248088Y-143157442D01*
X146164661Y-143166219D01*
X146116482Y-143167478D01*
X146038003Y-143163925D01*
X145958756Y-143151867D01*
X145919243Y-143141735D01*
X145846878Y-143116456D01*
X145778063Y-143083847D01*
X145765163Y-143076620D01*
X145701149Y-143035160D01*
X145652347Y-142994090D01*
X145596564Y-142939750D01*
X145573982Y-142913832D01*
X145541424Y-142854774D01*
X145532717Y-142799881D01*
X145557680Y-142727160D01*
X145565274Y-142716594D01*
X145631198Y-142676360D01*
X145650076Y-142674950D01*
X145722485Y-142699032D01*
X145739041Y-142714322D01*
X145791277Y-142770816D01*
X145850008Y-142821642D01*
X145895393Y-142852503D01*
X145967087Y-142884012D01*
X146044364Y-142898380D01*
X146094903Y-142900582D01*
X146176135Y-142894311D01*
X146250151Y-142875902D01*
X146281541Y-142863482D01*
X146350418Y-142825721D01*
X146408344Y-142776548D01*
X146422750Y-142760509D01*
X146466903Y-142697871D01*
X146501573Y-142625233D01*
X146509444Y-142602642D01*
X146528674Y-142524685D01*
X146538182Y-142446937D01*
X146539730Y-142398968D01*
X146535946Y-142322116D01*
X146523699Y-142243679D01*
X146509444Y-142188480D01*
X146481277Y-142116234D01*
X146441371Y-142048563D01*
X146424643Y-142026449D01*
X146368355Y-141968908D01*
X146302147Y-141925872D01*
X146292520Y-141921205D01*
X146220255Y-141896053D01*
X146140598Y-141884705D01*
X146116482Y-141884104D01*
X146038289Y-141889631D01*
X145997230Y-141899247D01*
X145925892Y-141928581D01*
X145904100Y-141940891D01*
X145841713Y-141987142D01*
X145825735Y-142002220D01*
X145772474Y-142059371D01*
X145751913Y-142083236D01*
G37*
G36*
X144273193Y-141616829D02*
G01*
X145260520Y-141616829D01*
X145336437Y-141635196D01*
X145355922Y-141649387D01*
X145391675Y-141718591D01*
X145393022Y-141738731D01*
X145370176Y-141812111D01*
X145355922Y-141827696D01*
X145285162Y-141858682D01*
X145260520Y-141860254D01*
X144902387Y-141860254D01*
X144902387Y-143025134D01*
X144884751Y-143100972D01*
X144865665Y-143126971D01*
X144798910Y-143164317D01*
X144765721Y-143167478D01*
X144692344Y-143148444D01*
X144666155Y-143126971D01*
X144632140Y-143059319D01*
X144629055Y-143025134D01*
X144629055Y-141860254D01*
X144273193Y-141860254D01*
X144199088Y-141843380D01*
X144175520Y-141827696D01*
X144140144Y-141758696D01*
X144138799Y-141738731D01*
X144161465Y-141664976D01*
X144175520Y-141649387D01*
X144245155Y-141618882D01*
X144273193Y-141616829D01*
G37*
G36*
X142976569Y-141757281D02*
G01*
X142976569Y-142511405D01*
X142981958Y-142602909D01*
X142998106Y-142682096D01*
X143033373Y-142763816D01*
X143085340Y-142826417D01*
X143153948Y-142869970D01*
X143239135Y-142894543D01*
X143319181Y-142900582D01*
X143399352Y-142894637D01*
X143484652Y-142870486D01*
X143553332Y-142827758D01*
X143605341Y-142766452D01*
X143640627Y-142686568D01*
X143656781Y-142609285D01*
X143662171Y-142520113D01*
X143662171Y-141757281D01*
X143680098Y-141681852D01*
X143699271Y-141654687D01*
X143769491Y-141619337D01*
X143798837Y-141616829D01*
X143874320Y-141636827D01*
X143896510Y-141654687D01*
X143932440Y-141723603D01*
X143935503Y-141757281D01*
X143935503Y-142562513D01*
X143931136Y-142645924D01*
X143918312Y-142724580D01*
X143897447Y-142797718D01*
X143892345Y-142811617D01*
X143859123Y-142885331D01*
X143817277Y-142950557D01*
X143770822Y-143002798D01*
X143712475Y-143052433D01*
X143645557Y-143094000D01*
X143577748Y-143124321D01*
X143503351Y-143146744D01*
X143423020Y-143161210D01*
X143345878Y-143167081D01*
X143319181Y-143167478D01*
X143240794Y-143163935D01*
X143158852Y-143151938D01*
X143082671Y-143131859D01*
X143060991Y-143124321D01*
X142987200Y-143090477D01*
X142921436Y-143047508D01*
X142867918Y-143000526D01*
X142816652Y-142941251D01*
X142774513Y-142874711D01*
X142744123Y-142807452D01*
X142722139Y-142733830D01*
X142708528Y-142655023D01*
X142703014Y-142571170D01*
X142702858Y-142553806D01*
X142702858Y-141757281D01*
X142720785Y-141681852D01*
X142739959Y-141654687D01*
X142810551Y-141619337D01*
X142839903Y-141616829D01*
X142914119Y-141635170D01*
X142939468Y-141654687D01*
X142973484Y-141723603D01*
X142976569Y-141757281D01*
G37*
G36*
X142323671Y-141636381D02*
G01*
X142345861Y-141653930D01*
X142381727Y-141721073D01*
X142384854Y-141753874D01*
X142384854Y-143022862D01*
X142367949Y-143096835D01*
X142345861Y-143126214D01*
X142277504Y-143164917D01*
X142248188Y-143167478D01*
X142174688Y-143148030D01*
X142148244Y-143126214D01*
X142114534Y-143057440D01*
X142111522Y-143022862D01*
X142111522Y-142611350D01*
X141907469Y-142611350D01*
X141584165Y-143080406D01*
X141529699Y-143136176D01*
X141520943Y-143142492D01*
X141448586Y-143167372D01*
X141442956Y-143167478D01*
X141368970Y-143149763D01*
X141341119Y-143126214D01*
X141307428Y-143055570D01*
X141306290Y-143038762D01*
X141316890Y-142969862D01*
X141355358Y-142901295D01*
X141369133Y-142882410D01*
X141608015Y-142563270D01*
X141532892Y-142527185D01*
X141468914Y-142481336D01*
X141415727Y-142426379D01*
X141390712Y-142392154D01*
X141354862Y-142322555D01*
X141330898Y-142246100D01*
X141318669Y-142162941D01*
X141316890Y-142113900D01*
X141597036Y-142113900D01*
X141604794Y-142190065D01*
X141634569Y-142264029D01*
X141664423Y-142300160D01*
X141727729Y-142344144D01*
X141801124Y-142364711D01*
X141851061Y-142367925D01*
X142111522Y-142367925D01*
X142111522Y-141860254D01*
X141855226Y-141860254D01*
X141773859Y-141869597D01*
X141699991Y-141900430D01*
X141666316Y-141925748D01*
X141621786Y-141988290D01*
X141600437Y-142063067D01*
X141597036Y-142113900D01*
X141316890Y-142113900D01*
X141322340Y-142031895D01*
X141338132Y-141954242D01*
X141353990Y-141905305D01*
X141389177Y-141835768D01*
X141435587Y-141774701D01*
X141460370Y-141749331D01*
X141521021Y-141703351D01*
X141591629Y-141665993D01*
X141627323Y-141651658D01*
X141704251Y-141630157D01*
X141781222Y-141619477D01*
X141848790Y-141616829D01*
X142248188Y-141616829D01*
X142323671Y-141636381D01*
G37*
G36*
X140117181Y-142926704D02*
G01*
X140772876Y-142926704D01*
X140772876Y-142489069D01*
X140356063Y-142489069D01*
X140281958Y-142472501D01*
X140258390Y-142456890D01*
X140223013Y-142387687D01*
X140221668Y-142367546D01*
X140244334Y-142294166D01*
X140258390Y-142278581D01*
X140331397Y-142249843D01*
X140356063Y-142248295D01*
X140772876Y-142248295D01*
X140772876Y-141860254D01*
X140119453Y-141860254D01*
X140045453Y-141841887D01*
X140026323Y-141827696D01*
X139992664Y-141758696D01*
X139991494Y-141738731D01*
X140012499Y-141664976D01*
X140026323Y-141649387D01*
X140098422Y-141617985D01*
X140119453Y-141616829D01*
X140907270Y-141616829D01*
X140981256Y-141633200D01*
X141009107Y-141653930D01*
X141043765Y-141724523D01*
X141046208Y-141753874D01*
X141046208Y-143030812D01*
X141026657Y-143107138D01*
X141009107Y-143130756D01*
X140939952Y-143165095D01*
X140909542Y-143167478D01*
X140117181Y-143167478D01*
X140043181Y-143149431D01*
X140024051Y-143135299D01*
X139992649Y-143066096D01*
X139991494Y-143045955D01*
X140013034Y-142971425D01*
X140024051Y-142959261D01*
X140096151Y-142927859D01*
X140117181Y-142926704D01*
G37*
G36*
X139688316Y-141631710D02*
G01*
X139718162Y-141653930D01*
X139750903Y-141724203D01*
X139752991Y-141753874D01*
X139752991Y-143030812D01*
X139737546Y-143105319D01*
X139720433Y-143130756D01*
X139650905Y-143165095D01*
X139616325Y-143167478D01*
X139190805Y-143167478D01*
X139108616Y-143162930D01*
X139030639Y-143149421D01*
X138956771Y-143127152D01*
X138917473Y-143111071D01*
X138843375Y-143072119D01*
X138776057Y-143024212D01*
X138715865Y-142967488D01*
X138704713Y-142955097D01*
X138657900Y-142893448D01*
X138616854Y-142825206D01*
X138582130Y-142750070D01*
X138565775Y-142705237D01*
X138544232Y-142630284D01*
X138528580Y-142552244D01*
X138519033Y-142470726D01*
X138515803Y-142385340D01*
X138795950Y-142385340D01*
X138799113Y-142467201D01*
X138808911Y-142542998D01*
X138823964Y-142607185D01*
X138849499Y-142683293D01*
X138886641Y-142755124D01*
X138902330Y-142778302D01*
X138956726Y-142838255D01*
X139022866Y-142883204D01*
X139032560Y-142888089D01*
X139108401Y-142915505D01*
X139189506Y-142926346D01*
X139208219Y-142926704D01*
X139479659Y-142926704D01*
X139479659Y-141860254D01*
X139219198Y-141860254D01*
X139133902Y-141866807D01*
X139057563Y-141886594D01*
X138981622Y-141925655D01*
X138918112Y-141982533D01*
X138904222Y-141999570D01*
X138862287Y-142065900D01*
X138830470Y-142142241D01*
X138811342Y-142215732D01*
X138799810Y-142296740D01*
X138795950Y-142385340D01*
X138515803Y-142385340D01*
X138518678Y-142299852D01*
X138527444Y-142217914D01*
X138542315Y-142139809D01*
X138563504Y-142065821D01*
X138594110Y-141988045D01*
X138630955Y-141917119D01*
X138673987Y-141853246D01*
X138700548Y-141820882D01*
X138759163Y-141764292D01*
X138825556Y-141716241D01*
X138899519Y-141676176D01*
X138915201Y-141669073D01*
X138986944Y-141643818D01*
X139063072Y-141626829D01*
X139143838Y-141618105D01*
X139190805Y-141616829D01*
X139614053Y-141616829D01*
X139688316Y-141631710D01*
G37*
G36*
X137791965Y-141758417D02*
G01*
X137791965Y-143025891D01*
X137773423Y-143101362D01*
X137752972Y-143127349D01*
X137684615Y-143164988D01*
X137655299Y-143167478D01*
X137581799Y-143148567D01*
X137555355Y-143127349D01*
X137521017Y-143056277D01*
X137518633Y-143025891D01*
X137518633Y-141758417D01*
X137536269Y-141682407D01*
X137555355Y-141655066D01*
X137622497Y-141620005D01*
X137655299Y-141616829D01*
X137730782Y-141636967D01*
X137752972Y-141655066D01*
X137788837Y-141724593D01*
X137791965Y-141758417D01*
G37*
G36*
X136288638Y-141756146D02*
G01*
X136288638Y-142628386D01*
X136937518Y-141681945D01*
X136991654Y-141630458D01*
X137054498Y-141616829D01*
X137130450Y-141635370D01*
X137158985Y-141664151D01*
X137186136Y-141736139D01*
X137189271Y-141774317D01*
X137189271Y-143030434D01*
X137170729Y-143105905D01*
X137150278Y-143131892D01*
X137080644Y-143165378D01*
X137052605Y-143167478D01*
X136978500Y-143149480D01*
X136954933Y-143131892D01*
X136919002Y-143064381D01*
X136915939Y-143030434D01*
X136915939Y-142199080D01*
X136271224Y-143102363D01*
X136212544Y-143151957D01*
X136145536Y-143167478D01*
X136070756Y-143146803D01*
X136049756Y-143127349D01*
X136017335Y-143058194D01*
X136015306Y-143030434D01*
X136015306Y-141756146D01*
X136032685Y-141682268D01*
X136056571Y-141652794D01*
X136125034Y-141618988D01*
X136151972Y-141616829D01*
X136226077Y-141635134D01*
X136249645Y-141652794D01*
X136285511Y-141721998D01*
X136288638Y-141756146D01*
G37*
G36*
X135232788Y-141758417D02*
G01*
X135232788Y-143025891D01*
X135214246Y-143101362D01*
X135193795Y-143127349D01*
X135125438Y-143164988D01*
X135096122Y-143167478D01*
X135022622Y-143148567D01*
X134996178Y-143127349D01*
X134961840Y-143056277D01*
X134959456Y-143025891D01*
X134959456Y-141758417D01*
X134977093Y-141682407D01*
X134996178Y-141655066D01*
X135063321Y-141620005D01*
X135096122Y-141616829D01*
X135171605Y-141636967D01*
X135193795Y-141655066D01*
X135229661Y-141724593D01*
X135232788Y-141758417D01*
G37*
G36*
X134128860Y-142900582D02*
G01*
X134205988Y-142895630D01*
X134241675Y-142889603D01*
X134316028Y-142868367D01*
X134334805Y-142861210D01*
X134402497Y-142822228D01*
X134408628Y-142817295D01*
X134469934Y-142771937D01*
X134476014Y-142766945D01*
X134525986Y-142738551D01*
X134582394Y-142727573D01*
X134619116Y-142734387D01*
X134660381Y-142755966D01*
X134695210Y-142799881D01*
X134710353Y-142865753D01*
X134686503Y-142937683D01*
X134636531Y-142996362D01*
X134577817Y-143046035D01*
X134558544Y-143059206D01*
X134492426Y-143096315D01*
X134452164Y-143113342D01*
X134377506Y-143138155D01*
X134319662Y-143152335D01*
X134241533Y-143164024D01*
X134162362Y-143167466D01*
X134156874Y-143167478D01*
X134078954Y-143164853D01*
X133998706Y-143155237D01*
X133918691Y-143135474D01*
X133905121Y-143130756D01*
X133829957Y-143100252D01*
X133760089Y-143058914D01*
X133727190Y-143033084D01*
X133671046Y-142975196D01*
X133628461Y-142909728D01*
X133618917Y-142889603D01*
X133593765Y-142816404D01*
X133582417Y-142739400D01*
X133581817Y-142716594D01*
X133587267Y-142636013D01*
X133605566Y-142561111D01*
X133620810Y-142526170D01*
X133664809Y-142461104D01*
X133721070Y-142404353D01*
X133724919Y-142401240D01*
X133791690Y-142356710D01*
X133863308Y-142323983D01*
X133868399Y-142322117D01*
X133944567Y-142295892D01*
X134020970Y-142272428D01*
X134031187Y-142269495D01*
X134108720Y-142248357D01*
X134185187Y-142224530D01*
X134262505Y-142194669D01*
X134304519Y-142173337D01*
X134364149Y-142124728D01*
X134391131Y-142048971D01*
X134391213Y-142043864D01*
X134368957Y-141971014D01*
X134334805Y-141932184D01*
X134263302Y-141895793D01*
X134188230Y-141884819D01*
X134159146Y-141884104D01*
X134083336Y-141888736D01*
X134061473Y-141892812D01*
X133989922Y-141914769D01*
X133935407Y-141940891D01*
X133889978Y-141969284D01*
X133838113Y-141995784D01*
X133774891Y-142006763D01*
X133731733Y-141998056D01*
X133690468Y-141976098D01*
X133657911Y-141934455D01*
X133644660Y-141873126D01*
X133663157Y-141799481D01*
X133664346Y-141797032D01*
X133716440Y-141739109D01*
X133733626Y-141727752D01*
X133802910Y-141688558D01*
X133873863Y-141657949D01*
X133902849Y-141647494D01*
X133980123Y-141629141D01*
X134061492Y-141619384D01*
X134135295Y-141616829D01*
X134214732Y-141620623D01*
X134291653Y-141632481D01*
X134341241Y-141645223D01*
X134416441Y-141672569D01*
X134483933Y-141708046D01*
X134512736Y-141727752D01*
X134571250Y-141780913D01*
X134616885Y-141842987D01*
X134627823Y-141862147D01*
X134657322Y-141937890D01*
X134670258Y-142014841D01*
X134671360Y-142046135D01*
X134665797Y-142124397D01*
X134646775Y-142198059D01*
X134636531Y-142221416D01*
X134597443Y-142288424D01*
X134545294Y-142344075D01*
X134481929Y-142389835D01*
X134413505Y-142425284D01*
X134408628Y-142427362D01*
X134333790Y-142457448D01*
X134259963Y-142480107D01*
X134243568Y-142484527D01*
X134170001Y-142504018D01*
X134094677Y-142525959D01*
X134065637Y-142534877D01*
X133993408Y-142562408D01*
X133948657Y-142585228D01*
X133891113Y-142636422D01*
X133883542Y-142646557D01*
X133863932Y-142721876D01*
X133863856Y-142727573D01*
X133884385Y-142802352D01*
X133885814Y-142804424D01*
X133941892Y-142857512D01*
X133944114Y-142858939D01*
X134016902Y-142887075D01*
X134028915Y-142889603D01*
X134106305Y-142900000D01*
X134128860Y-142900582D01*
G37*
G36*
X132360151Y-141616829D02*
G01*
X133347478Y-141616829D01*
X133423394Y-141635196D01*
X133442879Y-141649387D01*
X133478632Y-141718591D01*
X133479980Y-141738731D01*
X133457133Y-141812111D01*
X133442879Y-141827696D01*
X133372120Y-141858682D01*
X133347478Y-141860254D01*
X132989345Y-141860254D01*
X132989345Y-143025134D01*
X132971708Y-143100972D01*
X132952623Y-143126971D01*
X132885867Y-143164317D01*
X132852678Y-143167478D01*
X132779301Y-143148444D01*
X132753113Y-143126971D01*
X132719098Y-143059319D01*
X132716012Y-143025134D01*
X132716012Y-141860254D01*
X132360151Y-141860254D01*
X132286045Y-141843380D01*
X132262478Y-141827696D01*
X132227101Y-141758696D01*
X132225756Y-141738731D01*
X132248422Y-141664976D01*
X132262478Y-141649387D01*
X132332112Y-141618882D01*
X132360151Y-141616829D01*
G37*
G36*
X131720558Y-141635037D02*
G01*
X131740042Y-141648630D01*
X131786544Y-141710030D01*
X131800993Y-141740624D01*
X132295793Y-142940333D01*
X132312829Y-142993333D01*
X132319643Y-143041412D01*
X132298401Y-143114773D01*
X132282542Y-143133407D01*
X132210700Y-143165848D01*
X132184870Y-143167478D01*
X132110984Y-143148293D01*
X132109154Y-143147035D01*
X132061648Y-143084461D01*
X132059182Y-143078134D01*
X131959238Y-142811995D01*
X131338751Y-142811995D01*
X131247515Y-143057313D01*
X131210499Y-143123855D01*
X131193000Y-143140221D01*
X131121784Y-143167239D01*
X131112741Y-143167478D01*
X131038626Y-143148768D01*
X131010904Y-143128485D01*
X130972753Y-143061915D01*
X130969639Y-143027784D01*
X130985943Y-142953034D01*
X130991218Y-142940333D01*
X131137363Y-142585985D01*
X131427717Y-142585985D01*
X131870273Y-142585985D01*
X131648806Y-142006006D01*
X131427717Y-142585985D01*
X131137363Y-142585985D01*
X131486018Y-141740624D01*
X131525314Y-141672162D01*
X131546968Y-141648630D01*
X131619976Y-141618436D01*
X131644641Y-141616829D01*
X131720558Y-141635037D01*
G37*
G36*
X129831639Y-141756146D02*
G01*
X129831639Y-142628386D01*
X130480519Y-141681945D01*
X130534655Y-141630458D01*
X130597499Y-141616829D01*
X130673451Y-141635370D01*
X130701986Y-141664151D01*
X130729136Y-141736139D01*
X130732272Y-141774317D01*
X130732272Y-143030434D01*
X130713730Y-143105905D01*
X130693279Y-143131892D01*
X130623644Y-143165378D01*
X130595606Y-143167478D01*
X130521501Y-143149480D01*
X130497933Y-143131892D01*
X130462003Y-143064381D01*
X130458940Y-143030434D01*
X130458940Y-142199080D01*
X129814224Y-143102363D01*
X129755545Y-143151957D01*
X129688537Y-143167478D01*
X129613757Y-143146803D01*
X129592757Y-143127349D01*
X129560335Y-143058194D01*
X129558307Y-143030434D01*
X129558307Y-141756146D01*
X129575686Y-141682268D01*
X129599571Y-141652794D01*
X129668035Y-141618988D01*
X129694973Y-141616829D01*
X129769078Y-141635134D01*
X129792645Y-141652794D01*
X129828511Y-141721998D01*
X129831639Y-141756146D01*
G37*
G36*
X129166498Y-141634757D02*
G01*
X129191466Y-141653930D01*
X129226123Y-141722287D01*
X129228566Y-141751603D01*
X129228566Y-143030812D01*
X129213847Y-143108093D01*
X129193737Y-143135299D01*
X129123943Y-143165485D01*
X129091900Y-143167478D01*
X128631551Y-143167478D01*
X128543879Y-143163174D01*
X128463927Y-143150289D01*
X128380269Y-143124474D01*
X128306811Y-143087114D01*
X128251839Y-143045955D01*
X128198537Y-142987953D01*
X128158363Y-142919476D01*
X128131293Y-142840808D01*
X128118502Y-142765485D01*
X128115173Y-142697286D01*
X128115673Y-142690472D01*
X128395320Y-142690472D01*
X128403605Y-142767081D01*
X128434979Y-142839097D01*
X128455892Y-142864239D01*
X128519862Y-142906939D01*
X128596172Y-142925179D01*
X128629659Y-142926704D01*
X128955234Y-142926704D01*
X128955234Y-142472791D01*
X128636094Y-142472791D01*
X128554269Y-142480357D01*
X128480202Y-142508420D01*
X128423771Y-142566090D01*
X128399082Y-142639163D01*
X128395320Y-142690472D01*
X128115673Y-142690472D01*
X128120860Y-142619749D01*
X128139858Y-142540689D01*
X128171581Y-142468248D01*
X128218890Y-142408624D01*
X128283989Y-142358629D01*
X128358219Y-142320603D01*
X128292077Y-142274989D01*
X128241920Y-142213935D01*
X128232532Y-142198323D01*
X128201322Y-142124179D01*
X128187029Y-142048827D01*
X128186974Y-142047649D01*
X128464599Y-142047649D01*
X128477421Y-142126689D01*
X128510028Y-142186587D01*
X128571156Y-142233289D01*
X128640259Y-142246781D01*
X128955234Y-142246781D01*
X128955234Y-141860254D01*
X128664109Y-141860254D01*
X128587495Y-141869448D01*
X128517880Y-141905708D01*
X128514571Y-141908712D01*
X128475845Y-141973893D01*
X128464599Y-142047649D01*
X128186974Y-142047649D01*
X128184831Y-142001463D01*
X128190633Y-141922131D01*
X128211034Y-141845029D01*
X128212846Y-141840568D01*
X128252912Y-141773407D01*
X128301811Y-141723209D01*
X128368252Y-141679389D01*
X128438556Y-141648985D01*
X128449456Y-141645223D01*
X128528826Y-141626514D01*
X128604430Y-141618498D01*
X128664109Y-141616829D01*
X129091900Y-141616829D01*
X129166498Y-141634757D01*
G37*
G36*
X126896157Y-141757281D02*
G01*
X126896157Y-142511405D01*
X126901547Y-142602909D01*
X126917695Y-142682096D01*
X126952961Y-142763816D01*
X127004929Y-142826417D01*
X127073536Y-142869970D01*
X127158723Y-142894543D01*
X127238769Y-142900582D01*
X127318940Y-142894637D01*
X127404240Y-142870486D01*
X127472920Y-142827758D01*
X127524930Y-142766452D01*
X127560216Y-142686568D01*
X127576369Y-142609285D01*
X127581759Y-142520113D01*
X127581759Y-141757281D01*
X127599686Y-141681852D01*
X127618860Y-141654687D01*
X127689080Y-141619337D01*
X127718425Y-141616829D01*
X127793908Y-141636827D01*
X127816098Y-141654687D01*
X127852028Y-141723603D01*
X127855091Y-141757281D01*
X127855091Y-142562513D01*
X127850724Y-142645924D01*
X127837900Y-142724580D01*
X127817035Y-142797718D01*
X127811934Y-142811617D01*
X127778711Y-142885331D01*
X127736866Y-142950557D01*
X127690411Y-143002798D01*
X127632064Y-143052433D01*
X127565145Y-143094000D01*
X127497337Y-143124321D01*
X127422939Y-143146744D01*
X127342608Y-143161210D01*
X127265466Y-143167081D01*
X127238769Y-143167478D01*
X127160382Y-143163935D01*
X127078441Y-143151938D01*
X127002259Y-143131859D01*
X126980580Y-143124321D01*
X126906789Y-143090477D01*
X126841025Y-143047508D01*
X126787506Y-143000526D01*
X126736240Y-142941251D01*
X126694101Y-142874711D01*
X126663711Y-142807452D01*
X126641727Y-142733830D01*
X126628116Y-142655023D01*
X126622602Y-142571170D01*
X126622446Y-142553806D01*
X126622446Y-141757281D01*
X126640374Y-141681852D01*
X126659547Y-141654687D01*
X126730140Y-141619337D01*
X126759491Y-141616829D01*
X126833707Y-141635170D01*
X126859057Y-141654687D01*
X126893072Y-141723603D01*
X126896157Y-141757281D01*
G37*
G36*
X126165505Y-143167478D02*
G01*
X125447345Y-143167478D01*
X125373010Y-143150910D01*
X125349673Y-143135299D01*
X125313952Y-143066096D01*
X125312572Y-143045955D01*
X125335570Y-142972575D01*
X125349673Y-142956990D01*
X125422486Y-142928252D01*
X125447345Y-142926704D01*
X126031110Y-142926704D01*
X126031110Y-141759553D01*
X126048747Y-141682976D01*
X126067832Y-141655444D01*
X126134975Y-141620013D01*
X126167776Y-141616829D01*
X126243259Y-141637108D01*
X126265449Y-141655444D01*
X126301315Y-141725317D01*
X126304442Y-141759553D01*
X126304442Y-143030812D01*
X126284891Y-143106295D01*
X126267342Y-143128485D01*
X126197228Y-143165059D01*
X126165505Y-143167478D01*
G37*
D16*
X48501100Y-147503600D03*
X48501100Y-62503600D03*
X248501100Y-147503600D03*
X248501100Y-62503600D03*
X70001100Y-82003600D03*
X227001100Y-82003600D03*
X227001100Y-128003600D03*
X70001100Y-128003600D03*
M02*
