%TF.GenerationSoftware,KiCad,Pcbnew,8.0.5*%
%TF.CreationDate,2024-11-13T13:26:43+03:00*%
%TF.ProjectId,Bottom,426f7474-6f6d-42e6-9b69-6361645f7063,rev?*%
%TF.SameCoordinates,Original*%
%TF.FileFunction,Drillmap*%
%TF.FilePolarity,Positive*%
%FSLAX45Y45*%
G04 Gerber Fmt 4.5, Leading zero omitted, Abs format (unit mm)*
G04 Created by KiCad (PCBNEW 8.0.5) date 2024-11-13 13:26:43*
%MOMM*%
%LPD*%
G01*
G04 APERTURE LIST*
%ADD10C,0.010000*%
%ADD11C,0.200000*%
%ADD12C,0.250000*%
G04 APERTURE END LIST*
D10*
X14425110Y-12375360D02*
X15275110Y-12375360D01*
X22505110Y-14850360D02*
G75*
G02*
X22405110Y-14950360I-100000J0D01*
G01*
X22965110Y-6050360D02*
X22435110Y-6050360D01*
X7265110Y-6050360D02*
X6735110Y-6050360D01*
X5945110Y-14950360D02*
X6475110Y-14950360D01*
X7925110Y-14850360D02*
G75*
G02*
X7825110Y-14950360I-100000J0D01*
G01*
X6575110Y-14850360D02*
X6575110Y-13790360D01*
X4850110Y-15250360D02*
G75*
G02*
X4350110Y-14750360I0J500000D01*
G01*
X7265110Y-7310360D02*
X6735110Y-7310360D01*
X23225110Y-14950360D02*
G75*
G02*
X23125110Y-14850360I0J100000D01*
G01*
X24850110Y-5750360D02*
X4850110Y-5750360D01*
X7195110Y-13790360D02*
G75*
G02*
X7295110Y-13690360I100000J0D01*
G01*
X6685110Y-6880360D02*
X6685110Y-7210360D01*
X7925110Y-14850360D02*
X7925110Y-13790360D01*
X6685110Y-6480360D02*
G75*
G02*
X6635110Y-6480360I-25000J0D01*
G01*
X23125110Y-13790360D02*
G75*
G02*
X23225110Y-13690360I100000J0D01*
G01*
X25350110Y-14750360D02*
X25350110Y-6250360D01*
X14325110Y-11625360D02*
X14325110Y-12275360D01*
X7265110Y-6050360D02*
G75*
G02*
X7365110Y-6150360I0J-100000D01*
G01*
X6475110Y-13690360D02*
X5945110Y-13690360D01*
X5845110Y-13790360D02*
G75*
G02*
X5945110Y-13690360I100000J0D01*
G01*
X24850110Y-5750360D02*
G75*
G02*
X25350110Y-6250360I0J-500000D01*
G01*
X23065110Y-7210360D02*
X23065110Y-6150360D01*
X7195110Y-13790360D02*
X7195110Y-14850360D01*
X15375110Y-12275360D02*
G75*
G02*
X15275110Y-12375360I-100000J0D01*
G01*
X21875110Y-14950360D02*
G75*
G02*
X21775110Y-14850360I0J100000D01*
G01*
X7315110Y-7210360D02*
G75*
G02*
X7265110Y-7260360I-50000J0D01*
G01*
X15275110Y-11525360D02*
G75*
G02*
X15375110Y-11625360I0J-100000D01*
G01*
X21775110Y-13790360D02*
G75*
G02*
X21875110Y-13690360I100000J0D01*
G01*
X7315110Y-6150360D02*
X7315110Y-6480360D01*
X6735110Y-6100360D02*
X7265110Y-6100360D01*
X14425110Y-12375360D02*
G75*
G02*
X14325110Y-12275360I0J100000D01*
G01*
X23065110Y-7210360D02*
G75*
G02*
X22965110Y-7310360I-100000J0D01*
G01*
X7315110Y-7210360D02*
X7315110Y-6880360D01*
X6685110Y-6150360D02*
G75*
G02*
X6735110Y-6100360I50000J0D01*
G01*
X7265110Y-6100360D02*
G75*
G02*
X7315110Y-6150360I0J-50000D01*
G01*
X6475110Y-13690360D02*
G75*
G02*
X6575110Y-13790360I0J-100000D01*
G01*
X6635110Y-6150360D02*
G75*
G02*
X6735110Y-6050360I100000J0D01*
G01*
X7295110Y-14950360D02*
G75*
G02*
X7195110Y-14850360I0J100000D01*
G01*
X22335110Y-6150360D02*
X22335110Y-7210360D01*
X7825110Y-13690360D02*
X7295110Y-13690360D01*
X23755110Y-14950360D02*
X23225110Y-14950360D01*
X5845110Y-13790360D02*
X5845110Y-14850360D01*
X23125110Y-14850360D02*
X23125110Y-13790360D01*
X21875110Y-13690360D02*
X22405110Y-13690360D01*
X6735110Y-7260360D02*
X7265110Y-7260360D01*
X6635110Y-7210360D02*
X6635110Y-6880360D01*
X5945110Y-14950360D02*
G75*
G02*
X5845110Y-14850360I0J100000D01*
G01*
X22405110Y-14950360D02*
X21875110Y-14950360D01*
X7825110Y-13690360D02*
G75*
G02*
X7925110Y-13790360I0J-100000D01*
G01*
X22405110Y-13690360D02*
G75*
G02*
X22505110Y-13790360I0J-100000D01*
G01*
X7365110Y-7210360D02*
G75*
G02*
X7265110Y-7310360I-100000J0D01*
G01*
X6735110Y-7260360D02*
G75*
G02*
X6685110Y-7210360I0J50000D01*
G01*
X7365110Y-6880360D02*
X7365110Y-7210360D01*
X15375110Y-12275360D02*
X15375110Y-11625360D01*
X4350110Y-6250360D02*
G75*
G02*
X4850110Y-5750360I500000J0D01*
G01*
X7365110Y-6480360D02*
X7365110Y-6150360D01*
X23855110Y-13790360D02*
X23855110Y-14850360D01*
X6635110Y-6880360D02*
G75*
G02*
X6685110Y-6880360I25000J0D01*
G01*
X25350110Y-14750360D02*
G75*
G02*
X24850110Y-15250360I-500000J0D01*
G01*
X4850110Y-15250360D02*
X24850110Y-15250360D01*
X7295110Y-14950360D02*
X7825110Y-14950360D01*
X14325110Y-11625360D02*
G75*
G02*
X14425110Y-11525360I100000J0D01*
G01*
X15275110Y-11525360D02*
X14425110Y-11525360D01*
X6635110Y-6150360D02*
X6635110Y-6480360D01*
X23225110Y-13690360D02*
X23755110Y-13690360D01*
X22505110Y-13790360D02*
X22505110Y-14850360D01*
X23855110Y-14850360D02*
G75*
G02*
X23755110Y-14950360I-100000J0D01*
G01*
X6685110Y-6480360D02*
X6685110Y-6150360D01*
X21775110Y-14850360D02*
X21775110Y-13790360D01*
X22335110Y-6150360D02*
G75*
G02*
X22435110Y-6050360I100000J0D01*
G01*
X23755110Y-13690360D02*
G75*
G02*
X23855110Y-13790360I0J-100000D01*
G01*
X22965110Y-6050360D02*
G75*
G02*
X23065110Y-6150360I0J-100000D01*
G01*
X22435110Y-7310360D02*
G75*
G02*
X22335110Y-7210360I0J100000D01*
G01*
X7365110Y-6480360D02*
G75*
G02*
X7315110Y-6480360I-25000J0D01*
G01*
X6575110Y-14850360D02*
G75*
G02*
X6475110Y-14950360I-100000J0D01*
G01*
X6735110Y-7310360D02*
G75*
G02*
X6635110Y-7210360I0J100000D01*
G01*
X22435110Y-7310360D02*
X22965110Y-7310360D01*
X7315110Y-6880360D02*
G75*
G02*
X7365110Y-6880360I25000J0D01*
G01*
X4350110Y-6250360D02*
X4350110Y-14750360D01*
D11*
D12*
X4725110Y-6125360D02*
X4975110Y-6375360D01*
X4975110Y-6125360D02*
X4725110Y-6375360D01*
X4725110Y-14625360D02*
X4975110Y-14875360D01*
X4975110Y-14625360D02*
X4725110Y-14875360D01*
X6875110Y-8075360D02*
X7125110Y-8325360D01*
X7125110Y-8075360D02*
X6875110Y-8325360D01*
X6875110Y-12675360D02*
X7125110Y-12925360D01*
X7125110Y-12675360D02*
X6875110Y-12925360D01*
X22575110Y-8075360D02*
X22825110Y-8325360D01*
X22825110Y-8075360D02*
X22575110Y-8325360D01*
X22575110Y-12675360D02*
X22825110Y-12925360D01*
X22825110Y-12675360D02*
X22575110Y-12925360D01*
X24725110Y-6125360D02*
X24975110Y-6375360D01*
X24975110Y-6125360D02*
X24725110Y-6375360D01*
X24725110Y-14625360D02*
X24975110Y-14875360D01*
X24975110Y-14625360D02*
X24725110Y-14875360D01*
D11*
X4610387Y-15562344D02*
X4610387Y-15362344D01*
X4610387Y-15362344D02*
X4658006Y-15362344D01*
X4658006Y-15362344D02*
X4686577Y-15371868D01*
X4686577Y-15371868D02*
X4705625Y-15390915D01*
X4705625Y-15390915D02*
X4715149Y-15409963D01*
X4715149Y-15409963D02*
X4724673Y-15448058D01*
X4724673Y-15448058D02*
X4724673Y-15476629D01*
X4724673Y-15476629D02*
X4715149Y-15514725D01*
X4715149Y-15514725D02*
X4705625Y-15533772D01*
X4705625Y-15533772D02*
X4686577Y-15552820D01*
X4686577Y-15552820D02*
X4658006Y-15562344D01*
X4658006Y-15562344D02*
X4610387Y-15562344D01*
X4810387Y-15562344D02*
X4810387Y-15429010D01*
X4810387Y-15467106D02*
X4819911Y-15448058D01*
X4819911Y-15448058D02*
X4829434Y-15438534D01*
X4829434Y-15438534D02*
X4848482Y-15429010D01*
X4848482Y-15429010D02*
X4867530Y-15429010D01*
X4934196Y-15562344D02*
X4934196Y-15429010D01*
X4934196Y-15362344D02*
X4924673Y-15371868D01*
X4924673Y-15371868D02*
X4934196Y-15381391D01*
X4934196Y-15381391D02*
X4943720Y-15371868D01*
X4943720Y-15371868D02*
X4934196Y-15362344D01*
X4934196Y-15362344D02*
X4934196Y-15381391D01*
X5058006Y-15562344D02*
X5038958Y-15552820D01*
X5038958Y-15552820D02*
X5029434Y-15533772D01*
X5029434Y-15533772D02*
X5029434Y-15362344D01*
X5162768Y-15562344D02*
X5143720Y-15552820D01*
X5143720Y-15552820D02*
X5134196Y-15533772D01*
X5134196Y-15533772D02*
X5134196Y-15362344D01*
X5391339Y-15562344D02*
X5391339Y-15362344D01*
X5391339Y-15362344D02*
X5458006Y-15505201D01*
X5458006Y-15505201D02*
X5524673Y-15362344D01*
X5524673Y-15362344D02*
X5524673Y-15562344D01*
X5705625Y-15562344D02*
X5705625Y-15457582D01*
X5705625Y-15457582D02*
X5696101Y-15438534D01*
X5696101Y-15438534D02*
X5677053Y-15429010D01*
X5677053Y-15429010D02*
X5638958Y-15429010D01*
X5638958Y-15429010D02*
X5619911Y-15438534D01*
X5705625Y-15552820D02*
X5686577Y-15562344D01*
X5686577Y-15562344D02*
X5638958Y-15562344D01*
X5638958Y-15562344D02*
X5619911Y-15552820D01*
X5619911Y-15552820D02*
X5610387Y-15533772D01*
X5610387Y-15533772D02*
X5610387Y-15514725D01*
X5610387Y-15514725D02*
X5619911Y-15495677D01*
X5619911Y-15495677D02*
X5638958Y-15486153D01*
X5638958Y-15486153D02*
X5686577Y-15486153D01*
X5686577Y-15486153D02*
X5705625Y-15476629D01*
X5800863Y-15429010D02*
X5800863Y-15629010D01*
X5800863Y-15438534D02*
X5819911Y-15429010D01*
X5819911Y-15429010D02*
X5858006Y-15429010D01*
X5858006Y-15429010D02*
X5877053Y-15438534D01*
X5877053Y-15438534D02*
X5886577Y-15448058D01*
X5886577Y-15448058D02*
X5896101Y-15467106D01*
X5896101Y-15467106D02*
X5896101Y-15524248D01*
X5896101Y-15524248D02*
X5886577Y-15543296D01*
X5886577Y-15543296D02*
X5877053Y-15552820D01*
X5877053Y-15552820D02*
X5858006Y-15562344D01*
X5858006Y-15562344D02*
X5819911Y-15562344D01*
X5819911Y-15562344D02*
X5800863Y-15552820D01*
X5981815Y-15543296D02*
X5991339Y-15552820D01*
X5991339Y-15552820D02*
X5981815Y-15562344D01*
X5981815Y-15562344D02*
X5972292Y-15552820D01*
X5972292Y-15552820D02*
X5981815Y-15543296D01*
X5981815Y-15543296D02*
X5981815Y-15562344D01*
X5981815Y-15438534D02*
X5991339Y-15448058D01*
X5991339Y-15448058D02*
X5981815Y-15457582D01*
X5981815Y-15457582D02*
X5972292Y-15448058D01*
X5972292Y-15448058D02*
X5981815Y-15438534D01*
X5981815Y-15438534D02*
X5981815Y-15457582D01*
X4149610Y-15790860D02*
X4349610Y-15990860D01*
X4349610Y-15790860D02*
X4149610Y-15990860D01*
X4600863Y-15801391D02*
X4610387Y-15791868D01*
X4610387Y-15791868D02*
X4629434Y-15782344D01*
X4629434Y-15782344D02*
X4677054Y-15782344D01*
X4677054Y-15782344D02*
X4696101Y-15791868D01*
X4696101Y-15791868D02*
X4705625Y-15801391D01*
X4705625Y-15801391D02*
X4715149Y-15820439D01*
X4715149Y-15820439D02*
X4715149Y-15839487D01*
X4715149Y-15839487D02*
X4705625Y-15868058D01*
X4705625Y-15868058D02*
X4591339Y-15982344D01*
X4591339Y-15982344D02*
X4715149Y-15982344D01*
X4800863Y-15963296D02*
X4810387Y-15972820D01*
X4810387Y-15972820D02*
X4800863Y-15982344D01*
X4800863Y-15982344D02*
X4791339Y-15972820D01*
X4791339Y-15972820D02*
X4800863Y-15963296D01*
X4800863Y-15963296D02*
X4800863Y-15982344D01*
X4991339Y-15782344D02*
X4896101Y-15782344D01*
X4896101Y-15782344D02*
X4886577Y-15877582D01*
X4886577Y-15877582D02*
X4896101Y-15868058D01*
X4896101Y-15868058D02*
X4915149Y-15858534D01*
X4915149Y-15858534D02*
X4962768Y-15858534D01*
X4962768Y-15858534D02*
X4981815Y-15868058D01*
X4981815Y-15868058D02*
X4991339Y-15877582D01*
X4991339Y-15877582D02*
X5000863Y-15896629D01*
X5000863Y-15896629D02*
X5000863Y-15944248D01*
X5000863Y-15944248D02*
X4991339Y-15963296D01*
X4991339Y-15963296D02*
X4981815Y-15972820D01*
X4981815Y-15972820D02*
X4962768Y-15982344D01*
X4962768Y-15982344D02*
X4915149Y-15982344D01*
X4915149Y-15982344D02*
X4896101Y-15972820D01*
X4896101Y-15972820D02*
X4886577Y-15963296D01*
X5124673Y-15782344D02*
X5143720Y-15782344D01*
X5143720Y-15782344D02*
X5162768Y-15791868D01*
X5162768Y-15791868D02*
X5172292Y-15801391D01*
X5172292Y-15801391D02*
X5181815Y-15820439D01*
X5181815Y-15820439D02*
X5191339Y-15858534D01*
X5191339Y-15858534D02*
X5191339Y-15906153D01*
X5191339Y-15906153D02*
X5181815Y-15944248D01*
X5181815Y-15944248D02*
X5172292Y-15963296D01*
X5172292Y-15963296D02*
X5162768Y-15972820D01*
X5162768Y-15972820D02*
X5143720Y-15982344D01*
X5143720Y-15982344D02*
X5124673Y-15982344D01*
X5124673Y-15982344D02*
X5105625Y-15972820D01*
X5105625Y-15972820D02*
X5096101Y-15963296D01*
X5096101Y-15963296D02*
X5086577Y-15944248D01*
X5086577Y-15944248D02*
X5077054Y-15906153D01*
X5077054Y-15906153D02*
X5077054Y-15858534D01*
X5077054Y-15858534D02*
X5086577Y-15820439D01*
X5086577Y-15820439D02*
X5096101Y-15801391D01*
X5096101Y-15801391D02*
X5105625Y-15791868D01*
X5105625Y-15791868D02*
X5124673Y-15782344D01*
X5315149Y-15782344D02*
X5334196Y-15782344D01*
X5334196Y-15782344D02*
X5353244Y-15791868D01*
X5353244Y-15791868D02*
X5362768Y-15801391D01*
X5362768Y-15801391D02*
X5372292Y-15820439D01*
X5372292Y-15820439D02*
X5381815Y-15858534D01*
X5381815Y-15858534D02*
X5381815Y-15906153D01*
X5381815Y-15906153D02*
X5372292Y-15944248D01*
X5372292Y-15944248D02*
X5362768Y-15963296D01*
X5362768Y-15963296D02*
X5353244Y-15972820D01*
X5353244Y-15972820D02*
X5334196Y-15982344D01*
X5334196Y-15982344D02*
X5315149Y-15982344D01*
X5315149Y-15982344D02*
X5296101Y-15972820D01*
X5296101Y-15972820D02*
X5286577Y-15963296D01*
X5286577Y-15963296D02*
X5277054Y-15944248D01*
X5277054Y-15944248D02*
X5267530Y-15906153D01*
X5267530Y-15906153D02*
X5267530Y-15858534D01*
X5267530Y-15858534D02*
X5277054Y-15820439D01*
X5277054Y-15820439D02*
X5286577Y-15801391D01*
X5286577Y-15801391D02*
X5296101Y-15791868D01*
X5296101Y-15791868D02*
X5315149Y-15782344D01*
X5467530Y-15982344D02*
X5467530Y-15849010D01*
X5467530Y-15868058D02*
X5477054Y-15858534D01*
X5477054Y-15858534D02*
X5496101Y-15849010D01*
X5496101Y-15849010D02*
X5524673Y-15849010D01*
X5524673Y-15849010D02*
X5543720Y-15858534D01*
X5543720Y-15858534D02*
X5553244Y-15877582D01*
X5553244Y-15877582D02*
X5553244Y-15982344D01*
X5553244Y-15877582D02*
X5562768Y-15858534D01*
X5562768Y-15858534D02*
X5581815Y-15849010D01*
X5581815Y-15849010D02*
X5610387Y-15849010D01*
X5610387Y-15849010D02*
X5629434Y-15858534D01*
X5629434Y-15858534D02*
X5638958Y-15877582D01*
X5638958Y-15877582D02*
X5638958Y-15982344D01*
X5734196Y-15982344D02*
X5734196Y-15849010D01*
X5734196Y-15868058D02*
X5743720Y-15858534D01*
X5743720Y-15858534D02*
X5762768Y-15849010D01*
X5762768Y-15849010D02*
X5791339Y-15849010D01*
X5791339Y-15849010D02*
X5810387Y-15858534D01*
X5810387Y-15858534D02*
X5819911Y-15877582D01*
X5819911Y-15877582D02*
X5819911Y-15982344D01*
X5819911Y-15877582D02*
X5829434Y-15858534D01*
X5829434Y-15858534D02*
X5848482Y-15849010D01*
X5848482Y-15849010D02*
X5877053Y-15849010D01*
X5877053Y-15849010D02*
X5896101Y-15858534D01*
X5896101Y-15858534D02*
X5905625Y-15877582D01*
X5905625Y-15877582D02*
X5905625Y-15982344D01*
X6296101Y-15772820D02*
X6124673Y-16029963D01*
X6553244Y-15782344D02*
X6572292Y-15782344D01*
X6572292Y-15782344D02*
X6591339Y-15791868D01*
X6591339Y-15791868D02*
X6600863Y-15801391D01*
X6600863Y-15801391D02*
X6610387Y-15820439D01*
X6610387Y-15820439D02*
X6619911Y-15858534D01*
X6619911Y-15858534D02*
X6619911Y-15906153D01*
X6619911Y-15906153D02*
X6610387Y-15944248D01*
X6610387Y-15944248D02*
X6600863Y-15963296D01*
X6600863Y-15963296D02*
X6591339Y-15972820D01*
X6591339Y-15972820D02*
X6572292Y-15982344D01*
X6572292Y-15982344D02*
X6553244Y-15982344D01*
X6553244Y-15982344D02*
X6534196Y-15972820D01*
X6534196Y-15972820D02*
X6524673Y-15963296D01*
X6524673Y-15963296D02*
X6515149Y-15944248D01*
X6515149Y-15944248D02*
X6505625Y-15906153D01*
X6505625Y-15906153D02*
X6505625Y-15858534D01*
X6505625Y-15858534D02*
X6515149Y-15820439D01*
X6515149Y-15820439D02*
X6524673Y-15801391D01*
X6524673Y-15801391D02*
X6534196Y-15791868D01*
X6534196Y-15791868D02*
X6553244Y-15782344D01*
X6705625Y-15963296D02*
X6715149Y-15972820D01*
X6715149Y-15972820D02*
X6705625Y-15982344D01*
X6705625Y-15982344D02*
X6696101Y-15972820D01*
X6696101Y-15972820D02*
X6705625Y-15963296D01*
X6705625Y-15963296D02*
X6705625Y-15982344D01*
X6838958Y-15782344D02*
X6858006Y-15782344D01*
X6858006Y-15782344D02*
X6877054Y-15791868D01*
X6877054Y-15791868D02*
X6886577Y-15801391D01*
X6886577Y-15801391D02*
X6896101Y-15820439D01*
X6896101Y-15820439D02*
X6905625Y-15858534D01*
X6905625Y-15858534D02*
X6905625Y-15906153D01*
X6905625Y-15906153D02*
X6896101Y-15944248D01*
X6896101Y-15944248D02*
X6886577Y-15963296D01*
X6886577Y-15963296D02*
X6877054Y-15972820D01*
X6877054Y-15972820D02*
X6858006Y-15982344D01*
X6858006Y-15982344D02*
X6838958Y-15982344D01*
X6838958Y-15982344D02*
X6819911Y-15972820D01*
X6819911Y-15972820D02*
X6810387Y-15963296D01*
X6810387Y-15963296D02*
X6800863Y-15944248D01*
X6800863Y-15944248D02*
X6791339Y-15906153D01*
X6791339Y-15906153D02*
X6791339Y-15858534D01*
X6791339Y-15858534D02*
X6800863Y-15820439D01*
X6800863Y-15820439D02*
X6810387Y-15801391D01*
X6810387Y-15801391D02*
X6819911Y-15791868D01*
X6819911Y-15791868D02*
X6838958Y-15782344D01*
X7000863Y-15982344D02*
X7038958Y-15982344D01*
X7038958Y-15982344D02*
X7058006Y-15972820D01*
X7058006Y-15972820D02*
X7067530Y-15963296D01*
X7067530Y-15963296D02*
X7086577Y-15934725D01*
X7086577Y-15934725D02*
X7096101Y-15896629D01*
X7096101Y-15896629D02*
X7096101Y-15820439D01*
X7096101Y-15820439D02*
X7086577Y-15801391D01*
X7086577Y-15801391D02*
X7077054Y-15791868D01*
X7077054Y-15791868D02*
X7058006Y-15782344D01*
X7058006Y-15782344D02*
X7019911Y-15782344D01*
X7019911Y-15782344D02*
X7000863Y-15791868D01*
X7000863Y-15791868D02*
X6991339Y-15801391D01*
X6991339Y-15801391D02*
X6981816Y-15820439D01*
X6981816Y-15820439D02*
X6981816Y-15868058D01*
X6981816Y-15868058D02*
X6991339Y-15887106D01*
X6991339Y-15887106D02*
X7000863Y-15896629D01*
X7000863Y-15896629D02*
X7019911Y-15906153D01*
X7019911Y-15906153D02*
X7058006Y-15906153D01*
X7058006Y-15906153D02*
X7077054Y-15896629D01*
X7077054Y-15896629D02*
X7086577Y-15887106D01*
X7086577Y-15887106D02*
X7096101Y-15868058D01*
X7210387Y-15868058D02*
X7191339Y-15858534D01*
X7191339Y-15858534D02*
X7181816Y-15849010D01*
X7181816Y-15849010D02*
X7172292Y-15829963D01*
X7172292Y-15829963D02*
X7172292Y-15820439D01*
X7172292Y-15820439D02*
X7181816Y-15801391D01*
X7181816Y-15801391D02*
X7191339Y-15791868D01*
X7191339Y-15791868D02*
X7210387Y-15782344D01*
X7210387Y-15782344D02*
X7248482Y-15782344D01*
X7248482Y-15782344D02*
X7267530Y-15791868D01*
X7267530Y-15791868D02*
X7277054Y-15801391D01*
X7277054Y-15801391D02*
X7286577Y-15820439D01*
X7286577Y-15820439D02*
X7286577Y-15829963D01*
X7286577Y-15829963D02*
X7277054Y-15849010D01*
X7277054Y-15849010D02*
X7267530Y-15858534D01*
X7267530Y-15858534D02*
X7248482Y-15868058D01*
X7248482Y-15868058D02*
X7210387Y-15868058D01*
X7210387Y-15868058D02*
X7191339Y-15877582D01*
X7191339Y-15877582D02*
X7181816Y-15887106D01*
X7181816Y-15887106D02*
X7172292Y-15906153D01*
X7172292Y-15906153D02*
X7172292Y-15944248D01*
X7172292Y-15944248D02*
X7181816Y-15963296D01*
X7181816Y-15963296D02*
X7191339Y-15972820D01*
X7191339Y-15972820D02*
X7210387Y-15982344D01*
X7210387Y-15982344D02*
X7248482Y-15982344D01*
X7248482Y-15982344D02*
X7267530Y-15972820D01*
X7267530Y-15972820D02*
X7277054Y-15963296D01*
X7277054Y-15963296D02*
X7286577Y-15944248D01*
X7286577Y-15944248D02*
X7286577Y-15906153D01*
X7286577Y-15906153D02*
X7277054Y-15887106D01*
X7277054Y-15887106D02*
X7267530Y-15877582D01*
X7267530Y-15877582D02*
X7248482Y-15868058D01*
X7458006Y-15849010D02*
X7458006Y-15982344D01*
X7410387Y-15772820D02*
X7362768Y-15915677D01*
X7362768Y-15915677D02*
X7486577Y-15915677D01*
X7553244Y-15782344D02*
X7553244Y-15820439D01*
X7629435Y-15782344D02*
X7629435Y-15820439D01*
X7924673Y-16058534D02*
X7915149Y-16049010D01*
X7915149Y-16049010D02*
X7896101Y-16020439D01*
X7896101Y-16020439D02*
X7886578Y-16001391D01*
X7886578Y-16001391D02*
X7877054Y-15972820D01*
X7877054Y-15972820D02*
X7867530Y-15925201D01*
X7867530Y-15925201D02*
X7867530Y-15887106D01*
X7867530Y-15887106D02*
X7877054Y-15839487D01*
X7877054Y-15839487D02*
X7886578Y-15810915D01*
X7886578Y-15810915D02*
X7896101Y-15791868D01*
X7896101Y-15791868D02*
X7915149Y-15763296D01*
X7915149Y-15763296D02*
X7924673Y-15753772D01*
X8029435Y-15868058D02*
X8010387Y-15858534D01*
X8010387Y-15858534D02*
X8000863Y-15849010D01*
X8000863Y-15849010D02*
X7991339Y-15829963D01*
X7991339Y-15829963D02*
X7991339Y-15820439D01*
X7991339Y-15820439D02*
X8000863Y-15801391D01*
X8000863Y-15801391D02*
X8010387Y-15791868D01*
X8010387Y-15791868D02*
X8029435Y-15782344D01*
X8029435Y-15782344D02*
X8067530Y-15782344D01*
X8067530Y-15782344D02*
X8086578Y-15791868D01*
X8086578Y-15791868D02*
X8096101Y-15801391D01*
X8096101Y-15801391D02*
X8105625Y-15820439D01*
X8105625Y-15820439D02*
X8105625Y-15829963D01*
X8105625Y-15829963D02*
X8096101Y-15849010D01*
X8096101Y-15849010D02*
X8086578Y-15858534D01*
X8086578Y-15858534D02*
X8067530Y-15868058D01*
X8067530Y-15868058D02*
X8029435Y-15868058D01*
X8029435Y-15868058D02*
X8010387Y-15877582D01*
X8010387Y-15877582D02*
X8000863Y-15887106D01*
X8000863Y-15887106D02*
X7991339Y-15906153D01*
X7991339Y-15906153D02*
X7991339Y-15944248D01*
X7991339Y-15944248D02*
X8000863Y-15963296D01*
X8000863Y-15963296D02*
X8010387Y-15972820D01*
X8010387Y-15972820D02*
X8029435Y-15982344D01*
X8029435Y-15982344D02*
X8067530Y-15982344D01*
X8067530Y-15982344D02*
X8086578Y-15972820D01*
X8086578Y-15972820D02*
X8096101Y-15963296D01*
X8096101Y-15963296D02*
X8105625Y-15944248D01*
X8105625Y-15944248D02*
X8105625Y-15906153D01*
X8105625Y-15906153D02*
X8096101Y-15887106D01*
X8096101Y-15887106D02*
X8086578Y-15877582D01*
X8086578Y-15877582D02*
X8067530Y-15868058D01*
X8343720Y-15982344D02*
X8343720Y-15782344D01*
X8429435Y-15982344D02*
X8429435Y-15877582D01*
X8429435Y-15877582D02*
X8419911Y-15858534D01*
X8419911Y-15858534D02*
X8400863Y-15849010D01*
X8400863Y-15849010D02*
X8372292Y-15849010D01*
X8372292Y-15849010D02*
X8353244Y-15858534D01*
X8353244Y-15858534D02*
X8343720Y-15868058D01*
X8553244Y-15982344D02*
X8534197Y-15972820D01*
X8534197Y-15972820D02*
X8524673Y-15963296D01*
X8524673Y-15963296D02*
X8515149Y-15944248D01*
X8515149Y-15944248D02*
X8515149Y-15887106D01*
X8515149Y-15887106D02*
X8524673Y-15868058D01*
X8524673Y-15868058D02*
X8534197Y-15858534D01*
X8534197Y-15858534D02*
X8553244Y-15849010D01*
X8553244Y-15849010D02*
X8581816Y-15849010D01*
X8581816Y-15849010D02*
X8600863Y-15858534D01*
X8600863Y-15858534D02*
X8610387Y-15868058D01*
X8610387Y-15868058D02*
X8619911Y-15887106D01*
X8619911Y-15887106D02*
X8619911Y-15944248D01*
X8619911Y-15944248D02*
X8610387Y-15963296D01*
X8610387Y-15963296D02*
X8600863Y-15972820D01*
X8600863Y-15972820D02*
X8581816Y-15982344D01*
X8581816Y-15982344D02*
X8553244Y-15982344D01*
X8734197Y-15982344D02*
X8715149Y-15972820D01*
X8715149Y-15972820D02*
X8705625Y-15953772D01*
X8705625Y-15953772D02*
X8705625Y-15782344D01*
X8886578Y-15972820D02*
X8867530Y-15982344D01*
X8867530Y-15982344D02*
X8829435Y-15982344D01*
X8829435Y-15982344D02*
X8810387Y-15972820D01*
X8810387Y-15972820D02*
X8800863Y-15953772D01*
X8800863Y-15953772D02*
X8800863Y-15877582D01*
X8800863Y-15877582D02*
X8810387Y-15858534D01*
X8810387Y-15858534D02*
X8829435Y-15849010D01*
X8829435Y-15849010D02*
X8867530Y-15849010D01*
X8867530Y-15849010D02*
X8886578Y-15858534D01*
X8886578Y-15858534D02*
X8896102Y-15877582D01*
X8896102Y-15877582D02*
X8896102Y-15896629D01*
X8896102Y-15896629D02*
X8800863Y-15915677D01*
X8972292Y-15972820D02*
X8991340Y-15982344D01*
X8991340Y-15982344D02*
X9029435Y-15982344D01*
X9029435Y-15982344D02*
X9048483Y-15972820D01*
X9048483Y-15972820D02*
X9058006Y-15953772D01*
X9058006Y-15953772D02*
X9058006Y-15944248D01*
X9058006Y-15944248D02*
X9048483Y-15925201D01*
X9048483Y-15925201D02*
X9029435Y-15915677D01*
X9029435Y-15915677D02*
X9000863Y-15915677D01*
X9000863Y-15915677D02*
X8981816Y-15906153D01*
X8981816Y-15906153D02*
X8972292Y-15887106D01*
X8972292Y-15887106D02*
X8972292Y-15877582D01*
X8972292Y-15877582D02*
X8981816Y-15858534D01*
X8981816Y-15858534D02*
X9000863Y-15849010D01*
X9000863Y-15849010D02*
X9029435Y-15849010D01*
X9029435Y-15849010D02*
X9048483Y-15858534D01*
X9124673Y-16058534D02*
X9134197Y-16049010D01*
X9134197Y-16049010D02*
X9153244Y-16020439D01*
X9153244Y-16020439D02*
X9162768Y-16001391D01*
X9162768Y-16001391D02*
X9172292Y-15972820D01*
X9172292Y-15972820D02*
X9181816Y-15925201D01*
X9181816Y-15925201D02*
X9181816Y-15887106D01*
X9181816Y-15887106D02*
X9172292Y-15839487D01*
X9172292Y-15839487D02*
X9162768Y-15810915D01*
X9162768Y-15810915D02*
X9153244Y-15791868D01*
X9153244Y-15791868D02*
X9134197Y-15763296D01*
X9134197Y-15763296D02*
X9124673Y-15753772D01*
X9486578Y-16058534D02*
X9477054Y-16049010D01*
X9477054Y-16049010D02*
X9458006Y-16020439D01*
X9458006Y-16020439D02*
X9448483Y-16001391D01*
X9448483Y-16001391D02*
X9438959Y-15972820D01*
X9438959Y-15972820D02*
X9429435Y-15925201D01*
X9429435Y-15925201D02*
X9429435Y-15887106D01*
X9429435Y-15887106D02*
X9438959Y-15839487D01*
X9438959Y-15839487D02*
X9448483Y-15810915D01*
X9448483Y-15810915D02*
X9458006Y-15791868D01*
X9458006Y-15791868D02*
X9477054Y-15763296D01*
X9477054Y-15763296D02*
X9486578Y-15753772D01*
X9562768Y-15849010D02*
X9562768Y-15982344D01*
X9562768Y-15868058D02*
X9572292Y-15858534D01*
X9572292Y-15858534D02*
X9591340Y-15849010D01*
X9591340Y-15849010D02*
X9619911Y-15849010D01*
X9619911Y-15849010D02*
X9638959Y-15858534D01*
X9638959Y-15858534D02*
X9648483Y-15877582D01*
X9648483Y-15877582D02*
X9648483Y-15982344D01*
X9772292Y-15982344D02*
X9753244Y-15972820D01*
X9753244Y-15972820D02*
X9743721Y-15963296D01*
X9743721Y-15963296D02*
X9734197Y-15944248D01*
X9734197Y-15944248D02*
X9734197Y-15887106D01*
X9734197Y-15887106D02*
X9743721Y-15868058D01*
X9743721Y-15868058D02*
X9753244Y-15858534D01*
X9753244Y-15858534D02*
X9772292Y-15849010D01*
X9772292Y-15849010D02*
X9800864Y-15849010D01*
X9800864Y-15849010D02*
X9819911Y-15858534D01*
X9819911Y-15858534D02*
X9829435Y-15868058D01*
X9829435Y-15868058D02*
X9838959Y-15887106D01*
X9838959Y-15887106D02*
X9838959Y-15944248D01*
X9838959Y-15944248D02*
X9829435Y-15963296D01*
X9829435Y-15963296D02*
X9819911Y-15972820D01*
X9819911Y-15972820D02*
X9800864Y-15982344D01*
X9800864Y-15982344D02*
X9772292Y-15982344D01*
X9896102Y-15849010D02*
X9972292Y-15849010D01*
X9924673Y-15782344D02*
X9924673Y-15953772D01*
X9924673Y-15953772D02*
X9934197Y-15972820D01*
X9934197Y-15972820D02*
X9953244Y-15982344D01*
X9953244Y-15982344D02*
X9972292Y-15982344D01*
X10191340Y-15849010D02*
X10191340Y-16049010D01*
X10191340Y-15858534D02*
X10210387Y-15849010D01*
X10210387Y-15849010D02*
X10248483Y-15849010D01*
X10248483Y-15849010D02*
X10267530Y-15858534D01*
X10267530Y-15858534D02*
X10277054Y-15868058D01*
X10277054Y-15868058D02*
X10286578Y-15887106D01*
X10286578Y-15887106D02*
X10286578Y-15944248D01*
X10286578Y-15944248D02*
X10277054Y-15963296D01*
X10277054Y-15963296D02*
X10267530Y-15972820D01*
X10267530Y-15972820D02*
X10248483Y-15982344D01*
X10248483Y-15982344D02*
X10210387Y-15982344D01*
X10210387Y-15982344D02*
X10191340Y-15972820D01*
X10400864Y-15982344D02*
X10381816Y-15972820D01*
X10381816Y-15972820D02*
X10372292Y-15953772D01*
X10372292Y-15953772D02*
X10372292Y-15782344D01*
X10562768Y-15982344D02*
X10562768Y-15877582D01*
X10562768Y-15877582D02*
X10553245Y-15858534D01*
X10553245Y-15858534D02*
X10534197Y-15849010D01*
X10534197Y-15849010D02*
X10496102Y-15849010D01*
X10496102Y-15849010D02*
X10477054Y-15858534D01*
X10562768Y-15972820D02*
X10543721Y-15982344D01*
X10543721Y-15982344D02*
X10496102Y-15982344D01*
X10496102Y-15982344D02*
X10477054Y-15972820D01*
X10477054Y-15972820D02*
X10467530Y-15953772D01*
X10467530Y-15953772D02*
X10467530Y-15934725D01*
X10467530Y-15934725D02*
X10477054Y-15915677D01*
X10477054Y-15915677D02*
X10496102Y-15906153D01*
X10496102Y-15906153D02*
X10543721Y-15906153D01*
X10543721Y-15906153D02*
X10562768Y-15896629D01*
X10629435Y-15849010D02*
X10705625Y-15849010D01*
X10658006Y-15782344D02*
X10658006Y-15953772D01*
X10658006Y-15953772D02*
X10667530Y-15972820D01*
X10667530Y-15972820D02*
X10686578Y-15982344D01*
X10686578Y-15982344D02*
X10705625Y-15982344D01*
X10848483Y-15972820D02*
X10829435Y-15982344D01*
X10829435Y-15982344D02*
X10791340Y-15982344D01*
X10791340Y-15982344D02*
X10772292Y-15972820D01*
X10772292Y-15972820D02*
X10762768Y-15953772D01*
X10762768Y-15953772D02*
X10762768Y-15877582D01*
X10762768Y-15877582D02*
X10772292Y-15858534D01*
X10772292Y-15858534D02*
X10791340Y-15849010D01*
X10791340Y-15849010D02*
X10829435Y-15849010D01*
X10829435Y-15849010D02*
X10848483Y-15858534D01*
X10848483Y-15858534D02*
X10858006Y-15877582D01*
X10858006Y-15877582D02*
X10858006Y-15896629D01*
X10858006Y-15896629D02*
X10762768Y-15915677D01*
X11029435Y-15982344D02*
X11029435Y-15782344D01*
X11029435Y-15972820D02*
X11010387Y-15982344D01*
X11010387Y-15982344D02*
X10972292Y-15982344D01*
X10972292Y-15982344D02*
X10953245Y-15972820D01*
X10953245Y-15972820D02*
X10943721Y-15963296D01*
X10943721Y-15963296D02*
X10934197Y-15944248D01*
X10934197Y-15944248D02*
X10934197Y-15887106D01*
X10934197Y-15887106D02*
X10943721Y-15868058D01*
X10943721Y-15868058D02*
X10953245Y-15858534D01*
X10953245Y-15858534D02*
X10972292Y-15849010D01*
X10972292Y-15849010D02*
X11010387Y-15849010D01*
X11010387Y-15849010D02*
X11029435Y-15858534D01*
X11105626Y-16058534D02*
X11115149Y-16049010D01*
X11115149Y-16049010D02*
X11134197Y-16020439D01*
X11134197Y-16020439D02*
X11143721Y-16001391D01*
X11143721Y-16001391D02*
X11153245Y-15972820D01*
X11153245Y-15972820D02*
X11162768Y-15925201D01*
X11162768Y-15925201D02*
X11162768Y-15887106D01*
X11162768Y-15887106D02*
X11153245Y-15839487D01*
X11153245Y-15839487D02*
X11143721Y-15810915D01*
X11143721Y-15810915D02*
X11134197Y-15791868D01*
X11134197Y-15791868D02*
X11115149Y-15763296D01*
X11115149Y-15763296D02*
X11105626Y-15753772D01*
M02*
