G04 #@! TF.GenerationSoftware,KiCad,Pcbnew,8.0.5*
G04 #@! TF.CreationDate,2024-11-13T13:26:37+03:00*
G04 #@! TF.ProjectId,Bottom,426f7474-6f6d-42e6-9b69-6361645f7063,rev?*
G04 #@! TF.SameCoordinates,Original*
G04 #@! TF.FileFunction,Legend,Top*
G04 #@! TF.FilePolarity,Positive*
%FSLAX46Y46*%
G04 Gerber Fmt 4.6, Leading zero omitted, Abs format (unit mm)*
G04 Created by KiCad (PCBNEW 8.0.5) date 2024-11-13 13:26:37*
%MOMM*%
%LPD*%
G01*
G04 APERTURE LIST*
%ADD10C,0.300000*%
%ADD11C,0.750000*%
%ADD12C,2.500000*%
G04 APERTURE END LIST*
D10*
G36*
X113117450Y-137482112D02*
G01*
X113204353Y-137494171D01*
X113291207Y-137518446D01*
X113331506Y-137534630D01*
X113411225Y-137576808D01*
X113479701Y-137628722D01*
X113507683Y-137657365D01*
X113560081Y-137726312D01*
X113599808Y-137804821D01*
X113617713Y-137860072D01*
X113635542Y-137947745D01*
X113641695Y-138040332D01*
X113639687Y-138095700D01*
X113625880Y-138189590D01*
X113598824Y-138275910D01*
X113558347Y-138354489D01*
X113530105Y-138393130D01*
X113470056Y-138455178D01*
X113397822Y-138506944D01*
X113313005Y-138547685D01*
X113582711Y-138908005D01*
X113598263Y-138929326D01*
X113641695Y-139006740D01*
X113653663Y-139084531D01*
X113652378Y-139103508D01*
X113614340Y-139183266D01*
X113582895Y-139209855D01*
X113499363Y-139229856D01*
X113493007Y-139229736D01*
X113411313Y-139201646D01*
X113401426Y-139194514D01*
X113339933Y-139131548D01*
X112974912Y-138601968D01*
X112744530Y-138601968D01*
X112744530Y-139066579D01*
X112741129Y-139105619D01*
X112703070Y-139183266D01*
X112673214Y-139207898D01*
X112590230Y-139229856D01*
X112557131Y-139226964D01*
X112479954Y-139183266D01*
X112455016Y-139150098D01*
X112435929Y-139066579D01*
X112435929Y-138327134D01*
X112744530Y-138327134D01*
X113038599Y-138327134D01*
X113094980Y-138323505D01*
X113177845Y-138300284D01*
X113249319Y-138250625D01*
X113283026Y-138209833D01*
X113316643Y-138126324D01*
X113325401Y-138040332D01*
X113321562Y-137982940D01*
X113297458Y-137898514D01*
X113247182Y-137827902D01*
X113209161Y-137799318D01*
X113125762Y-137764506D01*
X113033897Y-137753957D01*
X112744530Y-137753957D01*
X112744530Y-138327134D01*
X112435929Y-138327134D01*
X112435929Y-137633851D01*
X112439460Y-137596817D01*
X112479954Y-137521011D01*
X112505007Y-137501197D01*
X112590230Y-137479123D01*
X113041163Y-137479123D01*
X113117450Y-137482112D01*
G37*
G36*
X114996205Y-138958013D02*
G01*
X114255905Y-138958013D01*
X114255905Y-138463910D01*
X114726500Y-138463910D01*
X114810167Y-138445204D01*
X114836775Y-138427579D01*
X114876717Y-138349446D01*
X114878236Y-138326707D01*
X114852645Y-138243858D01*
X114836775Y-138226262D01*
X114754348Y-138193816D01*
X114726500Y-138192068D01*
X114255905Y-138192068D01*
X114255905Y-137753957D01*
X114993640Y-137753957D01*
X115077189Y-137733220D01*
X115098787Y-137717199D01*
X115136789Y-137639295D01*
X115138110Y-137616754D01*
X115114395Y-137533482D01*
X115098787Y-137515882D01*
X115017384Y-137480427D01*
X114993640Y-137479123D01*
X114104169Y-137479123D01*
X114020637Y-137497605D01*
X113989192Y-137521011D01*
X113950062Y-137600712D01*
X113947304Y-137633851D01*
X113947304Y-139075555D01*
X113969378Y-139161730D01*
X113989192Y-139188395D01*
X114067270Y-139227164D01*
X114101605Y-139229856D01*
X114996205Y-139229856D01*
X115079753Y-139209480D01*
X115101352Y-139193525D01*
X115136806Y-139115391D01*
X115138110Y-139092652D01*
X115113791Y-139008505D01*
X115101352Y-138994772D01*
X115019949Y-138959318D01*
X114996205Y-138958013D01*
G37*
G36*
X116094325Y-137480937D02*
G01*
X116176753Y-137515027D01*
X116201202Y-137541596D01*
X116245568Y-137618891D01*
X116804213Y-138973401D01*
X116810168Y-138987741D01*
X116828576Y-139072136D01*
X116825061Y-139110671D01*
X116781987Y-139185831D01*
X116750688Y-139208731D01*
X116667009Y-139229856D01*
X116656799Y-139229585D01*
X116576395Y-139199081D01*
X116556638Y-139180604D01*
X116514846Y-139105475D01*
X116411837Y-138828504D01*
X115711287Y-138828504D01*
X115598447Y-139128983D01*
X115595662Y-139136126D01*
X115542027Y-139206775D01*
X115539961Y-139208195D01*
X115456542Y-139229856D01*
X115427379Y-139228015D01*
X115346266Y-139191387D01*
X115328361Y-139170350D01*
X115304378Y-139087523D01*
X115312072Y-139033240D01*
X115331306Y-138973401D01*
X115496308Y-138573331D01*
X115811732Y-138573331D01*
X116311392Y-138573331D01*
X116061775Y-137918516D01*
X115811732Y-138573331D01*
X115496308Y-138573331D01*
X115889951Y-137618891D01*
X115906265Y-137584349D01*
X115958766Y-137515027D01*
X115980765Y-137499679D01*
X116066477Y-137479123D01*
X116094325Y-137480937D01*
G37*
G36*
X117784325Y-137480563D02*
G01*
X117875512Y-137490413D01*
X117961463Y-137509595D01*
X118042463Y-137538108D01*
X118060169Y-137546128D01*
X118143675Y-137591362D01*
X118218634Y-137645613D01*
X118284813Y-137709505D01*
X118314802Y-137746045D01*
X118363387Y-137818160D01*
X118404985Y-137898237D01*
X118439541Y-137986049D01*
X118463463Y-138069584D01*
X118480253Y-138157767D01*
X118490150Y-138250278D01*
X118493396Y-138346796D01*
X118489750Y-138443200D01*
X118478971Y-138535237D01*
X118461299Y-138623346D01*
X118436976Y-138707970D01*
X118418511Y-138758588D01*
X118379307Y-138843419D01*
X118332964Y-138920466D01*
X118280111Y-138990070D01*
X118267519Y-139004060D01*
X118199561Y-139068104D01*
X118123557Y-139122192D01*
X118039898Y-139166169D01*
X117995529Y-139184326D01*
X117912130Y-139209468D01*
X117824091Y-139224721D01*
X117731297Y-139229856D01*
X117250872Y-139229856D01*
X117211829Y-139227164D01*
X117133330Y-139188395D01*
X117114009Y-139159676D01*
X117096571Y-139075555D01*
X117096571Y-138958013D01*
X117405172Y-138958013D01*
X117711636Y-138958013D01*
X117732764Y-138957610D01*
X117824334Y-138945370D01*
X117909961Y-138914416D01*
X117920905Y-138908901D01*
X117995580Y-138858152D01*
X118056995Y-138790463D01*
X118074708Y-138764294D01*
X118116642Y-138683195D01*
X118145472Y-138597267D01*
X118162468Y-138524797D01*
X118173530Y-138439220D01*
X118177102Y-138346796D01*
X118172743Y-138246764D01*
X118159723Y-138155303D01*
X118138127Y-138072329D01*
X118102205Y-137986139D01*
X118054858Y-137911250D01*
X118039177Y-137892015D01*
X117967471Y-137827797D01*
X117881731Y-137783696D01*
X117795542Y-137761356D01*
X117699241Y-137753957D01*
X117405172Y-137753957D01*
X117405172Y-138958013D01*
X117096571Y-138958013D01*
X117096571Y-137633851D01*
X117098929Y-137600351D01*
X117135894Y-137521011D01*
X117169592Y-137495924D01*
X117253436Y-137479123D01*
X117731297Y-137479123D01*
X117784325Y-137480563D01*
G37*
G36*
X118799433Y-137638980D02*
G01*
X118799433Y-139069999D01*
X118820367Y-139155209D01*
X118843457Y-139184549D01*
X118920634Y-139227044D01*
X118953733Y-139229856D01*
X119036717Y-139208504D01*
X119066573Y-139184549D01*
X119105342Y-139104306D01*
X119108033Y-139069999D01*
X119108033Y-137638980D01*
X119088121Y-137553162D01*
X119066573Y-137522293D01*
X118990767Y-137482708D01*
X118953733Y-137479123D01*
X118868510Y-137501859D01*
X118843457Y-137522293D01*
X118802964Y-137600791D01*
X118799433Y-137638980D01*
G37*
G36*
X120496737Y-137636415D02*
G01*
X120496737Y-138621203D01*
X119764131Y-137552640D01*
X119703009Y-137494510D01*
X119632056Y-137479123D01*
X119546304Y-137500056D01*
X119514087Y-137532551D01*
X119483433Y-137613827D01*
X119479893Y-137656932D01*
X119479893Y-139075128D01*
X119500828Y-139160338D01*
X119523918Y-139189678D01*
X119602537Y-139227485D01*
X119634193Y-139229856D01*
X119717861Y-139209534D01*
X119744469Y-139189678D01*
X119785036Y-139113455D01*
X119788494Y-139075128D01*
X119788494Y-138136503D01*
X120516399Y-139156339D01*
X120582650Y-139212331D01*
X120658304Y-139229856D01*
X120742733Y-139206512D01*
X120766442Y-139184549D01*
X120803047Y-139106470D01*
X120805338Y-139075128D01*
X120805338Y-137636415D01*
X120785717Y-137553006D01*
X120758749Y-137519728D01*
X120681451Y-137481561D01*
X120651038Y-137479123D01*
X120567370Y-137499789D01*
X120540762Y-137519728D01*
X120500268Y-137597862D01*
X120496737Y-137636415D01*
G37*
G36*
X122464174Y-138299779D02*
G01*
X122035467Y-138299779D01*
X121951347Y-138317216D01*
X121922627Y-138336537D01*
X121882297Y-138414890D01*
X121880739Y-138437410D01*
X121908762Y-138520604D01*
X121922627Y-138535290D01*
X122001968Y-138569731D01*
X122035467Y-138572049D01*
X122334237Y-138572049D01*
X122321925Y-138661636D01*
X122289657Y-138746536D01*
X122238050Y-138816401D01*
X122218832Y-138834488D01*
X122142694Y-138883760D01*
X122061576Y-138912792D01*
X121968173Y-138927023D01*
X121922627Y-138928521D01*
X121832201Y-138920319D01*
X121747176Y-138896287D01*
X121723874Y-138886633D01*
X121649082Y-138843827D01*
X121580012Y-138783630D01*
X121567437Y-138769946D01*
X121514948Y-138699403D01*
X121474025Y-138617233D01*
X121464427Y-138591710D01*
X121440689Y-138504272D01*
X121429444Y-138417323D01*
X121427669Y-138363893D01*
X121431240Y-138277314D01*
X121443698Y-138188639D01*
X121459298Y-138126244D01*
X121492025Y-138044156D01*
X121538551Y-137967192D01*
X121557606Y-137942024D01*
X121618746Y-137880700D01*
X121691760Y-137833612D01*
X121714471Y-137822773D01*
X121799116Y-137794553D01*
X121886501Y-137781969D01*
X121922627Y-137780885D01*
X122013749Y-137788008D01*
X122101068Y-137811375D01*
X122143178Y-137830466D01*
X122217120Y-137880911D01*
X122279819Y-137941136D01*
X122302180Y-137967242D01*
X122368906Y-138023139D01*
X122370996Y-138024090D01*
X122444513Y-138041614D01*
X122526511Y-138013362D01*
X122542393Y-137999299D01*
X122580942Y-137920454D01*
X122581716Y-137892443D01*
X122564619Y-137808240D01*
X122515325Y-137737963D01*
X122493239Y-137717199D01*
X122430060Y-137657406D01*
X122356893Y-137601201D01*
X122281950Y-137556655D01*
X122231228Y-137533406D01*
X122142006Y-137504528D01*
X122054362Y-137487914D01*
X121959700Y-137479948D01*
X121915361Y-137479123D01*
X121821886Y-137483846D01*
X121731916Y-137498243D01*
X121645509Y-137522655D01*
X121599066Y-137540672D01*
X121519329Y-137579803D01*
X121445329Y-137627195D01*
X121377124Y-137682789D01*
X121341756Y-137717199D01*
X121285348Y-137785668D01*
X121235894Y-137862348D01*
X121193452Y-137946723D01*
X121172923Y-137996735D01*
X121145635Y-138081111D01*
X121126441Y-138170055D01*
X121115101Y-138263488D01*
X121111374Y-138361328D01*
X121115061Y-138456944D01*
X121126120Y-138548594D01*
X121144553Y-138635835D01*
X121170359Y-138718228D01*
X121208469Y-138806080D01*
X121253179Y-138885900D01*
X121305002Y-138957974D01*
X121337055Y-138994772D01*
X121400347Y-139054405D01*
X121469998Y-139105333D01*
X121545266Y-139148186D01*
X121589235Y-139168734D01*
X121673872Y-139198777D01*
X121762154Y-139218525D01*
X121854480Y-139228434D01*
X121907667Y-139229856D01*
X121993713Y-139226276D01*
X122084567Y-139213827D01*
X122168905Y-139192680D01*
X122221397Y-139173863D01*
X122302750Y-139135045D01*
X122376543Y-139087618D01*
X122442228Y-139031739D01*
X122454344Y-139019563D01*
X122514647Y-138947501D01*
X122563928Y-138867541D01*
X122598813Y-138787471D01*
X122625861Y-138701698D01*
X122642891Y-138612293D01*
X122649904Y-138519884D01*
X122650104Y-138501096D01*
X122639523Y-138413731D01*
X122611209Y-138354062D01*
X122534777Y-138307262D01*
X122464174Y-138299779D01*
G37*
G36*
X124480765Y-137479123D02*
G01*
X123366041Y-137479123D01*
X123280329Y-137499860D01*
X123258330Y-137515882D01*
X123217964Y-137594015D01*
X123216442Y-137616754D01*
X123242237Y-137699602D01*
X123258330Y-137717199D01*
X123338220Y-137752182D01*
X123366041Y-137753957D01*
X123770385Y-137753957D01*
X123770385Y-139069144D01*
X123790297Y-139154768D01*
X123811845Y-139184121D01*
X123887214Y-139226287D01*
X123924685Y-139229856D01*
X124007531Y-139208365D01*
X124037098Y-139184121D01*
X124075502Y-139107740D01*
X124078986Y-139069144D01*
X124078986Y-137753957D01*
X124480765Y-137753957D01*
X124564433Y-137734906D01*
X124591041Y-137717199D01*
X124630983Y-137639295D01*
X124632501Y-137616754D01*
X124606911Y-137533482D01*
X124591041Y-137515882D01*
X124512422Y-137481440D01*
X124480765Y-137479123D01*
G37*
G36*
X125925034Y-137639835D02*
G01*
X125925034Y-138190358D01*
X125182597Y-138190358D01*
X125182597Y-137639835D01*
X125162685Y-137553792D01*
X125141137Y-137522720D01*
X125065331Y-137482717D01*
X125028297Y-137479123D01*
X124943074Y-137502018D01*
X124918021Y-137522720D01*
X124877527Y-137601450D01*
X124873996Y-137639835D01*
X124873996Y-139068716D01*
X124894931Y-139154669D01*
X124918021Y-139184121D01*
X124995198Y-139227037D01*
X125028297Y-139229856D01*
X125111281Y-139208365D01*
X125141137Y-139184121D01*
X125179196Y-139107395D01*
X125182597Y-139068716D01*
X125182597Y-138465192D01*
X125925034Y-138465192D01*
X125925034Y-139068716D01*
X125945275Y-139154669D01*
X125966922Y-139184121D01*
X126042291Y-139226287D01*
X126079762Y-139229856D01*
X126164567Y-139206353D01*
X126189610Y-139184121D01*
X126230522Y-139107395D01*
X126234063Y-139068716D01*
X126234063Y-137639835D01*
X126212989Y-137553792D01*
X126189610Y-137522720D01*
X126112614Y-137481968D01*
X126079762Y-137479123D01*
X125995642Y-137500108D01*
X125966922Y-137522720D01*
X125928518Y-137601450D01*
X125925034Y-137639835D01*
G37*
G36*
X126605922Y-137638980D02*
G01*
X126605922Y-139069999D01*
X126626857Y-139155209D01*
X126649947Y-139184549D01*
X126727124Y-139227044D01*
X126760223Y-139229856D01*
X126843207Y-139208504D01*
X126873063Y-139184549D01*
X126911832Y-139104306D01*
X126914523Y-139069999D01*
X126914523Y-137638980D01*
X126894611Y-137553162D01*
X126873063Y-137522293D01*
X126797257Y-137482708D01*
X126760223Y-137479123D01*
X126675000Y-137501859D01*
X126649947Y-137522293D01*
X126609453Y-137600791D01*
X126605922Y-137638980D01*
G37*
G36*
X127852294Y-138928521D02*
G01*
X127765213Y-138922930D01*
X127724921Y-138916126D01*
X127640974Y-138892150D01*
X127619774Y-138884069D01*
X127543348Y-138840057D01*
X127536427Y-138834488D01*
X127467210Y-138783277D01*
X127460345Y-138777640D01*
X127403925Y-138745583D01*
X127340239Y-138733188D01*
X127298778Y-138740882D01*
X127252189Y-138765245D01*
X127212866Y-138814826D01*
X127195769Y-138889198D01*
X127222697Y-138970409D01*
X127279117Y-139036660D01*
X127345406Y-139092742D01*
X127367166Y-139107612D01*
X127441816Y-139149510D01*
X127487273Y-139168734D01*
X127571564Y-139196749D01*
X127636871Y-139212759D01*
X127725081Y-139225955D01*
X127814468Y-139229842D01*
X127820664Y-139229856D01*
X127908639Y-139226892D01*
X127999241Y-139216035D01*
X128089580Y-139193721D01*
X128104902Y-139188395D01*
X128189765Y-139153954D01*
X128268647Y-139107283D01*
X128305792Y-139078120D01*
X128369180Y-139012763D01*
X128417260Y-138938847D01*
X128428035Y-138916126D01*
X128456433Y-138833481D01*
X128469245Y-138746542D01*
X128469923Y-138720793D01*
X128463769Y-138629814D01*
X128443109Y-138545247D01*
X128425898Y-138505798D01*
X128376222Y-138432336D01*
X128312701Y-138368263D01*
X128308356Y-138364748D01*
X128232969Y-138314472D01*
X128152110Y-138277522D01*
X128146362Y-138275416D01*
X128060366Y-138245807D01*
X127974105Y-138219315D01*
X127962569Y-138216004D01*
X127875032Y-138192138D01*
X127788699Y-138165236D01*
X127701403Y-138131522D01*
X127653968Y-138107438D01*
X127586644Y-138052557D01*
X127556181Y-137967025D01*
X127556088Y-137961258D01*
X127581216Y-137879008D01*
X127619774Y-137835168D01*
X127700504Y-137794082D01*
X127785262Y-137781692D01*
X127818100Y-137780885D01*
X127903691Y-137786114D01*
X127928375Y-137790716D01*
X128009159Y-137815506D01*
X128070708Y-137844999D01*
X128121999Y-137877056D01*
X128180556Y-137906975D01*
X128251936Y-137919371D01*
X128300662Y-137909540D01*
X128347252Y-137884749D01*
X128384010Y-137837733D01*
X128398970Y-137768490D01*
X128378086Y-137685342D01*
X128376744Y-137682577D01*
X128317928Y-137617181D01*
X128298525Y-137604358D01*
X128220302Y-137560106D01*
X128140193Y-137525548D01*
X128107466Y-137513744D01*
X128020222Y-137493023D01*
X127928354Y-137482007D01*
X127845027Y-137479123D01*
X127755341Y-137483406D01*
X127668494Y-137496794D01*
X127612508Y-137511180D01*
X127527605Y-137542055D01*
X127451404Y-137582110D01*
X127418885Y-137604358D01*
X127352820Y-137664379D01*
X127301298Y-137734463D01*
X127288948Y-137756094D01*
X127255642Y-137841611D01*
X127241038Y-137928491D01*
X127239794Y-137963823D01*
X127246074Y-138052183D01*
X127267551Y-138135349D01*
X127279117Y-138161721D01*
X127323248Y-138237375D01*
X127382126Y-138300206D01*
X127453666Y-138351871D01*
X127530919Y-138391895D01*
X127536427Y-138394240D01*
X127620921Y-138428209D01*
X127704273Y-138453791D01*
X127722784Y-138458781D01*
X127805844Y-138480788D01*
X127890886Y-138505560D01*
X127923674Y-138515629D01*
X128005223Y-138546711D01*
X128055748Y-138572476D01*
X128120717Y-138630276D01*
X128129265Y-138641719D01*
X128151406Y-138726756D01*
X128151491Y-138733188D01*
X128128313Y-138817616D01*
X128126700Y-138819955D01*
X128063386Y-138879894D01*
X128060877Y-138881504D01*
X127978697Y-138913271D01*
X127965134Y-138916126D01*
X127877758Y-138927864D01*
X127852294Y-138928521D01*
G37*
G36*
X130619016Y-137626585D02*
G01*
X130116791Y-138547685D01*
X129621833Y-137626585D01*
X129575417Y-137549993D01*
X129543187Y-137514599D01*
X129461647Y-137480051D01*
X129442742Y-137479123D01*
X129356017Y-137498882D01*
X129320498Y-137524857D01*
X129277319Y-137603631D01*
X129271345Y-137656932D01*
X129271345Y-139075128D01*
X129294212Y-139161026D01*
X129315369Y-139187113D01*
X129393989Y-139227084D01*
X129425645Y-139229856D01*
X129511820Y-139207464D01*
X129538485Y-139187113D01*
X129577254Y-139107953D01*
X129579945Y-139075128D01*
X129579945Y-138121115D01*
X129972322Y-138872101D01*
X130020891Y-138943375D01*
X130101940Y-138981418D01*
X130106960Y-138981522D01*
X130187744Y-138953312D01*
X130241852Y-138884385D01*
X130246728Y-138874666D01*
X130651072Y-138110857D01*
X130651072Y-139075128D01*
X130673754Y-139161026D01*
X130695097Y-139187113D01*
X130773476Y-139227084D01*
X130805373Y-139229856D01*
X130891389Y-139207464D01*
X130917786Y-139187113D01*
X130956915Y-139107953D01*
X130959673Y-139075128D01*
X130959673Y-137656932D01*
X130945169Y-137569029D01*
X130913084Y-137522293D01*
X130833045Y-137482708D01*
X130795542Y-137479123D01*
X130712622Y-137505988D01*
X130704928Y-137512035D01*
X130647590Y-137576924D01*
X130619016Y-137626585D01*
G37*
G36*
X132380434Y-138958013D02*
G01*
X131640134Y-138958013D01*
X131640134Y-138463910D01*
X132110729Y-138463910D01*
X132194396Y-138445204D01*
X132221004Y-138427579D01*
X132260946Y-138349446D01*
X132262465Y-138326707D01*
X132236874Y-138243858D01*
X132221004Y-138226262D01*
X132138577Y-138193816D01*
X132110729Y-138192068D01*
X131640134Y-138192068D01*
X131640134Y-137753957D01*
X132377869Y-137753957D01*
X132461418Y-137733220D01*
X132483016Y-137717199D01*
X132521018Y-137639295D01*
X132522339Y-137616754D01*
X132498623Y-137533482D01*
X132483016Y-137515882D01*
X132401613Y-137480427D01*
X132377869Y-137479123D01*
X131488398Y-137479123D01*
X131404866Y-137497605D01*
X131373421Y-137521011D01*
X131334291Y-137600712D01*
X131331533Y-137633851D01*
X131331533Y-139075555D01*
X131353607Y-139161730D01*
X131373421Y-139188395D01*
X131451499Y-139227164D01*
X131485833Y-139229856D01*
X132380434Y-139229856D01*
X132463982Y-139209480D01*
X132485580Y-139193525D01*
X132521034Y-139115391D01*
X132522339Y-139092652D01*
X132498020Y-139008505D01*
X132485580Y-138994772D01*
X132404178Y-138959318D01*
X132380434Y-138958013D01*
G37*
G36*
X133478554Y-137480937D02*
G01*
X133560982Y-137515027D01*
X133585431Y-137541596D01*
X133629797Y-137618891D01*
X134188442Y-138973401D01*
X134194397Y-138987741D01*
X134212805Y-139072136D01*
X134209290Y-139110671D01*
X134166215Y-139185831D01*
X134134917Y-139208731D01*
X134051238Y-139229856D01*
X134041028Y-139229585D01*
X133960624Y-139199081D01*
X133940867Y-139180604D01*
X133899075Y-139105475D01*
X133796065Y-138828504D01*
X133095516Y-138828504D01*
X132982676Y-139128983D01*
X132979891Y-139136126D01*
X132926256Y-139206775D01*
X132924190Y-139208195D01*
X132840771Y-139229856D01*
X132811608Y-139228015D01*
X132730495Y-139191387D01*
X132712590Y-139170350D01*
X132688607Y-139087523D01*
X132696301Y-139033240D01*
X132715535Y-138973401D01*
X132880537Y-138573331D01*
X133195961Y-138573331D01*
X133695621Y-138573331D01*
X133446004Y-137918516D01*
X133195961Y-138573331D01*
X132880537Y-138573331D01*
X133274180Y-137618891D01*
X133290494Y-137584349D01*
X133342995Y-137515027D01*
X133364994Y-137499679D01*
X133450706Y-137479123D01*
X133478554Y-137480937D01*
G37*
G36*
X135497644Y-137636415D02*
G01*
X135497644Y-138621203D01*
X134765038Y-137552640D01*
X134703916Y-137494510D01*
X134632964Y-137479123D01*
X134547211Y-137500056D01*
X134514994Y-137532551D01*
X134484340Y-137613827D01*
X134480800Y-137656932D01*
X134480800Y-139075128D01*
X134501735Y-139160338D01*
X134524825Y-139189678D01*
X134603445Y-139227485D01*
X134635101Y-139229856D01*
X134718768Y-139209534D01*
X134745376Y-139189678D01*
X134785943Y-139113455D01*
X134789401Y-139075128D01*
X134789401Y-138136503D01*
X135517306Y-139156339D01*
X135583557Y-139212331D01*
X135659211Y-139229856D01*
X135743640Y-139206512D01*
X135767349Y-139184549D01*
X135803954Y-139106470D01*
X135806245Y-139075128D01*
X135806245Y-137636415D01*
X135786624Y-137553006D01*
X135759656Y-137519728D01*
X135682359Y-137481561D01*
X135651945Y-137479123D01*
X135568278Y-137499789D01*
X135541669Y-137519728D01*
X135501175Y-137597862D01*
X135497644Y-137636415D01*
G37*
G36*
X136744443Y-138928521D02*
G01*
X136657362Y-138922930D01*
X136617070Y-138916126D01*
X136533124Y-138892150D01*
X136511924Y-138884069D01*
X136435498Y-138840057D01*
X136428576Y-138834488D01*
X136359359Y-138783277D01*
X136352494Y-138777640D01*
X136296074Y-138745583D01*
X136232388Y-138733188D01*
X136190928Y-138740882D01*
X136144338Y-138765245D01*
X136105015Y-138814826D01*
X136087918Y-138889198D01*
X136114846Y-138970409D01*
X136171266Y-139036660D01*
X136237555Y-139092742D01*
X136259316Y-139107612D01*
X136333965Y-139149510D01*
X136379422Y-139168734D01*
X136463713Y-139196749D01*
X136529021Y-139212759D01*
X136617231Y-139225955D01*
X136706618Y-139229842D01*
X136712814Y-139229856D01*
X136800788Y-139226892D01*
X136891390Y-139216035D01*
X136981730Y-139193721D01*
X136997051Y-139188395D01*
X137081914Y-139153954D01*
X137160796Y-139107283D01*
X137197941Y-139078120D01*
X137261330Y-139012763D01*
X137309409Y-138938847D01*
X137320184Y-138916126D01*
X137348582Y-138833481D01*
X137361394Y-138746542D01*
X137362072Y-138720793D01*
X137355919Y-138629814D01*
X137335259Y-138545247D01*
X137318047Y-138505798D01*
X137268371Y-138432336D01*
X137204851Y-138368263D01*
X137200505Y-138364748D01*
X137125118Y-138314472D01*
X137044259Y-138277522D01*
X137038511Y-138275416D01*
X136952515Y-138245807D01*
X136866254Y-138219315D01*
X136854719Y-138216004D01*
X136767182Y-138192138D01*
X136680848Y-138165236D01*
X136593552Y-138131522D01*
X136546118Y-138107438D01*
X136478793Y-138052557D01*
X136448330Y-137967025D01*
X136448237Y-137961258D01*
X136473365Y-137879008D01*
X136511924Y-137835168D01*
X136592654Y-137794082D01*
X136677412Y-137781692D01*
X136710249Y-137780885D01*
X136795841Y-137786114D01*
X136820525Y-137790716D01*
X136901308Y-137815506D01*
X136962857Y-137844999D01*
X137014148Y-137877056D01*
X137072705Y-137906975D01*
X137144085Y-137919371D01*
X137192812Y-137909540D01*
X137239401Y-137884749D01*
X137276160Y-137837733D01*
X137291120Y-137768490D01*
X137270236Y-137685342D01*
X137268893Y-137682577D01*
X137210078Y-137617181D01*
X137190675Y-137604358D01*
X137112451Y-137560106D01*
X137032343Y-137525548D01*
X136999616Y-137513744D01*
X136912371Y-137493023D01*
X136820503Y-137482007D01*
X136737177Y-137479123D01*
X136647490Y-137483406D01*
X136560644Y-137496794D01*
X136504658Y-137511180D01*
X136419754Y-137542055D01*
X136343554Y-137582110D01*
X136311034Y-137604358D01*
X136244970Y-137664379D01*
X136193447Y-137734463D01*
X136181097Y-137756094D01*
X136147791Y-137841611D01*
X136133187Y-137928491D01*
X136131943Y-137963823D01*
X136138223Y-138052183D01*
X136159700Y-138135349D01*
X136171266Y-138161721D01*
X136215398Y-138237375D01*
X136274275Y-138300206D01*
X136345816Y-138351871D01*
X136423069Y-138391895D01*
X136428576Y-138394240D01*
X136513070Y-138428209D01*
X136596423Y-138453791D01*
X136614933Y-138458781D01*
X136697993Y-138480788D01*
X136783036Y-138505560D01*
X136815823Y-138515629D01*
X136897373Y-138546711D01*
X136947897Y-138572476D01*
X137012866Y-138630276D01*
X137021414Y-138641719D01*
X137043555Y-138726756D01*
X137043640Y-138733188D01*
X137020463Y-138817616D01*
X137018850Y-138819955D01*
X136955536Y-138879894D01*
X136953026Y-138881504D01*
X136870846Y-138913271D01*
X136857283Y-138916126D01*
X136769907Y-138927864D01*
X136744443Y-138928521D01*
G37*
G36*
X138008339Y-139107612D02*
G01*
X137999702Y-139020582D01*
X137964305Y-138938561D01*
X137954483Y-138926384D01*
X137883121Y-138876340D01*
X137814715Y-138864835D01*
X137727642Y-138884646D01*
X137689480Y-138911424D01*
X137644261Y-138985350D01*
X137635624Y-139053757D01*
X137657098Y-139138687D01*
X137670245Y-139161468D01*
X137743327Y-139213808D01*
X137807449Y-139229856D01*
X137788287Y-139318701D01*
X137733672Y-139393095D01*
X137653025Y-139439594D01*
X137643318Y-139443141D01*
X137589086Y-139511149D01*
X137589035Y-139514093D01*
X137611261Y-139563247D01*
X137672383Y-139580344D01*
X137759888Y-139563285D01*
X137777957Y-139555981D01*
X137852061Y-139507756D01*
X137888232Y-139472633D01*
X137938300Y-139401872D01*
X137973717Y-139325599D01*
X137997029Y-139239302D01*
X138007048Y-139154394D01*
X138008339Y-139107612D01*
G37*
G36*
X139768475Y-137573156D02*
G01*
X139364131Y-138283537D01*
X138940125Y-137552640D01*
X138884132Y-137494510D01*
X138815317Y-137479123D01*
X138729303Y-137500803D01*
X138702477Y-137524857D01*
X138667493Y-137604527D01*
X138665718Y-137629149D01*
X138670847Y-137674456D01*
X138687944Y-137720191D01*
X139205129Y-138588291D01*
X139205129Y-139069999D01*
X139225874Y-139155209D01*
X139249153Y-139184549D01*
X139326330Y-139227044D01*
X139359429Y-139229856D01*
X139443221Y-139208504D01*
X139471842Y-139184549D01*
X139510971Y-139104306D01*
X139513729Y-139069999D01*
X139513729Y-138588291D01*
X140011252Y-137755667D01*
X140042882Y-137689843D01*
X140057414Y-137616326D01*
X140027257Y-137533531D01*
X140011252Y-137517164D01*
X139933021Y-137480959D01*
X139910380Y-137479123D01*
X139826766Y-137500784D01*
X139824895Y-137502204D01*
X139770085Y-137570100D01*
X139768475Y-137573156D01*
G37*
G36*
X141039047Y-137480573D02*
G01*
X141134417Y-137490628D01*
X141224524Y-137510547D01*
X141309769Y-137540672D01*
X141354594Y-137561389D01*
X141430071Y-137605116D01*
X141499095Y-137657072D01*
X141561950Y-137717199D01*
X141593967Y-137754156D01*
X141645473Y-137826899D01*
X141689397Y-137907008D01*
X141726081Y-137993743D01*
X141751887Y-138077525D01*
X141770320Y-138165835D01*
X141781379Y-138258392D01*
X141785066Y-138354917D01*
X141781379Y-138451161D01*
X141770320Y-138543358D01*
X141751887Y-138630987D01*
X141726081Y-138713526D01*
X141706574Y-138762486D01*
X141665910Y-138845631D01*
X141617816Y-138921740D01*
X141561950Y-138990070D01*
X141527775Y-139024309D01*
X141461528Y-139079723D01*
X141388955Y-139127048D01*
X141309769Y-139166169D01*
X141253460Y-139187601D01*
X141165017Y-139211656D01*
X141071446Y-139225795D01*
X140983644Y-139229856D01*
X140929265Y-139228266D01*
X140834979Y-139217482D01*
X140745271Y-139196707D01*
X140660083Y-139166169D01*
X140615258Y-139145455D01*
X140539781Y-139101762D01*
X140470758Y-139049929D01*
X140407903Y-138990070D01*
X140375886Y-138953113D01*
X140324380Y-138880370D01*
X140280456Y-138800261D01*
X140243771Y-138713526D01*
X140217966Y-138630987D01*
X140199533Y-138543358D01*
X140188473Y-138451161D01*
X140184787Y-138354917D01*
X140501081Y-138354917D01*
X140503359Y-138416493D01*
X140514876Y-138504399D01*
X140535275Y-138587436D01*
X140544162Y-138613769D01*
X140583305Y-138697048D01*
X140633155Y-138767809D01*
X140641119Y-138777437D01*
X140707619Y-138840188D01*
X140785319Y-138886633D01*
X140813329Y-138898510D01*
X140897671Y-138921440D01*
X140983644Y-138928521D01*
X141010876Y-138927843D01*
X141101187Y-138915031D01*
X141184534Y-138886633D01*
X141195925Y-138881364D01*
X141272668Y-138832775D01*
X141336697Y-138767809D01*
X141355581Y-138743866D01*
X141401879Y-138668832D01*
X141434577Y-138587436D01*
X141449297Y-138532592D01*
X141463813Y-138446369D01*
X141468771Y-138354917D01*
X141466554Y-138291678D01*
X141455164Y-138202893D01*
X141434577Y-138119833D01*
X141425691Y-138094323D01*
X141386547Y-138011861D01*
X141336697Y-137939032D01*
X141328733Y-137929856D01*
X141262233Y-137868954D01*
X141184534Y-137822773D01*
X141155499Y-137810896D01*
X141069789Y-137787966D01*
X140983644Y-137780885D01*
X140956411Y-137781563D01*
X140866101Y-137794375D01*
X140782754Y-137822773D01*
X140771856Y-137828042D01*
X140695732Y-137876247D01*
X140631018Y-137939032D01*
X140612132Y-137964018D01*
X140567076Y-138040139D01*
X140535275Y-138119833D01*
X140519181Y-138181660D01*
X140505354Y-138268849D01*
X140501081Y-138354917D01*
X140184787Y-138354917D01*
X140188473Y-138258392D01*
X140199533Y-138165835D01*
X140217966Y-138077525D01*
X140243771Y-137993743D01*
X140263278Y-137944783D01*
X140303942Y-137861638D01*
X140352036Y-137785529D01*
X140407903Y-137717199D01*
X140442078Y-137682789D01*
X140508324Y-137627195D01*
X140580898Y-137579803D01*
X140660083Y-137540672D01*
X140716376Y-137519438D01*
X140804571Y-137496155D01*
X140897324Y-137482850D01*
X140983644Y-137479123D01*
X141039047Y-137480573D01*
G37*
G36*
X143161374Y-137637698D02*
G01*
X143161374Y-138489128D01*
X143155289Y-138592438D01*
X143137058Y-138681843D01*
X143097241Y-138774108D01*
X143038568Y-138844787D01*
X142961108Y-138893959D01*
X142864929Y-138921702D01*
X142774555Y-138928521D01*
X142684039Y-138921809D01*
X142587733Y-138894542D01*
X142510190Y-138846300D01*
X142451470Y-138777084D01*
X142411631Y-138686892D01*
X142393393Y-138599638D01*
X142387308Y-138498959D01*
X142387308Y-137637698D01*
X142367067Y-137552536D01*
X142345420Y-137521865D01*
X142266139Y-137481955D01*
X142233007Y-137479123D01*
X142147785Y-137501701D01*
X142122732Y-137521865D01*
X142082165Y-137599674D01*
X142078707Y-137637698D01*
X142078707Y-138546831D01*
X142083637Y-138641004D01*
X142098116Y-138729809D01*
X142121674Y-138812385D01*
X142127433Y-138828076D01*
X142164943Y-138911302D01*
X142212187Y-138984944D01*
X142264637Y-139043926D01*
X142330512Y-139099966D01*
X142406066Y-139146897D01*
X142482623Y-139181129D01*
X142566620Y-139206446D01*
X142657317Y-139222778D01*
X142744413Y-139229407D01*
X142774555Y-139229856D01*
X142863055Y-139225856D01*
X142955570Y-139212310D01*
X143041582Y-139189640D01*
X143066058Y-139181129D01*
X143149371Y-139142919D01*
X143223621Y-139094405D01*
X143284045Y-139041361D01*
X143341925Y-138974437D01*
X143389502Y-138899312D01*
X143423813Y-138823375D01*
X143448634Y-138740253D01*
X143464001Y-138651278D01*
X143470227Y-138556604D01*
X143470403Y-138537000D01*
X143470403Y-137637698D01*
X143450162Y-137552536D01*
X143428515Y-137521865D01*
X143348813Y-137481955D01*
X143315675Y-137479123D01*
X143231882Y-137499831D01*
X143203262Y-137521865D01*
X143164858Y-137599674D01*
X143161374Y-137637698D01*
G37*
G36*
X143839270Y-137579568D02*
G01*
X143863633Y-137964250D01*
X143893126Y-138030074D01*
X143956812Y-138057002D01*
X144023063Y-138030074D01*
X144052555Y-137966387D01*
X144079483Y-137581705D01*
X144059810Y-137497558D01*
X144047426Y-137483825D01*
X143966961Y-137452029D01*
X143956812Y-137451768D01*
X143875955Y-137479802D01*
X143871327Y-137483825D01*
X143838895Y-137564339D01*
X143839270Y-137579568D01*
G37*
G36*
X145141839Y-137482112D02*
G01*
X145228742Y-137494171D01*
X145315596Y-137518446D01*
X145355896Y-137534630D01*
X145435614Y-137576808D01*
X145504091Y-137628722D01*
X145532072Y-137657365D01*
X145584470Y-137726312D01*
X145624197Y-137804821D01*
X145642102Y-137860072D01*
X145659931Y-137947745D01*
X145666085Y-138040332D01*
X145664076Y-138095700D01*
X145650269Y-138189590D01*
X145623213Y-138275910D01*
X145582737Y-138354489D01*
X145554494Y-138393130D01*
X145494445Y-138455178D01*
X145422212Y-138506944D01*
X145337395Y-138547685D01*
X145607100Y-138908005D01*
X145622653Y-138929326D01*
X145666085Y-139006740D01*
X145678053Y-139084531D01*
X145676768Y-139103508D01*
X145638729Y-139183266D01*
X145607284Y-139209855D01*
X145523752Y-139229856D01*
X145517396Y-139229736D01*
X145435703Y-139201646D01*
X145425816Y-139194514D01*
X145364323Y-139131548D01*
X144999302Y-138601968D01*
X144768920Y-138601968D01*
X144768920Y-139066579D01*
X144765519Y-139105619D01*
X144727459Y-139183266D01*
X144697603Y-139207898D01*
X144614619Y-139229856D01*
X144581520Y-139226964D01*
X144504344Y-139183266D01*
X144479405Y-139150098D01*
X144460319Y-139066579D01*
X144460319Y-138327134D01*
X144768920Y-138327134D01*
X145062988Y-138327134D01*
X145119369Y-138323505D01*
X145202234Y-138300284D01*
X145273709Y-138250625D01*
X145307415Y-138209833D01*
X145341032Y-138126324D01*
X145349790Y-138040332D01*
X145345951Y-137982940D01*
X145321848Y-137898514D01*
X145271571Y-137827902D01*
X145233551Y-137799318D01*
X145150152Y-137764506D01*
X145058286Y-137753957D01*
X144768920Y-137753957D01*
X144768920Y-138327134D01*
X144460319Y-138327134D01*
X144460319Y-137633851D01*
X144463850Y-137596817D01*
X144504344Y-137521011D01*
X144529397Y-137501197D01*
X144614619Y-137479123D01*
X145065553Y-137479123D01*
X145141839Y-137482112D01*
G37*
G36*
X147020594Y-138958013D02*
G01*
X146280294Y-138958013D01*
X146280294Y-138463910D01*
X146750889Y-138463910D01*
X146834556Y-138445204D01*
X146861165Y-138427579D01*
X146901106Y-138349446D01*
X146902625Y-138326707D01*
X146877034Y-138243858D01*
X146861165Y-138226262D01*
X146778737Y-138193816D01*
X146750889Y-138192068D01*
X146280294Y-138192068D01*
X146280294Y-137753957D01*
X147018030Y-137753957D01*
X147101578Y-137733220D01*
X147123176Y-137717199D01*
X147161178Y-137639295D01*
X147162500Y-137616754D01*
X147138784Y-137533482D01*
X147123176Y-137515882D01*
X147041774Y-137480427D01*
X147018030Y-137479123D01*
X146128558Y-137479123D01*
X146045026Y-137497605D01*
X146013581Y-137521011D01*
X145974452Y-137600712D01*
X145971693Y-137633851D01*
X145971693Y-139075555D01*
X145993767Y-139161730D01*
X146013581Y-139188395D01*
X146091660Y-139227164D01*
X146125994Y-139229856D01*
X147020594Y-139229856D01*
X147104143Y-139209480D01*
X147125741Y-139193525D01*
X147161195Y-139115391D01*
X147162500Y-139092652D01*
X147138180Y-139008505D01*
X147125741Y-138994772D01*
X147044338Y-138959318D01*
X147020594Y-138958013D01*
G37*
G36*
X148647024Y-137483414D02*
G01*
X148738353Y-137497605D01*
X148822618Y-137521011D01*
X148871131Y-137540457D01*
X148947652Y-137581996D01*
X149020943Y-137638552D01*
X149054735Y-137673712D01*
X149107906Y-137747371D01*
X149146179Y-137825765D01*
X149171307Y-137906538D01*
X149185933Y-137994584D01*
X149190204Y-138080937D01*
X149185933Y-138168252D01*
X149171307Y-138258335D01*
X149146179Y-138341667D01*
X149123733Y-138388607D01*
X149077969Y-138460844D01*
X149016242Y-138528451D01*
X148971709Y-138563433D01*
X148896846Y-138608468D01*
X148812787Y-138643856D01*
X148728523Y-138666444D01*
X148637193Y-138679154D01*
X148548211Y-138682752D01*
X148251578Y-138682752D01*
X148251578Y-139067434D01*
X148248177Y-139106448D01*
X148210118Y-139186258D01*
X148180262Y-139208870D01*
X148097278Y-139229856D01*
X148064179Y-139227011D01*
X147987002Y-139186258D01*
X147962064Y-139151367D01*
X147942978Y-139067434D01*
X147942978Y-138408345D01*
X148251578Y-138408345D01*
X148548211Y-138408345D01*
X148632759Y-138401584D01*
X148719240Y-138374556D01*
X148793126Y-138320723D01*
X148839119Y-138252470D01*
X148866020Y-138169369D01*
X148873909Y-138080937D01*
X148867471Y-137997460D01*
X148841831Y-137911391D01*
X148790989Y-137839015D01*
X148723364Y-137790525D01*
X148637273Y-137762235D01*
X148543510Y-137753957D01*
X148251578Y-137753957D01*
X148251578Y-138408345D01*
X147942978Y-138408345D01*
X147942978Y-137633851D01*
X147946509Y-137596817D01*
X147987002Y-137521011D01*
X148012055Y-137501197D01*
X148097278Y-137479123D01*
X148558042Y-137479123D01*
X148647024Y-137483414D01*
G37*
G36*
X150011353Y-137480937D02*
G01*
X150093780Y-137515027D01*
X150118229Y-137541596D01*
X150162595Y-137618891D01*
X150721240Y-138973401D01*
X150727195Y-138987741D01*
X150745603Y-139072136D01*
X150742088Y-139110671D01*
X150699014Y-139185831D01*
X150667715Y-139208731D01*
X150584036Y-139229856D01*
X150573827Y-139229585D01*
X150493422Y-139199081D01*
X150473665Y-139180604D01*
X150431873Y-139105475D01*
X150328864Y-138828504D01*
X149628314Y-138828504D01*
X149515474Y-139128983D01*
X149512690Y-139136126D01*
X149459054Y-139206775D01*
X149456988Y-139208195D01*
X149373569Y-139229856D01*
X149344406Y-139228015D01*
X149263293Y-139191387D01*
X149245388Y-139170350D01*
X149221406Y-139087523D01*
X149229099Y-139033240D01*
X149248333Y-138973401D01*
X149413335Y-138573331D01*
X149728759Y-138573331D01*
X150228419Y-138573331D01*
X149978803Y-137918516D01*
X149728759Y-138573331D01*
X149413335Y-138573331D01*
X149806978Y-137618891D01*
X149823292Y-137584349D01*
X149875793Y-137515027D01*
X149897792Y-137499679D01*
X149983504Y-137479123D01*
X150011353Y-137480937D01*
G37*
G36*
X151695119Y-137482112D02*
G01*
X151782022Y-137494171D01*
X151868876Y-137518446D01*
X151909176Y-137534630D01*
X151988894Y-137576808D01*
X152057370Y-137628722D01*
X152085352Y-137657365D01*
X152137750Y-137726312D01*
X152177477Y-137804821D01*
X152195382Y-137860072D01*
X152213211Y-137947745D01*
X152219364Y-138040332D01*
X152217356Y-138095700D01*
X152203549Y-138189590D01*
X152176493Y-138275910D01*
X152136017Y-138354489D01*
X152107774Y-138393130D01*
X152047725Y-138455178D01*
X151975492Y-138506944D01*
X151890675Y-138547685D01*
X152160380Y-138908005D01*
X152175932Y-138929326D01*
X152219364Y-139006740D01*
X152231332Y-139084531D01*
X152230048Y-139103508D01*
X152192009Y-139183266D01*
X152160564Y-139209855D01*
X152077032Y-139229856D01*
X152070676Y-139229736D01*
X151988982Y-139201646D01*
X151979096Y-139194514D01*
X151917602Y-139131548D01*
X151552581Y-138601968D01*
X151322199Y-138601968D01*
X151322199Y-139066579D01*
X151318798Y-139105619D01*
X151280739Y-139183266D01*
X151250883Y-139207898D01*
X151167899Y-139229856D01*
X151134800Y-139226964D01*
X151057623Y-139183266D01*
X151032685Y-139150098D01*
X151013599Y-139066579D01*
X151013599Y-138327134D01*
X151322199Y-138327134D01*
X151616268Y-138327134D01*
X151672649Y-138323505D01*
X151755514Y-138300284D01*
X151826988Y-138250625D01*
X151860695Y-138209833D01*
X151894312Y-138126324D01*
X151903070Y-138040332D01*
X151899231Y-137982940D01*
X151875128Y-137898514D01*
X151824851Y-137827902D01*
X151786831Y-137799318D01*
X151703432Y-137764506D01*
X151611566Y-137753957D01*
X151322199Y-137753957D01*
X151322199Y-138327134D01*
X151013599Y-138327134D01*
X151013599Y-137633851D01*
X151017130Y-137596817D01*
X151057623Y-137521011D01*
X151082677Y-137501197D01*
X151167899Y-137479123D01*
X151618832Y-137479123D01*
X151695119Y-137482112D01*
G37*
G36*
X153612342Y-137479123D02*
G01*
X152497618Y-137479123D01*
X152411906Y-137499860D01*
X152389907Y-137515882D01*
X152349541Y-137594015D01*
X152348019Y-137616754D01*
X152373814Y-137699602D01*
X152389907Y-137717199D01*
X152469797Y-137752182D01*
X152497618Y-137753957D01*
X152901962Y-137753957D01*
X152901962Y-139069144D01*
X152921874Y-139154768D01*
X152943422Y-139184121D01*
X153018791Y-139226287D01*
X153056263Y-139229856D01*
X153139108Y-139208365D01*
X153168675Y-139184121D01*
X153207080Y-139107740D01*
X153210563Y-139069144D01*
X153210563Y-137753957D01*
X153612342Y-137753957D01*
X153696010Y-137734906D01*
X153722618Y-137717199D01*
X153762560Y-137639295D01*
X153764078Y-137616754D01*
X153738488Y-137533482D01*
X153722618Y-137515882D01*
X153643999Y-137481440D01*
X153612342Y-137479123D01*
G37*
G36*
X155181685Y-137480573D02*
G01*
X155277054Y-137490628D01*
X155367162Y-137510547D01*
X155452407Y-137540672D01*
X155497232Y-137561389D01*
X155572709Y-137605116D01*
X155641733Y-137657072D01*
X155704588Y-137717199D01*
X155736604Y-137754156D01*
X155788110Y-137826899D01*
X155832034Y-137907008D01*
X155868719Y-137993743D01*
X155894525Y-138077525D01*
X155912957Y-138165835D01*
X155924017Y-138258392D01*
X155927704Y-138354917D01*
X155924017Y-138451161D01*
X155912957Y-138543358D01*
X155894525Y-138630987D01*
X155868719Y-138713526D01*
X155849212Y-138762486D01*
X155808548Y-138845631D01*
X155760454Y-138921740D01*
X155704588Y-138990070D01*
X155670413Y-139024309D01*
X155604166Y-139079723D01*
X155531592Y-139127048D01*
X155452407Y-139166169D01*
X155396097Y-139187601D01*
X155307655Y-139211656D01*
X155214084Y-139225795D01*
X155126282Y-139229856D01*
X155071902Y-139228266D01*
X154977617Y-139217482D01*
X154887909Y-139196707D01*
X154802721Y-139166169D01*
X154757896Y-139145455D01*
X154682419Y-139101762D01*
X154613396Y-139049929D01*
X154550540Y-138990070D01*
X154518524Y-138953113D01*
X154467018Y-138880370D01*
X154423094Y-138800261D01*
X154386409Y-138713526D01*
X154360603Y-138630987D01*
X154342171Y-138543358D01*
X154331111Y-138451161D01*
X154327424Y-138354917D01*
X154643719Y-138354917D01*
X154645996Y-138416493D01*
X154657514Y-138504399D01*
X154677913Y-138587436D01*
X154686800Y-138613769D01*
X154725943Y-138697048D01*
X154775793Y-138767809D01*
X154783757Y-138777437D01*
X154850257Y-138840188D01*
X154927957Y-138886633D01*
X154955967Y-138898510D01*
X155040309Y-138921440D01*
X155126282Y-138928521D01*
X155153514Y-138927843D01*
X155243825Y-138915031D01*
X155327172Y-138886633D01*
X155338563Y-138881364D01*
X155415306Y-138832775D01*
X155479335Y-138767809D01*
X155498219Y-138743866D01*
X155544517Y-138668832D01*
X155577215Y-138587436D01*
X155591935Y-138532592D01*
X155606450Y-138446369D01*
X155611409Y-138354917D01*
X155609192Y-138291678D01*
X155597802Y-138202893D01*
X155577215Y-138119833D01*
X155568329Y-138094323D01*
X155529185Y-138011861D01*
X155479335Y-137939032D01*
X155471371Y-137929856D01*
X155404871Y-137868954D01*
X155327172Y-137822773D01*
X155298137Y-137810896D01*
X155212426Y-137787966D01*
X155126282Y-137780885D01*
X155099049Y-137781563D01*
X155008739Y-137794375D01*
X154925392Y-137822773D01*
X154914494Y-137828042D01*
X154838369Y-137876247D01*
X154773656Y-137939032D01*
X154754769Y-137964018D01*
X154709714Y-138040139D01*
X154677913Y-138119833D01*
X154661818Y-138181660D01*
X154647991Y-138268849D01*
X154643719Y-138354917D01*
X154327424Y-138354917D01*
X154331111Y-138258392D01*
X154342171Y-138165835D01*
X154360603Y-138077525D01*
X154386409Y-137993743D01*
X154405916Y-137944783D01*
X154446580Y-137861638D01*
X154494674Y-137785529D01*
X154550540Y-137717199D01*
X154584715Y-137682789D01*
X154650962Y-137627195D01*
X154723536Y-137579803D01*
X154802721Y-137540672D01*
X154859014Y-137519438D01*
X154947209Y-137496155D01*
X155039962Y-137482850D01*
X155126282Y-137479123D01*
X155181685Y-137480573D01*
G37*
G36*
X157247592Y-137479123D02*
G01*
X156390177Y-137479123D01*
X156304003Y-137499127D01*
X156277337Y-137518446D01*
X156236104Y-137595623D01*
X156233312Y-137628722D01*
X156233312Y-139067862D01*
X156251583Y-139154142D01*
X156272636Y-139183694D01*
X156347680Y-139226204D01*
X156387613Y-139229856D01*
X156471555Y-139209975D01*
X156503018Y-139183694D01*
X156539623Y-139102550D01*
X156541913Y-139067862D01*
X156541913Y-138518621D01*
X156997976Y-138518621D01*
X157081524Y-138498244D01*
X157103122Y-138482289D01*
X157138576Y-138404156D01*
X157139881Y-138381417D01*
X157117388Y-138298569D01*
X157103122Y-138280972D01*
X157021720Y-138248066D01*
X156997976Y-138246778D01*
X156541913Y-138246778D01*
X156541913Y-137753957D01*
X157247592Y-137753957D01*
X157331561Y-137733220D01*
X157353166Y-137717199D01*
X157388620Y-137639295D01*
X157389924Y-137616754D01*
X157367432Y-137533482D01*
X157353166Y-137515882D01*
X157271534Y-137480427D01*
X157247592Y-137479123D01*
G37*
G36*
X159170577Y-137479123D02*
G01*
X158055853Y-137479123D01*
X157970141Y-137499860D01*
X157948142Y-137515882D01*
X157907775Y-137594015D01*
X157906254Y-137616754D01*
X157932048Y-137699602D01*
X157948142Y-137717199D01*
X158028031Y-137752182D01*
X158055853Y-137753957D01*
X158460197Y-137753957D01*
X158460197Y-139069144D01*
X158480109Y-139154768D01*
X158501657Y-139184121D01*
X158577026Y-139226287D01*
X158614497Y-139229856D01*
X158697342Y-139208365D01*
X158726910Y-139184121D01*
X158765314Y-139107740D01*
X158768797Y-139069144D01*
X158768797Y-137753957D01*
X159170577Y-137753957D01*
X159254244Y-137734906D01*
X159280853Y-137717199D01*
X159320794Y-137639295D01*
X159322313Y-137616754D01*
X159296722Y-137533482D01*
X159280853Y-137515882D01*
X159202233Y-137481440D01*
X159170577Y-137479123D01*
G37*
G36*
X160614846Y-137639835D02*
G01*
X160614846Y-138190358D01*
X159872409Y-138190358D01*
X159872409Y-137639835D01*
X159852497Y-137553792D01*
X159830949Y-137522720D01*
X159755142Y-137482717D01*
X159718108Y-137479123D01*
X159632886Y-137502018D01*
X159607833Y-137522720D01*
X159567339Y-137601450D01*
X159563808Y-137639835D01*
X159563808Y-139068716D01*
X159584743Y-139154669D01*
X159607833Y-139184121D01*
X159685010Y-139227037D01*
X159718108Y-139229856D01*
X159801092Y-139208365D01*
X159830949Y-139184121D01*
X159869008Y-139107395D01*
X159872409Y-139068716D01*
X159872409Y-138465192D01*
X160614846Y-138465192D01*
X160614846Y-139068716D01*
X160635086Y-139154669D01*
X160656734Y-139184121D01*
X160732102Y-139226287D01*
X160769574Y-139229856D01*
X160854378Y-139206353D01*
X160879422Y-139184121D01*
X160920334Y-139107395D01*
X160923874Y-139068716D01*
X160923874Y-137639835D01*
X160902800Y-137553792D01*
X160879422Y-137522720D01*
X160802425Y-137481968D01*
X160769574Y-137479123D01*
X160685453Y-137500108D01*
X160656734Y-137522720D01*
X160618329Y-137601450D01*
X160614846Y-137639835D01*
G37*
G36*
X162344635Y-138958013D02*
G01*
X161604335Y-138958013D01*
X161604335Y-138463910D01*
X162074930Y-138463910D01*
X162158597Y-138445204D01*
X162185205Y-138427579D01*
X162225147Y-138349446D01*
X162226666Y-138326707D01*
X162201075Y-138243858D01*
X162185205Y-138226262D01*
X162102778Y-138193816D01*
X162074930Y-138192068D01*
X161604335Y-138192068D01*
X161604335Y-137753957D01*
X162342070Y-137753957D01*
X162425619Y-137733220D01*
X162447217Y-137717199D01*
X162485219Y-137639295D01*
X162486540Y-137616754D01*
X162462824Y-137533482D01*
X162447217Y-137515882D01*
X162365814Y-137480427D01*
X162342070Y-137479123D01*
X161452599Y-137479123D01*
X161369067Y-137497605D01*
X161337622Y-137521011D01*
X161298492Y-137600712D01*
X161295734Y-137633851D01*
X161295734Y-139075555D01*
X161317808Y-139161730D01*
X161337622Y-139188395D01*
X161415700Y-139227164D01*
X161450034Y-139229856D01*
X162344635Y-139229856D01*
X162428183Y-139209480D01*
X162449781Y-139193525D01*
X162485235Y-139115391D01*
X162486540Y-139092652D01*
X162462221Y-139008505D01*
X162449781Y-138994772D01*
X162368379Y-138959318D01*
X162344635Y-138958013D01*
G37*
G36*
X164318056Y-137639835D02*
G01*
X164318056Y-138190358D01*
X163575619Y-138190358D01*
X163575619Y-137639835D01*
X163555707Y-137553792D01*
X163534159Y-137522720D01*
X163458352Y-137482717D01*
X163421318Y-137479123D01*
X163336096Y-137502018D01*
X163311043Y-137522720D01*
X163270549Y-137601450D01*
X163267018Y-137639835D01*
X163267018Y-139068716D01*
X163287953Y-139154669D01*
X163311043Y-139184121D01*
X163388220Y-139227037D01*
X163421318Y-139229856D01*
X163504303Y-139208365D01*
X163534159Y-139184121D01*
X163572218Y-139107395D01*
X163575619Y-139068716D01*
X163575619Y-138465192D01*
X164318056Y-138465192D01*
X164318056Y-139068716D01*
X164338296Y-139154669D01*
X164359944Y-139184121D01*
X164435313Y-139226287D01*
X164472784Y-139229856D01*
X164557588Y-139206353D01*
X164582632Y-139184121D01*
X164623544Y-139107395D01*
X164627084Y-139068716D01*
X164627084Y-137639835D01*
X164606011Y-137553792D01*
X164582632Y-137522720D01*
X164505635Y-137481968D01*
X164472784Y-137479123D01*
X164388663Y-137500108D01*
X164359944Y-137522720D01*
X164321540Y-137601450D01*
X164318056Y-137639835D01*
G37*
G36*
X165685882Y-137480937D02*
G01*
X165768309Y-137515027D01*
X165792758Y-137541596D01*
X165837124Y-137618891D01*
X166395769Y-138973401D01*
X166401724Y-138987741D01*
X166420132Y-139072136D01*
X166416617Y-139110671D01*
X166373543Y-139185831D01*
X166342244Y-139208731D01*
X166258565Y-139229856D01*
X166248356Y-139229585D01*
X166167951Y-139199081D01*
X166148194Y-139180604D01*
X166106402Y-139105475D01*
X166003393Y-138828504D01*
X165302843Y-138828504D01*
X165190003Y-139128983D01*
X165187219Y-139136126D01*
X165133583Y-139206775D01*
X165131517Y-139208195D01*
X165048098Y-139229856D01*
X165018935Y-139228015D01*
X164937822Y-139191387D01*
X164919917Y-139170350D01*
X164895935Y-139087523D01*
X164903628Y-139033240D01*
X164922862Y-138973401D01*
X165087864Y-138573331D01*
X165403288Y-138573331D01*
X165902948Y-138573331D01*
X165653332Y-137918516D01*
X165403288Y-138573331D01*
X165087864Y-138573331D01*
X165481507Y-137618891D01*
X165497821Y-137584349D01*
X165550322Y-137515027D01*
X165572321Y-137499679D01*
X165658033Y-137479123D01*
X165685882Y-137480937D01*
G37*
G36*
X167779771Y-138005711D02*
G01*
X167833627Y-138040332D01*
X167887482Y-138050590D01*
X167936636Y-138040332D01*
X167983225Y-138013404D01*
X168019984Y-137966387D01*
X168031952Y-137901846D01*
X168022121Y-137840297D01*
X167992629Y-137775756D01*
X167936131Y-137707940D01*
X167921676Y-137692408D01*
X167854666Y-137634156D01*
X167796868Y-137594528D01*
X167717896Y-137552829D01*
X167632772Y-137520011D01*
X167613075Y-137513744D01*
X167528295Y-137493023D01*
X167442778Y-137482007D01*
X167368161Y-137479123D01*
X167281821Y-137483250D01*
X167189303Y-137497557D01*
X167102110Y-137521765D01*
X167047165Y-137543237D01*
X166967783Y-137582780D01*
X166895191Y-137631027D01*
X166828876Y-137687351D01*
X166794556Y-137721900D01*
X166738747Y-137790288D01*
X166691053Y-137866796D01*
X166651473Y-137951025D01*
X166632990Y-138001009D01*
X166607184Y-138084570D01*
X166588751Y-138171979D01*
X166577692Y-138263555D01*
X166574005Y-138359618D01*
X166577692Y-138456103D01*
X166588751Y-138548380D01*
X166607184Y-138635929D01*
X166632990Y-138718228D01*
X166668062Y-138804468D01*
X166711249Y-138883550D01*
X166762550Y-138955419D01*
X166794556Y-138992207D01*
X166857607Y-139052335D01*
X166926649Y-139104290D01*
X167002195Y-139148018D01*
X167047165Y-139168734D01*
X167130554Y-139198777D01*
X167219573Y-139218525D01*
X167313765Y-139228434D01*
X167368161Y-139229856D01*
X167456765Y-139225844D01*
X167546238Y-139212230D01*
X167590849Y-139200791D01*
X167672552Y-139172249D01*
X167750246Y-139135434D01*
X167764811Y-139127274D01*
X167837085Y-139080463D01*
X167892184Y-139034095D01*
X167955164Y-138972743D01*
X167980661Y-138943481D01*
X168017419Y-138876803D01*
X168027250Y-138814826D01*
X167999066Y-138732722D01*
X167990491Y-138720793D01*
X167916062Y-138675368D01*
X167894748Y-138673776D01*
X167812995Y-138700964D01*
X167794303Y-138718228D01*
X167735328Y-138782011D01*
X167669018Y-138839395D01*
X167617777Y-138874238D01*
X167536832Y-138909813D01*
X167449584Y-138926035D01*
X167392524Y-138928521D01*
X167300810Y-138921440D01*
X167217244Y-138900657D01*
X167181803Y-138886633D01*
X167104039Y-138844001D01*
X167038639Y-138788483D01*
X167022374Y-138770374D01*
X166972523Y-138699653D01*
X166933380Y-138617643D01*
X166924494Y-138592138D01*
X166902783Y-138504122D01*
X166892048Y-138416341D01*
X166890300Y-138362183D01*
X166894572Y-138275414D01*
X166908399Y-138186856D01*
X166924494Y-138124535D01*
X166956295Y-138042967D01*
X167001350Y-137966564D01*
X167020237Y-137941597D01*
X167083788Y-137876631D01*
X167158538Y-137828042D01*
X167169408Y-137822773D01*
X167250998Y-137794375D01*
X167340932Y-137781563D01*
X167368161Y-137780885D01*
X167456442Y-137787125D01*
X167502800Y-137797982D01*
X167583342Y-137831101D01*
X167607946Y-137844999D01*
X167678384Y-137897218D01*
X167696423Y-137914242D01*
X167756556Y-137978767D01*
X167779771Y-138005711D01*
G37*
G36*
X169526657Y-138935787D02*
G01*
X168994940Y-138301489D01*
X169480068Y-137740707D01*
X169516826Y-137677021D01*
X169524092Y-137621455D01*
X169498785Y-137539673D01*
X169485197Y-137522293D01*
X169406326Y-137481301D01*
X169379623Y-137479123D01*
X169311235Y-137494510D01*
X169254815Y-137542809D01*
X168634621Y-138263448D01*
X168634621Y-137644109D01*
X168616449Y-137559685D01*
X168593161Y-137524857D01*
X168517792Y-137482765D01*
X168480321Y-137479123D01*
X168396528Y-137500803D01*
X168367908Y-137524857D01*
X168329504Y-137605240D01*
X168326020Y-137644109D01*
X168326020Y-139065297D01*
X168344503Y-139149432D01*
X168367908Y-139184549D01*
X168442932Y-139226296D01*
X168480321Y-139229856D01*
X168564441Y-139208504D01*
X168593161Y-139184549D01*
X168631220Y-139103907D01*
X168634621Y-139065297D01*
X168634621Y-138681897D01*
X168771824Y-138524604D01*
X169315936Y-139171726D01*
X169387167Y-139221493D01*
X169440744Y-139229856D01*
X169489898Y-139220025D01*
X169539052Y-139189678D01*
X169577948Y-139138814D01*
X169592908Y-139069999D01*
X169580512Y-139009304D01*
X169529160Y-138938617D01*
X169526657Y-138935787D01*
G37*
G36*
X170910232Y-138958013D02*
G01*
X170169931Y-138958013D01*
X170169931Y-138463910D01*
X170640526Y-138463910D01*
X170724194Y-138445204D01*
X170750802Y-138427579D01*
X170790744Y-138349446D01*
X170792262Y-138326707D01*
X170766672Y-138243858D01*
X170750802Y-138226262D01*
X170668375Y-138193816D01*
X170640526Y-138192068D01*
X170169931Y-138192068D01*
X170169931Y-137753957D01*
X170907667Y-137753957D01*
X170991215Y-137733220D01*
X171012814Y-137717199D01*
X171050815Y-137639295D01*
X171052137Y-137616754D01*
X171028421Y-137533482D01*
X171012814Y-137515882D01*
X170931411Y-137480427D01*
X170907667Y-137479123D01*
X170018196Y-137479123D01*
X169934663Y-137497605D01*
X169903218Y-137521011D01*
X169864089Y-137600712D01*
X169861331Y-137633851D01*
X169861331Y-139075555D01*
X169883405Y-139161730D01*
X169903218Y-139188395D01*
X169981297Y-139227164D01*
X170015631Y-139229856D01*
X170910232Y-139229856D01*
X170993780Y-139209480D01*
X171015378Y-139193525D01*
X171050832Y-139115391D01*
X171052137Y-139092652D01*
X171027817Y-139008505D01*
X171015378Y-138994772D01*
X170933976Y-138959318D01*
X170910232Y-138958013D01*
G37*
G36*
X172002935Y-137482112D02*
G01*
X172089838Y-137494171D01*
X172176692Y-137518446D01*
X172216991Y-137534630D01*
X172296710Y-137576808D01*
X172365186Y-137628722D01*
X172393168Y-137657365D01*
X172445566Y-137726312D01*
X172485293Y-137804821D01*
X172503198Y-137860072D01*
X172521027Y-137947745D01*
X172527180Y-138040332D01*
X172525172Y-138095700D01*
X172511365Y-138189590D01*
X172484309Y-138275910D01*
X172443832Y-138354489D01*
X172415590Y-138393130D01*
X172355541Y-138455178D01*
X172283307Y-138506944D01*
X172198490Y-138547685D01*
X172468196Y-138908005D01*
X172483748Y-138929326D01*
X172527180Y-139006740D01*
X172539148Y-139084531D01*
X172537863Y-139103508D01*
X172499825Y-139183266D01*
X172468380Y-139209855D01*
X172384848Y-139229856D01*
X172378492Y-139229736D01*
X172296798Y-139201646D01*
X172286911Y-139194514D01*
X172225418Y-139131548D01*
X171860397Y-138601968D01*
X171630015Y-138601968D01*
X171630015Y-139066579D01*
X171626614Y-139105619D01*
X171588555Y-139183266D01*
X171558699Y-139207898D01*
X171475715Y-139229856D01*
X171442616Y-139226964D01*
X171365439Y-139183266D01*
X171340501Y-139150098D01*
X171321414Y-139066579D01*
X171321414Y-138327134D01*
X171630015Y-138327134D01*
X171924084Y-138327134D01*
X171980465Y-138323505D01*
X172063330Y-138300284D01*
X172134804Y-138250625D01*
X172168511Y-138209833D01*
X172202128Y-138126324D01*
X172210886Y-138040332D01*
X172207047Y-137982940D01*
X172182943Y-137898514D01*
X172132667Y-137827902D01*
X172094646Y-137799318D01*
X172011247Y-137764506D01*
X171919382Y-137753957D01*
X171630015Y-137753957D01*
X171630015Y-138327134D01*
X171321414Y-138327134D01*
X171321414Y-137633851D01*
X171324945Y-137596817D01*
X171365439Y-137521011D01*
X171390492Y-137501197D01*
X171475715Y-137479123D01*
X171926648Y-137479123D01*
X172002935Y-137482112D01*
G37*
G36*
X174483504Y-138005711D02*
G01*
X174537360Y-138040332D01*
X174591215Y-138050590D01*
X174640369Y-138040332D01*
X174686959Y-138013404D01*
X174723717Y-137966387D01*
X174735685Y-137901846D01*
X174725854Y-137840297D01*
X174696362Y-137775756D01*
X174639864Y-137707940D01*
X174625409Y-137692408D01*
X174558399Y-137634156D01*
X174500601Y-137594528D01*
X174421630Y-137552829D01*
X174336505Y-137520011D01*
X174316809Y-137513744D01*
X174232028Y-137493023D01*
X174146511Y-137482007D01*
X174071894Y-137479123D01*
X173985554Y-137483250D01*
X173893036Y-137497557D01*
X173805843Y-137521765D01*
X173750898Y-137543237D01*
X173671517Y-137582780D01*
X173598925Y-137631027D01*
X173532609Y-137687351D01*
X173498290Y-137721900D01*
X173442481Y-137790288D01*
X173394786Y-137866796D01*
X173355206Y-137951025D01*
X173336723Y-138001009D01*
X173310917Y-138084570D01*
X173292485Y-138171979D01*
X173281425Y-138263555D01*
X173277739Y-138359618D01*
X173281425Y-138456103D01*
X173292485Y-138548380D01*
X173310917Y-138635929D01*
X173336723Y-138718228D01*
X173371795Y-138804468D01*
X173414982Y-138883550D01*
X173466283Y-138955419D01*
X173498290Y-138992207D01*
X173561341Y-139052335D01*
X173630383Y-139104290D01*
X173705929Y-139148018D01*
X173750898Y-139168734D01*
X173834287Y-139198777D01*
X173923306Y-139218525D01*
X174017498Y-139228434D01*
X174071894Y-139229856D01*
X174160499Y-139225844D01*
X174249971Y-139212230D01*
X174294583Y-139200791D01*
X174376286Y-139172249D01*
X174453980Y-139135434D01*
X174468545Y-139127274D01*
X174540818Y-139080463D01*
X174595917Y-139034095D01*
X174658898Y-138972743D01*
X174684394Y-138943481D01*
X174721153Y-138876803D01*
X174730983Y-138814826D01*
X174702799Y-138732722D01*
X174694225Y-138720793D01*
X174619795Y-138675368D01*
X174598482Y-138673776D01*
X174516729Y-138700964D01*
X174498037Y-138718228D01*
X174439061Y-138782011D01*
X174372751Y-138839395D01*
X174321510Y-138874238D01*
X174240566Y-138909813D01*
X174153318Y-138926035D01*
X174096257Y-138928521D01*
X174004543Y-138921440D01*
X173920977Y-138900657D01*
X173885537Y-138886633D01*
X173807773Y-138844001D01*
X173742372Y-138788483D01*
X173726107Y-138770374D01*
X173676257Y-138699653D01*
X173637114Y-138617643D01*
X173628227Y-138592138D01*
X173606516Y-138504122D01*
X173595781Y-138416341D01*
X173594033Y-138362183D01*
X173598306Y-138275414D01*
X173612132Y-138186856D01*
X173628227Y-138124535D01*
X173660028Y-138042967D01*
X173705083Y-137966564D01*
X173723970Y-137941597D01*
X173787521Y-137876631D01*
X173862272Y-137828042D01*
X173873142Y-137822773D01*
X173954731Y-137794375D01*
X174044666Y-137781563D01*
X174071894Y-137780885D01*
X174160176Y-137787125D01*
X174206533Y-137797982D01*
X174287076Y-137831101D01*
X174311680Y-137844999D01*
X174382117Y-137897218D01*
X174400157Y-137914242D01*
X174460290Y-137978767D01*
X174483504Y-138005711D01*
G37*
G36*
X175817763Y-137480573D02*
G01*
X175913133Y-137490628D01*
X176003240Y-137510547D01*
X176088485Y-137540672D01*
X176133310Y-137561389D01*
X176208787Y-137605116D01*
X176277811Y-137657072D01*
X176340666Y-137717199D01*
X176372683Y-137754156D01*
X176424188Y-137826899D01*
X176468113Y-137907008D01*
X176504797Y-137993743D01*
X176530603Y-138077525D01*
X176549036Y-138165835D01*
X176560095Y-138258392D01*
X176563782Y-138354917D01*
X176560095Y-138451161D01*
X176549036Y-138543358D01*
X176530603Y-138630987D01*
X176504797Y-138713526D01*
X176485290Y-138762486D01*
X176444626Y-138845631D01*
X176396532Y-138921740D01*
X176340666Y-138990070D01*
X176306491Y-139024309D01*
X176240244Y-139079723D01*
X176167671Y-139127048D01*
X176088485Y-139166169D01*
X176032176Y-139187601D01*
X175943733Y-139211656D01*
X175850162Y-139225795D01*
X175762360Y-139229856D01*
X175707981Y-139228266D01*
X175613695Y-139217482D01*
X175523987Y-139196707D01*
X175438799Y-139166169D01*
X175393974Y-139145455D01*
X175318497Y-139101762D01*
X175249474Y-139049929D01*
X175186618Y-138990070D01*
X175154602Y-138953113D01*
X175103096Y-138880370D01*
X175059172Y-138800261D01*
X175022487Y-138713526D01*
X174996682Y-138630987D01*
X174978249Y-138543358D01*
X174967189Y-138451161D01*
X174963503Y-138354917D01*
X175279797Y-138354917D01*
X175282075Y-138416493D01*
X175293592Y-138504399D01*
X175313991Y-138587436D01*
X175322878Y-138613769D01*
X175362021Y-138697048D01*
X175411871Y-138767809D01*
X175419835Y-138777437D01*
X175486335Y-138840188D01*
X175564035Y-138886633D01*
X175592045Y-138898510D01*
X175676387Y-138921440D01*
X175762360Y-138928521D01*
X175789592Y-138927843D01*
X175879903Y-138915031D01*
X175963250Y-138886633D01*
X175974641Y-138881364D01*
X176051384Y-138832775D01*
X176115413Y-138767809D01*
X176134297Y-138743866D01*
X176180595Y-138668832D01*
X176213293Y-138587436D01*
X176228013Y-138532592D01*
X176242528Y-138446369D01*
X176247487Y-138354917D01*
X176245270Y-138291678D01*
X176233880Y-138202893D01*
X176213293Y-138119833D01*
X176204407Y-138094323D01*
X176165263Y-138011861D01*
X176115413Y-137939032D01*
X176107449Y-137929856D01*
X176040949Y-137868954D01*
X175963250Y-137822773D01*
X175934215Y-137810896D01*
X175848505Y-137787966D01*
X175762360Y-137780885D01*
X175735127Y-137781563D01*
X175644817Y-137794375D01*
X175561470Y-137822773D01*
X175550572Y-137828042D01*
X175474448Y-137876247D01*
X175409734Y-137939032D01*
X175390848Y-137964018D01*
X175345792Y-138040139D01*
X175313991Y-138119833D01*
X175297897Y-138181660D01*
X175284070Y-138268849D01*
X175279797Y-138354917D01*
X174963503Y-138354917D01*
X174967189Y-138258392D01*
X174978249Y-138165835D01*
X174996682Y-138077525D01*
X175022487Y-137993743D01*
X175041994Y-137944783D01*
X175082658Y-137861638D01*
X175130752Y-137785529D01*
X175186618Y-137717199D01*
X175220794Y-137682789D01*
X175287040Y-137627195D01*
X175359614Y-137579803D01*
X175438799Y-137540672D01*
X175495092Y-137519438D01*
X175583287Y-137496155D01*
X175676040Y-137482850D01*
X175762360Y-137479123D01*
X175817763Y-137480573D01*
G37*
G36*
X178217062Y-137626585D02*
G01*
X177714837Y-138547685D01*
X177219879Y-137626585D01*
X177173463Y-137549993D01*
X177141233Y-137514599D01*
X177059693Y-137480051D01*
X177040788Y-137479123D01*
X176954063Y-137498882D01*
X176918545Y-137524857D01*
X176875365Y-137603631D01*
X176869391Y-137656932D01*
X176869391Y-139075128D01*
X176892258Y-139161026D01*
X176913415Y-139187113D01*
X176992035Y-139227084D01*
X177023691Y-139229856D01*
X177109866Y-139207464D01*
X177136531Y-139187113D01*
X177175300Y-139107953D01*
X177177991Y-139075128D01*
X177177991Y-138121115D01*
X177570368Y-138872101D01*
X177618937Y-138943375D01*
X177699986Y-138981418D01*
X177705006Y-138981522D01*
X177785790Y-138953312D01*
X177839898Y-138884385D01*
X177844774Y-138874666D01*
X178249118Y-138110857D01*
X178249118Y-139075128D01*
X178271800Y-139161026D01*
X178293143Y-139187113D01*
X178371522Y-139227084D01*
X178403419Y-139229856D01*
X178489435Y-139207464D01*
X178515832Y-139187113D01*
X178554961Y-139107953D01*
X178557719Y-139075128D01*
X178557719Y-137656932D01*
X178543215Y-137569029D01*
X178511130Y-137522293D01*
X178431091Y-137482708D01*
X178393588Y-137479123D01*
X178310668Y-137505988D01*
X178302974Y-137512035D01*
X178245636Y-137576924D01*
X178217062Y-137626585D01*
G37*
G36*
X180277250Y-137626585D02*
G01*
X179775026Y-138547685D01*
X179280068Y-137626585D01*
X179233652Y-137549993D01*
X179201421Y-137514599D01*
X179119881Y-137480051D01*
X179100976Y-137479123D01*
X179014252Y-137498882D01*
X178978733Y-137524857D01*
X178935553Y-137603631D01*
X178929579Y-137656932D01*
X178929579Y-139075128D01*
X178952447Y-139161026D01*
X178973604Y-139187113D01*
X179052223Y-139227084D01*
X179083879Y-139229856D01*
X179170054Y-139207464D01*
X179196720Y-139187113D01*
X179235488Y-139107953D01*
X179238180Y-139075128D01*
X179238180Y-138121115D01*
X179630556Y-138872101D01*
X179679125Y-138943375D01*
X179760175Y-138981418D01*
X179765195Y-138981522D01*
X179845978Y-138953312D01*
X179900087Y-138884385D01*
X179904963Y-138874666D01*
X180309307Y-138110857D01*
X180309307Y-139075128D01*
X180331988Y-139161026D01*
X180353332Y-139187113D01*
X180431711Y-139227084D01*
X180463607Y-139229856D01*
X180549623Y-139207464D01*
X180576020Y-139187113D01*
X180615150Y-139107953D01*
X180617908Y-139075128D01*
X180617908Y-137656932D01*
X180603403Y-137569029D01*
X180571318Y-137522293D01*
X180491280Y-137482708D01*
X180453777Y-137479123D01*
X180370856Y-137505988D01*
X180363162Y-137512035D01*
X180305824Y-137576924D01*
X180277250Y-137626585D01*
G37*
G36*
X182060467Y-137637698D02*
G01*
X182060467Y-138489128D01*
X182054382Y-138592438D01*
X182036151Y-138681843D01*
X181996334Y-138774108D01*
X181937661Y-138844787D01*
X181860201Y-138893959D01*
X181764022Y-138921702D01*
X181673647Y-138928521D01*
X181583132Y-138921809D01*
X181486825Y-138894542D01*
X181409283Y-138846300D01*
X181350563Y-138777084D01*
X181310724Y-138686892D01*
X181292486Y-138599638D01*
X181286400Y-138498959D01*
X181286400Y-137637698D01*
X181266160Y-137552536D01*
X181244513Y-137521865D01*
X181165232Y-137481955D01*
X181132100Y-137479123D01*
X181046878Y-137501701D01*
X181021824Y-137521865D01*
X180981258Y-137599674D01*
X180977800Y-137637698D01*
X180977800Y-138546831D01*
X180982730Y-138641004D01*
X180997209Y-138729809D01*
X181020766Y-138812385D01*
X181026526Y-138828076D01*
X181064036Y-138911302D01*
X181111280Y-138984944D01*
X181163729Y-139043926D01*
X181229605Y-139099966D01*
X181305158Y-139146897D01*
X181381716Y-139181129D01*
X181465713Y-139206446D01*
X181556409Y-139222778D01*
X181643505Y-139229407D01*
X181673647Y-139229856D01*
X181762148Y-139225856D01*
X181854663Y-139212310D01*
X181940675Y-139189640D01*
X181965151Y-139181129D01*
X182048464Y-139142919D01*
X182122714Y-139094405D01*
X182183138Y-139041361D01*
X182241018Y-138974437D01*
X182288595Y-138899312D01*
X182322906Y-138823375D01*
X182347727Y-138740253D01*
X182363094Y-138651278D01*
X182369320Y-138556604D01*
X182369495Y-138537000D01*
X182369495Y-137637698D01*
X182349255Y-137552536D01*
X182327608Y-137521865D01*
X182247906Y-137481955D01*
X182214767Y-137479123D01*
X182130975Y-137499831D01*
X182102355Y-137521865D01*
X182063951Y-137599674D01*
X182060467Y-137637698D01*
G37*
G36*
X183745376Y-137636415D02*
G01*
X183745376Y-138621203D01*
X183012770Y-137552640D01*
X182951648Y-137494510D01*
X182880696Y-137479123D01*
X182794943Y-137500056D01*
X182762726Y-137532551D01*
X182732072Y-137613827D01*
X182728532Y-137656932D01*
X182728532Y-139075128D01*
X182749467Y-139160338D01*
X182772557Y-139189678D01*
X182851177Y-139227485D01*
X182882833Y-139229856D01*
X182966500Y-139209534D01*
X182993108Y-139189678D01*
X183033675Y-139113455D01*
X183037133Y-139075128D01*
X183037133Y-138136503D01*
X183765038Y-139156339D01*
X183831289Y-139212331D01*
X183906943Y-139229856D01*
X183991372Y-139206512D01*
X184015081Y-139184549D01*
X184051686Y-139106470D01*
X184053977Y-139075128D01*
X184053977Y-137636415D01*
X184034356Y-137553006D01*
X184007388Y-137519728D01*
X183930091Y-137481561D01*
X183899677Y-137479123D01*
X183816010Y-137499789D01*
X183789401Y-137519728D01*
X183748907Y-137597862D01*
X183745376Y-137636415D01*
G37*
G36*
X184426264Y-137638980D02*
G01*
X184426264Y-139069999D01*
X184447199Y-139155209D01*
X184470289Y-139184549D01*
X184547466Y-139227044D01*
X184580565Y-139229856D01*
X184663549Y-139208504D01*
X184693405Y-139184549D01*
X184732174Y-139104306D01*
X184734865Y-139069999D01*
X184734865Y-137638980D01*
X184714953Y-137553162D01*
X184693405Y-137522293D01*
X184617599Y-137482708D01*
X184580565Y-137479123D01*
X184495342Y-137501859D01*
X184470289Y-137522293D01*
X184429795Y-137600791D01*
X184426264Y-137638980D01*
G37*
G36*
X186243675Y-137479123D02*
G01*
X185128951Y-137479123D01*
X185043239Y-137499860D01*
X185021240Y-137515882D01*
X184980874Y-137594015D01*
X184979352Y-137616754D01*
X185005147Y-137699602D01*
X185021240Y-137717199D01*
X185101130Y-137752182D01*
X185128951Y-137753957D01*
X185533295Y-137753957D01*
X185533295Y-139069144D01*
X185553207Y-139154768D01*
X185574755Y-139184121D01*
X185650124Y-139226287D01*
X185687595Y-139229856D01*
X185770441Y-139208365D01*
X185800008Y-139184121D01*
X185838412Y-139107740D01*
X185841896Y-139069144D01*
X185841896Y-137753957D01*
X186243675Y-137753957D01*
X186327343Y-137734906D01*
X186353951Y-137717199D01*
X186393893Y-137639295D01*
X186395411Y-137616754D01*
X186369821Y-137533482D01*
X186353951Y-137515882D01*
X186275332Y-137481440D01*
X186243675Y-137479123D01*
G37*
G36*
X187636653Y-137573156D02*
G01*
X187232309Y-138283537D01*
X186808304Y-137552640D01*
X186752311Y-137494510D01*
X186683496Y-137479123D01*
X186597481Y-137500803D01*
X186570655Y-137524857D01*
X186535672Y-137604527D01*
X186533897Y-137629149D01*
X186539026Y-137674456D01*
X186556123Y-137720191D01*
X187073307Y-138588291D01*
X187073307Y-139069999D01*
X187094053Y-139155209D01*
X187117332Y-139184549D01*
X187194509Y-139227044D01*
X187227608Y-139229856D01*
X187311400Y-139208504D01*
X187340020Y-139184549D01*
X187379150Y-139104306D01*
X187381908Y-139069999D01*
X187381908Y-138588291D01*
X187879431Y-137755667D01*
X187911060Y-137689843D01*
X187925593Y-137616326D01*
X187895436Y-137533531D01*
X187879431Y-137517164D01*
X187801200Y-137480959D01*
X187778558Y-137479123D01*
X187694944Y-137500784D01*
X187693073Y-137502204D01*
X187638264Y-137570100D01*
X187636653Y-137573156D01*
G37*
D11*
X148561440Y-104222369D02*
G75*
G02*
X150123990Y-104222369I781275J0D01*
G01*
X160475559Y-105394218D02*
X162037990Y-105394218D01*
X163386631Y-103441100D02*
X164223959Y-106566068D01*
X145631819Y-103441160D02*
X146412982Y-103441160D01*
X142702150Y-106566040D02*
X142702069Y-104222369D01*
X138405191Y-104417619D02*
G75*
G02*
X137713341Y-105193755I-781291J19D01*
G01*
X157545881Y-105784618D02*
G75*
G02*
X155983341Y-105784618I-781270J0D01*
G01*
X148561440Y-105784831D02*
X148561440Y-104222369D01*
X146412982Y-103441160D02*
G75*
G02*
X147194240Y-104222433I18J-781240D01*
G01*
X166409881Y-106566050D02*
X166409859Y-103441160D01*
X138405191Y-104222369D02*
X138405191Y-104417619D01*
X151491218Y-106566040D02*
X151491140Y-104222369D01*
X139772460Y-106566040D02*
X139772382Y-104222369D01*
X166409868Y-105003609D02*
X168037431Y-105003609D01*
X166409859Y-103441160D02*
X168037418Y-103441160D01*
X150123990Y-105784831D02*
G75*
G02*
X148561440Y-105784831I-781275J0D01*
G01*
X137623910Y-105198890D02*
X136842719Y-105198890D01*
X134238482Y-104287432D02*
X134238482Y-105719768D01*
X150123990Y-104222369D02*
X150123990Y-105784831D01*
X145631819Y-106566040D02*
X145631819Y-103441160D01*
X153053690Y-104222369D02*
X153053650Y-106566040D01*
X136842719Y-106566040D02*
X136842641Y-104222369D01*
X153053590Y-104222519D02*
G75*
G02*
X154616140Y-104222519I781275J0D01*
G01*
X157545790Y-105784768D02*
X157545831Y-103441100D01*
X147194250Y-105784768D02*
G75*
G02*
X146412981Y-106566050I-781250J-32D01*
G01*
X160475490Y-104222369D02*
G75*
G02*
X162038040Y-104222369I781275J0D01*
G01*
X154616140Y-104222519D02*
X154616109Y-106566190D01*
X142702069Y-104222369D02*
G75*
G02*
X144264609Y-104222369I781270J0D01*
G01*
X132871250Y-103050691D02*
X132871250Y-106957059D01*
X136842641Y-104222369D02*
G75*
G02*
X138405191Y-104222369I781275J0D01*
G01*
X137713341Y-105193759D02*
G75*
G02*
X137623910Y-105198894I-89441J776359D01*
G01*
X144264610Y-104222369D02*
X144264582Y-106566040D01*
X128769569Y-103571250D02*
X128769569Y-106435918D01*
X131504019Y-101488241D02*
X131504019Y-108519700D01*
X146412982Y-106566040D02*
X145631819Y-106566040D01*
X170185859Y-105003610D02*
G75*
G02*
X170185859Y-106565990I41J-781190D01*
G01*
X130136791Y-102399632D02*
X130136791Y-107608118D01*
X139772450Y-105394218D02*
X141334882Y-105394218D01*
X137713341Y-105193759D02*
X138403860Y-106566040D01*
X160475581Y-106566040D02*
X160475490Y-104222369D01*
X141334932Y-104222369D02*
X141334891Y-106566040D01*
X126035110Y-104287432D02*
X126035110Y-105719768D01*
X127402341Y-102855382D02*
X127402341Y-107152381D01*
X159108340Y-105784768D02*
G75*
G02*
X157545790Y-105784768I-781275J0D01*
G01*
X169404650Y-106566068D02*
X170185859Y-106566068D01*
X151491140Y-104222369D02*
G75*
G02*
X153053690Y-104222369I781275J0D01*
G01*
X159108259Y-103441100D02*
X159108340Y-105784768D01*
X164223959Y-106566068D02*
X165061290Y-103441100D01*
X162038040Y-104222369D02*
X162038009Y-106566040D01*
X168037418Y-106566068D02*
X166409881Y-106566050D01*
X147194250Y-104222432D02*
X147194250Y-105784768D01*
X139772382Y-104222369D02*
G75*
G02*
X141334932Y-104222369I781275J0D01*
G01*
X170185859Y-105003609D02*
G75*
G02*
X170185859Y-103441191I41J781209D01*
G01*
X155983340Y-105784618D02*
X155983368Y-103440950D01*
X170185859Y-103441160D02*
X170967090Y-103441160D01*
G36*
X228559647Y-105600884D02*
G01*
X228560510Y-105602417D01*
X228571040Y-105624986D01*
X228571046Y-105624996D01*
X228672463Y-105742436D01*
X228672469Y-105742441D01*
X228802885Y-105826461D01*
X228802892Y-105826464D01*
X228951720Y-105870255D01*
X228951729Y-105870257D01*
X229106870Y-105870257D01*
X229106878Y-105870255D01*
X229255350Y-105826570D01*
X229255354Y-105826567D01*
X229487707Y-105624662D01*
X229497171Y-105604378D01*
X229503662Y-105598433D01*
X229507593Y-105597740D01*
X231503889Y-105597740D01*
X231512021Y-105601108D01*
X231515389Y-105609240D01*
X231515161Y-105611518D01*
X231511813Y-105628081D01*
X231511811Y-105628080D01*
X231511750Y-105628452D01*
X231511620Y-105629005D01*
X231511619Y-105629004D01*
X231511615Y-105629025D01*
X231470248Y-105804888D01*
X231470106Y-105805434D01*
X231420158Y-105979088D01*
X231419991Y-105979620D01*
X231361685Y-106150643D01*
X231361494Y-106151161D01*
X231295164Y-106318903D01*
X231294484Y-106320328D01*
X230858986Y-107091667D01*
X230857519Y-107093707D01*
X230264289Y-107752733D01*
X230263007Y-107753953D01*
X229919330Y-108034052D01*
X229918407Y-108034732D01*
X229548502Y-108279247D01*
X229547086Y-108280045D01*
X228745490Y-108660018D01*
X228744031Y-108660591D01*
X228321206Y-108794274D01*
X228320217Y-108794539D01*
X227887026Y-108890138D01*
X227886034Y-108890312D01*
X227445956Y-108947642D01*
X227444967Y-108947727D01*
X227001739Y-108966883D01*
X227000250Y-108966851D01*
X226116526Y-108890368D01*
X226115040Y-108890141D01*
X225681806Y-108794561D01*
X225680818Y-108794296D01*
X225257691Y-108660549D01*
X225256710Y-108660190D01*
X224847207Y-108488494D01*
X224846255Y-108488042D01*
X224454224Y-108279577D01*
X224453278Y-108279014D01*
X224083189Y-108034198D01*
X224082267Y-108033520D01*
X223738489Y-107753242D01*
X223737206Y-107752020D01*
X223144100Y-107092733D01*
X223142636Y-107090697D01*
X222707054Y-106319334D01*
X222706272Y-106317641D01*
X222582078Y-105979228D01*
X222581820Y-105978439D01*
X222532069Y-105805142D01*
X222531928Y-105804599D01*
X222490632Y-105628842D01*
X222490624Y-105628814D01*
X222490548Y-105628487D01*
X222490622Y-105628036D01*
X222490477Y-105628065D01*
X222487237Y-105611440D01*
X222488988Y-105602814D01*
X222496325Y-105597952D01*
X222498525Y-105597740D01*
X224494616Y-105597740D01*
X224502748Y-105601108D01*
X224505038Y-105604379D01*
X224514653Y-105624993D01*
X224514656Y-105624997D01*
X224616165Y-105742312D01*
X224746611Y-105826233D01*
X224746617Y-105826235D01*
X224895437Y-105869973D01*
X225050561Y-105869973D01*
X225199024Y-105826340D01*
X225431499Y-105624660D01*
X225431500Y-105624659D01*
X225440961Y-105604378D01*
X225447451Y-105598433D01*
X225451383Y-105597740D01*
X226226780Y-105597740D01*
X226231180Y-105598615D01*
X226234264Y-105599892D01*
X226240488Y-105606115D01*
X226240489Y-105614917D01*
X226238258Y-105618378D01*
X226227168Y-105630219D01*
X226215905Y-105674577D01*
X226215904Y-105674584D01*
X226213260Y-105721053D01*
X226213260Y-105721057D01*
X226238554Y-105891539D01*
X226238554Y-105891541D01*
X226300270Y-106052425D01*
X226395464Y-106196059D01*
X226519592Y-106315583D01*
X226519592Y-106315584D01*
X226666718Y-106405282D01*
X226829821Y-106460875D01*
X226829820Y-106460875D01*
X227001102Y-106479706D01*
X227001104Y-106479706D01*
X227172385Y-106460875D01*
X227335488Y-106405282D01*
X227482613Y-106315585D01*
X227482613Y-106315584D01*
X227606741Y-106196060D01*
X227701936Y-106052425D01*
X227763652Y-105891542D01*
X227763652Y-105891540D01*
X227788911Y-105721295D01*
X227788911Y-105721291D01*
X227774840Y-105629902D01*
X227774734Y-105629735D01*
X227774568Y-105629146D01*
X227766064Y-105615239D01*
X227764695Y-105606545D01*
X227769876Y-105599429D01*
X227775875Y-105597740D01*
X228543666Y-105597740D01*
X228543694Y-105597721D01*
X228552326Y-105595999D01*
X228559647Y-105600884D01*
G37*
G36*
X67337171Y-100510702D02*
G01*
X67589339Y-100544747D01*
X67590999Y-100545098D01*
X67835404Y-100615875D01*
X67836994Y-100616466D01*
X68068322Y-100722433D01*
X68069809Y-100723251D01*
X68283199Y-100862213D01*
X68701825Y-101070945D01*
X68701827Y-101070946D01*
X68932376Y-101114029D01*
X68932372Y-101114029D01*
X69167382Y-101115198D01*
X69167390Y-101115198D01*
X70000010Y-101043671D01*
X70001487Y-101043640D01*
X70418947Y-101061538D01*
X70419928Y-101061622D01*
X70834192Y-101115169D01*
X71299949Y-101070879D01*
X71299954Y-101070878D01*
X71718157Y-100862216D01*
X71931567Y-100723391D01*
X71933053Y-100722574D01*
X72164373Y-100616733D01*
X72165963Y-100616143D01*
X72410335Y-100545474D01*
X72411995Y-100545124D01*
X72664105Y-100511165D01*
X72665798Y-100511063D01*
X72920160Y-100514554D01*
X72921849Y-100514702D01*
X73172931Y-100555566D01*
X73174581Y-100555961D01*
X73416929Y-100633310D01*
X73418502Y-100633944D01*
X73646829Y-100746093D01*
X73648292Y-100746951D01*
X73857645Y-100891464D01*
X73858966Y-100892528D01*
X74044785Y-101066260D01*
X74045935Y-101067506D01*
X74204185Y-101266682D01*
X74205139Y-101268084D01*
X74332370Y-101488363D01*
X74333108Y-101489890D01*
X74426558Y-101726493D01*
X74427063Y-101728112D01*
X74484699Y-101975885D01*
X74484960Y-101977561D01*
X74505528Y-102231113D01*
X74505540Y-102232809D01*
X74488589Y-102486626D01*
X74488352Y-102488305D01*
X74428709Y-102762368D01*
X74426027Y-102766230D01*
X74419227Y-102790369D01*
X74405801Y-102843512D01*
X74393874Y-102896810D01*
X74383435Y-102950373D01*
X74383434Y-102950384D01*
X74323731Y-103811485D01*
X74323730Y-103811498D01*
X74351569Y-104244551D01*
X74397554Y-104676383D01*
X74402429Y-104718120D01*
X74402453Y-104718343D01*
X74406508Y-104760139D01*
X74406537Y-104760499D01*
X74412028Y-104844348D01*
X74412051Y-104844912D01*
X74415296Y-105043940D01*
X74415289Y-105044579D01*
X74407463Y-105243477D01*
X74407418Y-105244137D01*
X74387513Y-105448943D01*
X74387431Y-105449592D01*
X74355938Y-105652869D01*
X74355783Y-105653679D01*
X74288769Y-105945883D01*
X74288751Y-105945878D01*
X74288589Y-105946648D01*
X74288598Y-105946651D01*
X74288591Y-105946676D01*
X74288564Y-105946765D01*
X74288556Y-105946805D01*
X74288492Y-105947008D01*
X74288482Y-105947042D01*
X74282030Y-105967448D01*
X74276367Y-105974186D01*
X74271065Y-105975481D01*
X72639044Y-105975481D01*
X72634643Y-105974605D01*
X72623479Y-105969980D01*
X72617259Y-105963764D01*
X72616768Y-105962581D01*
X72616761Y-105953780D01*
X72622981Y-105947552D01*
X72624701Y-105946991D01*
X72650270Y-105940845D01*
X72882906Y-105774988D01*
X72958267Y-105652944D01*
X72958269Y-105652940D01*
X72999065Y-105515066D01*
X72999065Y-105515064D01*
X73002256Y-105371323D01*
X73002255Y-105371314D01*
X72967617Y-105231771D01*
X72967614Y-105231765D01*
X72897577Y-105106201D01*
X72897571Y-105106193D01*
X72797044Y-105003411D01*
X72797039Y-105003407D01*
X72673056Y-104930597D01*
X72534309Y-104892868D01*
X72390524Y-104892868D01*
X72251776Y-104930597D01*
X72127793Y-105003407D01*
X72127788Y-105003411D01*
X72027261Y-105106193D01*
X72027255Y-105106201D01*
X71957218Y-105231764D01*
X71957215Y-105231770D01*
X71922577Y-105371314D01*
X71922576Y-105371323D01*
X71925767Y-105515063D01*
X71925767Y-105515065D01*
X71966563Y-105652940D01*
X71966565Y-105652944D01*
X72042107Y-105775279D01*
X72147107Y-105873511D01*
X72274228Y-105940765D01*
X72303264Y-105947744D01*
X72310383Y-105952920D01*
X72311758Y-105961614D01*
X72307909Y-105967785D01*
X72302412Y-105972335D01*
X72296794Y-105974847D01*
X72293446Y-105975352D01*
X72291731Y-105975481D01*
X70735219Y-105975481D01*
X70727087Y-105972113D01*
X70724508Y-105968167D01*
X70717126Y-105949281D01*
X70542786Y-105876768D01*
X69458421Y-105876768D01*
X69363901Y-105895643D01*
X69284289Y-105949066D01*
X69270447Y-105970268D01*
X69263181Y-105975236D01*
X69260818Y-105975481D01*
X67711313Y-105975481D01*
X67706912Y-105974605D01*
X67695748Y-105969980D01*
X67689525Y-105963758D01*
X67687987Y-105960046D01*
X67687986Y-105951244D01*
X67694209Y-105945020D01*
X67697259Y-105944224D01*
X67727668Y-105940624D01*
X67854664Y-105873492D01*
X67959783Y-105775208D01*
X67959784Y-105775206D01*
X68035431Y-105652773D01*
X68076296Y-105514787D01*
X68079517Y-105370909D01*
X68044870Y-105231232D01*
X67974781Y-105105537D01*
X67874167Y-105002647D01*
X67874163Y-105002643D01*
X67750080Y-104929764D01*
X67750074Y-104929761D01*
X67611206Y-104891995D01*
X67467294Y-104891995D01*
X67328425Y-104929762D01*
X67328419Y-104929765D01*
X67204336Y-105002643D01*
X67204332Y-105002647D01*
X67103719Y-105105538D01*
X67033629Y-105231232D01*
X66998983Y-105370910D01*
X67002205Y-105514788D01*
X67043068Y-105652772D01*
X67043069Y-105652773D01*
X67118717Y-105775206D01*
X67118718Y-105775208D01*
X67223836Y-105873492D01*
X67351097Y-105940766D01*
X67351100Y-105940767D01*
X67380148Y-105947741D01*
X67387268Y-105952914D01*
X67388645Y-105961608D01*
X67384800Y-105967778D01*
X67379306Y-105972330D01*
X67373684Y-105974846D01*
X67370328Y-105975352D01*
X67368613Y-105975481D01*
X65730192Y-105975481D01*
X65722060Y-105972113D01*
X65719160Y-105967229D01*
X65713148Y-105946811D01*
X65713150Y-105946810D01*
X65713144Y-105946799D01*
X65712995Y-105946291D01*
X65713035Y-105945918D01*
X65712923Y-105945948D01*
X65694049Y-105873918D01*
X65693990Y-105873685D01*
X65676438Y-105800501D01*
X65676384Y-105800266D01*
X65660370Y-105726745D01*
X65660321Y-105726509D01*
X65645855Y-105652654D01*
X65645804Y-105652373D01*
X65628551Y-105551024D01*
X65628501Y-105550702D01*
X65614139Y-105448967D01*
X65614079Y-105448466D01*
X65594290Y-105243778D01*
X65594246Y-105243131D01*
X65586291Y-105044375D01*
X65586282Y-105043882D01*
X65586570Y-104944471D01*
X65586576Y-104944147D01*
X65589658Y-104844790D01*
X65589677Y-104844395D01*
X65595170Y-104760534D01*
X65595210Y-104760065D01*
X65604145Y-104676404D01*
X65677867Y-103811438D01*
X65677867Y-103811429D01*
X65618264Y-102950366D01*
X65607640Y-102896875D01*
X65595608Y-102843529D01*
X65567353Y-102737953D01*
X65567076Y-102736596D01*
X65495669Y-102233324D01*
X65495592Y-102230782D01*
X65516052Y-101977396D01*
X65516313Y-101975720D01*
X65573886Y-101727869D01*
X65574391Y-101726249D01*
X65667808Y-101489568D01*
X65668546Y-101488040D01*
X65795767Y-101267685D01*
X65796721Y-101266282D01*
X65954987Y-101067034D01*
X65956138Y-101065787D01*
X66141992Y-100892003D01*
X66143313Y-100890939D01*
X66352720Y-100746389D01*
X66354184Y-100745531D01*
X66582573Y-100633370D01*
X66584147Y-100632736D01*
X66826562Y-100555398D01*
X66828212Y-100555003D01*
X67079364Y-100514176D01*
X67081054Y-100514028D01*
X67335477Y-100510600D01*
X67337171Y-100510702D01*
G37*
G36*
X67305789Y-105916814D02*
G01*
X67351101Y-105940767D01*
X67351100Y-105940767D01*
X67475051Y-105970530D01*
X67475053Y-105970531D01*
X67727667Y-105940625D01*
X67727668Y-105940624D01*
X67772712Y-105916814D01*
X67778086Y-105915481D01*
X69287608Y-105915481D01*
X69292009Y-105916356D01*
X69297545Y-105918649D01*
X69303769Y-105924873D01*
X69303769Y-105933675D01*
X69299552Y-105938823D01*
X69284290Y-105949065D01*
X69284289Y-105949065D01*
X69229756Y-106032584D01*
X69229755Y-106032587D01*
X69212873Y-106131117D01*
X69238125Y-106301319D01*
X69238125Y-106301321D01*
X69299841Y-106462206D01*
X69395036Y-106605841D01*
X69519166Y-106725366D01*
X69519166Y-106725367D01*
X69666292Y-106815065D01*
X69829397Y-106870659D01*
X69829396Y-106870659D01*
X70000679Y-106889490D01*
X70000681Y-106889490D01*
X70171964Y-106870659D01*
X70335067Y-106815065D01*
X70482196Y-106725365D01*
X70606324Y-106605842D01*
X70701519Y-106462206D01*
X70763235Y-106301321D01*
X70763235Y-106301319D01*
X70788409Y-106131640D01*
X70788409Y-106131639D01*
X70717126Y-105949281D01*
X70701282Y-105942690D01*
X70695068Y-105936457D01*
X70695081Y-105927655D01*
X70697733Y-105923778D01*
X70702115Y-105919569D01*
X70707952Y-105916562D01*
X70712633Y-105915680D01*
X70714762Y-105915481D01*
X72223583Y-105915481D01*
X72228961Y-105916816D01*
X72274230Y-105940766D01*
X72274233Y-105940767D01*
X72398493Y-105970637D01*
X72398498Y-105970638D01*
X72526333Y-105970638D01*
X72526337Y-105970637D01*
X72650268Y-105940846D01*
X72682852Y-105917617D01*
X72689528Y-105915481D01*
X74281305Y-105915481D01*
X74289437Y-105918849D01*
X74292805Y-105926981D01*
X74292514Y-105929551D01*
X74288769Y-105945882D01*
X74288751Y-105945878D01*
X74288589Y-105946648D01*
X74288598Y-105946651D01*
X74288591Y-105946676D01*
X74288564Y-105946765D01*
X74288556Y-105946805D01*
X74288492Y-105947008D01*
X74288482Y-105947042D01*
X74202475Y-106219040D01*
X74202253Y-106219677D01*
X74151410Y-106352778D01*
X74151243Y-106353191D01*
X74095373Y-106484007D01*
X74094701Y-106485335D01*
X73668450Y-107207593D01*
X73666992Y-107209553D01*
X73097412Y-107825897D01*
X73095702Y-107827413D01*
X72415614Y-108318889D01*
X72414218Y-108319753D01*
X72042209Y-108514808D01*
X72041266Y-108515249D01*
X71653114Y-108675863D01*
X71651664Y-108676353D01*
X70840100Y-108891483D01*
X70838625Y-108891772D01*
X70422045Y-108945528D01*
X70421065Y-108945612D01*
X70001410Y-108963569D01*
X69999935Y-108963538D01*
X69163274Y-108891761D01*
X69161311Y-108891419D01*
X68349700Y-108676353D01*
X68348244Y-108675861D01*
X67960054Y-108515029D01*
X67959114Y-108514589D01*
X67587036Y-108319410D01*
X67585644Y-108318548D01*
X66905163Y-107826966D01*
X66903859Y-107825868D01*
X66603388Y-107532190D01*
X66602591Y-107531327D01*
X66333676Y-107208563D01*
X66332606Y-107207044D01*
X65906310Y-106484275D01*
X65905635Y-106482940D01*
X65850002Y-106352355D01*
X65849837Y-106351946D01*
X65799156Y-106219051D01*
X65799005Y-106218631D01*
X65753518Y-106083879D01*
X65753382Y-106083449D01*
X65713148Y-105946811D01*
X65713150Y-105946810D01*
X65713144Y-105946799D01*
X65712995Y-105946291D01*
X65713035Y-105945918D01*
X65712923Y-105945948D01*
X65708717Y-105929896D01*
X65709914Y-105921176D01*
X65716926Y-105915857D01*
X65719841Y-105915481D01*
X67300414Y-105915481D01*
X67305789Y-105916814D01*
G37*
G36*
X224364487Y-98957404D02*
G01*
X224597831Y-98981706D01*
X224599711Y-98982062D01*
X224825789Y-99044716D01*
X224827584Y-99045378D01*
X225040149Y-99144652D01*
X225041810Y-99145603D01*
X225234978Y-99278752D01*
X225236457Y-99279966D01*
X225404863Y-99443288D01*
X225406121Y-99444729D01*
X225545122Y-99633724D01*
X225546124Y-99635355D01*
X225651864Y-99844780D01*
X225652581Y-99846554D01*
X225722218Y-100070887D01*
X225722448Y-100071743D01*
X225724258Y-100079692D01*
X225727579Y-100094115D01*
X225727699Y-100094423D01*
X225728093Y-100096080D01*
X225730114Y-100104126D01*
X225730124Y-100104213D01*
X225730135Y-100104211D01*
X225731705Y-100110669D01*
X225731716Y-100110717D01*
X225817299Y-100469465D01*
X225817299Y-100469467D01*
X225905724Y-100840055D01*
X225954529Y-100950195D01*
X226039031Y-101034708D01*
X226039033Y-101034709D01*
X226269979Y-101089547D01*
X226755741Y-101045852D01*
X226757287Y-101045818D01*
X227732558Y-101089595D01*
X227732569Y-101089594D01*
X227853168Y-101083621D01*
X227853172Y-101083620D01*
X227962479Y-101035187D01*
X227962482Y-101035184D01*
X228096949Y-100839599D01*
X228096951Y-100839595D01*
X228184276Y-100472352D01*
X228184277Y-100472343D01*
X228272042Y-100104354D01*
X228272074Y-100104222D01*
X228274121Y-100096065D01*
X228276076Y-100087844D01*
X228277944Y-100079721D01*
X228279758Y-100071746D01*
X228279990Y-100070886D01*
X228349657Y-99846587D01*
X228350374Y-99844813D01*
X228456136Y-99635419D01*
X228457138Y-99633789D01*
X228596147Y-99444833D01*
X228597405Y-99443392D01*
X228765815Y-99280098D01*
X228767294Y-99278885D01*
X228960449Y-99145769D01*
X228962109Y-99144818D01*
X229174664Y-99045564D01*
X229176459Y-99044902D01*
X229402518Y-98982263D01*
X229404398Y-98981907D01*
X229637720Y-98957613D01*
X229639633Y-98957574D01*
X229873747Y-98972296D01*
X229875640Y-98972574D01*
X230104086Y-99025909D01*
X230105906Y-99026498D01*
X230322336Y-99116963D01*
X230324034Y-99117845D01*
X230522476Y-99242942D01*
X230524004Y-99244093D01*
X230698963Y-99400360D01*
X230700279Y-99401749D01*
X230846907Y-99584856D01*
X230847974Y-99586443D01*
X230962216Y-99791324D01*
X230963006Y-99793067D01*
X231041702Y-100014061D01*
X231042191Y-100015911D01*
X231083218Y-100247219D01*
X231083321Y-100247928D01*
X231327236Y-102392794D01*
X231571190Y-104537779D01*
X231571195Y-104537875D01*
X231571201Y-104537875D01*
X231572293Y-104548238D01*
X231573443Y-104558599D01*
X231573462Y-104558781D01*
X231575434Y-104579550D01*
X231575451Y-104579754D01*
X231583311Y-104681765D01*
X231583333Y-104682128D01*
X231587955Y-104784260D01*
X231587967Y-104784789D01*
X231587809Y-104989424D01*
X231587788Y-104990113D01*
X231574519Y-105208183D01*
X231574468Y-105208773D01*
X231556492Y-105368309D01*
X231556424Y-105368812D01*
X231531412Y-105527467D01*
X231531355Y-105527797D01*
X231521892Y-105578220D01*
X231521861Y-105578378D01*
X231511813Y-105628082D01*
X231511811Y-105628081D01*
X231511750Y-105628452D01*
X231511620Y-105629005D01*
X231511615Y-105629024D01*
X231506948Y-105648872D01*
X231501808Y-105656017D01*
X231495753Y-105657740D01*
X229486228Y-105657740D01*
X229481826Y-105656864D01*
X229477885Y-105655231D01*
X229471662Y-105649007D01*
X229471663Y-105640205D01*
X229474744Y-105635926D01*
X229487707Y-105624661D01*
X229487709Y-105624658D01*
X229548968Y-105493364D01*
X229548970Y-105493357D01*
X229573390Y-105350153D01*
X229573391Y-105350148D01*
X229559069Y-105205575D01*
X229507024Y-105069941D01*
X229420957Y-104952895D01*
X229420955Y-104952894D01*
X229307013Y-104862785D01*
X229307009Y-104862782D01*
X229173281Y-104806012D01*
X229173276Y-104806010D01*
X229029302Y-104786627D01*
X229029298Y-104786627D01*
X228885322Y-104806010D01*
X228885317Y-104806012D01*
X228751589Y-104862782D01*
X228751585Y-104862785D01*
X228637643Y-104952894D01*
X228637641Y-104952895D01*
X228551574Y-105069941D01*
X228499529Y-105205575D01*
X228485207Y-105350148D01*
X228485208Y-105350153D01*
X228509628Y-105493357D01*
X228509628Y-105493358D01*
X228571044Y-105624991D01*
X228571046Y-105624996D01*
X228582773Y-105638575D01*
X228585538Y-105646931D01*
X228581585Y-105654795D01*
X228576565Y-105657317D01*
X228575895Y-105657466D01*
X228573399Y-105657740D01*
X227788992Y-105657740D01*
X227780860Y-105654372D01*
X227777626Y-105647990D01*
X227774840Y-105629902D01*
X227774734Y-105629735D01*
X227774568Y-105629146D01*
X227722880Y-105544618D01*
X227722879Y-105544617D01*
X227641569Y-105487356D01*
X227543697Y-105466990D01*
X226458512Y-105466990D01*
X226361140Y-105487186D01*
X226227168Y-105630219D01*
X226222382Y-105649070D01*
X226217117Y-105656123D01*
X226211236Y-105657740D01*
X225425798Y-105657740D01*
X225421394Y-105656863D01*
X225420294Y-105656407D01*
X225414072Y-105650182D01*
X225414075Y-105641380D01*
X225417162Y-105637097D01*
X225431499Y-105624660D01*
X225431500Y-105624659D01*
X225492757Y-105493339D01*
X225517169Y-105350118D01*
X225517170Y-105350113D01*
X225502838Y-105205525D01*
X225502836Y-105205517D01*
X225450783Y-105069884D01*
X225450781Y-105069879D01*
X225364702Y-104952827D01*
X225250738Y-104862706D01*
X225116996Y-104805934D01*
X225116991Y-104805932D01*
X224973001Y-104786547D01*
X224972997Y-104786547D01*
X224829006Y-104805932D01*
X224829001Y-104805934D01*
X224695260Y-104862707D01*
X224581296Y-104952828D01*
X224495217Y-105069880D01*
X224495215Y-105069885D01*
X224443162Y-105205518D01*
X224443160Y-105205526D01*
X224428828Y-105350114D01*
X224428829Y-105350119D01*
X224453242Y-105493341D01*
X224453242Y-105493343D01*
X224514653Y-105624993D01*
X224514656Y-105624997D01*
X224526393Y-105638562D01*
X224529167Y-105646916D01*
X224525222Y-105654783D01*
X224520193Y-105657313D01*
X224519505Y-105657466D01*
X224517009Y-105657740D01*
X222506533Y-105657740D01*
X222498401Y-105654372D01*
X222495338Y-105648871D01*
X222490637Y-105628865D01*
X222490625Y-105628822D01*
X222490549Y-105628496D01*
X222490624Y-105628037D01*
X222490477Y-105628066D01*
X222470907Y-105527645D01*
X222470850Y-105527329D01*
X222454006Y-105425900D01*
X222453934Y-105425394D01*
X222427749Y-105208496D01*
X222427687Y-105207816D01*
X222414420Y-104989763D01*
X222414399Y-104989073D01*
X222414250Y-104784607D01*
X222414262Y-104784079D01*
X222418881Y-104682041D01*
X222418903Y-104681677D01*
X222426760Y-104579728D01*
X222426786Y-104579443D01*
X222427867Y-104568865D01*
X222427868Y-104568846D01*
X222428894Y-104558729D01*
X222428894Y-104558728D01*
X222431003Y-104537950D01*
X222431018Y-104537811D01*
X222674982Y-102392794D01*
X222918888Y-100247941D01*
X222918990Y-100247233D01*
X222959988Y-100015875D01*
X222960478Y-100014026D01*
X223039146Y-99793011D01*
X223039935Y-99791268D01*
X223154165Y-99586348D01*
X223155233Y-99584760D01*
X223301856Y-99401621D01*
X223303172Y-99400232D01*
X223478129Y-99243940D01*
X223479657Y-99242788D01*
X223678113Y-99117664D01*
X223679811Y-99116782D01*
X223896259Y-99026300D01*
X223898079Y-99025711D01*
X224126545Y-98972367D01*
X224128438Y-98972089D01*
X224362574Y-98957365D01*
X224364487Y-98957404D01*
G37*
%LPC*%
D12*
X48501100Y-147503600D03*
X48501100Y-62503600D03*
X248501100Y-147503600D03*
X248501100Y-62503600D03*
X70001100Y-82003600D03*
X227001100Y-82003600D03*
X227001100Y-128003600D03*
X70001100Y-128003600D03*
%LPD*%
M02*
