G04 #@! TF.GenerationSoftware,KiCad,Pcbnew,8.0.7*
G04 #@! TF.CreationDate,2025-01-15T21:05:11+03:00*
G04 #@! TF.ProjectId,Connector,436f6e6e-6563-4746-9f72-2e6b69636164,rev?*
G04 #@! TF.SameCoordinates,Original*
G04 #@! TF.FileFunction,Copper,L2,Bot*
G04 #@! TF.FilePolarity,Positive*
%FSLAX46Y46*%
G04 Gerber Fmt 4.6, Leading zero omitted, Abs format (unit mm)*
G04 Created by KiCad (PCBNEW 8.0.7) date 2025-01-15 21:05:11*
%MOMM*%
%LPD*%
G01*
G04 APERTURE LIST*
G04 #@! TA.AperFunction,ViaPad*
%ADD10C,0.600000*%
G04 #@! TD*
G04 #@! TA.AperFunction,Conductor*
%ADD11C,0.304800*%
G04 #@! TD*
G04 APERTURE END LIST*
D10*
X136000000Y-107250000D03*
X136654526Y-103360001D03*
X133000000Y-108000000D03*
X134599825Y-104731601D03*
X136031488Y-103817201D03*
X135000000Y-107500000D03*
X134000000Y-105188800D03*
X132000000Y-108250000D03*
X135283834Y-104274401D03*
X134000000Y-107750000D03*
D11*
X136000000Y-107250000D02*
X136000000Y-106250000D01*
X136654526Y-105595474D02*
X136654526Y-103360001D01*
X136000000Y-106250000D02*
X136654526Y-105595474D01*
X133750000Y-106250000D02*
X133000000Y-107000000D01*
X133794117Y-106250000D02*
X133750000Y-106250000D01*
X133000000Y-107000000D02*
X133000000Y-108000000D01*
X134599825Y-104731601D02*
X134604800Y-104736576D01*
X134604800Y-104736576D02*
X134604800Y-105439317D01*
X134604800Y-105439317D02*
X133794117Y-106250000D01*
X135000000Y-106500000D02*
X135000000Y-107500000D01*
X136031488Y-105468512D02*
X135000000Y-106500000D01*
X136031488Y-103817201D02*
X136031488Y-105468512D01*
X134000000Y-105188800D02*
X132000000Y-107188800D01*
X132000000Y-107188800D02*
X132000000Y-108250000D01*
X134500000Y-106250000D02*
X134000000Y-106750000D01*
X135283834Y-105466166D02*
X134500000Y-106250000D01*
X134000000Y-106750000D02*
X134000000Y-107750000D01*
X135283834Y-104274401D02*
X135283834Y-105466166D01*
G04 #@! TA.AperFunction,NonConductor*
G36*
X171502518Y-92529192D02*
G01*
X171755994Y-92545806D01*
X171761606Y-92546545D01*
X172009347Y-92595823D01*
X172014831Y-92597293D01*
X172254020Y-92678487D01*
X172259257Y-92680657D01*
X172485793Y-92792372D01*
X172490716Y-92795214D01*
X172700731Y-92935542D01*
X172705240Y-92939002D01*
X172895141Y-93105540D01*
X172899159Y-93109558D01*
X173065697Y-93299459D01*
X173069157Y-93303968D01*
X173209485Y-93513983D01*
X173212327Y-93518906D01*
X173324039Y-93745435D01*
X173326214Y-93750685D01*
X173407405Y-93989865D01*
X173408876Y-93995355D01*
X173458152Y-94243081D01*
X173458894Y-94248716D01*
X173475507Y-94502181D01*
X173475600Y-94505023D01*
X173475600Y-115502176D01*
X173475507Y-115505018D01*
X173458894Y-115758483D01*
X173458152Y-115764118D01*
X173408876Y-116011844D01*
X173407405Y-116017334D01*
X173326214Y-116256514D01*
X173324039Y-116261764D01*
X173212327Y-116488293D01*
X173209485Y-116493216D01*
X173069157Y-116703231D01*
X173065697Y-116707740D01*
X172899159Y-116897641D01*
X172895141Y-116901659D01*
X172705240Y-117068197D01*
X172700731Y-117071657D01*
X172490716Y-117211985D01*
X172485793Y-117214827D01*
X172259264Y-117326539D01*
X172254014Y-117328714D01*
X172014834Y-117409905D01*
X172009344Y-117411376D01*
X171761618Y-117460652D01*
X171755983Y-117461394D01*
X171502519Y-117478007D01*
X171499677Y-117478100D01*
X125502523Y-117478100D01*
X125499681Y-117478007D01*
X125246216Y-117461394D01*
X125240581Y-117460652D01*
X124992855Y-117411376D01*
X124987365Y-117409905D01*
X124748185Y-117328714D01*
X124742935Y-117326539D01*
X124516406Y-117214827D01*
X124511483Y-117211985D01*
X124301468Y-117071657D01*
X124296959Y-117068197D01*
X124107058Y-116901659D01*
X124103040Y-116897641D01*
X123936502Y-116707740D01*
X123933042Y-116703231D01*
X123792714Y-116493216D01*
X123789872Y-116488293D01*
X123678160Y-116261764D01*
X123675987Y-116256520D01*
X123594793Y-116017331D01*
X123593323Y-116011844D01*
X123570997Y-115899603D01*
X123544045Y-115764106D01*
X123543306Y-115758494D01*
X123526693Y-115505018D01*
X123526600Y-115502176D01*
X123526600Y-108250000D01*
X131542443Y-108250000D01*
X131560977Y-108378909D01*
X131560978Y-108378912D01*
X131578011Y-108416208D01*
X131615079Y-108497374D01*
X131700364Y-108595799D01*
X131809924Y-108666208D01*
X131934883Y-108702900D01*
X131934885Y-108702900D01*
X132065115Y-108702900D01*
X132065117Y-108702900D01*
X132190076Y-108666208D01*
X132299636Y-108595799D01*
X132384921Y-108497374D01*
X132439023Y-108378909D01*
X132457557Y-108250000D01*
X132439023Y-108121091D01*
X132384921Y-108002626D01*
X132315912Y-107922984D01*
X132305300Y-107894531D01*
X132305300Y-107333256D01*
X132318025Y-107302533D01*
X132620526Y-107000031D01*
X132651250Y-106987306D01*
X132681974Y-107000032D01*
X132694700Y-107030756D01*
X132694700Y-107644531D01*
X132684088Y-107672984D01*
X132615078Y-107752626D01*
X132615077Y-107752628D01*
X132560977Y-107871091D01*
X132542443Y-108000000D01*
X132560977Y-108128909D01*
X132560978Y-108128912D01*
X132578011Y-108166208D01*
X132615079Y-108247374D01*
X132700364Y-108345799D01*
X132809924Y-108416208D01*
X132934883Y-108452900D01*
X132934885Y-108452900D01*
X133065115Y-108452900D01*
X133065117Y-108452900D01*
X133190076Y-108416208D01*
X133299636Y-108345799D01*
X133384921Y-108247374D01*
X133439023Y-108128909D01*
X133457557Y-108000000D01*
X133439023Y-107871091D01*
X133384921Y-107752626D01*
X133315912Y-107672984D01*
X133305300Y-107644531D01*
X133305300Y-107144457D01*
X133318026Y-107113733D01*
X133620526Y-106811233D01*
X133651250Y-106798507D01*
X133681974Y-106811233D01*
X133694700Y-106841957D01*
X133694700Y-107394531D01*
X133684088Y-107422984D01*
X133615078Y-107502626D01*
X133615077Y-107502628D01*
X133560977Y-107621091D01*
X133542443Y-107750000D01*
X133560977Y-107878909D01*
X133560978Y-107878912D01*
X133594768Y-107952900D01*
X133615079Y-107997374D01*
X133700364Y-108095799D01*
X133809924Y-108166208D01*
X133934883Y-108202900D01*
X133934885Y-108202900D01*
X134065115Y-108202900D01*
X134065117Y-108202900D01*
X134190076Y-108166208D01*
X134299636Y-108095799D01*
X134384921Y-107997374D01*
X134439023Y-107878909D01*
X134457557Y-107750000D01*
X134439023Y-107621091D01*
X134384921Y-107502626D01*
X134315912Y-107422984D01*
X134305300Y-107394531D01*
X134305300Y-106894457D01*
X134318026Y-106863733D01*
X134620526Y-106561233D01*
X134651250Y-106548507D01*
X134681974Y-106561233D01*
X134694700Y-106591957D01*
X134694700Y-107144531D01*
X134684088Y-107172984D01*
X134615078Y-107252626D01*
X134615077Y-107252628D01*
X134560977Y-107371091D01*
X134542443Y-107500000D01*
X134560977Y-107628909D01*
X134560978Y-107628912D01*
X134594768Y-107702900D01*
X134615079Y-107747374D01*
X134700364Y-107845799D01*
X134809924Y-107916208D01*
X134934883Y-107952900D01*
X134934885Y-107952900D01*
X135065115Y-107952900D01*
X135065117Y-107952900D01*
X135190076Y-107916208D01*
X135299636Y-107845799D01*
X135384921Y-107747374D01*
X135439023Y-107628909D01*
X135457557Y-107500000D01*
X135439023Y-107371091D01*
X135384921Y-107252626D01*
X135315912Y-107172984D01*
X135305300Y-107144531D01*
X135305300Y-106644457D01*
X135318026Y-106613733D01*
X135620526Y-106311233D01*
X135651250Y-106298507D01*
X135681974Y-106311233D01*
X135694700Y-106341957D01*
X135694700Y-106894531D01*
X135684088Y-106922984D01*
X135615078Y-107002626D01*
X135615077Y-107002628D01*
X135560977Y-107121091D01*
X135542443Y-107250000D01*
X135560977Y-107378909D01*
X135560978Y-107378912D01*
X135615077Y-107497370D01*
X135615079Y-107497374D01*
X135700364Y-107595799D01*
X135809924Y-107666208D01*
X135934883Y-107702900D01*
X135934885Y-107702900D01*
X136065115Y-107702900D01*
X136065117Y-107702900D01*
X136190076Y-107666208D01*
X136299636Y-107595799D01*
X136384921Y-107497374D01*
X136439023Y-107378909D01*
X136457557Y-107250000D01*
X136439023Y-107121091D01*
X136384921Y-107002626D01*
X136315912Y-106922984D01*
X136305300Y-106894531D01*
X136305300Y-106394457D01*
X136318026Y-106363733D01*
X136444700Y-106237059D01*
X136898827Y-105782933D01*
X136939020Y-105713315D01*
X136939316Y-105712208D01*
X136939783Y-105710468D01*
X136939783Y-105710464D01*
X136959826Y-105635667D01*
X136959826Y-103715468D01*
X136970438Y-103687015D01*
X137039447Y-103607375D01*
X137093549Y-103488910D01*
X137112083Y-103360001D01*
X137093549Y-103231092D01*
X137039447Y-103112627D01*
X136954162Y-103014202D01*
X136844602Y-102943793D01*
X136719643Y-102907101D01*
X136589409Y-102907101D01*
X136506103Y-102931562D01*
X136464449Y-102943793D01*
X136354888Y-103014203D01*
X136269606Y-103112625D01*
X136269603Y-103112630D01*
X136215504Y-103231088D01*
X136215503Y-103231091D01*
X136199446Y-103342769D01*
X136182476Y-103371369D01*
X136150254Y-103379593D01*
X136144197Y-103378275D01*
X136119861Y-103371129D01*
X136096605Y-103364301D01*
X135966371Y-103364301D01*
X135883065Y-103388762D01*
X135841411Y-103400993D01*
X135731850Y-103471403D01*
X135646568Y-103569825D01*
X135646565Y-103569830D01*
X135592466Y-103688288D01*
X135592465Y-103688291D01*
X135573931Y-103817201D01*
X135577067Y-103839017D01*
X135568842Y-103871239D01*
X135540241Y-103888207D01*
X135510569Y-103881752D01*
X135473910Y-103858193D01*
X135348951Y-103821501D01*
X135218717Y-103821501D01*
X135135411Y-103845962D01*
X135093757Y-103858193D01*
X134984196Y-103928603D01*
X134898914Y-104027025D01*
X134898911Y-104027030D01*
X134844812Y-104145488D01*
X134844811Y-104145491D01*
X134826284Y-104274347D01*
X134809314Y-104302947D01*
X134777092Y-104311171D01*
X134771035Y-104309853D01*
X134714670Y-104293302D01*
X134664942Y-104278701D01*
X134534708Y-104278701D01*
X134452135Y-104302947D01*
X134409748Y-104315393D01*
X134300187Y-104385803D01*
X134214905Y-104484225D01*
X134214902Y-104484230D01*
X134160803Y-104602688D01*
X134160802Y-104602691D01*
X134145686Y-104707829D01*
X134128717Y-104736429D01*
X134096494Y-104744653D01*
X134090440Y-104743335D01*
X134065117Y-104735900D01*
X133934883Y-104735900D01*
X133853686Y-104759742D01*
X133809923Y-104772592D01*
X133700362Y-104843002D01*
X133615080Y-104941424D01*
X133615077Y-104941429D01*
X133560978Y-105059887D01*
X133560977Y-105059890D01*
X133542443Y-105188801D01*
X133542443Y-105188804D01*
X133542591Y-105189835D01*
X133542443Y-105190414D01*
X133542443Y-105191906D01*
X133542062Y-105191906D01*
X133534360Y-105222055D01*
X133530306Y-105226733D01*
X131755700Y-107001340D01*
X131736559Y-107034494D01*
X131715506Y-107070958D01*
X131715505Y-107070959D01*
X131694700Y-107148600D01*
X131694700Y-107894531D01*
X131684088Y-107922984D01*
X131615078Y-108002626D01*
X131615077Y-108002628D01*
X131560977Y-108121091D01*
X131542443Y-108250000D01*
X123526600Y-108250000D01*
X123526600Y-94505023D01*
X123526693Y-94502181D01*
X123535301Y-94370842D01*
X123543306Y-94248703D01*
X123544045Y-94243095D01*
X123593324Y-93995348D01*
X123594792Y-93989872D01*
X123675989Y-93750673D01*
X123678154Y-93745447D01*
X123789875Y-93518899D01*
X123792710Y-93513989D01*
X123933045Y-93303963D01*
X123936502Y-93299459D01*
X124103050Y-93109547D01*
X124107047Y-93105550D01*
X124296963Y-92938998D01*
X124301463Y-92935545D01*
X124511489Y-92795210D01*
X124516399Y-92792375D01*
X124742947Y-92680654D01*
X124748173Y-92678489D01*
X124987372Y-92597292D01*
X124992848Y-92595824D01*
X125240595Y-92546545D01*
X125246203Y-92545806D01*
X125499681Y-92529192D01*
X125502523Y-92529100D01*
X125509385Y-92529100D01*
X171492815Y-92529100D01*
X171499677Y-92529100D01*
X171502518Y-92529192D01*
G37*
G04 #@! TD.AperFunction*
G04 #@! TA.AperFunction,NonConductor*
G36*
X135711192Y-104539150D02*
G01*
X135726077Y-104568887D01*
X135726188Y-104571987D01*
X135726188Y-105324055D01*
X135713462Y-105354779D01*
X135663308Y-105404933D01*
X135632584Y-105417659D01*
X135601860Y-105404933D01*
X135589134Y-105374209D01*
X135589134Y-104629868D01*
X135599746Y-104601415D01*
X135649902Y-104543532D01*
X135679638Y-104528648D01*
X135711192Y-104539150D01*
G37*
G04 #@! TD.AperFunction*
M02*
