G04 EAGLE Gerber RS-274X export*
G75*
%MOMM*%
%FSLAX34Y34*%
%LPD*%
%INSilkscreen Bottom*%
%IPPOS*%
%AMOC8*
5,1,8,0,0,1.08239X$1,22.5*%
G01*
%ADD10C,0.400000*%
%ADD11C,0.076200*%
%ADD12C,0.300000*%
%ADD13C,0.200000*%
%ADD14C,0.100000*%
%ADD15C,0.203200*%

G36*
X787962Y-49959D02*
X787962Y-49959D01*
X787965Y-49957D01*
X787967Y-49959D01*
X793851Y-49278D01*
X793854Y-49276D01*
X793856Y-49278D01*
X798194Y-48320D01*
X798196Y-48318D01*
X798198Y-48319D01*
X802433Y-46980D01*
X802435Y-46977D01*
X802438Y-46979D01*
X806537Y-45261D01*
X806538Y-45258D01*
X806541Y-45259D01*
X810466Y-43173D01*
X810467Y-43170D01*
X810470Y-43171D01*
X814175Y-40721D01*
X814177Y-40718D01*
X814179Y-40718D01*
X817623Y-37912D01*
X817623Y-37908D01*
X817626Y-37909D01*
X820769Y-34764D01*
X820770Y-34761D01*
X820773Y-34761D01*
X823570Y-31306D01*
X823570Y-31301D01*
X823573Y-31301D01*
X825975Y-27564D01*
X825974Y-27560D01*
X825978Y-27559D01*
X827937Y-23573D01*
X827936Y-23569D01*
X827939Y-23568D01*
X829188Y-20172D01*
X829187Y-20168D01*
X829190Y-20167D01*
X830104Y-16666D01*
X830104Y-16664D01*
X830105Y-16663D01*
X830302Y-15654D01*
X830301Y-15652D01*
X830302Y-15651D01*
X830733Y-12463D01*
X830732Y-12461D01*
X830733Y-12460D01*
X830866Y-10276D01*
X830865Y-10274D01*
X830866Y-10273D01*
X830868Y-8223D01*
X830867Y-8221D01*
X830868Y-8220D01*
X830743Y-6174D01*
X830742Y-6173D01*
X830743Y-6172D01*
X830723Y-5964D01*
X830723Y-5963D01*
X830700Y-5755D01*
X828261Y15696D01*
X825821Y37146D01*
X825819Y37148D01*
X825821Y37150D01*
X825371Y39612D01*
X825366Y39617D01*
X825368Y39621D01*
X824492Y41966D01*
X824486Y41969D01*
X824488Y41974D01*
X823212Y44128D01*
X823206Y44130D01*
X823207Y44135D01*
X821572Y46031D01*
X821566Y46032D01*
X821566Y46037D01*
X819623Y47616D01*
X819616Y47616D01*
X819615Y47620D01*
X817425Y48832D01*
X817418Y48831D01*
X817417Y48836D01*
X815047Y49643D01*
X815041Y49641D01*
X815038Y49645D01*
X812563Y50022D01*
X812558Y50019D01*
X812555Y50023D01*
X810052Y49958D01*
X810047Y49954D01*
X810043Y49957D01*
X807591Y49454D01*
X807587Y49449D01*
X807583Y49451D01*
X805257Y48523D01*
X805254Y48518D01*
X805249Y48519D01*
X803124Y47197D01*
X803121Y47191D01*
X803117Y47192D01*
X801257Y45515D01*
X801256Y45509D01*
X801251Y45509D01*
X799716Y43532D01*
X799715Y43525D01*
X799711Y43524D01*
X798547Y41308D01*
X798548Y41301D01*
X798544Y41300D01*
X797789Y38913D01*
X797790Y38910D01*
X797788Y38909D01*
X797750Y38744D01*
X797710Y38581D01*
X797711Y38581D01*
X797710Y38581D01*
X796833Y34900D01*
X795958Y31222D01*
X795676Y30466D01*
X795221Y29804D01*
X794619Y29273D01*
X793906Y28903D01*
X793125Y28717D01*
X792318Y28727D01*
X787449Y29165D01*
X787446Y29163D01*
X787445Y29165D01*
X782555Y29165D01*
X782553Y29163D01*
X782551Y29165D01*
X777683Y28727D01*
X776876Y28717D01*
X776095Y28902D01*
X775382Y29272D01*
X774781Y29804D01*
X774327Y30466D01*
X774046Y31221D01*
X773168Y34900D01*
X772290Y38581D01*
X772250Y38744D01*
X772212Y38909D01*
X772210Y38911D01*
X772211Y38913D01*
X771456Y41300D01*
X771451Y41304D01*
X771453Y41308D01*
X770290Y43525D01*
X770284Y43528D01*
X770285Y43532D01*
X768750Y45510D01*
X768743Y45512D01*
X768744Y45517D01*
X766884Y47193D01*
X766877Y47194D01*
X766877Y47198D01*
X764751Y48521D01*
X764745Y48521D01*
X764743Y48525D01*
X762418Y49453D01*
X762412Y49451D01*
X762410Y49456D01*
X759957Y49960D01*
X759951Y49957D01*
X759948Y49961D01*
X757445Y50025D01*
X757440Y50021D01*
X757437Y50024D01*
X754961Y49647D01*
X754957Y49642D01*
X754953Y49645D01*
X752583Y48838D01*
X752579Y48832D01*
X752575Y48834D01*
X750384Y47622D01*
X750381Y47616D01*
X750377Y47617D01*
X748433Y46038D01*
X748432Y46032D01*
X748427Y46032D01*
X746792Y44136D01*
X746792Y44130D01*
X746787Y44129D01*
X745511Y41974D01*
X745512Y41969D01*
X745509Y41967D01*
X745508Y41967D01*
X744631Y39621D01*
X744633Y39615D01*
X744629Y39613D01*
X744179Y37150D01*
X744181Y37147D01*
X744179Y37146D01*
X741740Y15696D01*
X739300Y-5755D01*
X739300Y-5756D01*
X739279Y-5964D01*
X739258Y-6172D01*
X739258Y-6173D01*
X739257Y-6174D01*
X739132Y-8218D01*
X739134Y-8220D01*
X739132Y-8221D01*
X739134Y-10269D01*
X739135Y-10271D01*
X739134Y-10272D01*
X739267Y-12456D01*
X739268Y-12458D01*
X739267Y-12459D01*
X739529Y-14632D01*
X739531Y-14633D01*
X739530Y-14635D01*
X739896Y-16662D01*
X739898Y-16664D01*
X739896Y-16666D01*
X740808Y-20162D01*
X740811Y-20164D01*
X740810Y-20166D01*
X742054Y-23557D01*
X742058Y-23560D01*
X742056Y-23562D01*
X744017Y-27549D01*
X744020Y-27551D01*
X744019Y-27554D01*
X746421Y-31292D01*
X746425Y-31293D01*
X746424Y-31296D01*
X749221Y-34752D01*
X749225Y-34753D01*
X749225Y-34756D01*
X752367Y-37902D01*
X752371Y-37902D01*
X752370Y-37905D01*
X755815Y-40713D01*
X755818Y-40713D01*
X755819Y-40716D01*
X759525Y-43167D01*
X759528Y-43167D01*
X759529Y-43170D01*
X763455Y-45257D01*
X763458Y-45257D01*
X763459Y-45259D01*
X767559Y-46979D01*
X767562Y-46978D01*
X767563Y-46980D01*
X771800Y-48319D01*
X771803Y-48318D01*
X771804Y-48321D01*
X776144Y-49278D01*
X776147Y-49276D01*
X776149Y-49279D01*
X782033Y-49959D01*
X782036Y-49957D01*
X782038Y-49959D01*
X787962Y-49959D01*
G37*
G36*
X-782196Y-42014D02*
X-782196Y-42014D01*
X-782193Y-42017D01*
X-776621Y-41378D01*
X-776620Y-41377D01*
X-776618Y-41377D01*
X-776618Y-41376D01*
X-776616Y-41378D01*
X-772507Y-40480D01*
X-772505Y-40477D01*
X-772503Y-40479D01*
X-768488Y-39223D01*
X-768486Y-39220D01*
X-768484Y-39221D01*
X-764596Y-37612D01*
X-764594Y-37610D01*
X-764592Y-37611D01*
X-760865Y-35657D01*
X-760864Y-35653D01*
X-760861Y-35654D01*
X-757336Y-33360D01*
X-757335Y-33356D01*
X-757332Y-33357D01*
X-754047Y-30730D01*
X-754046Y-30726D01*
X-754044Y-30727D01*
X-751034Y-27786D01*
X-751033Y-27782D01*
X-751030Y-27782D01*
X-748335Y-24550D01*
X-748335Y-24546D01*
X-748332Y-24546D01*
X-745997Y-21048D01*
X-745998Y-21044D01*
X-745995Y-21043D01*
X-744061Y-17309D01*
X-744061Y-17307D01*
X-744062Y-17307D01*
X-744062Y-17305D01*
X-744059Y-17305D01*
X-742989Y-14657D01*
X-742990Y-14655D01*
X-742988Y-14654D01*
X-742127Y-11931D01*
X-742126Y-11930D01*
X-742127Y-11928D01*
X-742126Y-11928D01*
X-741453Y-8996D01*
X-741455Y-8994D01*
X-741453Y-8993D01*
X-741137Y-6956D01*
X-741138Y-6954D01*
X-741137Y-6953D01*
X-740937Y-4901D01*
X-740939Y-4899D01*
X-740937Y-4898D01*
X-740859Y-2906D01*
X-740860Y-2904D01*
X-740859Y-2903D01*
X-740891Y-909D01*
X-740892Y-908D01*
X-740891Y-907D01*
X-740946Y-66D01*
X-740948Y-65D01*
X-740947Y-64D01*
X-741036Y774D01*
X-741775Y9425D01*
X-741718Y13746D01*
X-741178Y18033D01*
X-740954Y19104D01*
X-740671Y20163D01*
X-740672Y20165D01*
X-740670Y20165D01*
X-740083Y22998D01*
X-740085Y23004D01*
X-740082Y23007D01*
X-739974Y25898D01*
X-739978Y25903D01*
X-739975Y25906D01*
X-740350Y28775D01*
X-740354Y28779D01*
X-740352Y28783D01*
X-741200Y31549D01*
X-741205Y31552D01*
X-741203Y31556D01*
X-742499Y34143D01*
X-742505Y34146D01*
X-742504Y34150D01*
X-744213Y36484D01*
X-744219Y36486D01*
X-744218Y36490D01*
X-746293Y38508D01*
X-746299Y38508D01*
X-746299Y38513D01*
X-748680Y40156D01*
X-748686Y40156D01*
X-748687Y40160D01*
X-751308Y41385D01*
X-751315Y41383D01*
X-751316Y41387D01*
X-754105Y42158D01*
X-754111Y42156D01*
X-754113Y42159D01*
X-756991Y42455D01*
X-756996Y42452D01*
X-756999Y42455D01*
X-759886Y42267D01*
X-759891Y42263D01*
X-759895Y42266D01*
X-762710Y41600D01*
X-762714Y41595D01*
X-762718Y41597D01*
X-765383Y40472D01*
X-765386Y40466D01*
X-765390Y40468D01*
X-767831Y38914D01*
X-767831Y38913D01*
X-767832Y38914D01*
X-769136Y38044D01*
X-770535Y37346D01*
X-772010Y36828D01*
X-774318Y36397D01*
X-776667Y36385D01*
X-782207Y37021D01*
X-782211Y37019D01*
X-782213Y37021D01*
X-787792Y37021D01*
X-787796Y37019D01*
X-787798Y37021D01*
X-793338Y36385D01*
X-795687Y36397D01*
X-797996Y36829D01*
X-799472Y37346D01*
X-800872Y38044D01*
X-802177Y38914D01*
X-804618Y40469D01*
X-804624Y40469D01*
X-804625Y40473D01*
X-807291Y41600D01*
X-807297Y41599D01*
X-807298Y41603D01*
X-810114Y42270D01*
X-810120Y42268D01*
X-810123Y42271D01*
X-813010Y42460D01*
X-813015Y42457D01*
X-813019Y42460D01*
X-815897Y42165D01*
X-815902Y42161D01*
X-815905Y42163D01*
X-818695Y41393D01*
X-818699Y41388D01*
X-818703Y41390D01*
X-821325Y40166D01*
X-821328Y40161D01*
X-821332Y40162D01*
X-823714Y38518D01*
X-823716Y38512D01*
X-823720Y38513D01*
X-825794Y36495D01*
X-825795Y36489D01*
X-825800Y36489D01*
X-827509Y34154D01*
X-827509Y34147D01*
X-827513Y34147D01*
X-828810Y31559D01*
X-828809Y31553D01*
X-828813Y31552D01*
X-829660Y28785D01*
X-829658Y28780D01*
X-829661Y28777D01*
X-829662Y28777D01*
X-830037Y25907D01*
X-830034Y25902D01*
X-830037Y25899D01*
X-829928Y23007D01*
X-829924Y23002D01*
X-829927Y22999D01*
X-829338Y20165D01*
X-829337Y20164D01*
X-829338Y20163D01*
X-829054Y19104D01*
X-828827Y18033D01*
X-828287Y13746D01*
X-828231Y9425D01*
X-828969Y774D01*
X-829058Y-64D01*
X-829057Y-65D01*
X-829058Y-66D01*
X-829114Y-907D01*
X-829113Y-908D01*
X-829114Y-909D01*
X-829147Y-2901D01*
X-829146Y-2903D01*
X-829147Y-2904D01*
X-829068Y-4895D01*
X-829066Y-4897D01*
X-829068Y-4898D01*
X-828869Y-6948D01*
X-828868Y-6949D01*
X-828869Y-6951D01*
X-828552Y-8986D01*
X-828551Y-8987D01*
X-828552Y-8988D01*
X-828246Y-10464D01*
X-828245Y-10465D01*
X-828246Y-10466D01*
X-827879Y-11929D01*
X-827877Y-11930D01*
X-827878Y-11931D01*
X-827020Y-14648D01*
X-827018Y-14650D01*
X-827019Y-14652D01*
X-825953Y-17294D01*
X-825950Y-17296D01*
X-825951Y-17298D01*
X-824017Y-21034D01*
X-824013Y-21036D01*
X-824014Y-21039D01*
X-821680Y-24539D01*
X-821676Y-24540D01*
X-821677Y-24543D01*
X-818982Y-27777D01*
X-818979Y-27778D01*
X-818979Y-27781D01*
X-815968Y-30723D01*
X-815965Y-30724D01*
X-815965Y-30727D01*
X-812678Y-33353D01*
X-812675Y-33353D01*
X-812674Y-33356D01*
X-809148Y-35651D01*
X-809145Y-35651D01*
X-809144Y-35653D01*
X-805417Y-37608D01*
X-805414Y-37608D01*
X-805413Y-37610D01*
X-801524Y-39221D01*
X-801521Y-39221D01*
X-801520Y-39223D01*
X-797505Y-40478D01*
X-797501Y-40477D01*
X-797500Y-40479D01*
X-793390Y-41377D01*
X-793387Y-41376D01*
X-793387Y-41377D01*
X-793386Y-41377D01*
X-793385Y-41378D01*
X-787813Y-42017D01*
X-787809Y-42014D01*
X-787808Y-42017D01*
X-782199Y-42017D01*
X-782196Y-42014D01*
G37*
%LPC*%
G36*
X784196Y-25133D02*
X784196Y-25133D01*
X782620Y-24806D01*
X781144Y-24167D01*
X779828Y-23241D01*
X778728Y-22067D01*
X777889Y-20695D01*
X777345Y-19180D01*
X777121Y-17587D01*
X777147Y-17122D01*
X777262Y-16671D01*
X777532Y-16135D01*
X777924Y-15681D01*
X778414Y-15335D01*
X778974Y-15119D01*
X779572Y-15045D01*
X790428Y-15045D01*
X791026Y-15120D01*
X791586Y-15336D01*
X792076Y-15681D01*
X792468Y-16135D01*
X792738Y-16671D01*
X792852Y-17122D01*
X792879Y-17587D01*
X792655Y-19180D01*
X792112Y-20695D01*
X791272Y-22067D01*
X790172Y-23241D01*
X788856Y-24167D01*
X787380Y-24806D01*
X785805Y-25133D01*
X784196Y-25133D01*
G37*
%LPD*%
%LPC*%
G36*
X-785809Y-21316D02*
X-785809Y-21316D01*
X-787384Y-20990D01*
X-788860Y-20350D01*
X-790176Y-19424D01*
X-791276Y-18251D01*
X-792116Y-16878D01*
X-792659Y-15364D01*
X-792883Y-13771D01*
X-792816Y-13106D01*
X-792572Y-12485D01*
X-792169Y-11952D01*
X-791661Y-11560D01*
X-791068Y-11313D01*
X-790429Y-11229D01*
X-779576Y-11229D01*
X-778937Y-11313D01*
X-778344Y-11560D01*
X-777836Y-11952D01*
X-777521Y-12341D01*
X-777291Y-12787D01*
X-777158Y-13270D01*
X-777125Y-13771D01*
X-777350Y-15364D01*
X-777893Y-16878D01*
X-778732Y-18251D01*
X-779832Y-19424D01*
X-781148Y-20350D01*
X-782624Y-20990D01*
X-784200Y-21316D01*
X-785809Y-21316D01*
G37*
%LPD*%
%LPC*%
G36*
X764115Y-19099D02*
X764115Y-19099D01*
X762936Y-18832D01*
X761845Y-18313D01*
X760896Y-17565D01*
X760135Y-16627D01*
X759615Y-15586D01*
X759328Y-14458D01*
X759287Y-13295D01*
X759495Y-12150D01*
X759940Y-11075D01*
X760604Y-10119D01*
X761457Y-9326D01*
X762458Y-8733D01*
X763562Y-8365D01*
X764719Y-8241D01*
X765876Y-8365D01*
X766980Y-8733D01*
X767981Y-9326D01*
X768834Y-10119D01*
X769498Y-11075D01*
X769944Y-12150D01*
X770151Y-13295D01*
X770110Y-14458D01*
X769823Y-15586D01*
X769303Y-16627D01*
X768542Y-17565D01*
X767593Y-18313D01*
X766502Y-18832D01*
X765323Y-19099D01*
X764115Y-19099D01*
G37*
%LPD*%
%LPC*%
G36*
X804678Y-19102D02*
X804678Y-19102D01*
X803499Y-18835D01*
X802408Y-18315D01*
X801459Y-17566D01*
X800699Y-16627D01*
X800179Y-15586D01*
X799892Y-14458D01*
X799851Y-13295D01*
X800058Y-12150D01*
X800504Y-11075D01*
X801168Y-10120D01*
X802020Y-9327D01*
X803021Y-8733D01*
X804125Y-8366D01*
X805282Y-8242D01*
X806439Y-8366D01*
X807543Y-8733D01*
X808544Y-9327D01*
X809396Y-10120D01*
X810060Y-11075D01*
X810506Y-12150D01*
X810713Y-13295D01*
X810672Y-14458D01*
X810385Y-15586D01*
X809865Y-16627D01*
X809105Y-17566D01*
X808156Y-18315D01*
X807065Y-18835D01*
X805886Y-19102D01*
X804678Y-19102D01*
G37*
%LPD*%
%LPC*%
G36*
X-810575Y-12122D02*
X-810575Y-12122D01*
X-811500Y-11870D01*
X-812582Y-11327D01*
X-813517Y-10559D01*
X-814259Y-9603D01*
X-814770Y-8506D01*
X-815027Y-7324D01*
X-815015Y-6114D01*
X-814737Y-4936D01*
X-814204Y-3849D01*
X-813445Y-2907D01*
X-812495Y-2157D01*
X-811404Y-1635D01*
X-810224Y-1367D01*
X-809013Y-1367D01*
X-807833Y-1635D01*
X-806742Y-2157D01*
X-805792Y-2907D01*
X-805033Y-3849D01*
X-804501Y-4936D01*
X-804222Y-6114D01*
X-804210Y-7324D01*
X-804467Y-8506D01*
X-804978Y-9603D01*
X-805720Y-10559D01*
X-806655Y-11327D01*
X-807737Y-11870D01*
X-808663Y-12122D01*
X-809619Y-12206D01*
X-810575Y-12122D01*
G37*
%LPD*%
%LPC*%
G36*
X-761343Y-12122D02*
X-761343Y-12122D01*
X-762269Y-11870D01*
X-763350Y-11328D01*
X-764283Y-10560D01*
X-765024Y-9604D01*
X-765535Y-8508D01*
X-765791Y-7327D01*
X-765779Y-6118D01*
X-765501Y-4941D01*
X-764969Y-3856D01*
X-764210Y-2914D01*
X-763261Y-2165D01*
X-762170Y-1643D01*
X-760991Y-1376D01*
X-759782Y-1376D01*
X-758603Y-1643D01*
X-757513Y-2165D01*
X-756564Y-2914D01*
X-755805Y-3856D01*
X-755273Y-4941D01*
X-754994Y-6118D01*
X-754983Y-7327D01*
X-755239Y-8508D01*
X-755749Y-9604D01*
X-756490Y-10560D01*
X-757424Y-11328D01*
X-758505Y-11870D01*
X-759431Y-12122D01*
X-760387Y-12207D01*
X-761343Y-12122D01*
G37*
%LPD*%
D10*
X159334Y-375421D02*
X218642Y-341180D01*
X218642Y-341179D02*
X218867Y-341046D01*
X219089Y-340907D01*
X219307Y-340762D01*
X219522Y-340612D01*
X219733Y-340457D01*
X219940Y-340297D01*
X220144Y-340132D01*
X220343Y-339962D01*
X220538Y-339788D01*
X220729Y-339608D01*
X220915Y-339424D01*
X221097Y-339236D01*
X221274Y-339043D01*
X221446Y-338845D01*
X221614Y-338644D01*
X221777Y-338439D01*
X221934Y-338230D01*
X222086Y-338017D01*
X222234Y-337800D01*
X222375Y-337580D01*
X222512Y-337356D01*
X222643Y-337130D01*
X222768Y-336900D01*
X222888Y-336667D01*
X223002Y-336431D01*
X223110Y-336192D01*
X223213Y-335951D01*
X223309Y-335708D01*
X223400Y-335462D01*
X223484Y-335214D01*
X223563Y-334965D01*
X223635Y-334713D01*
X223702Y-334460D01*
X223762Y-334205D01*
X223815Y-333948D01*
X223863Y-333691D01*
X223904Y-333432D01*
X223939Y-333173D01*
X223968Y-332912D01*
X223990Y-332651D01*
X224006Y-332390D01*
X224016Y-332128D01*
X224019Y-331866D01*
X224016Y-331604D01*
X224006Y-331343D01*
X223990Y-331081D01*
X223968Y-330820D01*
X223939Y-330560D01*
X223904Y-330301D01*
X223863Y-330042D01*
X223816Y-329784D01*
X223762Y-329528D01*
X223702Y-329273D01*
X223636Y-329020D01*
X223563Y-328768D01*
X223485Y-328518D01*
X223400Y-328270D01*
X223310Y-328025D01*
X223213Y-327781D01*
X223111Y-327540D01*
X223002Y-327302D01*
X222888Y-327066D01*
X222769Y-326833D01*
X222643Y-326603D01*
X222512Y-326376D01*
X222376Y-326153D01*
X222234Y-325933D01*
X222087Y-325716D01*
X221934Y-325503D01*
X221777Y-325294D01*
X221614Y-325088D01*
X221447Y-324887D01*
X221275Y-324690D01*
X221097Y-324497D01*
X220916Y-324308D01*
X220729Y-324124D01*
X220539Y-323945D01*
X220344Y-323770D01*
X220144Y-323600D01*
X219941Y-323435D01*
X219734Y-323275D01*
X219523Y-323120D01*
X219308Y-322970D01*
X219089Y-322826D01*
X218868Y-322687D01*
X218642Y-322553D01*
X218643Y-322553D02*
X159335Y-288308D01*
X159335Y-288307D02*
X159106Y-288179D01*
X158875Y-288056D01*
X158641Y-287939D01*
X158403Y-287828D01*
X158164Y-287723D01*
X157921Y-287623D01*
X157677Y-287530D01*
X157430Y-287442D01*
X157181Y-287361D01*
X156930Y-287285D01*
X156678Y-287216D01*
X156423Y-287153D01*
X156168Y-287096D01*
X155911Y-287045D01*
X155653Y-287001D01*
X155394Y-286962D01*
X155134Y-286931D01*
X154873Y-286905D01*
X154612Y-286886D01*
X154350Y-286873D01*
X154088Y-286867D01*
X153826Y-286867D01*
X153564Y-286873D01*
X153303Y-286886D01*
X153042Y-286905D01*
X152781Y-286930D01*
X152521Y-286962D01*
X152262Y-287000D01*
X152004Y-287045D01*
X151747Y-287096D01*
X151491Y-287152D01*
X151237Y-287216D01*
X150984Y-287285D01*
X150734Y-287360D01*
X150485Y-287442D01*
X150238Y-287530D01*
X149993Y-287623D01*
X149751Y-287723D01*
X149511Y-287828D01*
X149274Y-287939D01*
X149040Y-288056D01*
X148808Y-288179D01*
X148580Y-288307D01*
X148355Y-288440D01*
X148133Y-288580D01*
X147914Y-288724D01*
X147699Y-288874D01*
X147488Y-289029D01*
X147281Y-289189D01*
X147078Y-289354D01*
X146878Y-289524D01*
X146683Y-289699D01*
X146492Y-289878D01*
X146306Y-290062D01*
X146124Y-290251D01*
X145947Y-290444D01*
X145775Y-290641D01*
X145607Y-290842D01*
X145445Y-291048D01*
X145287Y-291257D01*
X145135Y-291470D01*
X144988Y-291686D01*
X144846Y-291907D01*
X144709Y-292130D01*
X144578Y-292357D01*
X144453Y-292587D01*
X144333Y-292820D01*
X144219Y-293056D01*
X144111Y-293294D01*
X144008Y-293535D01*
X143912Y-293779D01*
X143821Y-294024D01*
X143737Y-294272D01*
X143658Y-294522D01*
X143586Y-294774D01*
X143519Y-295027D01*
X143459Y-295282D01*
X143406Y-295539D01*
X143358Y-295796D01*
X143317Y-296055D01*
X143282Y-296314D01*
X143253Y-296575D01*
X143231Y-296836D01*
X143215Y-297097D01*
X143205Y-297359D01*
X143202Y-297621D01*
X143203Y-297621D02*
X143203Y-366107D01*
X143206Y-366369D01*
X143216Y-366630D01*
X143232Y-366892D01*
X143254Y-367153D01*
X143283Y-367413D01*
X143318Y-367673D01*
X143359Y-367931D01*
X143406Y-368189D01*
X143460Y-368445D01*
X143520Y-368700D01*
X143587Y-368953D01*
X143659Y-369205D01*
X143737Y-369455D01*
X143822Y-369703D01*
X143913Y-369949D01*
X144009Y-370192D01*
X144112Y-370433D01*
X144220Y-370672D01*
X144334Y-370907D01*
X144454Y-371140D01*
X144579Y-371370D01*
X144710Y-371597D01*
X144846Y-371820D01*
X144988Y-372041D01*
X145135Y-372257D01*
X145288Y-372470D01*
X145445Y-372679D01*
X145608Y-372885D01*
X145775Y-373086D01*
X145948Y-373283D01*
X146125Y-373476D01*
X146307Y-373665D01*
X146493Y-373849D01*
X146684Y-374028D01*
X146879Y-374203D01*
X147078Y-374373D01*
X147281Y-374538D01*
X147488Y-374698D01*
X147700Y-374853D01*
X147914Y-375003D01*
X148133Y-375147D01*
X148355Y-375286D01*
X148580Y-375420D01*
X148808Y-375548D01*
X149040Y-375671D01*
X149274Y-375788D01*
X149511Y-375899D01*
X149751Y-376004D01*
X149993Y-376104D01*
X150238Y-376197D01*
X150485Y-376285D01*
X150734Y-376367D01*
X150984Y-376442D01*
X151237Y-376511D01*
X151491Y-376574D01*
X151747Y-376631D01*
X152004Y-376682D01*
X152262Y-376727D01*
X152521Y-376765D01*
X152781Y-376796D01*
X153041Y-376822D01*
X153303Y-376841D01*
X153564Y-376854D01*
X153826Y-376860D01*
X154088Y-376860D01*
X154350Y-376854D01*
X154611Y-376841D01*
X154872Y-376822D01*
X155133Y-376796D01*
X155393Y-376765D01*
X155652Y-376727D01*
X155910Y-376682D01*
X156167Y-376631D01*
X156423Y-376574D01*
X156677Y-376511D01*
X156930Y-376442D01*
X157180Y-376367D01*
X157429Y-376285D01*
X157676Y-376197D01*
X157921Y-376104D01*
X158163Y-376004D01*
X158403Y-375899D01*
X158640Y-375788D01*
X158874Y-375671D01*
X159106Y-375548D01*
X159334Y-375420D01*
D11*
X548738Y-380381D02*
X548738Y-389619D01*
X548738Y-380381D02*
X546172Y-380381D01*
X546073Y-380383D01*
X545973Y-380389D01*
X545874Y-380398D01*
X545776Y-380412D01*
X545678Y-380429D01*
X545580Y-380450D01*
X545484Y-380475D01*
X545389Y-380504D01*
X545294Y-380536D01*
X545202Y-380572D01*
X545110Y-380611D01*
X545020Y-380654D01*
X544932Y-380700D01*
X544846Y-380750D01*
X544762Y-380803D01*
X544680Y-380859D01*
X544600Y-380919D01*
X544523Y-380981D01*
X544448Y-381047D01*
X544375Y-381115D01*
X544306Y-381186D01*
X544239Y-381260D01*
X544175Y-381336D01*
X544114Y-381415D01*
X544056Y-381496D01*
X544001Y-381579D01*
X543950Y-381664D01*
X543902Y-381751D01*
X543857Y-381840D01*
X543816Y-381931D01*
X543778Y-382023D01*
X543744Y-382116D01*
X543714Y-382211D01*
X543687Y-382307D01*
X543664Y-382404D01*
X543645Y-382501D01*
X543630Y-382600D01*
X543618Y-382699D01*
X543610Y-382798D01*
X543606Y-382897D01*
X543606Y-382997D01*
X543610Y-383096D01*
X543618Y-383195D01*
X543630Y-383294D01*
X543645Y-383393D01*
X543664Y-383490D01*
X543687Y-383587D01*
X543714Y-383683D01*
X543744Y-383778D01*
X543778Y-383871D01*
X543816Y-383963D01*
X543857Y-384054D01*
X543902Y-384143D01*
X543950Y-384230D01*
X544001Y-384315D01*
X544056Y-384398D01*
X544114Y-384479D01*
X544175Y-384558D01*
X544239Y-384634D01*
X544306Y-384708D01*
X544375Y-384779D01*
X544448Y-384847D01*
X544523Y-384913D01*
X544600Y-384975D01*
X544680Y-385035D01*
X544762Y-385091D01*
X544846Y-385144D01*
X544932Y-385194D01*
X545020Y-385240D01*
X545110Y-385283D01*
X545202Y-385322D01*
X545294Y-385358D01*
X545389Y-385390D01*
X545484Y-385419D01*
X545580Y-385444D01*
X545678Y-385465D01*
X545776Y-385482D01*
X545874Y-385496D01*
X545973Y-385505D01*
X546073Y-385511D01*
X546172Y-385513D01*
X548738Y-385513D01*
X545658Y-385513D02*
X543606Y-389619D01*
X539477Y-389619D02*
X535371Y-389619D01*
X539477Y-389619D02*
X539477Y-380381D01*
X535371Y-380381D01*
X536398Y-384487D02*
X539477Y-384487D01*
X529215Y-389619D02*
X529125Y-389617D01*
X529036Y-389611D01*
X528947Y-389601D01*
X528859Y-389588D01*
X528771Y-389570D01*
X528684Y-389549D01*
X528598Y-389524D01*
X528513Y-389495D01*
X528429Y-389463D01*
X528347Y-389427D01*
X528267Y-389387D01*
X528189Y-389344D01*
X528112Y-389297D01*
X528037Y-389248D01*
X527965Y-389195D01*
X527895Y-389139D01*
X527828Y-389080D01*
X527763Y-389018D01*
X527701Y-388953D01*
X527642Y-388886D01*
X527586Y-388816D01*
X527533Y-388744D01*
X527484Y-388669D01*
X527437Y-388593D01*
X527394Y-388514D01*
X527354Y-388434D01*
X527318Y-388352D01*
X527286Y-388268D01*
X527257Y-388183D01*
X527232Y-388097D01*
X527211Y-388010D01*
X527193Y-387923D01*
X527180Y-387834D01*
X527170Y-387745D01*
X527164Y-387656D01*
X527162Y-387566D01*
X529215Y-389619D02*
X529342Y-389617D01*
X529469Y-389612D01*
X529595Y-389602D01*
X529721Y-389589D01*
X529847Y-389573D01*
X529972Y-389552D01*
X530097Y-389528D01*
X530220Y-389501D01*
X530343Y-389470D01*
X530465Y-389435D01*
X530586Y-389397D01*
X530706Y-389355D01*
X530824Y-389309D01*
X530941Y-389261D01*
X531057Y-389208D01*
X531171Y-389153D01*
X531283Y-389094D01*
X531394Y-389032D01*
X531503Y-388967D01*
X531609Y-388898D01*
X531714Y-388827D01*
X531817Y-388752D01*
X531917Y-388674D01*
X532015Y-388594D01*
X532111Y-388511D01*
X532204Y-388425D01*
X532294Y-388336D01*
X532038Y-382434D02*
X532036Y-382344D01*
X532030Y-382255D01*
X532020Y-382166D01*
X532007Y-382078D01*
X531989Y-381990D01*
X531968Y-381903D01*
X531943Y-381817D01*
X531914Y-381732D01*
X531882Y-381648D01*
X531846Y-381566D01*
X531806Y-381486D01*
X531763Y-381408D01*
X531716Y-381331D01*
X531667Y-381256D01*
X531614Y-381184D01*
X531558Y-381114D01*
X531499Y-381047D01*
X531437Y-380982D01*
X531372Y-380920D01*
X531305Y-380861D01*
X531235Y-380805D01*
X531163Y-380752D01*
X531088Y-380703D01*
X531012Y-380656D01*
X530933Y-380613D01*
X530853Y-380573D01*
X530771Y-380537D01*
X530687Y-380505D01*
X530602Y-380476D01*
X530516Y-380451D01*
X530429Y-380430D01*
X530342Y-380412D01*
X530253Y-380399D01*
X530164Y-380389D01*
X530075Y-380383D01*
X529985Y-380381D01*
X529861Y-380383D01*
X529738Y-380389D01*
X529614Y-380399D01*
X529491Y-380413D01*
X529368Y-380431D01*
X529247Y-380452D01*
X529125Y-380478D01*
X529005Y-380508D01*
X528886Y-380541D01*
X528768Y-380579D01*
X528651Y-380620D01*
X528536Y-380664D01*
X528422Y-380713D01*
X528309Y-380765D01*
X528199Y-380821D01*
X528090Y-380880D01*
X527983Y-380943D01*
X527878Y-381009D01*
X527776Y-381078D01*
X527676Y-381151D01*
X531012Y-384230D02*
X531088Y-384183D01*
X531163Y-384132D01*
X531235Y-384078D01*
X531305Y-384021D01*
X531372Y-383961D01*
X531437Y-383898D01*
X531499Y-383833D01*
X531558Y-383765D01*
X531614Y-383694D01*
X531667Y-383621D01*
X531717Y-383546D01*
X531763Y-383468D01*
X531806Y-383389D01*
X531846Y-383308D01*
X531882Y-383225D01*
X531914Y-383141D01*
X531943Y-383056D01*
X531968Y-382969D01*
X531989Y-382882D01*
X532007Y-382793D01*
X532020Y-382704D01*
X532030Y-382614D01*
X532036Y-382524D01*
X532038Y-382434D01*
X528188Y-385770D02*
X528112Y-385817D01*
X528037Y-385868D01*
X527965Y-385922D01*
X527895Y-385979D01*
X527828Y-386039D01*
X527763Y-386102D01*
X527701Y-386167D01*
X527642Y-386235D01*
X527586Y-386306D01*
X527533Y-386379D01*
X527483Y-386454D01*
X527437Y-386532D01*
X527394Y-386611D01*
X527354Y-386692D01*
X527318Y-386775D01*
X527286Y-386859D01*
X527257Y-386944D01*
X527232Y-387031D01*
X527211Y-387118D01*
X527193Y-387207D01*
X527180Y-387296D01*
X527170Y-387386D01*
X527164Y-387476D01*
X527162Y-387566D01*
X528189Y-385770D02*
X531011Y-384230D01*
X523277Y-389619D02*
X519171Y-389619D01*
X523277Y-389619D02*
X523277Y-380381D01*
X519171Y-380381D01*
X520198Y-384487D02*
X523277Y-384487D01*
X513828Y-380381D02*
X513828Y-389619D01*
X516394Y-380381D02*
X511262Y-380381D01*
X795807Y-169619D02*
X795807Y-160381D01*
X795807Y-169619D02*
X791702Y-169619D01*
X788325Y-165000D02*
X788323Y-164818D01*
X788316Y-164637D01*
X788305Y-164455D01*
X788290Y-164274D01*
X788271Y-164093D01*
X788247Y-163913D01*
X788219Y-163734D01*
X788187Y-163555D01*
X788150Y-163377D01*
X788109Y-163200D01*
X788064Y-163024D01*
X788015Y-162849D01*
X787961Y-162675D01*
X787904Y-162503D01*
X787842Y-162332D01*
X787776Y-162162D01*
X787707Y-161994D01*
X787633Y-161828D01*
X787555Y-161664D01*
X787526Y-161585D01*
X787494Y-161508D01*
X787458Y-161432D01*
X787419Y-161357D01*
X787376Y-161284D01*
X787330Y-161214D01*
X787282Y-161145D01*
X787230Y-161079D01*
X787175Y-161015D01*
X787118Y-160954D01*
X787058Y-160895D01*
X786995Y-160838D01*
X786930Y-160785D01*
X786863Y-160735D01*
X786793Y-160687D01*
X786722Y-160643D01*
X786648Y-160602D01*
X786573Y-160564D01*
X786496Y-160530D01*
X786418Y-160499D01*
X786339Y-160472D01*
X786258Y-160448D01*
X786176Y-160427D01*
X786094Y-160411D01*
X786011Y-160398D01*
X785927Y-160388D01*
X785843Y-160383D01*
X785759Y-160381D01*
X785675Y-160383D01*
X785591Y-160388D01*
X785507Y-160398D01*
X785424Y-160411D01*
X785342Y-160427D01*
X785260Y-160448D01*
X785179Y-160472D01*
X785100Y-160499D01*
X785022Y-160530D01*
X784945Y-160564D01*
X784870Y-160602D01*
X784796Y-160643D01*
X784725Y-160687D01*
X784655Y-160735D01*
X784588Y-160785D01*
X784523Y-160838D01*
X784460Y-160895D01*
X784400Y-160953D01*
X784343Y-161015D01*
X784288Y-161079D01*
X784236Y-161145D01*
X784188Y-161214D01*
X784142Y-161284D01*
X784099Y-161357D01*
X784060Y-161431D01*
X784024Y-161508D01*
X783992Y-161585D01*
X783963Y-161664D01*
X783962Y-161664D02*
X783884Y-161828D01*
X783810Y-161994D01*
X783741Y-162162D01*
X783675Y-162332D01*
X783613Y-162503D01*
X783556Y-162675D01*
X783502Y-162849D01*
X783453Y-163024D01*
X783408Y-163200D01*
X783367Y-163377D01*
X783330Y-163555D01*
X783298Y-163734D01*
X783270Y-163913D01*
X783246Y-164093D01*
X783227Y-164274D01*
X783212Y-164455D01*
X783201Y-164637D01*
X783194Y-164818D01*
X783192Y-165000D01*
X788325Y-165000D02*
X788323Y-165182D01*
X788316Y-165363D01*
X788305Y-165545D01*
X788290Y-165726D01*
X788271Y-165907D01*
X788247Y-166087D01*
X788219Y-166266D01*
X788187Y-166445D01*
X788150Y-166623D01*
X788109Y-166800D01*
X788064Y-166976D01*
X788015Y-167151D01*
X787961Y-167325D01*
X787904Y-167497D01*
X787842Y-167668D01*
X787776Y-167838D01*
X787707Y-168006D01*
X787633Y-168172D01*
X787555Y-168336D01*
X787526Y-168415D01*
X787494Y-168492D01*
X787458Y-168569D01*
X787419Y-168643D01*
X787376Y-168716D01*
X787330Y-168786D01*
X787282Y-168855D01*
X787230Y-168921D01*
X787175Y-168985D01*
X787118Y-169047D01*
X787058Y-169105D01*
X786995Y-169162D01*
X786930Y-169215D01*
X786863Y-169265D01*
X786793Y-169313D01*
X786722Y-169357D01*
X786648Y-169398D01*
X786573Y-169436D01*
X786496Y-169470D01*
X786418Y-169501D01*
X786339Y-169528D01*
X786258Y-169552D01*
X786176Y-169573D01*
X786094Y-169589D01*
X786011Y-169602D01*
X785927Y-169612D01*
X785843Y-169617D01*
X785759Y-169619D01*
X783962Y-168336D02*
X783884Y-168172D01*
X783810Y-168006D01*
X783741Y-167838D01*
X783675Y-167668D01*
X783613Y-167497D01*
X783556Y-167325D01*
X783502Y-167151D01*
X783453Y-166976D01*
X783408Y-166800D01*
X783367Y-166623D01*
X783330Y-166445D01*
X783298Y-166266D01*
X783270Y-166087D01*
X783246Y-165907D01*
X783227Y-165726D01*
X783212Y-165545D01*
X783201Y-165363D01*
X783194Y-165182D01*
X783192Y-165000D01*
X783963Y-168336D02*
X783992Y-168415D01*
X784024Y-168492D01*
X784060Y-168569D01*
X784099Y-168643D01*
X784142Y-168716D01*
X784188Y-168786D01*
X784236Y-168855D01*
X784288Y-168921D01*
X784343Y-168985D01*
X784400Y-169047D01*
X784460Y-169105D01*
X784523Y-169162D01*
X784588Y-169215D01*
X784655Y-169265D01*
X784725Y-169313D01*
X784796Y-169357D01*
X784870Y-169398D01*
X784945Y-169436D01*
X785022Y-169470D01*
X785100Y-169501D01*
X785179Y-169528D01*
X785260Y-169552D01*
X785342Y-169573D01*
X785424Y-169589D01*
X785507Y-169602D01*
X785591Y-169612D01*
X785675Y-169617D01*
X785759Y-169619D01*
X787812Y-167566D02*
X783706Y-162434D01*
X779325Y-162434D02*
X776759Y-160381D01*
X776759Y-169619D01*
X779325Y-169619D02*
X774193Y-169619D01*
X252566Y-340092D02*
X245381Y-340092D01*
X252566Y-340092D02*
X252656Y-340094D01*
X252745Y-340100D01*
X252834Y-340110D01*
X252922Y-340123D01*
X253010Y-340141D01*
X253097Y-340162D01*
X253183Y-340187D01*
X253268Y-340216D01*
X253352Y-340248D01*
X253434Y-340284D01*
X253514Y-340324D01*
X253593Y-340367D01*
X253669Y-340414D01*
X253744Y-340463D01*
X253816Y-340516D01*
X253886Y-340572D01*
X253953Y-340631D01*
X254018Y-340693D01*
X254080Y-340758D01*
X254139Y-340825D01*
X254195Y-340895D01*
X254248Y-340967D01*
X254297Y-341042D01*
X254344Y-341119D01*
X254387Y-341197D01*
X254427Y-341277D01*
X254463Y-341359D01*
X254495Y-341443D01*
X254524Y-341528D01*
X254549Y-341614D01*
X254570Y-341701D01*
X254588Y-341789D01*
X254601Y-341877D01*
X254611Y-341966D01*
X254617Y-342055D01*
X254619Y-342145D01*
X254619Y-343172D01*
X250000Y-335960D02*
X249818Y-335958D01*
X249637Y-335951D01*
X249455Y-335940D01*
X249274Y-335925D01*
X249093Y-335906D01*
X248913Y-335882D01*
X248734Y-335854D01*
X248555Y-335822D01*
X248377Y-335785D01*
X248200Y-335744D01*
X248024Y-335699D01*
X247849Y-335650D01*
X247675Y-335596D01*
X247503Y-335539D01*
X247332Y-335477D01*
X247162Y-335411D01*
X246994Y-335342D01*
X246828Y-335268D01*
X246664Y-335190D01*
X246585Y-335161D01*
X246508Y-335129D01*
X246432Y-335093D01*
X246357Y-335054D01*
X246284Y-335011D01*
X246214Y-334965D01*
X246145Y-334917D01*
X246079Y-334865D01*
X246015Y-334810D01*
X245954Y-334753D01*
X245895Y-334693D01*
X245838Y-334630D01*
X245785Y-334565D01*
X245735Y-334498D01*
X245687Y-334428D01*
X245643Y-334357D01*
X245602Y-334283D01*
X245564Y-334208D01*
X245530Y-334131D01*
X245499Y-334053D01*
X245472Y-333974D01*
X245448Y-333893D01*
X245427Y-333811D01*
X245411Y-333729D01*
X245398Y-333646D01*
X245388Y-333562D01*
X245383Y-333478D01*
X245381Y-333394D01*
X245383Y-333310D01*
X245388Y-333226D01*
X245398Y-333142D01*
X245411Y-333059D01*
X245427Y-332977D01*
X245448Y-332895D01*
X245472Y-332814D01*
X245499Y-332735D01*
X245530Y-332657D01*
X245564Y-332580D01*
X245602Y-332505D01*
X245643Y-332431D01*
X245687Y-332360D01*
X245735Y-332290D01*
X245785Y-332223D01*
X245838Y-332158D01*
X245895Y-332095D01*
X245953Y-332035D01*
X246015Y-331978D01*
X246079Y-331923D01*
X246145Y-331871D01*
X246214Y-331823D01*
X246284Y-331777D01*
X246357Y-331734D01*
X246431Y-331695D01*
X246508Y-331659D01*
X246585Y-331627D01*
X246664Y-331598D01*
X246828Y-331520D01*
X246994Y-331446D01*
X247162Y-331377D01*
X247332Y-331311D01*
X247503Y-331249D01*
X247675Y-331192D01*
X247849Y-331138D01*
X248024Y-331089D01*
X248200Y-331044D01*
X248377Y-331003D01*
X248555Y-330966D01*
X248734Y-330934D01*
X248913Y-330906D01*
X249093Y-330882D01*
X249274Y-330863D01*
X249455Y-330848D01*
X249637Y-330837D01*
X249818Y-330830D01*
X250000Y-330828D01*
X250000Y-335960D02*
X250182Y-335958D01*
X250363Y-335951D01*
X250545Y-335940D01*
X250726Y-335925D01*
X250907Y-335906D01*
X251087Y-335882D01*
X251266Y-335854D01*
X251445Y-335822D01*
X251623Y-335785D01*
X251800Y-335744D01*
X251976Y-335699D01*
X252151Y-335650D01*
X252325Y-335596D01*
X252497Y-335539D01*
X252668Y-335477D01*
X252838Y-335411D01*
X253006Y-335342D01*
X253172Y-335268D01*
X253336Y-335190D01*
X253415Y-335161D01*
X253492Y-335129D01*
X253569Y-335093D01*
X253643Y-335054D01*
X253716Y-335011D01*
X253786Y-334965D01*
X253855Y-334917D01*
X253921Y-334865D01*
X253985Y-334810D01*
X254047Y-334753D01*
X254105Y-334693D01*
X254162Y-334630D01*
X254215Y-334565D01*
X254265Y-334498D01*
X254313Y-334428D01*
X254357Y-334357D01*
X254398Y-334283D01*
X254436Y-334208D01*
X254470Y-334131D01*
X254501Y-334053D01*
X254528Y-333974D01*
X254552Y-333893D01*
X254573Y-333811D01*
X254589Y-333729D01*
X254602Y-333646D01*
X254612Y-333562D01*
X254617Y-333478D01*
X254619Y-333394D01*
X253336Y-331598D02*
X253172Y-331520D01*
X253006Y-331446D01*
X252838Y-331377D01*
X252668Y-331311D01*
X252497Y-331249D01*
X252325Y-331192D01*
X252151Y-331138D01*
X251976Y-331089D01*
X251800Y-331044D01*
X251623Y-331003D01*
X251445Y-330966D01*
X251266Y-330934D01*
X251087Y-330906D01*
X250907Y-330882D01*
X250726Y-330863D01*
X250545Y-330848D01*
X250363Y-330837D01*
X250182Y-330830D01*
X250000Y-330828D01*
X253336Y-331598D02*
X253415Y-331627D01*
X253492Y-331659D01*
X253569Y-331695D01*
X253643Y-331734D01*
X253716Y-331777D01*
X253786Y-331823D01*
X253855Y-331871D01*
X253921Y-331923D01*
X253985Y-331978D01*
X254047Y-332035D01*
X254105Y-332095D01*
X254162Y-332158D01*
X254215Y-332223D01*
X254265Y-332290D01*
X254313Y-332360D01*
X254357Y-332431D01*
X254398Y-332505D01*
X254436Y-332580D01*
X254470Y-332657D01*
X254501Y-332735D01*
X254528Y-332814D01*
X254552Y-332895D01*
X254573Y-332977D01*
X254589Y-333059D01*
X254602Y-333142D01*
X254612Y-333226D01*
X254617Y-333310D01*
X254619Y-333394D01*
X252566Y-335447D02*
X247434Y-331341D01*
X252566Y-326960D02*
X245381Y-324908D01*
X252566Y-326960D02*
X252566Y-321828D01*
X250513Y-323368D02*
X254619Y-323368D01*
X890381Y343413D02*
X890383Y343503D01*
X890389Y343592D01*
X890399Y343681D01*
X890412Y343769D01*
X890430Y343857D01*
X890451Y343944D01*
X890476Y344030D01*
X890505Y344115D01*
X890537Y344199D01*
X890573Y344281D01*
X890613Y344361D01*
X890656Y344440D01*
X890703Y344516D01*
X890752Y344591D01*
X890805Y344663D01*
X890861Y344733D01*
X890920Y344800D01*
X890982Y344865D01*
X891047Y344927D01*
X891114Y344986D01*
X891184Y345042D01*
X891256Y345095D01*
X891331Y345144D01*
X891408Y345191D01*
X891486Y345234D01*
X891566Y345274D01*
X891648Y345310D01*
X891732Y345342D01*
X891817Y345371D01*
X891903Y345396D01*
X891990Y345417D01*
X892078Y345435D01*
X892166Y345448D01*
X892255Y345458D01*
X892344Y345464D01*
X892434Y345466D01*
X890381Y343413D02*
X890383Y343286D01*
X890388Y343159D01*
X890398Y343033D01*
X890411Y342907D01*
X890427Y342781D01*
X890448Y342656D01*
X890472Y342531D01*
X890499Y342408D01*
X890530Y342285D01*
X890565Y342163D01*
X890603Y342042D01*
X890645Y341922D01*
X890691Y341804D01*
X890739Y341687D01*
X890792Y341571D01*
X890847Y341457D01*
X890906Y341345D01*
X890968Y341234D01*
X891033Y341125D01*
X891102Y341019D01*
X891173Y340914D01*
X891248Y340811D01*
X891326Y340711D01*
X891406Y340613D01*
X891489Y340517D01*
X891575Y340424D01*
X891664Y340333D01*
X897566Y340590D02*
X897656Y340592D01*
X897745Y340598D01*
X897834Y340608D01*
X897923Y340621D01*
X898010Y340639D01*
X898097Y340660D01*
X898183Y340685D01*
X898268Y340714D01*
X898352Y340746D01*
X898434Y340782D01*
X898514Y340822D01*
X898593Y340865D01*
X898669Y340912D01*
X898744Y340961D01*
X898816Y341014D01*
X898886Y341070D01*
X898953Y341129D01*
X899018Y341191D01*
X899080Y341256D01*
X899139Y341323D01*
X899195Y341393D01*
X899248Y341465D01*
X899297Y341540D01*
X899344Y341617D01*
X899387Y341695D01*
X899427Y341775D01*
X899463Y341857D01*
X899495Y341941D01*
X899524Y342026D01*
X899549Y342112D01*
X899570Y342199D01*
X899588Y342287D01*
X899601Y342375D01*
X899611Y342464D01*
X899617Y342553D01*
X899619Y342643D01*
X899617Y342767D01*
X899611Y342891D01*
X899601Y343014D01*
X899587Y343137D01*
X899569Y343260D01*
X899547Y343381D01*
X899522Y343503D01*
X899492Y343623D01*
X899459Y343742D01*
X899421Y343860D01*
X899380Y343977D01*
X899336Y344092D01*
X899287Y344206D01*
X899235Y344319D01*
X899179Y344429D01*
X899120Y344538D01*
X899057Y344645D01*
X898991Y344750D01*
X898922Y344852D01*
X898849Y344952D01*
X895770Y341617D02*
X895817Y341541D01*
X895868Y341466D01*
X895922Y341394D01*
X895979Y341324D01*
X896039Y341257D01*
X896102Y341192D01*
X896167Y341130D01*
X896235Y341071D01*
X896306Y341015D01*
X896379Y340962D01*
X896454Y340912D01*
X896532Y340866D01*
X896611Y340823D01*
X896692Y340783D01*
X896775Y340747D01*
X896859Y340715D01*
X896944Y340686D01*
X897031Y340661D01*
X897119Y340640D01*
X897207Y340622D01*
X897296Y340609D01*
X897386Y340599D01*
X897476Y340593D01*
X897566Y340591D01*
X894230Y344439D02*
X894183Y344516D01*
X894132Y344591D01*
X894078Y344663D01*
X894021Y344733D01*
X893961Y344800D01*
X893898Y344865D01*
X893833Y344927D01*
X893765Y344986D01*
X893694Y345042D01*
X893621Y345095D01*
X893546Y345145D01*
X893468Y345191D01*
X893389Y345234D01*
X893308Y345274D01*
X893225Y345310D01*
X893141Y345342D01*
X893056Y345371D01*
X892969Y345396D01*
X892882Y345417D01*
X892793Y345435D01*
X892704Y345448D01*
X892614Y345458D01*
X892524Y345464D01*
X892434Y345466D01*
X894230Y344440D02*
X895770Y341617D01*
X899619Y349334D02*
X890381Y349334D01*
X899619Y349334D02*
X899619Y351900D01*
X899617Y351998D01*
X899611Y352096D01*
X899602Y352194D01*
X899589Y352292D01*
X899572Y352389D01*
X899552Y352485D01*
X899527Y352580D01*
X899499Y352674D01*
X899468Y352767D01*
X899433Y352859D01*
X899394Y352950D01*
X899353Y353039D01*
X899307Y353126D01*
X899259Y353211D01*
X899207Y353295D01*
X899152Y353376D01*
X899094Y353456D01*
X899033Y353533D01*
X898969Y353607D01*
X898902Y353679D01*
X898832Y353749D01*
X898760Y353816D01*
X898686Y353880D01*
X898609Y353941D01*
X898529Y353999D01*
X898448Y354054D01*
X898364Y354106D01*
X898279Y354154D01*
X898192Y354200D01*
X898103Y354241D01*
X898012Y354280D01*
X897920Y354315D01*
X897827Y354346D01*
X897733Y354374D01*
X897638Y354399D01*
X897542Y354419D01*
X897445Y354436D01*
X897347Y354449D01*
X897249Y354458D01*
X897151Y354464D01*
X897053Y354466D01*
X892947Y354466D01*
X892849Y354464D01*
X892751Y354458D01*
X892653Y354449D01*
X892555Y354436D01*
X892458Y354419D01*
X892362Y354399D01*
X892267Y354374D01*
X892173Y354346D01*
X892080Y354315D01*
X891988Y354280D01*
X891897Y354241D01*
X891808Y354200D01*
X891721Y354154D01*
X891636Y354106D01*
X891552Y354054D01*
X891471Y353999D01*
X891391Y353941D01*
X891314Y353880D01*
X891240Y353816D01*
X891168Y353749D01*
X891098Y353679D01*
X891031Y353607D01*
X890967Y353533D01*
X890906Y353456D01*
X890848Y353376D01*
X890793Y353295D01*
X890741Y353211D01*
X890693Y353126D01*
X890647Y353039D01*
X890606Y352950D01*
X890567Y352859D01*
X890532Y352767D01*
X890501Y352674D01*
X890473Y352580D01*
X890448Y352485D01*
X890428Y352389D01*
X890411Y352292D01*
X890398Y352194D01*
X890389Y352096D01*
X890383Y351998D01*
X890381Y351900D01*
X890381Y349334D01*
X890381Y365461D02*
X890381Y367514D01*
X890381Y365461D02*
X890383Y365371D01*
X890389Y365282D01*
X890399Y365193D01*
X890412Y365105D01*
X890430Y365017D01*
X890451Y364930D01*
X890476Y364844D01*
X890505Y364759D01*
X890537Y364675D01*
X890573Y364593D01*
X890613Y364513D01*
X890656Y364435D01*
X890703Y364358D01*
X890752Y364283D01*
X890805Y364211D01*
X890861Y364141D01*
X890920Y364074D01*
X890982Y364009D01*
X891047Y363947D01*
X891114Y363888D01*
X891184Y363832D01*
X891256Y363779D01*
X891331Y363730D01*
X891408Y363683D01*
X891486Y363640D01*
X891566Y363600D01*
X891648Y363564D01*
X891732Y363532D01*
X891817Y363503D01*
X891903Y363478D01*
X891990Y363457D01*
X892078Y363439D01*
X892166Y363426D01*
X892255Y363416D01*
X892344Y363410D01*
X892434Y363408D01*
X897566Y363408D01*
X897656Y363410D01*
X897745Y363416D01*
X897834Y363426D01*
X897922Y363439D01*
X898010Y363457D01*
X898097Y363478D01*
X898183Y363503D01*
X898268Y363532D01*
X898352Y363564D01*
X898434Y363600D01*
X898514Y363640D01*
X898592Y363683D01*
X898669Y363730D01*
X898744Y363779D01*
X898816Y363832D01*
X898886Y363888D01*
X898953Y363947D01*
X899018Y364009D01*
X899080Y364074D01*
X899139Y364141D01*
X899195Y364211D01*
X899248Y364283D01*
X899297Y364358D01*
X899344Y364434D01*
X899387Y364513D01*
X899427Y364593D01*
X899463Y364675D01*
X899495Y364759D01*
X899524Y364844D01*
X899549Y364930D01*
X899570Y365017D01*
X899588Y365104D01*
X899601Y365193D01*
X899611Y365282D01*
X899617Y365371D01*
X899619Y365461D01*
X899619Y367514D01*
X899619Y373500D02*
X890381Y370421D01*
X890381Y376579D02*
X899619Y373500D01*
X892691Y375809D02*
X892691Y371190D01*
X890381Y380290D02*
X899619Y380290D01*
X899619Y382857D01*
X899617Y382956D01*
X899611Y383056D01*
X899602Y383155D01*
X899588Y383253D01*
X899571Y383351D01*
X899550Y383449D01*
X899525Y383545D01*
X899496Y383640D01*
X899464Y383735D01*
X899428Y383827D01*
X899389Y383919D01*
X899346Y384009D01*
X899300Y384097D01*
X899250Y384183D01*
X899197Y384267D01*
X899141Y384349D01*
X899081Y384429D01*
X899019Y384506D01*
X898953Y384581D01*
X898885Y384654D01*
X898814Y384723D01*
X898740Y384790D01*
X898664Y384854D01*
X898585Y384915D01*
X898504Y384973D01*
X898421Y385028D01*
X898336Y385079D01*
X898249Y385127D01*
X898160Y385172D01*
X898069Y385213D01*
X897977Y385251D01*
X897884Y385285D01*
X897789Y385315D01*
X897693Y385342D01*
X897596Y385365D01*
X897499Y385384D01*
X897400Y385399D01*
X897301Y385411D01*
X897202Y385419D01*
X897103Y385423D01*
X897003Y385423D01*
X896904Y385419D01*
X896805Y385411D01*
X896706Y385399D01*
X896607Y385384D01*
X896510Y385365D01*
X896413Y385342D01*
X896317Y385315D01*
X896222Y385285D01*
X896129Y385251D01*
X896037Y385213D01*
X895946Y385172D01*
X895857Y385127D01*
X895770Y385079D01*
X895685Y385028D01*
X895602Y384973D01*
X895521Y384915D01*
X895442Y384854D01*
X895366Y384790D01*
X895292Y384723D01*
X895221Y384654D01*
X895153Y384581D01*
X895087Y384506D01*
X895025Y384429D01*
X894965Y384349D01*
X894909Y384267D01*
X894856Y384183D01*
X894806Y384097D01*
X894760Y384009D01*
X894717Y383919D01*
X894678Y383827D01*
X894642Y383735D01*
X894610Y383640D01*
X894581Y383545D01*
X894556Y383449D01*
X894535Y383351D01*
X894518Y383253D01*
X894504Y383155D01*
X894495Y383056D01*
X894489Y382956D01*
X894487Y382857D01*
X894487Y380290D01*
X894487Y383370D02*
X890381Y385423D01*
X890381Y389534D02*
X899619Y389534D01*
X899619Y392100D01*
X899617Y392198D01*
X899611Y392296D01*
X899602Y392394D01*
X899589Y392492D01*
X899572Y392589D01*
X899552Y392685D01*
X899527Y392780D01*
X899499Y392874D01*
X899468Y392967D01*
X899433Y393059D01*
X899394Y393150D01*
X899353Y393239D01*
X899307Y393326D01*
X899259Y393411D01*
X899207Y393495D01*
X899152Y393576D01*
X899094Y393656D01*
X899033Y393733D01*
X898969Y393807D01*
X898902Y393879D01*
X898832Y393949D01*
X898760Y394016D01*
X898686Y394080D01*
X898609Y394141D01*
X898529Y394199D01*
X898448Y394254D01*
X898364Y394306D01*
X898279Y394354D01*
X898192Y394400D01*
X898103Y394441D01*
X898012Y394480D01*
X897920Y394515D01*
X897827Y394546D01*
X897733Y394574D01*
X897638Y394599D01*
X897542Y394619D01*
X897445Y394636D01*
X897347Y394649D01*
X897249Y394658D01*
X897151Y394664D01*
X897053Y394666D01*
X892947Y394666D01*
X892849Y394664D01*
X892751Y394658D01*
X892653Y394649D01*
X892555Y394636D01*
X892458Y394619D01*
X892362Y394599D01*
X892267Y394574D01*
X892173Y394546D01*
X892080Y394515D01*
X891988Y394480D01*
X891897Y394441D01*
X891808Y394400D01*
X891721Y394354D01*
X891636Y394306D01*
X891552Y394254D01*
X891471Y394199D01*
X891391Y394141D01*
X891314Y394080D01*
X891240Y394016D01*
X891168Y393949D01*
X891098Y393879D01*
X891031Y393807D01*
X890967Y393733D01*
X890906Y393656D01*
X890848Y393576D01*
X890793Y393495D01*
X890741Y393411D01*
X890693Y393326D01*
X890647Y393239D01*
X890606Y393150D01*
X890567Y393059D01*
X890532Y392967D01*
X890501Y392874D01*
X890473Y392780D01*
X890448Y392685D01*
X890428Y392589D01*
X890411Y392492D01*
X890398Y392394D01*
X890389Y392296D01*
X890383Y392198D01*
X890381Y392100D01*
X890381Y389534D01*
D10*
X460666Y142921D02*
X401358Y108680D01*
X401358Y108679D02*
X401133Y108546D01*
X400911Y108407D01*
X400693Y108262D01*
X400478Y108112D01*
X400267Y107957D01*
X400060Y107797D01*
X399856Y107632D01*
X399657Y107462D01*
X399462Y107288D01*
X399271Y107108D01*
X399085Y106924D01*
X398903Y106736D01*
X398726Y106543D01*
X398554Y106345D01*
X398386Y106144D01*
X398223Y105939D01*
X398066Y105730D01*
X397914Y105517D01*
X397766Y105300D01*
X397625Y105080D01*
X397488Y104856D01*
X397357Y104630D01*
X397232Y104400D01*
X397112Y104167D01*
X396998Y103931D01*
X396890Y103692D01*
X396787Y103451D01*
X396691Y103208D01*
X396600Y102962D01*
X396516Y102714D01*
X396437Y102465D01*
X396365Y102213D01*
X396298Y101960D01*
X396238Y101705D01*
X396185Y101448D01*
X396137Y101191D01*
X396096Y100932D01*
X396061Y100673D01*
X396032Y100412D01*
X396010Y100151D01*
X395994Y99890D01*
X395984Y99628D01*
X395981Y99366D01*
X395984Y99104D01*
X395994Y98843D01*
X396010Y98581D01*
X396032Y98320D01*
X396061Y98060D01*
X396096Y97801D01*
X396137Y97542D01*
X396184Y97284D01*
X396238Y97028D01*
X396298Y96773D01*
X396364Y96520D01*
X396437Y96268D01*
X396515Y96018D01*
X396600Y95770D01*
X396690Y95525D01*
X396787Y95281D01*
X396889Y95040D01*
X396998Y94802D01*
X397112Y94566D01*
X397231Y94333D01*
X397357Y94103D01*
X397488Y93876D01*
X397624Y93653D01*
X397766Y93433D01*
X397913Y93216D01*
X398066Y93003D01*
X398223Y92794D01*
X398386Y92588D01*
X398553Y92387D01*
X398725Y92190D01*
X398903Y91997D01*
X399084Y91808D01*
X399271Y91624D01*
X399461Y91445D01*
X399656Y91270D01*
X399856Y91100D01*
X400059Y90935D01*
X400266Y90775D01*
X400477Y90620D01*
X400692Y90470D01*
X400911Y90326D01*
X401132Y90187D01*
X401358Y90053D01*
X401357Y90053D02*
X460665Y55808D01*
X460665Y55807D02*
X460894Y55679D01*
X461125Y55556D01*
X461359Y55439D01*
X461597Y55328D01*
X461836Y55223D01*
X462079Y55123D01*
X462323Y55030D01*
X462570Y54942D01*
X462819Y54861D01*
X463070Y54785D01*
X463322Y54716D01*
X463577Y54653D01*
X463832Y54596D01*
X464089Y54545D01*
X464347Y54501D01*
X464606Y54462D01*
X464866Y54431D01*
X465127Y54405D01*
X465388Y54386D01*
X465650Y54373D01*
X465912Y54367D01*
X466174Y54367D01*
X466436Y54373D01*
X466697Y54386D01*
X466958Y54405D01*
X467219Y54430D01*
X467479Y54462D01*
X467738Y54500D01*
X467996Y54545D01*
X468253Y54596D01*
X468509Y54652D01*
X468763Y54716D01*
X469016Y54785D01*
X469266Y54860D01*
X469515Y54942D01*
X469762Y55030D01*
X470007Y55123D01*
X470249Y55223D01*
X470489Y55328D01*
X470726Y55439D01*
X470960Y55556D01*
X471192Y55679D01*
X471420Y55807D01*
X471645Y55940D01*
X471867Y56080D01*
X472086Y56224D01*
X472301Y56374D01*
X472512Y56529D01*
X472719Y56689D01*
X472922Y56854D01*
X473122Y57024D01*
X473317Y57199D01*
X473508Y57378D01*
X473694Y57562D01*
X473876Y57751D01*
X474053Y57944D01*
X474225Y58141D01*
X474393Y58342D01*
X474555Y58548D01*
X474713Y58757D01*
X474865Y58970D01*
X475012Y59186D01*
X475154Y59407D01*
X475291Y59630D01*
X475422Y59857D01*
X475547Y60087D01*
X475667Y60320D01*
X475781Y60556D01*
X475889Y60794D01*
X475992Y61035D01*
X476088Y61279D01*
X476179Y61524D01*
X476263Y61772D01*
X476342Y62022D01*
X476414Y62274D01*
X476481Y62527D01*
X476541Y62782D01*
X476594Y63039D01*
X476642Y63296D01*
X476683Y63555D01*
X476718Y63814D01*
X476747Y64075D01*
X476769Y64336D01*
X476785Y64597D01*
X476795Y64859D01*
X476798Y65121D01*
X476798Y133607D01*
X476797Y133607D02*
X476794Y133869D01*
X476784Y134130D01*
X476768Y134392D01*
X476746Y134653D01*
X476717Y134913D01*
X476682Y135173D01*
X476641Y135431D01*
X476594Y135689D01*
X476540Y135945D01*
X476480Y136200D01*
X476413Y136453D01*
X476341Y136705D01*
X476263Y136955D01*
X476178Y137203D01*
X476087Y137449D01*
X475991Y137692D01*
X475888Y137933D01*
X475780Y138172D01*
X475666Y138407D01*
X475546Y138640D01*
X475421Y138870D01*
X475290Y139097D01*
X475154Y139320D01*
X475012Y139541D01*
X474865Y139757D01*
X474712Y139970D01*
X474555Y140179D01*
X474392Y140385D01*
X474225Y140586D01*
X474052Y140783D01*
X473875Y140976D01*
X473693Y141165D01*
X473507Y141349D01*
X473316Y141528D01*
X473121Y141703D01*
X472922Y141873D01*
X472719Y142038D01*
X472512Y142198D01*
X472300Y142353D01*
X472086Y142503D01*
X471867Y142647D01*
X471645Y142786D01*
X471420Y142920D01*
X471192Y143048D01*
X470960Y143171D01*
X470726Y143288D01*
X470489Y143399D01*
X470249Y143504D01*
X470007Y143604D01*
X469762Y143697D01*
X469515Y143785D01*
X469266Y143867D01*
X469016Y143942D01*
X468763Y144011D01*
X468509Y144074D01*
X468253Y144131D01*
X467996Y144182D01*
X467738Y144227D01*
X467479Y144265D01*
X467219Y144296D01*
X466959Y144322D01*
X466697Y144341D01*
X466436Y144354D01*
X466174Y144360D01*
X465912Y144360D01*
X465650Y144354D01*
X465389Y144341D01*
X465128Y144322D01*
X464867Y144296D01*
X464607Y144265D01*
X464348Y144227D01*
X464090Y144182D01*
X463833Y144131D01*
X463577Y144074D01*
X463323Y144011D01*
X463070Y143942D01*
X462820Y143867D01*
X462571Y143785D01*
X462324Y143697D01*
X462079Y143604D01*
X461837Y143504D01*
X461597Y143399D01*
X461360Y143288D01*
X461126Y143171D01*
X460894Y143048D01*
X460666Y142920D01*
D11*
X-20381Y-399619D02*
X-29619Y-399619D01*
X-29619Y-395513D01*
X-25000Y-392136D02*
X-24818Y-392134D01*
X-24637Y-392127D01*
X-24455Y-392116D01*
X-24274Y-392101D01*
X-24093Y-392082D01*
X-23913Y-392058D01*
X-23734Y-392030D01*
X-23555Y-391998D01*
X-23377Y-391961D01*
X-23200Y-391920D01*
X-23024Y-391875D01*
X-22849Y-391826D01*
X-22675Y-391772D01*
X-22503Y-391715D01*
X-22332Y-391653D01*
X-22162Y-391587D01*
X-21994Y-391518D01*
X-21828Y-391444D01*
X-21664Y-391366D01*
X-21585Y-391337D01*
X-21508Y-391305D01*
X-21432Y-391269D01*
X-21357Y-391230D01*
X-21284Y-391187D01*
X-21214Y-391141D01*
X-21145Y-391093D01*
X-21079Y-391041D01*
X-21015Y-390986D01*
X-20954Y-390929D01*
X-20895Y-390869D01*
X-20838Y-390806D01*
X-20785Y-390741D01*
X-20735Y-390674D01*
X-20687Y-390604D01*
X-20643Y-390533D01*
X-20602Y-390459D01*
X-20564Y-390384D01*
X-20530Y-390307D01*
X-20499Y-390229D01*
X-20472Y-390150D01*
X-20448Y-390069D01*
X-20427Y-389987D01*
X-20411Y-389905D01*
X-20398Y-389822D01*
X-20388Y-389738D01*
X-20383Y-389654D01*
X-20381Y-389570D01*
X-20383Y-389486D01*
X-20388Y-389402D01*
X-20398Y-389318D01*
X-20411Y-389235D01*
X-20427Y-389153D01*
X-20448Y-389071D01*
X-20472Y-388990D01*
X-20499Y-388911D01*
X-20530Y-388833D01*
X-20564Y-388756D01*
X-20602Y-388681D01*
X-20643Y-388607D01*
X-20687Y-388536D01*
X-20735Y-388466D01*
X-20785Y-388399D01*
X-20838Y-388334D01*
X-20895Y-388271D01*
X-20953Y-388211D01*
X-21015Y-388154D01*
X-21079Y-388099D01*
X-21145Y-388047D01*
X-21214Y-387999D01*
X-21284Y-387953D01*
X-21357Y-387910D01*
X-21431Y-387871D01*
X-21508Y-387835D01*
X-21585Y-387803D01*
X-21664Y-387774D01*
X-21828Y-387696D01*
X-21994Y-387622D01*
X-22162Y-387553D01*
X-22332Y-387487D01*
X-22503Y-387425D01*
X-22675Y-387368D01*
X-22849Y-387314D01*
X-23024Y-387265D01*
X-23200Y-387220D01*
X-23377Y-387179D01*
X-23555Y-387142D01*
X-23734Y-387110D01*
X-23913Y-387082D01*
X-24093Y-387058D01*
X-24274Y-387039D01*
X-24455Y-387024D01*
X-24637Y-387013D01*
X-24818Y-387006D01*
X-25000Y-387004D01*
X-25000Y-392136D02*
X-25182Y-392134D01*
X-25363Y-392127D01*
X-25545Y-392116D01*
X-25726Y-392101D01*
X-25907Y-392082D01*
X-26087Y-392058D01*
X-26266Y-392030D01*
X-26445Y-391998D01*
X-26623Y-391961D01*
X-26800Y-391920D01*
X-26976Y-391875D01*
X-27151Y-391826D01*
X-27325Y-391772D01*
X-27497Y-391715D01*
X-27668Y-391653D01*
X-27838Y-391587D01*
X-28006Y-391518D01*
X-28172Y-391444D01*
X-28336Y-391366D01*
X-28415Y-391337D01*
X-28492Y-391305D01*
X-28569Y-391269D01*
X-28643Y-391230D01*
X-28716Y-391187D01*
X-28786Y-391141D01*
X-28855Y-391093D01*
X-28921Y-391041D01*
X-28985Y-390986D01*
X-29047Y-390929D01*
X-29105Y-390869D01*
X-29162Y-390806D01*
X-29215Y-390741D01*
X-29265Y-390674D01*
X-29313Y-390604D01*
X-29357Y-390533D01*
X-29398Y-390459D01*
X-29436Y-390384D01*
X-29470Y-390307D01*
X-29501Y-390229D01*
X-29528Y-390150D01*
X-29552Y-390069D01*
X-29573Y-389987D01*
X-29589Y-389905D01*
X-29602Y-389822D01*
X-29612Y-389738D01*
X-29617Y-389654D01*
X-29619Y-389570D01*
X-28336Y-387774D02*
X-28172Y-387696D01*
X-28006Y-387622D01*
X-27838Y-387553D01*
X-27668Y-387487D01*
X-27497Y-387425D01*
X-27325Y-387368D01*
X-27151Y-387314D01*
X-26976Y-387265D01*
X-26800Y-387220D01*
X-26623Y-387179D01*
X-26445Y-387142D01*
X-26266Y-387110D01*
X-26087Y-387082D01*
X-25907Y-387058D01*
X-25726Y-387039D01*
X-25545Y-387024D01*
X-25363Y-387013D01*
X-25182Y-387006D01*
X-25000Y-387004D01*
X-28336Y-387774D02*
X-28415Y-387803D01*
X-28492Y-387835D01*
X-28569Y-387871D01*
X-28643Y-387910D01*
X-28716Y-387953D01*
X-28786Y-387999D01*
X-28855Y-388047D01*
X-28921Y-388099D01*
X-28985Y-388154D01*
X-29047Y-388211D01*
X-29105Y-388271D01*
X-29162Y-388334D01*
X-29215Y-388399D01*
X-29265Y-388466D01*
X-29313Y-388536D01*
X-29357Y-388607D01*
X-29398Y-388681D01*
X-29436Y-388756D01*
X-29470Y-388833D01*
X-29501Y-388911D01*
X-29528Y-388990D01*
X-29552Y-389071D01*
X-29573Y-389153D01*
X-29589Y-389235D01*
X-29602Y-389318D01*
X-29612Y-389402D01*
X-29617Y-389486D01*
X-29619Y-389570D01*
X-27566Y-391623D02*
X-22434Y-387517D01*
X-29619Y-383136D02*
X-29619Y-380570D01*
X-29617Y-380471D01*
X-29611Y-380371D01*
X-29602Y-380272D01*
X-29588Y-380174D01*
X-29571Y-380076D01*
X-29550Y-379978D01*
X-29525Y-379882D01*
X-29496Y-379787D01*
X-29464Y-379692D01*
X-29428Y-379600D01*
X-29389Y-379508D01*
X-29346Y-379418D01*
X-29300Y-379330D01*
X-29250Y-379244D01*
X-29197Y-379160D01*
X-29141Y-379078D01*
X-29081Y-378998D01*
X-29019Y-378921D01*
X-28953Y-378846D01*
X-28885Y-378773D01*
X-28814Y-378704D01*
X-28740Y-378637D01*
X-28664Y-378573D01*
X-28585Y-378512D01*
X-28504Y-378454D01*
X-28421Y-378399D01*
X-28336Y-378348D01*
X-28249Y-378300D01*
X-28160Y-378255D01*
X-28069Y-378214D01*
X-27977Y-378176D01*
X-27884Y-378142D01*
X-27789Y-378112D01*
X-27693Y-378085D01*
X-27596Y-378062D01*
X-27499Y-378043D01*
X-27400Y-378028D01*
X-27301Y-378016D01*
X-27202Y-378008D01*
X-27103Y-378004D01*
X-27003Y-378004D01*
X-26904Y-378008D01*
X-26805Y-378016D01*
X-26706Y-378028D01*
X-26607Y-378043D01*
X-26510Y-378062D01*
X-26413Y-378085D01*
X-26317Y-378112D01*
X-26222Y-378142D01*
X-26129Y-378176D01*
X-26037Y-378214D01*
X-25946Y-378255D01*
X-25857Y-378300D01*
X-25770Y-378348D01*
X-25685Y-378399D01*
X-25602Y-378454D01*
X-25521Y-378512D01*
X-25442Y-378573D01*
X-25366Y-378637D01*
X-25292Y-378704D01*
X-25221Y-378773D01*
X-25153Y-378846D01*
X-25087Y-378921D01*
X-25025Y-378998D01*
X-24965Y-379078D01*
X-24909Y-379160D01*
X-24856Y-379244D01*
X-24806Y-379330D01*
X-24760Y-379418D01*
X-24717Y-379508D01*
X-24678Y-379600D01*
X-24642Y-379692D01*
X-24610Y-379787D01*
X-24581Y-379882D01*
X-24556Y-379978D01*
X-24535Y-380076D01*
X-24518Y-380174D01*
X-24504Y-380272D01*
X-24495Y-380371D01*
X-24489Y-380471D01*
X-24487Y-380570D01*
X-20381Y-380057D02*
X-20381Y-383136D01*
X-20381Y-380057D02*
X-20383Y-379967D01*
X-20389Y-379878D01*
X-20399Y-379789D01*
X-20412Y-379701D01*
X-20430Y-379613D01*
X-20451Y-379526D01*
X-20476Y-379440D01*
X-20505Y-379355D01*
X-20537Y-379271D01*
X-20573Y-379189D01*
X-20613Y-379109D01*
X-20656Y-379031D01*
X-20703Y-378954D01*
X-20752Y-378879D01*
X-20805Y-378807D01*
X-20861Y-378737D01*
X-20920Y-378670D01*
X-20982Y-378605D01*
X-21047Y-378543D01*
X-21114Y-378484D01*
X-21184Y-378428D01*
X-21256Y-378375D01*
X-21331Y-378326D01*
X-21408Y-378279D01*
X-21486Y-378236D01*
X-21566Y-378196D01*
X-21648Y-378160D01*
X-21732Y-378128D01*
X-21817Y-378099D01*
X-21903Y-378074D01*
X-21990Y-378053D01*
X-22078Y-378035D01*
X-22166Y-378022D01*
X-22255Y-378012D01*
X-22344Y-378006D01*
X-22434Y-378004D01*
X-22524Y-378006D01*
X-22613Y-378012D01*
X-22702Y-378022D01*
X-22790Y-378035D01*
X-22878Y-378053D01*
X-22965Y-378074D01*
X-23051Y-378099D01*
X-23136Y-378128D01*
X-23220Y-378160D01*
X-23302Y-378196D01*
X-23382Y-378236D01*
X-23460Y-378279D01*
X-23537Y-378326D01*
X-23612Y-378375D01*
X-23684Y-378428D01*
X-23754Y-378484D01*
X-23821Y-378543D01*
X-23886Y-378605D01*
X-23948Y-378670D01*
X-24007Y-378737D01*
X-24063Y-378807D01*
X-24116Y-378879D01*
X-24165Y-378954D01*
X-24212Y-379031D01*
X-24255Y-379109D01*
X-24295Y-379189D01*
X-24331Y-379271D01*
X-24363Y-379355D01*
X-24392Y-379440D01*
X-24417Y-379526D01*
X-24438Y-379613D01*
X-24456Y-379701D01*
X-24469Y-379789D01*
X-24479Y-379878D01*
X-24485Y-379967D01*
X-24487Y-380057D01*
X-24487Y-382110D01*
X-4619Y-399619D02*
X4619Y-399619D01*
X-4619Y-399619D02*
X-4619Y-395513D01*
X0Y-392136D02*
X182Y-392134D01*
X363Y-392127D01*
X545Y-392116D01*
X726Y-392101D01*
X907Y-392082D01*
X1087Y-392058D01*
X1266Y-392030D01*
X1445Y-391998D01*
X1623Y-391961D01*
X1800Y-391920D01*
X1976Y-391875D01*
X2151Y-391826D01*
X2325Y-391772D01*
X2497Y-391715D01*
X2668Y-391653D01*
X2838Y-391587D01*
X3006Y-391518D01*
X3172Y-391444D01*
X3336Y-391366D01*
X3415Y-391337D01*
X3492Y-391305D01*
X3568Y-391269D01*
X3643Y-391230D01*
X3716Y-391187D01*
X3786Y-391141D01*
X3855Y-391093D01*
X3921Y-391041D01*
X3985Y-390986D01*
X4046Y-390929D01*
X4105Y-390869D01*
X4162Y-390806D01*
X4215Y-390741D01*
X4265Y-390674D01*
X4313Y-390604D01*
X4357Y-390533D01*
X4398Y-390459D01*
X4436Y-390384D01*
X4470Y-390307D01*
X4501Y-390229D01*
X4528Y-390150D01*
X4552Y-390069D01*
X4573Y-389987D01*
X4589Y-389905D01*
X4602Y-389822D01*
X4612Y-389738D01*
X4617Y-389654D01*
X4619Y-389570D01*
X4617Y-389486D01*
X4612Y-389402D01*
X4602Y-389318D01*
X4589Y-389235D01*
X4573Y-389153D01*
X4552Y-389071D01*
X4528Y-388990D01*
X4501Y-388911D01*
X4470Y-388833D01*
X4436Y-388756D01*
X4398Y-388681D01*
X4357Y-388607D01*
X4313Y-388536D01*
X4265Y-388466D01*
X4215Y-388399D01*
X4162Y-388334D01*
X4105Y-388271D01*
X4047Y-388211D01*
X3985Y-388154D01*
X3921Y-388099D01*
X3855Y-388047D01*
X3786Y-387999D01*
X3716Y-387953D01*
X3643Y-387910D01*
X3569Y-387871D01*
X3492Y-387835D01*
X3415Y-387803D01*
X3336Y-387774D01*
X3172Y-387696D01*
X3006Y-387622D01*
X2838Y-387553D01*
X2668Y-387487D01*
X2497Y-387425D01*
X2325Y-387368D01*
X2151Y-387314D01*
X1976Y-387265D01*
X1800Y-387220D01*
X1623Y-387179D01*
X1445Y-387142D01*
X1266Y-387110D01*
X1087Y-387082D01*
X907Y-387058D01*
X726Y-387039D01*
X545Y-387024D01*
X363Y-387013D01*
X182Y-387006D01*
X0Y-387004D01*
X0Y-392136D02*
X-182Y-392134D01*
X-363Y-392127D01*
X-545Y-392116D01*
X-726Y-392101D01*
X-907Y-392082D01*
X-1087Y-392058D01*
X-1266Y-392030D01*
X-1445Y-391998D01*
X-1623Y-391961D01*
X-1800Y-391920D01*
X-1976Y-391875D01*
X-2151Y-391826D01*
X-2325Y-391772D01*
X-2497Y-391715D01*
X-2668Y-391653D01*
X-2838Y-391587D01*
X-3006Y-391518D01*
X-3172Y-391444D01*
X-3336Y-391366D01*
X-3415Y-391337D01*
X-3492Y-391305D01*
X-3569Y-391269D01*
X-3643Y-391230D01*
X-3716Y-391187D01*
X-3786Y-391141D01*
X-3855Y-391093D01*
X-3921Y-391041D01*
X-3985Y-390986D01*
X-4047Y-390929D01*
X-4105Y-390869D01*
X-4162Y-390806D01*
X-4215Y-390741D01*
X-4265Y-390674D01*
X-4313Y-390604D01*
X-4357Y-390533D01*
X-4398Y-390459D01*
X-4436Y-390384D01*
X-4470Y-390307D01*
X-4501Y-390229D01*
X-4528Y-390150D01*
X-4552Y-390069D01*
X-4573Y-389987D01*
X-4589Y-389905D01*
X-4602Y-389822D01*
X-4612Y-389738D01*
X-4617Y-389654D01*
X-4619Y-389570D01*
X-3336Y-387774D02*
X-3172Y-387696D01*
X-3006Y-387622D01*
X-2838Y-387553D01*
X-2668Y-387487D01*
X-2497Y-387425D01*
X-2325Y-387368D01*
X-2151Y-387314D01*
X-1976Y-387265D01*
X-1800Y-387220D01*
X-1623Y-387179D01*
X-1445Y-387142D01*
X-1266Y-387110D01*
X-1087Y-387082D01*
X-907Y-387058D01*
X-726Y-387039D01*
X-545Y-387024D01*
X-363Y-387013D01*
X-182Y-387006D01*
X0Y-387004D01*
X-3336Y-387774D02*
X-3415Y-387803D01*
X-3492Y-387835D01*
X-3569Y-387871D01*
X-3643Y-387910D01*
X-3716Y-387953D01*
X-3786Y-387999D01*
X-3855Y-388047D01*
X-3921Y-388099D01*
X-3985Y-388154D01*
X-4047Y-388211D01*
X-4105Y-388271D01*
X-4162Y-388334D01*
X-4215Y-388399D01*
X-4265Y-388466D01*
X-4313Y-388536D01*
X-4357Y-388607D01*
X-4398Y-388681D01*
X-4436Y-388756D01*
X-4470Y-388833D01*
X-4501Y-388911D01*
X-4528Y-388990D01*
X-4552Y-389071D01*
X-4573Y-389153D01*
X-4589Y-389235D01*
X-4602Y-389318D01*
X-4612Y-389402D01*
X-4617Y-389486D01*
X-4619Y-389570D01*
X-2566Y-391623D02*
X2566Y-387517D01*
X4619Y-380314D02*
X4617Y-380219D01*
X4611Y-380123D01*
X4601Y-380028D01*
X4587Y-379934D01*
X4570Y-379840D01*
X4548Y-379747D01*
X4523Y-379655D01*
X4494Y-379564D01*
X4461Y-379474D01*
X4424Y-379386D01*
X4384Y-379299D01*
X4341Y-379215D01*
X4293Y-379132D01*
X4243Y-379051D01*
X4189Y-378972D01*
X4132Y-378895D01*
X4072Y-378821D01*
X4009Y-378749D01*
X3942Y-378681D01*
X3874Y-378614D01*
X3802Y-378551D01*
X3728Y-378491D01*
X3651Y-378434D01*
X3572Y-378380D01*
X3491Y-378330D01*
X3408Y-378282D01*
X3324Y-378239D01*
X3237Y-378199D01*
X3149Y-378162D01*
X3059Y-378129D01*
X2968Y-378100D01*
X2876Y-378075D01*
X2783Y-378053D01*
X2689Y-378036D01*
X2595Y-378022D01*
X2500Y-378012D01*
X2404Y-378006D01*
X2309Y-378004D01*
X4619Y-380314D02*
X4617Y-380421D01*
X4611Y-380527D01*
X4602Y-380633D01*
X4588Y-380739D01*
X4571Y-380844D01*
X4550Y-380949D01*
X4526Y-381052D01*
X4497Y-381155D01*
X4465Y-381257D01*
X4430Y-381357D01*
X4390Y-381456D01*
X4347Y-381554D01*
X4301Y-381650D01*
X4251Y-381744D01*
X4198Y-381837D01*
X4142Y-381927D01*
X4082Y-382016D01*
X4020Y-382102D01*
X3954Y-382186D01*
X3885Y-382267D01*
X3814Y-382346D01*
X3739Y-382423D01*
X3662Y-382496D01*
X3582Y-382567D01*
X3500Y-382635D01*
X3416Y-382700D01*
X3329Y-382762D01*
X3240Y-382820D01*
X3149Y-382876D01*
X3056Y-382928D01*
X2961Y-382977D01*
X2864Y-383022D01*
X2766Y-383064D01*
X2667Y-383102D01*
X2566Y-383137D01*
X513Y-378775D02*
X580Y-378707D01*
X650Y-378641D01*
X723Y-378579D01*
X797Y-378519D01*
X874Y-378462D01*
X953Y-378408D01*
X1034Y-378358D01*
X1117Y-378310D01*
X1202Y-378266D01*
X1288Y-378225D01*
X1376Y-378187D01*
X1465Y-378153D01*
X1556Y-378122D01*
X1648Y-378095D01*
X1740Y-378071D01*
X1834Y-378051D01*
X1928Y-378034D01*
X2023Y-378022D01*
X2118Y-378012D01*
X2213Y-378007D01*
X2309Y-378005D01*
X513Y-378774D02*
X-4619Y-383136D01*
X-4619Y-378004D01*
X20381Y-399619D02*
X29619Y-399619D01*
X20381Y-399619D02*
X20381Y-395513D01*
X25000Y-392136D02*
X25182Y-392134D01*
X25363Y-392127D01*
X25545Y-392116D01*
X25726Y-392101D01*
X25907Y-392082D01*
X26087Y-392058D01*
X26266Y-392030D01*
X26445Y-391998D01*
X26623Y-391961D01*
X26800Y-391920D01*
X26976Y-391875D01*
X27151Y-391826D01*
X27325Y-391772D01*
X27497Y-391715D01*
X27668Y-391653D01*
X27838Y-391587D01*
X28006Y-391518D01*
X28172Y-391444D01*
X28336Y-391366D01*
X28415Y-391337D01*
X28492Y-391305D01*
X28568Y-391269D01*
X28643Y-391230D01*
X28716Y-391187D01*
X28786Y-391141D01*
X28855Y-391093D01*
X28921Y-391041D01*
X28985Y-390986D01*
X29046Y-390929D01*
X29105Y-390869D01*
X29162Y-390806D01*
X29215Y-390741D01*
X29265Y-390674D01*
X29313Y-390604D01*
X29357Y-390533D01*
X29398Y-390459D01*
X29436Y-390384D01*
X29470Y-390307D01*
X29501Y-390229D01*
X29528Y-390150D01*
X29552Y-390069D01*
X29573Y-389987D01*
X29589Y-389905D01*
X29602Y-389822D01*
X29612Y-389738D01*
X29617Y-389654D01*
X29619Y-389570D01*
X29617Y-389486D01*
X29612Y-389402D01*
X29602Y-389318D01*
X29589Y-389235D01*
X29573Y-389153D01*
X29552Y-389071D01*
X29528Y-388990D01*
X29501Y-388911D01*
X29470Y-388833D01*
X29436Y-388756D01*
X29398Y-388681D01*
X29357Y-388607D01*
X29313Y-388536D01*
X29265Y-388466D01*
X29215Y-388399D01*
X29162Y-388334D01*
X29105Y-388271D01*
X29047Y-388211D01*
X28985Y-388154D01*
X28921Y-388099D01*
X28855Y-388047D01*
X28786Y-387999D01*
X28716Y-387953D01*
X28643Y-387910D01*
X28569Y-387871D01*
X28492Y-387835D01*
X28415Y-387803D01*
X28336Y-387774D01*
X28172Y-387696D01*
X28006Y-387622D01*
X27838Y-387553D01*
X27668Y-387487D01*
X27497Y-387425D01*
X27325Y-387368D01*
X27151Y-387314D01*
X26976Y-387265D01*
X26800Y-387220D01*
X26623Y-387179D01*
X26445Y-387142D01*
X26266Y-387110D01*
X26087Y-387082D01*
X25907Y-387058D01*
X25726Y-387039D01*
X25545Y-387024D01*
X25363Y-387013D01*
X25182Y-387006D01*
X25000Y-387004D01*
X25000Y-392136D02*
X24818Y-392134D01*
X24637Y-392127D01*
X24455Y-392116D01*
X24274Y-392101D01*
X24093Y-392082D01*
X23913Y-392058D01*
X23734Y-392030D01*
X23555Y-391998D01*
X23377Y-391961D01*
X23200Y-391920D01*
X23024Y-391875D01*
X22849Y-391826D01*
X22675Y-391772D01*
X22503Y-391715D01*
X22332Y-391653D01*
X22162Y-391587D01*
X21995Y-391518D01*
X21828Y-391444D01*
X21664Y-391366D01*
X21585Y-391337D01*
X21508Y-391305D01*
X21431Y-391269D01*
X21357Y-391230D01*
X21284Y-391187D01*
X21214Y-391141D01*
X21145Y-391093D01*
X21079Y-391041D01*
X21015Y-390986D01*
X20953Y-390929D01*
X20895Y-390869D01*
X20838Y-390806D01*
X20785Y-390741D01*
X20735Y-390674D01*
X20687Y-390604D01*
X20643Y-390533D01*
X20602Y-390459D01*
X20564Y-390384D01*
X20530Y-390307D01*
X20499Y-390229D01*
X20472Y-390150D01*
X20448Y-390069D01*
X20427Y-389987D01*
X20411Y-389905D01*
X20398Y-389822D01*
X20388Y-389738D01*
X20383Y-389654D01*
X20381Y-389570D01*
X21664Y-387774D02*
X21828Y-387696D01*
X21994Y-387622D01*
X22162Y-387553D01*
X22332Y-387487D01*
X22503Y-387425D01*
X22675Y-387368D01*
X22849Y-387314D01*
X23024Y-387265D01*
X23200Y-387220D01*
X23377Y-387179D01*
X23555Y-387142D01*
X23734Y-387110D01*
X23913Y-387082D01*
X24093Y-387058D01*
X24274Y-387039D01*
X24455Y-387024D01*
X24637Y-387013D01*
X24818Y-387006D01*
X25000Y-387004D01*
X21664Y-387774D02*
X21585Y-387803D01*
X21508Y-387835D01*
X21431Y-387871D01*
X21357Y-387910D01*
X21284Y-387953D01*
X21214Y-387999D01*
X21145Y-388047D01*
X21079Y-388099D01*
X21015Y-388154D01*
X20953Y-388211D01*
X20895Y-388271D01*
X20838Y-388334D01*
X20785Y-388399D01*
X20735Y-388466D01*
X20687Y-388536D01*
X20643Y-388607D01*
X20602Y-388681D01*
X20564Y-388756D01*
X20530Y-388833D01*
X20499Y-388911D01*
X20472Y-388990D01*
X20448Y-389071D01*
X20427Y-389153D01*
X20411Y-389235D01*
X20398Y-389318D01*
X20388Y-389402D01*
X20383Y-389486D01*
X20381Y-389570D01*
X22434Y-391623D02*
X27566Y-387517D01*
X27566Y-383136D02*
X29619Y-380570D01*
X20381Y-380570D01*
X20381Y-383136D02*
X20381Y-378004D01*
X-774793Y-169619D02*
X-774793Y-160381D01*
X-774793Y-169619D02*
X-778898Y-169619D01*
X-784303Y-169619D02*
X-786355Y-169619D01*
X-784303Y-169619D02*
X-784213Y-169617D01*
X-784124Y-169611D01*
X-784035Y-169601D01*
X-783947Y-169588D01*
X-783859Y-169570D01*
X-783772Y-169549D01*
X-783686Y-169524D01*
X-783601Y-169495D01*
X-783517Y-169463D01*
X-783435Y-169427D01*
X-783355Y-169387D01*
X-783277Y-169344D01*
X-783200Y-169297D01*
X-783125Y-169248D01*
X-783053Y-169195D01*
X-782983Y-169139D01*
X-782916Y-169080D01*
X-782851Y-169018D01*
X-782789Y-168953D01*
X-782730Y-168886D01*
X-782674Y-168816D01*
X-782621Y-168744D01*
X-782572Y-168669D01*
X-782525Y-168593D01*
X-782482Y-168514D01*
X-782442Y-168434D01*
X-782406Y-168352D01*
X-782374Y-168268D01*
X-782345Y-168183D01*
X-782320Y-168097D01*
X-782299Y-168010D01*
X-782281Y-167922D01*
X-782268Y-167834D01*
X-782258Y-167745D01*
X-782252Y-167656D01*
X-782250Y-167566D01*
X-782250Y-162434D01*
X-782252Y-162344D01*
X-782258Y-162255D01*
X-782268Y-162166D01*
X-782281Y-162078D01*
X-782299Y-161990D01*
X-782320Y-161903D01*
X-782345Y-161817D01*
X-782374Y-161732D01*
X-782406Y-161648D01*
X-782442Y-161566D01*
X-782482Y-161486D01*
X-782525Y-161408D01*
X-782572Y-161331D01*
X-782621Y-161256D01*
X-782674Y-161184D01*
X-782730Y-161114D01*
X-782789Y-161047D01*
X-782851Y-160982D01*
X-782916Y-160920D01*
X-782983Y-160861D01*
X-783053Y-160805D01*
X-783125Y-160752D01*
X-783200Y-160703D01*
X-783276Y-160656D01*
X-783355Y-160613D01*
X-783435Y-160573D01*
X-783517Y-160537D01*
X-783601Y-160505D01*
X-783686Y-160476D01*
X-783772Y-160451D01*
X-783859Y-160430D01*
X-783946Y-160412D01*
X-784035Y-160399D01*
X-784124Y-160389D01*
X-784213Y-160383D01*
X-784303Y-160381D01*
X-786355Y-160381D01*
X-790075Y-160381D02*
X-790075Y-169619D01*
X-790075Y-160381D02*
X-792641Y-160381D01*
X-792739Y-160383D01*
X-792837Y-160389D01*
X-792935Y-160398D01*
X-793033Y-160411D01*
X-793130Y-160428D01*
X-793226Y-160448D01*
X-793321Y-160473D01*
X-793415Y-160501D01*
X-793508Y-160532D01*
X-793600Y-160567D01*
X-793691Y-160606D01*
X-793780Y-160647D01*
X-793867Y-160693D01*
X-793952Y-160741D01*
X-794036Y-160793D01*
X-794117Y-160848D01*
X-794197Y-160906D01*
X-794274Y-160967D01*
X-794348Y-161031D01*
X-794420Y-161098D01*
X-794490Y-161168D01*
X-794557Y-161240D01*
X-794621Y-161314D01*
X-794682Y-161391D01*
X-794740Y-161471D01*
X-794795Y-161552D01*
X-794847Y-161636D01*
X-794895Y-161721D01*
X-794941Y-161808D01*
X-794982Y-161897D01*
X-795021Y-161988D01*
X-795056Y-162080D01*
X-795087Y-162173D01*
X-795115Y-162267D01*
X-795140Y-162362D01*
X-795160Y-162458D01*
X-795177Y-162555D01*
X-795190Y-162653D01*
X-795199Y-162751D01*
X-795205Y-162849D01*
X-795207Y-162947D01*
X-795207Y-167053D01*
X-795205Y-167151D01*
X-795199Y-167249D01*
X-795190Y-167347D01*
X-795177Y-167445D01*
X-795160Y-167542D01*
X-795140Y-167638D01*
X-795115Y-167733D01*
X-795087Y-167827D01*
X-795056Y-167920D01*
X-795021Y-168012D01*
X-794982Y-168103D01*
X-794941Y-168192D01*
X-794895Y-168279D01*
X-794847Y-168364D01*
X-794795Y-168448D01*
X-794740Y-168529D01*
X-794682Y-168609D01*
X-794621Y-168686D01*
X-794557Y-168760D01*
X-794490Y-168832D01*
X-794420Y-168902D01*
X-794348Y-168969D01*
X-794274Y-169033D01*
X-794197Y-169094D01*
X-794117Y-169152D01*
X-794036Y-169207D01*
X-793952Y-169259D01*
X-793867Y-169307D01*
X-793780Y-169353D01*
X-793691Y-169394D01*
X-793600Y-169433D01*
X-793508Y-169468D01*
X-793415Y-169499D01*
X-793321Y-169527D01*
X-793226Y-169552D01*
X-793130Y-169572D01*
X-793033Y-169589D01*
X-792935Y-169602D01*
X-792837Y-169611D01*
X-792739Y-169617D01*
X-792641Y-169619D01*
X-790075Y-169619D01*
D12*
X612500Y-435000D02*
X613829Y-434984D01*
X615157Y-434936D01*
X616484Y-434856D01*
X617808Y-434743D01*
X619130Y-434599D01*
X620447Y-434423D01*
X621760Y-434215D01*
X623067Y-433975D01*
X624368Y-433704D01*
X625662Y-433402D01*
X626949Y-433068D01*
X628227Y-432704D01*
X629496Y-432308D01*
X630755Y-431882D01*
X632003Y-431426D01*
X633240Y-430940D01*
X634465Y-430424D01*
X635677Y-429878D01*
X636876Y-429303D01*
X638060Y-428700D01*
X639229Y-428068D01*
X640383Y-427408D01*
X641520Y-426721D01*
X642641Y-426006D01*
X643744Y-425264D01*
X644828Y-424496D01*
X645894Y-423702D01*
X646940Y-422882D01*
X647966Y-422037D01*
X648972Y-421168D01*
X649956Y-420275D01*
X650918Y-419358D01*
X651858Y-418418D01*
X652775Y-417456D01*
X653668Y-416472D01*
X654537Y-415466D01*
X655382Y-414440D01*
X656202Y-413394D01*
X656996Y-412328D01*
X657764Y-411244D01*
X658506Y-410141D01*
X659221Y-409020D01*
X659908Y-407883D01*
X660568Y-406729D01*
X661200Y-405560D01*
X661803Y-404376D01*
X662378Y-403177D01*
X662924Y-401965D01*
X663440Y-400740D01*
X663926Y-399503D01*
X664382Y-398255D01*
X664808Y-396996D01*
X665204Y-395727D01*
X665568Y-394449D01*
X665902Y-393162D01*
X666204Y-391868D01*
X666475Y-390567D01*
X666715Y-389260D01*
X666923Y-387947D01*
X667099Y-386630D01*
X667243Y-385308D01*
X667356Y-383984D01*
X667436Y-382657D01*
X667484Y-381329D01*
X667500Y-380000D01*
X667500Y-295000D01*
X870000Y-295000D01*
X871329Y-294984D01*
X872657Y-294936D01*
X873984Y-294856D01*
X875308Y-294743D01*
X876630Y-294599D01*
X877947Y-294423D01*
X879260Y-294215D01*
X880567Y-293975D01*
X881868Y-293704D01*
X883162Y-293402D01*
X884449Y-293068D01*
X885727Y-292704D01*
X886996Y-292308D01*
X888255Y-291882D01*
X889503Y-291426D01*
X890740Y-290940D01*
X891965Y-290424D01*
X893177Y-289878D01*
X894376Y-289303D01*
X895560Y-288700D01*
X896729Y-288068D01*
X897883Y-287408D01*
X899020Y-286721D01*
X900141Y-286006D01*
X901244Y-285264D01*
X902328Y-284496D01*
X903394Y-283702D01*
X904440Y-282882D01*
X905466Y-282037D01*
X906472Y-281168D01*
X907456Y-280275D01*
X908418Y-279358D01*
X909358Y-278418D01*
X910275Y-277456D01*
X911168Y-276472D01*
X912037Y-275466D01*
X912882Y-274440D01*
X913702Y-273394D01*
X914496Y-272328D01*
X915264Y-271244D01*
X916006Y-270141D01*
X916721Y-269020D01*
X917408Y-267883D01*
X918068Y-266729D01*
X918700Y-265560D01*
X919303Y-264376D01*
X919878Y-263177D01*
X920424Y-261965D01*
X920940Y-260740D01*
X921426Y-259503D01*
X921882Y-258255D01*
X922308Y-256996D01*
X922704Y-255727D01*
X923068Y-254449D01*
X923402Y-253162D01*
X923704Y-251868D01*
X923975Y-250567D01*
X924215Y-249260D01*
X924423Y-247947D01*
X924599Y-246630D01*
X924743Y-245308D01*
X924856Y-243984D01*
X924936Y-242657D01*
X924984Y-241329D01*
X925000Y-240000D01*
X925000Y240000D01*
X924984Y241329D01*
X924936Y242657D01*
X924856Y243984D01*
X924743Y245308D01*
X924599Y246630D01*
X924423Y247947D01*
X924215Y249260D01*
X923975Y250567D01*
X923704Y251868D01*
X923402Y253162D01*
X923068Y254449D01*
X922704Y255727D01*
X922308Y256996D01*
X921882Y258255D01*
X921426Y259503D01*
X920940Y260740D01*
X920424Y261965D01*
X919878Y263177D01*
X919303Y264376D01*
X918700Y265560D01*
X918068Y266729D01*
X917408Y267883D01*
X916721Y269020D01*
X916006Y270141D01*
X915264Y271244D01*
X914496Y272328D01*
X913702Y273394D01*
X912882Y274440D01*
X912037Y275466D01*
X911168Y276472D01*
X910275Y277456D01*
X909358Y278418D01*
X908418Y279358D01*
X907456Y280275D01*
X906472Y281168D01*
X905466Y282037D01*
X904440Y282882D01*
X903394Y283702D01*
X902328Y284496D01*
X901244Y285264D01*
X900141Y286006D01*
X899020Y286721D01*
X897883Y287408D01*
X896729Y288068D01*
X895560Y288700D01*
X894376Y289303D01*
X893177Y289878D01*
X891965Y290424D01*
X890740Y290940D01*
X889503Y291426D01*
X888255Y291882D01*
X886996Y292308D01*
X885727Y292704D01*
X884449Y293068D01*
X883162Y293402D01*
X881868Y293704D01*
X880567Y293975D01*
X879260Y294215D01*
X877947Y294423D01*
X876630Y294599D01*
X875308Y294743D01*
X873984Y294856D01*
X872657Y294936D01*
X871329Y294984D01*
X870000Y295000D01*
X667500Y295000D01*
X667500Y380000D01*
X667484Y381329D01*
X667436Y382657D01*
X667356Y383984D01*
X667243Y385308D01*
X667099Y386630D01*
X666923Y387947D01*
X666715Y389260D01*
X666475Y390567D01*
X666204Y391868D01*
X665902Y393162D01*
X665568Y394449D01*
X665204Y395727D01*
X664808Y396996D01*
X664382Y398255D01*
X663926Y399503D01*
X663440Y400740D01*
X662924Y401965D01*
X662378Y403177D01*
X661803Y404376D01*
X661200Y405560D01*
X660568Y406729D01*
X659908Y407883D01*
X659221Y409020D01*
X658506Y410141D01*
X657764Y411244D01*
X656996Y412328D01*
X656202Y413394D01*
X655382Y414440D01*
X654537Y415466D01*
X653668Y416472D01*
X652775Y417456D01*
X651858Y418418D01*
X650918Y419358D01*
X649956Y420275D01*
X648972Y421168D01*
X647966Y422037D01*
X646940Y422882D01*
X645894Y423702D01*
X644828Y424496D01*
X643744Y425264D01*
X642641Y426006D01*
X641520Y426721D01*
X640383Y427408D01*
X639229Y428068D01*
X638060Y428700D01*
X636876Y429303D01*
X635677Y429878D01*
X634465Y430424D01*
X633240Y430940D01*
X632003Y431426D01*
X630755Y431882D01*
X629496Y432308D01*
X628227Y432704D01*
X626949Y433068D01*
X625662Y433402D01*
X624368Y433704D01*
X623067Y433975D01*
X621760Y434215D01*
X620447Y434423D01*
X619130Y434599D01*
X617808Y434743D01*
X616484Y434856D01*
X615157Y434936D01*
X613829Y434984D01*
X612500Y435000D01*
X-612500Y435000D01*
X-613829Y434984D01*
X-615157Y434936D01*
X-616484Y434856D01*
X-617808Y434743D01*
X-619130Y434599D01*
X-620447Y434423D01*
X-621760Y434215D01*
X-623067Y433975D01*
X-624368Y433704D01*
X-625662Y433402D01*
X-626949Y433068D01*
X-628227Y432704D01*
X-629496Y432308D01*
X-630755Y431882D01*
X-632003Y431426D01*
X-633240Y430940D01*
X-634465Y430424D01*
X-635677Y429878D01*
X-636876Y429303D01*
X-638060Y428700D01*
X-639229Y428068D01*
X-640383Y427408D01*
X-641520Y426721D01*
X-642641Y426006D01*
X-643744Y425264D01*
X-644828Y424496D01*
X-645894Y423702D01*
X-646940Y422882D01*
X-647966Y422037D01*
X-648972Y421168D01*
X-649956Y420275D01*
X-650918Y419358D01*
X-651858Y418418D01*
X-652775Y417456D01*
X-653668Y416472D01*
X-654537Y415466D01*
X-655382Y414440D01*
X-656202Y413394D01*
X-656996Y412328D01*
X-657764Y411244D01*
X-658506Y410141D01*
X-659221Y409020D01*
X-659908Y407883D01*
X-660568Y406729D01*
X-661200Y405560D01*
X-661803Y404376D01*
X-662378Y403177D01*
X-662924Y401965D01*
X-663440Y400740D01*
X-663926Y399503D01*
X-664382Y398255D01*
X-664808Y396996D01*
X-665204Y395727D01*
X-665568Y394449D01*
X-665902Y393162D01*
X-666204Y391868D01*
X-666475Y390567D01*
X-666715Y389260D01*
X-666923Y387947D01*
X-667099Y386630D01*
X-667243Y385308D01*
X-667356Y383984D01*
X-667436Y382657D01*
X-667484Y381329D01*
X-667500Y380000D01*
X-667500Y295000D01*
X-870000Y295000D01*
X-871329Y294984D01*
X-872657Y294936D01*
X-873984Y294856D01*
X-875308Y294743D01*
X-876630Y294599D01*
X-877947Y294423D01*
X-879260Y294215D01*
X-880567Y293975D01*
X-881868Y293704D01*
X-883162Y293402D01*
X-884449Y293068D01*
X-885727Y292704D01*
X-886996Y292308D01*
X-888255Y291882D01*
X-889503Y291426D01*
X-890740Y290940D01*
X-891965Y290424D01*
X-893177Y289878D01*
X-894376Y289303D01*
X-895560Y288700D01*
X-896729Y288068D01*
X-897883Y287408D01*
X-899020Y286721D01*
X-900141Y286006D01*
X-901244Y285264D01*
X-902328Y284496D01*
X-903394Y283702D01*
X-904440Y282882D01*
X-905466Y282037D01*
X-906472Y281168D01*
X-907456Y280275D01*
X-908418Y279358D01*
X-909358Y278418D01*
X-910275Y277456D01*
X-911168Y276472D01*
X-912037Y275466D01*
X-912882Y274440D01*
X-913702Y273394D01*
X-914496Y272328D01*
X-915264Y271244D01*
X-916006Y270141D01*
X-916721Y269020D01*
X-917408Y267883D01*
X-918068Y266729D01*
X-918700Y265560D01*
X-919303Y264376D01*
X-919878Y263177D01*
X-920424Y261965D01*
X-920940Y260740D01*
X-921426Y259503D01*
X-921882Y258255D01*
X-922308Y256996D01*
X-922704Y255727D01*
X-923068Y254449D01*
X-923402Y253162D01*
X-923704Y251868D01*
X-923975Y250567D01*
X-924215Y249260D01*
X-924423Y247947D01*
X-924599Y246630D01*
X-924743Y245308D01*
X-924856Y243984D01*
X-924936Y242657D01*
X-924984Y241329D01*
X-925000Y240000D01*
X-925000Y-240000D01*
X-924984Y-241329D01*
X-924936Y-242657D01*
X-924856Y-243984D01*
X-924743Y-245308D01*
X-924599Y-246630D01*
X-924423Y-247947D01*
X-924215Y-249260D01*
X-923975Y-250567D01*
X-923704Y-251868D01*
X-923402Y-253162D01*
X-923068Y-254449D01*
X-922704Y-255727D01*
X-922308Y-256996D01*
X-921882Y-258255D01*
X-921426Y-259503D01*
X-920940Y-260740D01*
X-920424Y-261965D01*
X-919878Y-263177D01*
X-919303Y-264376D01*
X-918700Y-265560D01*
X-918068Y-266729D01*
X-917408Y-267883D01*
X-916721Y-269020D01*
X-916006Y-270141D01*
X-915264Y-271244D01*
X-914496Y-272328D01*
X-913702Y-273394D01*
X-912882Y-274440D01*
X-912037Y-275466D01*
X-911168Y-276472D01*
X-910275Y-277456D01*
X-909358Y-278418D01*
X-908418Y-279358D01*
X-907456Y-280275D01*
X-906472Y-281168D01*
X-905466Y-282037D01*
X-904440Y-282882D01*
X-903394Y-283702D01*
X-902328Y-284496D01*
X-901244Y-285264D01*
X-900141Y-286006D01*
X-899020Y-286721D01*
X-897883Y-287408D01*
X-896729Y-288068D01*
X-895560Y-288700D01*
X-894376Y-289303D01*
X-893177Y-289878D01*
X-891965Y-290424D01*
X-890740Y-290940D01*
X-889503Y-291426D01*
X-888255Y-291882D01*
X-886996Y-292308D01*
X-885727Y-292704D01*
X-884449Y-293068D01*
X-883162Y-293402D01*
X-881868Y-293704D01*
X-880567Y-293975D01*
X-879260Y-294215D01*
X-877947Y-294423D01*
X-876630Y-294599D01*
X-875308Y-294743D01*
X-873984Y-294856D01*
X-872657Y-294936D01*
X-871329Y-294984D01*
X-870000Y-295000D01*
X-667500Y-295000D01*
X-667500Y-380000D01*
X-667484Y-381329D01*
X-667436Y-382657D01*
X-667356Y-383984D01*
X-667243Y-385308D01*
X-667099Y-386630D01*
X-666923Y-387947D01*
X-666715Y-389260D01*
X-666475Y-390567D01*
X-666204Y-391868D01*
X-665902Y-393162D01*
X-665568Y-394449D01*
X-665204Y-395727D01*
X-664808Y-396996D01*
X-664382Y-398255D01*
X-663926Y-399503D01*
X-663440Y-400740D01*
X-662924Y-401965D01*
X-662378Y-403177D01*
X-661803Y-404376D01*
X-661200Y-405560D01*
X-660568Y-406729D01*
X-659908Y-407883D01*
X-659221Y-409020D01*
X-658506Y-410141D01*
X-657764Y-411244D01*
X-656996Y-412328D01*
X-656202Y-413394D01*
X-655382Y-414440D01*
X-654537Y-415466D01*
X-653668Y-416472D01*
X-652775Y-417456D01*
X-651858Y-418418D01*
X-650918Y-419358D01*
X-649956Y-420275D01*
X-648972Y-421168D01*
X-647966Y-422037D01*
X-646940Y-422882D01*
X-645894Y-423702D01*
X-644828Y-424496D01*
X-643744Y-425264D01*
X-642641Y-426006D01*
X-641520Y-426721D01*
X-640383Y-427408D01*
X-639229Y-428068D01*
X-638060Y-428700D01*
X-636876Y-429303D01*
X-635677Y-429878D01*
X-634465Y-430424D01*
X-633240Y-430940D01*
X-632003Y-431426D01*
X-630755Y-431882D01*
X-629496Y-432308D01*
X-628227Y-432704D01*
X-626949Y-433068D01*
X-625662Y-433402D01*
X-624368Y-433704D01*
X-623067Y-433975D01*
X-621760Y-434215D01*
X-620447Y-434423D01*
X-619130Y-434599D01*
X-617808Y-434743D01*
X-616484Y-434856D01*
X-615157Y-434936D01*
X-613829Y-434984D01*
X-612500Y-435000D01*
X-35000Y-435000D01*
X35000Y-435000D02*
X612500Y-435000D01*
D13*
X711250Y330500D02*
X711250Y401650D01*
X711250Y447060D02*
X858750Y447060D01*
X858750Y401650D02*
X858750Y330500D01*
X841980Y315690D02*
X814500Y315690D01*
X711250Y431040D02*
X711250Y447060D01*
X858750Y447060D02*
X858750Y431040D01*
X807771Y301980D02*
X807773Y302017D01*
X807779Y302053D01*
X807789Y302088D01*
X807802Y302122D01*
X807820Y302155D01*
X807840Y302185D01*
X807864Y302213D01*
X807891Y302238D01*
X807920Y302261D01*
X807951Y302280D01*
X807985Y302295D01*
X808019Y302307D01*
X808055Y302315D01*
X808092Y302319D01*
X808128Y302319D01*
X808165Y302315D01*
X808201Y302307D01*
X808235Y302295D01*
X808269Y302280D01*
X808300Y302261D01*
X808329Y302238D01*
X808356Y302213D01*
X808380Y302185D01*
X808400Y302155D01*
X808418Y302122D01*
X808431Y302088D01*
X808441Y302053D01*
X808447Y302017D01*
X808449Y301980D01*
X808447Y301943D01*
X808441Y301907D01*
X808431Y301872D01*
X808418Y301838D01*
X808400Y301805D01*
X808380Y301775D01*
X808356Y301747D01*
X808329Y301722D01*
X808300Y301699D01*
X808269Y301680D01*
X808235Y301665D01*
X808201Y301653D01*
X808165Y301645D01*
X808128Y301641D01*
X808092Y301641D01*
X808055Y301645D01*
X808019Y301653D01*
X807985Y301665D01*
X807951Y301680D01*
X807920Y301699D01*
X807891Y301722D01*
X807864Y301747D01*
X807840Y301775D01*
X807820Y301805D01*
X807802Y301838D01*
X807789Y301872D01*
X807779Y301907D01*
X807773Y301943D01*
X807771Y301980D01*
X16750Y-419250D02*
X16750Y-442500D01*
X16750Y-419250D02*
X33250Y-419250D01*
X33250Y-442500D01*
X-33250Y-442500D02*
X-33250Y-419250D01*
X-16750Y-419250D01*
X-16750Y-442500D01*
X-8250Y-442500D02*
X-8250Y-419250D01*
X8250Y-419250D01*
X8250Y-442500D01*
D14*
X809500Y-144500D02*
X809500Y-95500D01*
X760500Y-95500D02*
X760500Y-144500D01*
D15*
X555400Y-322300D02*
X555400Y-347400D01*
X545400Y-309600D02*
X514600Y-309600D01*
X504600Y-322600D02*
X504600Y-347400D01*
X514600Y-360400D02*
X545400Y-360400D01*
X517300Y-335000D02*
X517304Y-334688D01*
X517315Y-334377D01*
X517334Y-334066D01*
X517361Y-333755D01*
X517396Y-333445D01*
X517437Y-333137D01*
X517487Y-332829D01*
X517544Y-332522D01*
X517609Y-332217D01*
X517681Y-331914D01*
X517760Y-331613D01*
X517847Y-331313D01*
X517941Y-331016D01*
X518042Y-330721D01*
X518151Y-330429D01*
X518267Y-330140D01*
X518390Y-329853D01*
X518519Y-329570D01*
X518656Y-329290D01*
X518800Y-329013D01*
X518950Y-328740D01*
X519107Y-328471D01*
X519270Y-328206D01*
X519440Y-327944D01*
X519617Y-327687D01*
X519799Y-327435D01*
X519988Y-327187D01*
X520183Y-326943D01*
X520383Y-326705D01*
X520590Y-326471D01*
X520802Y-326243D01*
X521020Y-326020D01*
X521243Y-325802D01*
X521471Y-325590D01*
X521705Y-325383D01*
X521943Y-325183D01*
X522187Y-324988D01*
X522435Y-324799D01*
X522687Y-324617D01*
X522944Y-324440D01*
X523206Y-324270D01*
X523471Y-324107D01*
X523740Y-323950D01*
X524013Y-323800D01*
X524290Y-323656D01*
X524570Y-323519D01*
X524853Y-323390D01*
X525140Y-323267D01*
X525429Y-323151D01*
X525721Y-323042D01*
X526016Y-322941D01*
X526313Y-322847D01*
X526613Y-322760D01*
X526914Y-322681D01*
X527217Y-322609D01*
X527522Y-322544D01*
X527829Y-322487D01*
X528137Y-322437D01*
X528445Y-322396D01*
X528755Y-322361D01*
X529066Y-322334D01*
X529377Y-322315D01*
X529688Y-322304D01*
X530000Y-322300D01*
X530312Y-322304D01*
X530623Y-322315D01*
X530934Y-322334D01*
X531245Y-322361D01*
X531555Y-322396D01*
X531863Y-322437D01*
X532171Y-322487D01*
X532478Y-322544D01*
X532783Y-322609D01*
X533086Y-322681D01*
X533387Y-322760D01*
X533687Y-322847D01*
X533984Y-322941D01*
X534279Y-323042D01*
X534571Y-323151D01*
X534860Y-323267D01*
X535147Y-323390D01*
X535430Y-323519D01*
X535710Y-323656D01*
X535987Y-323800D01*
X536260Y-323950D01*
X536529Y-324107D01*
X536794Y-324270D01*
X537056Y-324440D01*
X537313Y-324617D01*
X537565Y-324799D01*
X537813Y-324988D01*
X538057Y-325183D01*
X538295Y-325383D01*
X538529Y-325590D01*
X538757Y-325802D01*
X538980Y-326020D01*
X539198Y-326243D01*
X539410Y-326471D01*
X539617Y-326705D01*
X539817Y-326943D01*
X540012Y-327187D01*
X540201Y-327435D01*
X540383Y-327687D01*
X540560Y-327944D01*
X540730Y-328206D01*
X540893Y-328471D01*
X541050Y-328740D01*
X541200Y-329013D01*
X541344Y-329290D01*
X541481Y-329570D01*
X541610Y-329853D01*
X541733Y-330140D01*
X541849Y-330429D01*
X541958Y-330721D01*
X542059Y-331016D01*
X542153Y-331313D01*
X542240Y-331613D01*
X542319Y-331914D01*
X542391Y-332217D01*
X542456Y-332522D01*
X542513Y-332829D01*
X542563Y-333137D01*
X542604Y-333445D01*
X542639Y-333755D01*
X542666Y-334066D01*
X542685Y-334377D01*
X542696Y-334688D01*
X542700Y-335000D01*
X542696Y-335312D01*
X542685Y-335623D01*
X542666Y-335934D01*
X542639Y-336245D01*
X542604Y-336555D01*
X542563Y-336863D01*
X542513Y-337171D01*
X542456Y-337478D01*
X542391Y-337783D01*
X542319Y-338086D01*
X542240Y-338387D01*
X542153Y-338687D01*
X542059Y-338984D01*
X541958Y-339279D01*
X541849Y-339571D01*
X541733Y-339860D01*
X541610Y-340147D01*
X541481Y-340430D01*
X541344Y-340710D01*
X541200Y-340987D01*
X541050Y-341260D01*
X540893Y-341529D01*
X540730Y-341794D01*
X540560Y-342056D01*
X540383Y-342313D01*
X540201Y-342565D01*
X540012Y-342813D01*
X539817Y-343057D01*
X539617Y-343295D01*
X539410Y-343529D01*
X539198Y-343757D01*
X538980Y-343980D01*
X538757Y-344198D01*
X538529Y-344410D01*
X538295Y-344617D01*
X538057Y-344817D01*
X537813Y-345012D01*
X537565Y-345201D01*
X537313Y-345383D01*
X537056Y-345560D01*
X536794Y-345730D01*
X536529Y-345893D01*
X536260Y-346050D01*
X535987Y-346200D01*
X535710Y-346344D01*
X535430Y-346481D01*
X535147Y-346610D01*
X534860Y-346733D01*
X534571Y-346849D01*
X534279Y-346958D01*
X533984Y-347059D01*
X533687Y-347153D01*
X533387Y-347240D01*
X533086Y-347319D01*
X532783Y-347391D01*
X532478Y-347456D01*
X532171Y-347513D01*
X531863Y-347563D01*
X531555Y-347604D01*
X531245Y-347639D01*
X530934Y-347666D01*
X530623Y-347685D01*
X530312Y-347696D01*
X530000Y-347700D01*
X529688Y-347696D01*
X529377Y-347685D01*
X529066Y-347666D01*
X528755Y-347639D01*
X528445Y-347604D01*
X528137Y-347563D01*
X527829Y-347513D01*
X527522Y-347456D01*
X527217Y-347391D01*
X526914Y-347319D01*
X526613Y-347240D01*
X526313Y-347153D01*
X526016Y-347059D01*
X525721Y-346958D01*
X525429Y-346849D01*
X525140Y-346733D01*
X524853Y-346610D01*
X524570Y-346481D01*
X524290Y-346344D01*
X524013Y-346200D01*
X523740Y-346050D01*
X523471Y-345893D01*
X523206Y-345730D01*
X522944Y-345560D01*
X522687Y-345383D01*
X522435Y-345201D01*
X522187Y-345012D01*
X521943Y-344817D01*
X521705Y-344617D01*
X521471Y-344410D01*
X521243Y-344198D01*
X521020Y-343980D01*
X520802Y-343757D01*
X520590Y-343529D01*
X520383Y-343295D01*
X520183Y-343057D01*
X519988Y-342813D01*
X519799Y-342565D01*
X519617Y-342313D01*
X519440Y-342056D01*
X519270Y-341794D01*
X519107Y-341529D01*
X518950Y-341260D01*
X518800Y-340987D01*
X518656Y-340710D01*
X518519Y-340430D01*
X518390Y-340147D01*
X518267Y-339860D01*
X518151Y-339571D01*
X518042Y-339279D01*
X517941Y-338984D01*
X517847Y-338687D01*
X517760Y-338387D01*
X517681Y-338086D01*
X517609Y-337783D01*
X517544Y-337478D01*
X517487Y-337171D01*
X517437Y-336863D01*
X517396Y-336555D01*
X517361Y-336245D01*
X517334Y-335934D01*
X517315Y-335623D01*
X517304Y-335312D01*
X517300Y-335000D01*
D14*
X313200Y-415000D02*
X270800Y-415000D01*
X270800Y-250000D01*
X313200Y-250000D01*
X336500Y-379500D02*
X336544Y-379502D01*
X336587Y-379508D01*
X336629Y-379517D01*
X336671Y-379530D01*
X336711Y-379547D01*
X336750Y-379567D01*
X336787Y-379590D01*
X336821Y-379617D01*
X336854Y-379646D01*
X336883Y-379679D01*
X336910Y-379713D01*
X336933Y-379750D01*
X336953Y-379789D01*
X336970Y-379829D01*
X336983Y-379871D01*
X336992Y-379913D01*
X336998Y-379956D01*
X337000Y-380000D01*
X336998Y-380044D01*
X336992Y-380087D01*
X336983Y-380129D01*
X336970Y-380171D01*
X336953Y-380211D01*
X336933Y-380250D01*
X336910Y-380287D01*
X336883Y-380321D01*
X336854Y-380354D01*
X336821Y-380383D01*
X336787Y-380410D01*
X336750Y-380433D01*
X336711Y-380453D01*
X336671Y-380470D01*
X336629Y-380483D01*
X336587Y-380492D01*
X336544Y-380498D01*
X336500Y-380500D01*
X336456Y-380498D01*
X336413Y-380492D01*
X336371Y-380483D01*
X336329Y-380470D01*
X336289Y-380453D01*
X336250Y-380433D01*
X336213Y-380410D01*
X336179Y-380383D01*
X336146Y-380354D01*
X336117Y-380321D01*
X336090Y-380287D01*
X336067Y-380250D01*
X336047Y-380211D01*
X336030Y-380171D01*
X336017Y-380129D01*
X336008Y-380087D01*
X336002Y-380044D01*
X336000Y-380000D01*
X336002Y-379956D01*
X336008Y-379913D01*
X336017Y-379871D01*
X336030Y-379829D01*
X336047Y-379789D01*
X336067Y-379750D01*
X336090Y-379713D01*
X336117Y-379679D01*
X336146Y-379646D01*
X336179Y-379617D01*
X336213Y-379590D01*
X336250Y-379567D01*
X336289Y-379547D01*
X336329Y-379530D01*
X336371Y-379517D01*
X336413Y-379508D01*
X336456Y-379502D01*
X336500Y-379500D01*
D15*
X-759600Y-132400D02*
X-759600Y-107300D01*
X-769600Y-94600D02*
X-800400Y-94600D01*
X-810400Y-107600D02*
X-810400Y-132400D01*
X-800400Y-145400D02*
X-769600Y-145400D01*
X-797700Y-120000D02*
X-797696Y-119688D01*
X-797685Y-119377D01*
X-797666Y-119066D01*
X-797639Y-118755D01*
X-797604Y-118445D01*
X-797563Y-118137D01*
X-797513Y-117829D01*
X-797456Y-117522D01*
X-797391Y-117217D01*
X-797319Y-116914D01*
X-797240Y-116613D01*
X-797153Y-116313D01*
X-797059Y-116016D01*
X-796958Y-115721D01*
X-796849Y-115429D01*
X-796733Y-115140D01*
X-796610Y-114853D01*
X-796481Y-114570D01*
X-796344Y-114290D01*
X-796200Y-114013D01*
X-796050Y-113740D01*
X-795893Y-113471D01*
X-795730Y-113206D01*
X-795560Y-112944D01*
X-795383Y-112687D01*
X-795201Y-112435D01*
X-795012Y-112187D01*
X-794817Y-111943D01*
X-794617Y-111705D01*
X-794410Y-111471D01*
X-794198Y-111243D01*
X-793980Y-111020D01*
X-793757Y-110802D01*
X-793529Y-110590D01*
X-793295Y-110383D01*
X-793057Y-110183D01*
X-792813Y-109988D01*
X-792565Y-109799D01*
X-792313Y-109617D01*
X-792056Y-109440D01*
X-791794Y-109270D01*
X-791529Y-109107D01*
X-791260Y-108950D01*
X-790987Y-108800D01*
X-790710Y-108656D01*
X-790430Y-108519D01*
X-790147Y-108390D01*
X-789860Y-108267D01*
X-789571Y-108151D01*
X-789279Y-108042D01*
X-788984Y-107941D01*
X-788687Y-107847D01*
X-788387Y-107760D01*
X-788086Y-107681D01*
X-787783Y-107609D01*
X-787478Y-107544D01*
X-787171Y-107487D01*
X-786863Y-107437D01*
X-786555Y-107396D01*
X-786245Y-107361D01*
X-785934Y-107334D01*
X-785623Y-107315D01*
X-785312Y-107304D01*
X-785000Y-107300D01*
X-784688Y-107304D01*
X-784377Y-107315D01*
X-784066Y-107334D01*
X-783755Y-107361D01*
X-783445Y-107396D01*
X-783137Y-107437D01*
X-782829Y-107487D01*
X-782522Y-107544D01*
X-782217Y-107609D01*
X-781914Y-107681D01*
X-781613Y-107760D01*
X-781313Y-107847D01*
X-781016Y-107941D01*
X-780721Y-108042D01*
X-780429Y-108151D01*
X-780140Y-108267D01*
X-779853Y-108390D01*
X-779570Y-108519D01*
X-779290Y-108656D01*
X-779013Y-108800D01*
X-778740Y-108950D01*
X-778471Y-109107D01*
X-778206Y-109270D01*
X-777944Y-109440D01*
X-777687Y-109617D01*
X-777435Y-109799D01*
X-777187Y-109988D01*
X-776943Y-110183D01*
X-776705Y-110383D01*
X-776471Y-110590D01*
X-776243Y-110802D01*
X-776020Y-111020D01*
X-775802Y-111243D01*
X-775590Y-111471D01*
X-775383Y-111705D01*
X-775183Y-111943D01*
X-774988Y-112187D01*
X-774799Y-112435D01*
X-774617Y-112687D01*
X-774440Y-112944D01*
X-774270Y-113206D01*
X-774107Y-113471D01*
X-773950Y-113740D01*
X-773800Y-114013D01*
X-773656Y-114290D01*
X-773519Y-114570D01*
X-773390Y-114853D01*
X-773267Y-115140D01*
X-773151Y-115429D01*
X-773042Y-115721D01*
X-772941Y-116016D01*
X-772847Y-116313D01*
X-772760Y-116613D01*
X-772681Y-116914D01*
X-772609Y-117217D01*
X-772544Y-117522D01*
X-772487Y-117829D01*
X-772437Y-118137D01*
X-772396Y-118445D01*
X-772361Y-118755D01*
X-772334Y-119066D01*
X-772315Y-119377D01*
X-772304Y-119688D01*
X-772300Y-120000D01*
X-772304Y-120312D01*
X-772315Y-120623D01*
X-772334Y-120934D01*
X-772361Y-121245D01*
X-772396Y-121555D01*
X-772437Y-121863D01*
X-772487Y-122171D01*
X-772544Y-122478D01*
X-772609Y-122783D01*
X-772681Y-123086D01*
X-772760Y-123387D01*
X-772847Y-123687D01*
X-772941Y-123984D01*
X-773042Y-124279D01*
X-773151Y-124571D01*
X-773267Y-124860D01*
X-773390Y-125147D01*
X-773519Y-125430D01*
X-773656Y-125710D01*
X-773800Y-125987D01*
X-773950Y-126260D01*
X-774107Y-126529D01*
X-774270Y-126794D01*
X-774440Y-127056D01*
X-774617Y-127313D01*
X-774799Y-127565D01*
X-774988Y-127813D01*
X-775183Y-128057D01*
X-775383Y-128295D01*
X-775590Y-128529D01*
X-775802Y-128757D01*
X-776020Y-128980D01*
X-776243Y-129198D01*
X-776471Y-129410D01*
X-776705Y-129617D01*
X-776943Y-129817D01*
X-777187Y-130012D01*
X-777435Y-130201D01*
X-777687Y-130383D01*
X-777944Y-130560D01*
X-778206Y-130730D01*
X-778471Y-130893D01*
X-778740Y-131050D01*
X-779013Y-131200D01*
X-779290Y-131344D01*
X-779570Y-131481D01*
X-779853Y-131610D01*
X-780140Y-131733D01*
X-780429Y-131849D01*
X-780721Y-131958D01*
X-781016Y-132059D01*
X-781313Y-132153D01*
X-781613Y-132240D01*
X-781914Y-132319D01*
X-782217Y-132391D01*
X-782522Y-132456D01*
X-782829Y-132513D01*
X-783137Y-132563D01*
X-783445Y-132604D01*
X-783755Y-132639D01*
X-784066Y-132666D01*
X-784377Y-132685D01*
X-784688Y-132696D01*
X-785000Y-132700D01*
X-785312Y-132696D01*
X-785623Y-132685D01*
X-785934Y-132666D01*
X-786245Y-132639D01*
X-786555Y-132604D01*
X-786863Y-132563D01*
X-787171Y-132513D01*
X-787478Y-132456D01*
X-787783Y-132391D01*
X-788086Y-132319D01*
X-788387Y-132240D01*
X-788687Y-132153D01*
X-788984Y-132059D01*
X-789279Y-131958D01*
X-789571Y-131849D01*
X-789860Y-131733D01*
X-790147Y-131610D01*
X-790430Y-131481D01*
X-790710Y-131344D01*
X-790987Y-131200D01*
X-791260Y-131050D01*
X-791529Y-130893D01*
X-791794Y-130730D01*
X-792056Y-130560D01*
X-792313Y-130383D01*
X-792565Y-130201D01*
X-792813Y-130012D01*
X-793057Y-129817D01*
X-793295Y-129617D01*
X-793529Y-129410D01*
X-793757Y-129198D01*
X-793980Y-128980D01*
X-794198Y-128757D01*
X-794410Y-128529D01*
X-794617Y-128295D01*
X-794817Y-128057D01*
X-795012Y-127813D01*
X-795201Y-127565D01*
X-795383Y-127313D01*
X-795560Y-127056D01*
X-795730Y-126794D01*
X-795893Y-126529D01*
X-796050Y-126260D01*
X-796200Y-125987D01*
X-796344Y-125710D01*
X-796481Y-125430D01*
X-796610Y-125147D01*
X-796733Y-124860D01*
X-796849Y-124571D01*
X-796958Y-124279D01*
X-797059Y-123984D01*
X-797153Y-123687D01*
X-797240Y-123387D01*
X-797319Y-123086D01*
X-797391Y-122783D01*
X-797456Y-122478D01*
X-797513Y-122171D01*
X-797563Y-121863D01*
X-797604Y-121555D01*
X-797639Y-121245D01*
X-797666Y-120934D01*
X-797685Y-120623D01*
X-797696Y-120312D01*
X-797700Y-120000D01*
M02*
