G04 EAGLE Gerber RS-274X export*
G75*
%MOMM*%
%FSLAX34Y34*%
%LPD*%
%INSolderpaste Bottom*%
%IPPOS*%
%AMOC8*
5,1,8,0,0,1.08239X$1,22.5*%
G01*
%ADD10R,0.600000X1.400000*%
%ADD11R,1.600000X1.400000*%
%ADD12R,1.200000X2.200000*%
%ADD13R,0.950000X0.950000*%
%ADD14R,4.000000X1.500000*%
%ADD15R,1.524000X0.762000*%
%ADD16R,1.800000X0.275000*%
%ADD17R,3.000000X2.500000*%


D10*
X807500Y314000D03*
X796500Y314000D03*
X785500Y314000D03*
X774500Y314000D03*
X763500Y314000D03*
X752500Y314000D03*
X741500Y314000D03*
X730500Y314000D03*
X719500Y314000D03*
D11*
X702500Y320000D03*
D12*
X707500Y416000D03*
X862500Y416000D03*
D11*
X855000Y320000D03*
D13*
X25000Y-427500D03*
X25000Y-442500D03*
X-25000Y-427500D03*
X-25000Y-442500D03*
X0Y-427500D03*
X0Y-442500D03*
D14*
X785000Y-138000D03*
X785000Y-102000D03*
D15*
X557940Y-315950D03*
X502060Y-315950D03*
X557940Y-354050D03*
X502060Y-354050D03*
D16*
X322200Y-380000D03*
X322200Y-375000D03*
X322200Y-370000D03*
X322200Y-365000D03*
X322200Y-360000D03*
X322200Y-355000D03*
X322200Y-350000D03*
X322200Y-345000D03*
X322200Y-340000D03*
X322200Y-335000D03*
X322200Y-330000D03*
X322200Y-325000D03*
X322200Y-320000D03*
X322200Y-315000D03*
X322200Y-310000D03*
X322200Y-305000D03*
X322200Y-300000D03*
X322200Y-295000D03*
X322200Y-290000D03*
X322200Y-285000D03*
D17*
X300600Y-398300D03*
X300600Y-266700D03*
D15*
X-757060Y-100950D03*
X-812940Y-100950D03*
X-757060Y-139050D03*
X-812940Y-139050D03*
M02*
