G04 EAGLE Gerber RS-274X export*
G75*
%MOMM*%
%FSLAX34Y34*%
%LPD*%
%INSolderpaste Top*%
%IPPOS*%
%AMOC8*
5,1,8,0,0,1.08239X$1,22.5*%
G01*
%ADD10R,0.900000X0.800000*%
%ADD11R,0.800000X0.900000*%
%ADD12R,2.600000X1.900000*%
%ADD13R,1.150000X0.600000*%
%ADD14R,1.600000X1.000000*%
%ADD15R,1.475000X0.275000*%
%ADD16R,0.275000X1.475000*%
%ADD17R,1.150000X0.800000*%
%ADD18R,0.600000X1.150000*%
%ADD19R,0.275000X0.850000*%
%ADD20R,0.850000X0.275000*%
%ADD21R,3.400000X3.400000*%
%ADD22R,1.650000X2.000000*%
%ADD23R,0.600000X2.000000*%
%ADD24R,0.700000X4.200000*%
%ADD25R,0.600000X1.100000*%
%ADD26R,0.300000X1.100000*%
%ADD27C,1.200000*%
%ADD28R,2.000000X0.300000*%
%ADD29R,4.800000X2.000000*%
%ADD30R,1.800000X0.500000*%
%ADD31R,1.780000X1.520000*%
%ADD32R,0.800000X1.350000*%


D10*
X-402500Y127500D03*
X-387500Y127500D03*
X-402500Y2500D03*
X-387500Y2500D03*
D11*
X-330000Y-55000D03*
X-330000Y-40000D03*
X-265000Y-55000D03*
X-265000Y-40000D03*
X-215000Y-55000D03*
X-215000Y-40000D03*
X-160000Y-55000D03*
X-160000Y-40000D03*
D10*
X-107500Y72500D03*
X-122500Y72500D03*
X-107500Y122500D03*
X-122500Y122500D03*
D11*
X-230000Y240000D03*
X-230000Y225000D03*
X-275000Y240000D03*
X-275000Y225000D03*
X-320000Y240000D03*
X-320000Y225000D03*
X-175000Y-55000D03*
X-175000Y-40000D03*
D10*
X-107500Y182500D03*
X-122500Y182500D03*
D11*
X-305000Y240000D03*
X-305000Y225000D03*
D10*
X-402500Y112500D03*
X-387500Y112500D03*
X-402500Y17500D03*
X-387500Y17500D03*
D12*
X-405000Y86500D03*
X-405000Y43500D03*
D11*
X-335000Y240000D03*
X-335000Y225000D03*
D10*
X-402500Y-12500D03*
X-387500Y-12500D03*
X-402500Y-27500D03*
X-387500Y-27500D03*
X-402500Y-42500D03*
X-387500Y-42500D03*
D13*
X673000Y-162000D03*
X673000Y-152500D03*
X673000Y-143000D03*
X647000Y-143000D03*
X647000Y-162000D03*
D11*
X745000Y385000D03*
X745000Y370000D03*
X730000Y385000D03*
X730000Y370000D03*
X820000Y385000D03*
X820000Y370000D03*
X805000Y385000D03*
X805000Y370000D03*
X790000Y385000D03*
X790000Y370000D03*
X760000Y385000D03*
X760000Y370000D03*
X775000Y385000D03*
X775000Y370000D03*
D10*
X-107500Y-32500D03*
X-122500Y-32500D03*
X-107500Y-17500D03*
X-122500Y-17500D03*
X-662500Y197500D03*
X-677500Y197500D03*
X-662500Y92500D03*
X-677500Y92500D03*
X-662500Y182500D03*
X-677500Y182500D03*
X-662500Y132500D03*
X-677500Y132500D03*
X-487500Y157500D03*
X-472500Y157500D03*
X-487500Y107500D03*
X-472500Y107500D03*
X-662500Y-12500D03*
X-677500Y-12500D03*
D11*
X55000Y297500D03*
X55000Y312500D03*
X-55000Y297500D03*
X-55000Y312500D03*
D14*
X35000Y300000D03*
X35000Y330000D03*
X-35000Y300000D03*
X-35000Y330000D03*
D15*
X-362380Y180000D03*
X-362380Y175000D03*
X-362380Y170000D03*
X-362380Y165000D03*
X-362380Y160000D03*
X-362380Y155000D03*
X-362380Y150000D03*
X-362380Y145000D03*
X-362380Y140000D03*
X-362380Y135000D03*
X-362380Y130000D03*
X-362380Y125000D03*
X-362380Y120000D03*
X-362380Y115000D03*
X-362380Y110000D03*
X-362380Y105000D03*
X-362380Y100000D03*
X-362380Y95000D03*
X-362380Y90000D03*
X-362380Y85000D03*
X-362380Y80000D03*
X-362380Y75000D03*
X-362380Y70000D03*
X-362380Y65000D03*
X-362380Y60000D03*
X-362380Y55000D03*
X-362380Y50000D03*
X-362380Y45000D03*
X-362380Y40000D03*
X-362380Y35000D03*
X-362380Y30000D03*
X-362380Y25000D03*
X-362380Y20000D03*
X-362380Y15000D03*
X-362380Y10000D03*
X-362380Y5000D03*
D16*
X-342500Y-14880D03*
X-337500Y-14880D03*
X-332500Y-14880D03*
X-327500Y-14880D03*
X-322500Y-14880D03*
X-317500Y-14880D03*
X-312500Y-14880D03*
X-307500Y-14880D03*
X-302500Y-14880D03*
X-297500Y-14880D03*
X-292500Y-14880D03*
X-287500Y-14880D03*
X-282500Y-14880D03*
X-277500Y-14880D03*
X-272500Y-14880D03*
X-267500Y-14880D03*
X-262500Y-14880D03*
X-257500Y-14880D03*
X-252500Y-14880D03*
X-247500Y-14880D03*
X-242500Y-14880D03*
X-237500Y-14880D03*
X-232500Y-14880D03*
X-227500Y-14880D03*
X-222500Y-14880D03*
X-217500Y-14880D03*
X-212500Y-14880D03*
X-207500Y-14880D03*
X-202500Y-14880D03*
X-197500Y-14880D03*
X-192500Y-14880D03*
X-187500Y-14880D03*
X-182500Y-14880D03*
X-177500Y-14880D03*
X-172500Y-14880D03*
X-167500Y-14880D03*
D15*
X-147620Y5000D03*
X-147620Y10000D03*
X-147620Y15000D03*
X-147620Y20000D03*
X-147620Y25000D03*
X-147620Y30000D03*
X-147620Y35000D03*
X-147620Y40000D03*
X-147620Y45000D03*
X-147620Y50000D03*
X-147620Y55000D03*
X-147620Y60000D03*
X-147620Y65000D03*
X-147620Y70000D03*
X-147620Y75000D03*
X-147620Y80000D03*
X-147620Y85000D03*
X-147620Y90000D03*
X-147620Y95000D03*
X-147620Y100000D03*
X-147620Y105000D03*
X-147620Y110000D03*
X-147620Y115000D03*
X-147620Y120000D03*
X-147620Y125000D03*
X-147620Y130000D03*
X-147620Y135000D03*
X-147620Y140000D03*
X-147620Y145000D03*
X-147620Y150000D03*
X-147620Y155000D03*
X-147620Y160000D03*
X-147620Y165000D03*
X-147620Y170000D03*
X-147620Y175000D03*
X-147620Y180000D03*
D16*
X-167500Y199880D03*
X-172500Y199880D03*
X-177500Y199880D03*
X-182500Y199880D03*
X-187500Y199880D03*
X-192500Y199880D03*
X-197500Y199880D03*
X-202500Y199880D03*
X-207500Y199880D03*
X-212500Y199880D03*
X-217500Y199880D03*
X-222500Y199880D03*
X-227500Y199880D03*
X-232500Y199880D03*
X-237500Y199880D03*
X-242500Y199880D03*
X-247500Y199880D03*
X-252500Y199880D03*
X-257500Y199880D03*
X-262500Y199880D03*
X-267500Y199880D03*
X-272500Y199880D03*
X-277500Y199880D03*
X-282500Y199880D03*
X-287500Y199880D03*
X-292500Y199880D03*
X-297500Y199880D03*
X-302500Y199880D03*
X-307500Y199880D03*
X-312500Y199880D03*
X-317500Y199880D03*
X-322500Y199880D03*
X-327500Y199880D03*
X-332500Y199880D03*
X-337500Y199880D03*
X-342500Y199880D03*
D10*
X-107500Y27500D03*
X-122500Y27500D03*
X-107500Y42500D03*
X-122500Y42500D03*
X-107500Y57500D03*
X-122500Y57500D03*
D11*
X-350000Y240000D03*
X-350000Y225000D03*
D10*
X-402500Y142500D03*
X-387500Y142500D03*
D17*
X677500Y-97500D03*
X642500Y-97500D03*
D11*
X600000Y-90000D03*
X600000Y-105000D03*
X615000Y-90000D03*
X615000Y-105000D03*
X600000Y-145000D03*
X600000Y-160000D03*
X585000Y-145000D03*
X585000Y-160000D03*
X615000Y-145000D03*
X615000Y-160000D03*
X-260000Y240000D03*
X-260000Y225000D03*
X585000Y-90000D03*
X585000Y-105000D03*
D18*
X9500Y328000D03*
X0Y328000D03*
X-9500Y328000D03*
X-9500Y302000D03*
X9500Y302000D03*
D11*
X835000Y385000D03*
X835000Y370000D03*
D18*
X-284500Y339500D03*
X-275000Y339500D03*
X-265500Y339500D03*
X-265500Y365500D03*
X-284500Y365500D03*
X-199500Y339500D03*
X-190000Y339500D03*
X-180500Y339500D03*
X-180500Y365500D03*
X-199500Y365500D03*
D11*
X-155000Y360000D03*
X-155000Y345000D03*
X-225000Y360000D03*
X-225000Y345000D03*
D10*
X-387500Y302500D03*
X-372500Y302500D03*
D11*
X-310000Y360000D03*
X-310000Y345000D03*
X-140000Y360000D03*
X-140000Y345000D03*
X-240000Y360000D03*
X-240000Y345000D03*
D10*
X-387500Y317500D03*
X-372500Y317500D03*
D11*
X-325000Y360000D03*
X-325000Y345000D03*
D10*
X-387500Y342500D03*
X-372500Y342500D03*
X-387500Y287500D03*
X-372500Y287500D03*
D19*
X-487500Y318000D03*
X-482500Y318000D03*
X-477500Y318000D03*
X-472500Y318000D03*
X-467500Y318000D03*
X-462500Y318000D03*
X-457500Y318000D03*
X-452500Y318000D03*
D20*
X-445500Y325000D03*
X-445500Y330000D03*
X-445500Y335000D03*
X-445500Y340000D03*
X-445500Y345000D03*
X-445500Y350000D03*
X-445500Y355000D03*
X-445500Y360000D03*
D19*
X-452500Y367000D03*
X-457500Y367000D03*
X-462500Y367000D03*
X-467500Y367000D03*
X-472500Y367000D03*
X-477500Y367000D03*
X-482500Y367000D03*
X-487500Y367000D03*
D20*
X-494500Y360000D03*
X-494500Y355000D03*
X-494500Y350000D03*
X-494500Y345000D03*
X-494500Y340000D03*
X-494500Y335000D03*
X-494500Y330000D03*
X-494500Y325000D03*
D21*
X-470000Y342500D03*
D10*
X-372500Y357500D03*
X-387500Y357500D03*
X-372500Y372500D03*
X-387500Y372500D03*
X-572500Y342500D03*
X-557500Y342500D03*
X-572500Y357500D03*
X-557500Y357500D03*
X-557500Y317500D03*
X-572500Y317500D03*
X-557500Y302500D03*
X-572500Y302500D03*
X-557500Y372500D03*
X-572500Y372500D03*
D22*
X-745250Y421000D03*
X-745250Y349000D03*
X-745250Y391000D03*
X-824750Y349000D03*
X-824750Y391000D03*
X-768750Y-421000D03*
X-768750Y-349000D03*
X-768750Y-391000D03*
X-689250Y-349000D03*
X-689250Y-391000D03*
X-903750Y-421000D03*
X-903750Y-349000D03*
X-903750Y-391000D03*
X-824250Y-349000D03*
X-824250Y-391000D03*
D23*
X425000Y397500D03*
X415000Y397500D03*
X405000Y397500D03*
X395000Y397500D03*
X385000Y397500D03*
X375000Y397500D03*
D24*
X435000Y418500D03*
X365000Y418500D03*
D25*
X32000Y407500D03*
X24000Y407500D03*
D26*
X12500Y407500D03*
X2500Y407500D03*
X-2500Y407500D03*
X-12500Y407500D03*
D25*
X-24000Y407500D03*
X-32000Y407500D03*
D26*
X-17500Y407500D03*
X-7500Y407500D03*
X7500Y407500D03*
X17500Y407500D03*
D27*
X56200Y415000D02*
X56200Y423000D01*
X-56200Y423000D02*
X-56200Y415000D01*
X56200Y453000D02*
X56200Y465000D01*
X-56200Y465000D02*
X-56200Y453000D01*
D28*
X37000Y-22500D03*
X37000Y-17500D03*
X37000Y-12500D03*
X37000Y-7500D03*
X37000Y-2500D03*
X37000Y2500D03*
X37000Y7500D03*
X37000Y12500D03*
X37000Y17500D03*
X37000Y22500D03*
X37000Y27500D03*
X37000Y32500D03*
X37000Y37500D03*
X37000Y42500D03*
X37000Y47500D03*
X37000Y52500D03*
X37000Y57500D03*
X37000Y62500D03*
X37000Y67500D03*
X37000Y72500D03*
X37000Y77500D03*
X37000Y82500D03*
X37000Y87500D03*
X37000Y92500D03*
X37000Y97500D03*
X37000Y102500D03*
X37000Y107500D03*
X37000Y112500D03*
X37000Y117500D03*
X37000Y122500D03*
X37000Y127500D03*
X37000Y132500D03*
X37000Y137500D03*
X37000Y142500D03*
X37000Y147500D03*
X37000Y152500D03*
X37000Y157500D03*
X37000Y162500D03*
X37000Y167500D03*
X37000Y172500D03*
X37000Y177500D03*
X37000Y182500D03*
X37000Y187500D03*
X37000Y192500D03*
X37000Y197500D03*
X37000Y202500D03*
X37000Y207500D03*
X37000Y212500D03*
X37000Y217500D03*
X37000Y222500D03*
D29*
X80000Y-45500D03*
X80000Y245500D03*
D30*
X-635000Y196500D03*
X-635000Y188500D03*
X-635000Y180500D03*
X-635000Y172500D03*
X-635000Y164500D03*
X-635000Y156500D03*
X-635000Y148500D03*
X-635000Y140500D03*
X-635000Y132500D03*
X-635000Y124500D03*
X-635000Y116500D03*
X-635000Y108500D03*
X-635000Y100500D03*
X-635000Y92500D03*
X-635000Y84500D03*
X-635000Y76500D03*
X-635000Y68500D03*
X-635000Y60500D03*
X-635000Y52500D03*
X-635000Y44500D03*
X-635000Y36500D03*
X-635000Y28500D03*
X-635000Y20500D03*
X-635000Y12500D03*
X-635000Y4500D03*
X-635000Y-3500D03*
X-635000Y-11500D03*
X-515000Y-11500D03*
X-515000Y-3500D03*
X-515000Y4500D03*
X-515000Y12500D03*
X-515000Y20500D03*
X-515000Y28500D03*
X-515000Y36500D03*
X-515000Y44500D03*
X-515000Y52500D03*
X-515000Y60500D03*
X-515000Y68500D03*
X-515000Y76500D03*
X-515000Y84500D03*
X-515000Y92500D03*
X-515000Y100500D03*
X-515000Y108500D03*
X-515000Y116500D03*
X-515000Y124500D03*
X-515000Y132500D03*
X-515000Y140500D03*
X-515000Y148500D03*
X-515000Y156500D03*
X-515000Y164500D03*
X-515000Y172500D03*
X-515000Y180500D03*
X-515000Y188500D03*
X-515000Y196500D03*
D11*
X-590000Y-97500D03*
X-590000Y-82500D03*
X-575000Y-97500D03*
X-575000Y-82500D03*
X-560000Y-82500D03*
X-560000Y-97500D03*
D22*
X689250Y-421000D03*
X689250Y-349000D03*
X689250Y-391000D03*
X768750Y-349000D03*
X768750Y-391000D03*
X824250Y-421000D03*
X824250Y-349000D03*
X824250Y-391000D03*
X903750Y-349000D03*
X903750Y-391000D03*
D11*
X355000Y-145000D03*
X355000Y-160000D03*
X340000Y-145000D03*
X340000Y-160000D03*
X325000Y-145000D03*
X325000Y-160000D03*
X310000Y-145000D03*
X310000Y-160000D03*
D31*
X-25400Y-190050D03*
X0Y-190050D03*
X25400Y-190050D03*
X25400Y-99950D03*
X0Y-99950D03*
X-25400Y-99950D03*
D11*
X280000Y-145000D03*
X280000Y-160000D03*
D32*
X210000Y-139800D03*
X210000Y-165200D03*
D11*
X295000Y-145000D03*
X295000Y-160000D03*
X265000Y-145000D03*
X265000Y-160000D03*
X250000Y-145000D03*
X250000Y-160000D03*
M02*
