M48
;GenerationSoftware,Autodesk,EAGLE,9.6.2*%
;CreationDate,2024-11-03T09:26:14Z*%
FMAT,2
ICI,OFF
METRIC,TZ,000.000
T3C0.400
T2C0.900
T1C2.500
%
G90
M71
T1
X-78500Y-23000
X78500Y-23000
X-78500Y23000
X78500Y23000
T2
X73550Y42000
X81550Y42000
T3
X-4099Y11321
X453Y681
X-18147Y13910
X19488Y8460
X40624Y37336
X6400Y-6740
X-15974Y21869
X-14856Y25246
X24600Y36990
X3470Y28170
X1830Y26610
X-8966Y26842
X35110Y41310
X39550Y42350
X-19049Y5189
X-65200Y18856
X-19060Y6046
X-69100Y17260
X-55170Y18850
X-19735Y11540
X-20342Y12146
X-55786Y17260
X-20948Y12752
X-56389Y16651
X-24620Y9150
X-58421Y12179
X-24024Y9766
X-59560Y13760
X-23412Y10368
X-58934Y14346
X-22811Y10979
X-58288Y14912
X-22200Y11580
X-57652Y15488
X-21564Y12156
X-57020Y16070
X-25221Y8539
X-57815Y11572
X-25837Y7943
X-57208Y10966
X-26453Y7347
X-61150Y14050
X-24560Y22654
X-19390Y22710
X-4120Y8750
X1080Y2490
X-23820Y-3080
X-23880Y-4830
X-20060Y-3210
X-20300Y-7410
X-24820Y15580
X-39660Y15430
X-32370Y15840
X-30420Y12150
X-18550Y11180
X-43270Y1820
X-43610Y-3910
X-34340Y570
X-35270Y-3660
X-17690Y13000
X-11820Y22070
X-12990Y8960
X-10980Y10560
X-3000Y23750
X-8500Y10750
X-65330Y10860
X-69000Y9250
X-68500Y3250
X-53670Y15680
X-49040Y8980
X-49780Y14910
X-49660Y17710
X-14190Y-3000
X-20500Y-9750
X8000Y33750
X-16000Y-27750
X16000Y-26000
X-66500Y16250
X-29000Y24250
X-24500Y24250
X-47000Y17750
X12000Y40250
X12500Y33250
X-37660Y13520
X-37000Y23750
X-32500Y28250
X-1500Y37000
X-10Y34420
X4500Y35000
X16000Y-31750
X-41830Y23190
X-37790Y18910
X-78500Y12000
X-78500Y-6000
X63500Y13000
X63500Y0
X-52000Y-34000
X-35000Y-34000
X66000Y-19500
X500Y20500
X6500Y5500
X-430Y6820
X2500Y-5000
X-49000Y4500
X76000Y37000
X83000Y13000
X82500Y-12000
X78500Y6500
X-24820Y13950
X-32170Y13770
X-45000Y19000
X-65500Y-11500
X-16470Y17650
X0Y39000
X-14000Y-14500
X66000Y-25000
X66000Y-30500
X58500Y-30500
X66000Y-37000
X67000Y-40500
X80500Y-37000
X78500Y-43000
X-9000Y1500
X-6000Y1500
X-29500Y1500
X-27940Y-3050
X-26990Y490
X-37530Y15470
X-44620Y720
X-33250Y740
X-42090Y990
X-32010Y-4130
X-27470Y-4010
X-4600Y16670
X-34250Y15900
X-65060Y-1150
X-48760Y19010
X8070Y37730
X29850Y37820
X-1840Y28090
X-9630Y-21000
X-58790Y35070
X-5530Y31220
X38450Y42330
X77500Y38500
X-13205Y17646
X-52870Y-6531
X-61661Y-3149
X18881Y3710
X28500Y-9830
X-5412Y-10050
X-8580Y-10030
X-32000Y22500
X-27500Y22500
X-41400Y-4720
X-43130Y-24840
X-48650Y-18760
X-48620Y-14490
X48015Y-31595
X-34360Y14240
X-45650Y-2740
X-42640Y-2740
X-40760Y16620
X-69750Y21600
X17564Y25480
X20774Y24196
X41200Y36700
X-40750Y18330
X14330Y-3027
X21726Y-6029
X64590Y-12190
X67270Y-12330
X21726Y-5100
X14330Y-2170
X-27980Y-21490
X23028Y-38342
X22946Y-28826
X-27374Y-20884
X23629Y-37731
X23568Y-29418
X-26167Y-19667
X24872Y-36548
X24830Y-30580
X-26773Y-20273
X24251Y-37139
X24194Y-30004
X-26968Y-6932
X10703Y13302
X-27544Y-6296
X10096Y12696
X-28150Y-5690
X9490Y12090
X-28340Y18370
X-1556Y20970
X-2413Y20949
X-27701Y17797
X-3270Y20949
X-28280Y17157
X-3279Y20092
X-27674Y16551
X-3279Y19234
X-28300Y15944
X-3280Y18377
X-27694Y15338
X-3280Y17520
X-28300Y14732
X-18500Y-3310
X-7840Y6261
X-2538Y4638
X-1426Y9654
X-17392Y332
X-7870Y7118
X-3164Y5224
X-2037Y9053
X-18042Y894
X-7900Y7976
X-3804Y5796
X-2650Y8454
X-7930Y8833
X-18754Y1394
X-3180Y6384
X-2630Y7596
X-7930Y9690
X-19370Y1990
X-4110Y9607
X464Y1894
X-3452Y11888
X1059Y75
X-32580Y1350
X-61240Y7650
X-30120Y3740
X-58110Y8491
X-30726Y3134
X-58786Y6890
X-29514Y4346
X-57498Y9092
X-28918Y4962
X-56892Y9698
X-28302Y5558
X-56035Y9767
X-27690Y6160
X-18779Y22109
X-58159Y10201
X-54556Y9176
X-27074Y6756
X-55178Y9767
X-19090Y7760
X-60404Y-272
X-60786Y4614
X-61806Y3684
X-19090Y6903
X-61010Y-878
X-19120Y8618
X-58770Y1405
X-58786Y5366
X-56151Y6278
X-33644Y17500
X-45690Y21119
X-33036Y16896
X-57912Y21119
X-63956Y21124
X-66151Y7709
X-28520Y21400
X-58514Y21730
X-66310Y21140
X-66150Y6850
X-43260Y19178
X-66480Y2060
X-46630Y4700
X-33759Y13629
X-44883Y4671
X-43230Y18320
X-31582Y12208
X-67106Y1474
X-32186Y11599
X-43230Y17463
X-45520Y4095
X-67727Y883
X-32792Y10993
X-43230Y16606
X-45528Y3238
X-68333Y277
X-45527Y2380
X-43230Y15749
X-33403Y10392
X-55990Y1240
X-34260Y10392
X-43210Y14892
X-44670Y2380
X-55369Y649
X-31963Y1947
X-59644Y5370
X-31347Y2543
X-55294Y6244
X37930Y43280
X29000Y38570
X75050Y-11510
X78510Y-8030
X-11680Y1130
X-3246Y-4740
X-3730Y-26740
X-3700Y-16880
X2480Y-40940
X-12537Y1090
X-4103Y-4770
X-4335Y-17457
X-4315Y-27367
X0Y-41020
X-9470Y-692
X-4960Y-4750
X-4920Y-27975
X-4940Y-18065
X-2500Y-41070
X-32393Y493
X-43939Y189
X-42230Y-4180
X-48464Y39026
X-17290Y13870
X-60564Y36670
X-24870Y-18244
X-20813Y-17967
X950Y-5084
X920Y-7008
X-16684Y13264
X-21444Y-17386
X-24894Y-17386
X-59706Y36694
X93Y-5084
X63Y-7008
X-16720Y12406
X-22050Y-16780
X-25490Y-16770
X-59100Y38470
X-764Y-5084
X-794Y-7008
X-14633Y21869
X-12890Y26355
X-12264Y28779
X-13801Y28956
X-50243Y37007
X-43850Y27400
X-12950Y22611
X-11388Y25788
X-11051Y29991
X-13801Y30169
X-51410Y35750
X-42136Y27500
X-13807Y22256
X-12033Y26355
X-11657Y29385
X-13195Y29563
X-50829Y36381
X-42993Y27450
X-22006Y14614
X80500Y37000
X-21385Y15205
X82000Y37000
X70723Y14323
X70501Y12833
X-20748Y15782
X73000Y37000
X69895Y13439
X67981Y15400
X-20112Y16358
X74500Y37000
X74366Y28073
X74310Y29635
X-19476Y16934
X79000Y37000
X-18870Y17540
X70690Y15210
X67344Y15976
X-19360Y14297
X7750Y32150
X6690Y28190
X3470Y26570
X-8360Y26236
X42700Y-5010
X42670Y-8070
X69760Y-16200
X-18490Y-4167
X-1942Y4022
X-8014Y4816
X1200Y9859
X-33980Y-12730
X27324Y-34152
X27320Y-32939
X-34586Y-13336
X26715Y-34755
X26683Y-32363
X-31280Y-7200
X26109Y-35361
X26057Y-31777
X-35838Y-14508
X25483Y-35947
X25456Y-31166
X-33424Y-12074
X83500Y38500
X-29950Y37670
X-31000Y34500
X-44630Y30490
X-34050Y34130
X-41320Y32990
X-55090Y33020
X-53343Y38420
X-35480Y36600
X-36070Y33596
X-47170Y29476
X-21310Y37360
X-22500Y34500
X-45690Y39540
X-40330Y28740
X-31940Y32060
X-54200Y38130
X-53990Y32680
X-50120Y30583
X-47400Y30400
X-10463Y22060
X8079Y-11219
X16907Y1607
X-56384Y-22076
X16564Y-6111
X16534Y-7346
X11044Y-9969
X-90586Y-24650
X-9606Y22050
X8079Y-12076
X16316Y986
X-56990Y-21470
X15707Y-6110
X15677Y-7346
X10186Y-9969
X-91191Y-24043
X-8748Y22050
X9329Y-9969
X15700Y390
X-55778Y-22683
X14850Y-6110
X14820Y-7346
X-89980Y-27110
X-30119Y13007
X-39914Y20794
X-74569Y-27249
X-79976Y-37060
X-30118Y13864
X-39057Y20794
X-75426Y-27604
X-79360Y-41100
X-28852Y12968
X-38200Y20794
X-28245Y12361
X14760Y16950
X10668Y-13620
X-1048Y-13782
X-3095Y-12920
X-34501Y-9859
X-37744Y-9734
X-44002Y-10728
X-71884Y-16770
X21606Y-18650
X6650Y-14226
X-7036Y11376
X-790Y-4226
X-7643Y10770
X-1396Y-3621
X1551Y-8319
X5800Y-13014
X5793Y-14226
X33394Y-17320
X59914Y-27520
X61126Y-27520
X34000Y-20360
X34000Y-16000
X29500Y-14500
X80440Y-39120
X8744Y-15380
X10668Y-15410
X29060Y-17710
X21000Y-13980
X45760Y-21890
X58339Y-21771
X8744Y-16237
X10668Y-16267
X-147Y1293
X-4110Y10464
X-59726Y17080
X-17922Y22140
X-60040Y14850
X-66250Y3970
M30